M48
; DRILL file {KiCad (6.0.6)} date Sun Apr 23 20:47:56 2023
; FORMAT={-:-/ absolute / metric / decimal}
; #@! TF.CreationDate,2023-04-23T20:47:56-02:30
; #@! TF.GenerationSoftware,Kicad,Pcbnew,(6.0.6)
; #@! TF.FileFunction,Plated,1,4,PTH
FMAT,2
METRIC
; #@! TA.AperFunction,Plated,PTH,ComponentDrill
T1C0.300
; #@! TA.AperFunction,Plated,PTH,ViaDrill
T2C0.400
; #@! TA.AperFunction,Plated,PTH,ComponentDrill
T3C0.500
; #@! TA.AperFunction,Plated,PTH,ComponentDrill
T4C0.550
; #@! TA.AperFunction,Plated,PTH,ComponentDrill
T5C0.650
; #@! TA.AperFunction,Plated,PTH,ComponentDrill
T6C0.750
; #@! TA.AperFunction,Plated,PTH,ComponentDrill
T7C0.800
; #@! TA.AperFunction,Plated,PTH,ComponentDrill
T8C1.000
; #@! TA.AperFunction,Plated,PTH,ComponentDrill
T9C1.020
; #@! TA.AperFunction,Plated,PTH,ComponentDrill
T10C1.100
; #@! TA.AperFunction,Plated,PTH,ComponentDrill
T11C1.190
; #@! TA.AperFunction,Plated,PTH,ComponentDrill
T12C3.200
%
G90
G05
T1
X94.6Y-96.11
X94.6Y-97.51
X95.3Y-95.41
X95.3Y-96.81
X95.3Y-98.21
X96.0Y-96.11
X96.0Y-97.51
X96.7Y-95.41
X96.7Y-96.81
X96.7Y-98.21
X97.4Y-96.11
X97.4Y-97.51
T2
X52.05Y-62.05
X63.325Y-100.825
X64.275Y-122.625
X64.65Y-86.05
X64.65Y-92.1
X67.025Y-117.35
X68.475Y-96.85
X69.4Y-96.025
X69.575Y-131.95
X70.4Y-102.625
X70.675Y-128.775
X70.7Y-130.425
X70.75Y-107.225
X72.975Y-108.425
X75.125Y-107.975
X76.35Y-108.05
X77.957Y-108.057
X78.425Y-127.375
X78.75Y-111.625
X79.825Y-99.125
X79.825Y-101.925
X80.075Y-130.775
X80.4Y-98.25
X80.675Y-120.8
X80.958Y-104.914
X81.425Y-99.25
X81.925Y-120.225
X82.325Y-124.1
X82.45Y-94.425
X82.9Y-126.375
X82.925Y-108.6
X83.9Y-135.925
X85.675Y-131.0
X85.8Y-84.475
X86.775Y-108.25
X89.525Y-112.575
X89.6Y-113.675
X89.85Y-80.525
X92.975Y-110.425
X93.05Y-108.6
X93.125Y-81.125
X93.225Y-85.925
X97.2Y-66.0
X104.525Y-105.075
X106.65Y-111.05
X106.95Y-86.875
X107.375Y-107.075
X108.35Y-95.4
X109.05Y-65.95
X109.25Y-89.05
X109.25Y-115.125
X110.0Y-94.975
X110.525Y-104.55
X110.625Y-107.825
X112.4Y-78.975
X113.65Y-74.175
X114.1Y-115.125
X114.425Y-99.25
X114.85Y-95.825
X115.2Y-115.125
X115.325Y-77.7
X116.15Y-101.0
X116.8Y-90.55
X117.15Y-79.9
X117.15Y-102.175
X118.675Y-90.475
X120.1Y-84.025
X120.274Y-79.025
X120.45Y-90.475
X121.075Y-66.0
X121.8Y-85.55
X121.9Y-90.225
X122.525Y-87.35
X122.694Y-85.997
X122.7Y-88.275
X122.85Y-90.225
X124.05Y-95.95
X125.35Y-140.05
X127.45Y-87.925
X127.825Y-86.575
X127.825Y-102.2
X129.2Y-86.475
X129.35Y-96.075
X129.745Y-75.426
X129.75Y-76.425
X130.05Y-92.8
X130.25Y-79.5
X130.35Y-107.8
X130.35Y-113.875
X130.45Y-81.475
X130.625Y-128.0
X133.15Y-65.975
X133.5Y-80.575
X134.425Y-136.975
X135.6Y-125.2
X137.4Y-59.875
X138.775Y-73.15
X141.875Y-83.1
X143.0Y-63.925
X143.3Y-134.425
T3
X52.6Y-55.0
X52.6Y-140.0
X53.303Y-53.303
X53.303Y-56.697
X53.303Y-138.303
X53.303Y-141.697
X55.0Y-52.6
X55.0Y-57.4
X55.0Y-137.6
X55.0Y-142.4
X56.697Y-53.303
X56.697Y-56.697
X56.697Y-138.303
X56.697Y-141.697
X57.4Y-55.0
X57.4Y-140.0
X137.6Y-55.0
X137.6Y-140.0
X138.303Y-53.303
X138.303Y-56.697
X138.303Y-138.303
X138.303Y-141.697
X140.0Y-52.6
X140.0Y-57.4
X140.0Y-137.6
X140.0Y-142.4
X141.697Y-53.303
X141.697Y-56.697
X141.697Y-138.303
X141.697Y-141.697
X142.4Y-55.0
X142.4Y-140.0
T5
X95.6Y-113.325
X96.87Y-113.325
X98.14Y-113.325
X99.41Y-113.325
X100.68Y-113.325
T6
X74.95Y-115.8
X76.95Y-115.8
X78.95Y-115.8
X80.95Y-115.8
X123.85Y-108.1
X123.85Y-110.1
X123.85Y-112.1
X123.85Y-114.1
T7
X80.05Y-55.228
X80.05Y-58.728
T8
X59.041Y-68.669
X59.041Y-71.209
X59.041Y-73.749
X90.67Y-120.32
X90.67Y-143.18
X93.21Y-120.32
X93.21Y-143.18
X95.75Y-120.32
X95.75Y-143.18
X98.29Y-120.32
X98.29Y-143.18
X100.83Y-120.32
X100.83Y-143.18
X103.37Y-120.32
X103.37Y-143.18
X105.91Y-120.32
X105.91Y-143.18
X108.45Y-120.32
X108.45Y-143.18
X110.99Y-120.32
X110.99Y-143.18
X112.8Y-84.145
X112.8Y-86.685
X112.8Y-89.225
X112.8Y-91.765
X113.53Y-120.32
X113.53Y-143.18
X116.07Y-120.32
X116.07Y-143.18
X118.61Y-120.32
X118.61Y-143.18
X121.15Y-120.32
X121.15Y-143.18
X123.69Y-120.32
X123.69Y-143.18
X126.23Y-120.32
X126.23Y-143.18
X128.77Y-120.32
X128.77Y-143.18
X131.31Y-120.32
X131.31Y-143.18
X133.85Y-120.32
X133.85Y-143.18
T9
X59.495Y-86.5
X59.495Y-89.5
X59.495Y-92.5
X59.495Y-95.5
X59.495Y-98.5
X59.495Y-101.5
X59.495Y-104.5
X59.495Y-107.5
X59.495Y-110.5
X59.495Y-113.5
X62.925Y-135.555
X65.525Y-59.495
X65.925Y-135.555
X68.525Y-59.495
X74.8Y-135.53
X77.8Y-135.53
X91.7Y-59.495
X94.7Y-59.495
X103.7Y-59.495
X106.7Y-59.495
X115.7Y-59.495
X118.7Y-59.495
X127.7Y-59.495
X130.7Y-59.495
X135.505Y-86.5
X135.505Y-89.5
X135.505Y-92.5
X135.505Y-95.5
X135.505Y-98.5
X135.505Y-101.5
X135.505Y-104.5
X135.505Y-107.5
X135.505Y-110.5
X135.505Y-113.5
T10
X77.385Y-69.03
X79.925Y-69.03
X82.465Y-69.03
T11
X68.9Y-79.625
X68.9Y-82.165
X68.9Y-84.705
T12
X55.0Y-55.0
X55.0Y-140.0
X140.0Y-55.0
X140.0Y-140.0
T3
X51.775Y-121.9G85X51.125Y-121.9
G05
X51.775Y-128.9G85X51.125Y-128.9
G05
X143.225Y-70.95G85X143.875Y-70.95
G05
X143.225Y-77.95G85X143.875Y-77.95
G05
T4
X54.15Y-122.75G85X54.15Y-123.05
G05
X54.15Y-127.75G85X54.15Y-128.05
G05
X140.85Y-72.1G85X140.85Y-71.8
G05
X140.85Y-77.1G85X140.85Y-76.8
G05
T0
M30
