G04 #@! TF.GenerationSoftware,KiCad,Pcbnew,(6.0.6)*
G04 #@! TF.CreationDate,2023-04-23T20:46:21-02:30*
G04 #@! TF.ProjectId,ControlBoard,436f6e74-726f-46c4-926f-6172642e6b69,rev?*
G04 #@! TF.SameCoordinates,Original*
G04 #@! TF.FileFunction,Paste,Top*
G04 #@! TF.FilePolarity,Positive*
%FSLAX46Y46*%
G04 Gerber Fmt 4.6, Leading zero omitted, Abs format (unit mm)*
G04 Created by KiCad (PCBNEW (6.0.6)) date 2023-04-23 20:46:21*
%MOMM*%
%LPD*%
G01*
G04 APERTURE LIST*
G04 Aperture macros list*
%AMRoundRect*
0 Rectangle with rounded corners*
0 $1 Rounding radius*
0 $2 $3 $4 $5 $6 $7 $8 $9 X,Y pos of 4 corners*
0 Add a 4 corners polygon primitive as box body*
4,1,4,$2,$3,$4,$5,$6,$7,$8,$9,$2,$3,0*
0 Add four circle primitives for the rounded corners*
1,1,$1+$1,$2,$3*
1,1,$1+$1,$4,$5*
1,1,$1+$1,$6,$7*
1,1,$1+$1,$8,$9*
0 Add four rect primitives between the rounded corners*
20,1,$1+$1,$2,$3,$4,$5,0*
20,1,$1+$1,$4,$5,$6,$7,0*
20,1,$1+$1,$6,$7,$8,$9,0*
20,1,$1+$1,$8,$9,$2,$3,0*%
G04 Aperture macros list end*
%ADD10RoundRect,0.250000X-0.450000X0.262500X-0.450000X-0.262500X0.450000X-0.262500X0.450000X0.262500X0*%
%ADD11RoundRect,0.250000X0.262500X0.450000X-0.262500X0.450000X-0.262500X-0.450000X0.262500X-0.450000X0*%
%ADD12RoundRect,0.250000X-0.250000X-0.475000X0.250000X-0.475000X0.250000X0.475000X-0.250000X0.475000X0*%
%ADD13RoundRect,0.250000X0.475000X-0.250000X0.475000X0.250000X-0.475000X0.250000X-0.475000X-0.250000X0*%
%ADD14RoundRect,0.250000X0.250000X0.475000X-0.250000X0.475000X-0.250000X-0.475000X0.250000X-0.475000X0*%
%ADD15RoundRect,0.250000X-0.475000X0.250000X-0.475000X-0.250000X0.475000X-0.250000X0.475000X0.250000X0*%
%ADD16RoundRect,0.250000X-0.262500X-0.450000X0.262500X-0.450000X0.262500X0.450000X-0.262500X0.450000X0*%
%ADD17R,1.600000X0.350000*%
%ADD18RoundRect,0.250000X0.450000X-0.262500X0.450000X0.262500X-0.450000X0.262500X-0.450000X-0.262500X0*%
%ADD19R,1.800000X2.500000*%
%ADD20R,0.800000X0.900000*%
%ADD21R,0.800000X0.550000*%
%ADD22R,0.600000X0.800000*%
%ADD23RoundRect,0.225000X0.225000X-0.225000X0.225000X0.225000X-0.225000X0.225000X-0.225000X-0.225000X0*%
%ADD24RoundRect,0.062500X0.062500X-0.337500X0.062500X0.337500X-0.062500X0.337500X-0.062500X-0.337500X0*%
%ADD25RoundRect,0.062500X0.337500X-0.062500X0.337500X0.062500X-0.337500X0.062500X-0.337500X-0.062500X0*%
%ADD26R,0.550000X0.800000*%
%ADD27R,2.500000X1.800000*%
%ADD28R,0.900000X1.700000*%
%ADD29R,0.800000X1.100000*%
%ADD30O,1.550000X0.890000*%
%ADD31O,0.950000X1.250000*%
%ADD32R,1.350000X0.400000*%
%ADD33R,1.550000X1.200000*%
%ADD34R,1.550000X1.500000*%
%ADD35R,1.500000X0.900000*%
%ADD36R,0.900000X1.500000*%
%ADD37R,0.900000X0.900000*%
%ADD38R,1.700000X0.900000*%
%ADD39R,1.100000X0.800000*%
%ADD40R,1.300000X1.400000*%
%ADD41RoundRect,0.150000X-0.512500X-0.150000X0.512500X-0.150000X0.512500X0.150000X-0.512500X0.150000X0*%
%ADD42RoundRect,0.218750X-0.256250X0.218750X-0.256250X-0.218750X0.256250X-0.218750X0.256250X0.218750X0*%
%ADD43RoundRect,0.218750X0.218750X0.256250X-0.218750X0.256250X-0.218750X-0.256250X0.218750X-0.256250X0*%
%ADD44R,1.400000X1.300000*%
%ADD45RoundRect,0.150000X-0.825000X-0.150000X0.825000X-0.150000X0.825000X0.150000X-0.825000X0.150000X0*%
G04 APERTURE END LIST*
D10*
X82925000Y-110025000D03*
X82925000Y-111850000D03*
X92925000Y-113012500D03*
X92925000Y-114837500D03*
D11*
X53862500Y-60250000D03*
X52037500Y-60250000D03*
D12*
X83900000Y-86150000D03*
X85800000Y-86150000D03*
D13*
X72400000Y-129600000D03*
X72400000Y-127700000D03*
D10*
X129825000Y-83287500D03*
X129825000Y-85112500D03*
D12*
X116775000Y-94200000D03*
X118675000Y-94200000D03*
D10*
X115650000Y-66012500D03*
X115650000Y-67837500D03*
D14*
X85825000Y-94375000D03*
X83925000Y-94375000D03*
D13*
X64675000Y-73875000D03*
X64675000Y-71975000D03*
D15*
X62625000Y-71975000D03*
X62625000Y-73875000D03*
D10*
X105750000Y-67837500D03*
X105750000Y-69662500D03*
X130350000Y-104500000D03*
X130350000Y-106325000D03*
D16*
X122000000Y-77275000D03*
X123825000Y-77275000D03*
D17*
X116755000Y-96030000D03*
X116755000Y-96680000D03*
X116755000Y-97330000D03*
X116755000Y-97980000D03*
X116755000Y-98630000D03*
X116755000Y-99280000D03*
X116755000Y-99930000D03*
X122355000Y-99930000D03*
X122355000Y-99280000D03*
X122355000Y-98630000D03*
X122355000Y-97980000D03*
X122355000Y-97330000D03*
X122355000Y-96680000D03*
X122355000Y-96030000D03*
D13*
X64675000Y-70375000D03*
X64675000Y-68475000D03*
D18*
X107750000Y-69662500D03*
X107750000Y-67837500D03*
D11*
X85787500Y-92375000D03*
X83962500Y-92375000D03*
D12*
X124125000Y-85850000D03*
X126025000Y-85850000D03*
D11*
X85762500Y-90375000D03*
X83937500Y-90375000D03*
D19*
X132275000Y-74425000D03*
X132275000Y-78425000D03*
D11*
X116850000Y-75175000D03*
X115025000Y-75175000D03*
D16*
X139987500Y-134425000D03*
X141812500Y-134425000D03*
D10*
X93750000Y-67837500D03*
X93750000Y-69662500D03*
D18*
X64650000Y-89512500D03*
X64650000Y-87687500D03*
D12*
X110850000Y-115125000D03*
X112750000Y-115125000D03*
D13*
X62625000Y-70375000D03*
X62625000Y-68475000D03*
D16*
X103187500Y-111650000D03*
X105012500Y-111650000D03*
D20*
X117750000Y-66000000D03*
X119650000Y-66000000D03*
X118700000Y-64000000D03*
D14*
X122350000Y-92175000D03*
X120450000Y-92175000D03*
D11*
X78625000Y-130775000D03*
X76800000Y-130775000D03*
D16*
X79575000Y-128350000D03*
X81400000Y-128350000D03*
X86062500Y-110350000D03*
X87887500Y-110350000D03*
X127187500Y-79525000D03*
X129012500Y-79525000D03*
D21*
X77237500Y-128350000D03*
X77237500Y-127400000D03*
X77237500Y-126450000D03*
X74837500Y-126450000D03*
X74837500Y-127400000D03*
X74837500Y-128350000D03*
D19*
X63200000Y-126150000D03*
X63200000Y-130150000D03*
D11*
X112112500Y-99250000D03*
X110287500Y-99250000D03*
D22*
X119212500Y-75435000D03*
X121112500Y-75435000D03*
X120162500Y-73415000D03*
D23*
X122725000Y-82720000D03*
X122725000Y-80480000D03*
X121605000Y-82720000D03*
X121605000Y-80480000D03*
X123845000Y-80480000D03*
X121605000Y-81600000D03*
X123845000Y-81600000D03*
X123845000Y-82720000D03*
X122725000Y-81600000D03*
D24*
X121225000Y-84050000D03*
X121725000Y-84050000D03*
X122225000Y-84050000D03*
X122725000Y-84050000D03*
X123225000Y-84050000D03*
X123725000Y-84050000D03*
X124225000Y-84050000D03*
D25*
X125175000Y-83100000D03*
X125175000Y-82600000D03*
X125175000Y-82100000D03*
X125175000Y-81600000D03*
X125175000Y-81100000D03*
X125175000Y-80600000D03*
X125175000Y-80100000D03*
D24*
X124225000Y-79150000D03*
X123725000Y-79150000D03*
X123225000Y-79150000D03*
X122725000Y-79150000D03*
X122225000Y-79150000D03*
X121725000Y-79150000D03*
X121225000Y-79150000D03*
D25*
X120275000Y-80100000D03*
X120275000Y-80600000D03*
X120275000Y-81100000D03*
X120275000Y-81600000D03*
X120275000Y-82100000D03*
X120275000Y-82600000D03*
X120275000Y-83100000D03*
D14*
X78250000Y-106375000D03*
X76350000Y-106375000D03*
D26*
X68450000Y-108100000D03*
X67500000Y-108100000D03*
X66550000Y-108100000D03*
X66550000Y-110500000D03*
X68450000Y-110500000D03*
D13*
X79525000Y-65800000D03*
X79525000Y-63900000D03*
D11*
X116825000Y-73150000D03*
X115000000Y-73150000D03*
D16*
X117812500Y-67850000D03*
X119637500Y-67850000D03*
D20*
X129750000Y-66000000D03*
X131650000Y-66000000D03*
X130700000Y-64000000D03*
D19*
X135950000Y-76175000D03*
X135950000Y-80175000D03*
D16*
X55012500Y-134325000D03*
X56837500Y-134325000D03*
X79575000Y-126375000D03*
X81400000Y-126375000D03*
X64212500Y-98500000D03*
X66037500Y-98500000D03*
D15*
X137400000Y-61275000D03*
X137400000Y-63175000D03*
D12*
X72650000Y-106375000D03*
X74550000Y-106375000D03*
D26*
X126725000Y-92800000D03*
X127675000Y-92800000D03*
X128625000Y-92800000D03*
X128625000Y-90400000D03*
X126725000Y-90400000D03*
D14*
X78250000Y-104325000D03*
X76350000Y-104325000D03*
D20*
X105750000Y-66000000D03*
X107650000Y-66000000D03*
X106700000Y-64000000D03*
D12*
X72650000Y-104325000D03*
X74550000Y-104325000D03*
D10*
X127500000Y-65987500D03*
X127500000Y-67812500D03*
D27*
X58135000Y-122625000D03*
X62135000Y-122625000D03*
D10*
X140000000Y-59650000D03*
X140000000Y-61475000D03*
D16*
X83262500Y-99250000D03*
X85087500Y-99250000D03*
D11*
X72637500Y-96400000D03*
X70812500Y-96400000D03*
D13*
X108250000Y-112050000D03*
X108250000Y-110150000D03*
D18*
X64650000Y-95487500D03*
X64650000Y-93662500D03*
D16*
X62412500Y-104500000D03*
X64237500Y-104500000D03*
D28*
X114575000Y-106225000D03*
X111175000Y-106225000D03*
D29*
X112875000Y-104585000D03*
D16*
X62412500Y-110500000D03*
X64237500Y-110500000D03*
D30*
X143550000Y-70950000D03*
D31*
X140850000Y-76950000D03*
X140850000Y-71950000D03*
D30*
X143550000Y-77950000D03*
D32*
X140850000Y-75750000D03*
X140850000Y-75100000D03*
X140850000Y-74450000D03*
X140850000Y-73800000D03*
X140850000Y-73150000D03*
D33*
X143550000Y-77350000D03*
D34*
X143550000Y-75450000D03*
X143550000Y-73450000D03*
D33*
X143550000Y-71550000D03*
D17*
X78245000Y-102470000D03*
X78245000Y-101820000D03*
X78245000Y-101170000D03*
X78245000Y-100520000D03*
X78245000Y-99870000D03*
X78245000Y-99220000D03*
X78245000Y-98570000D03*
X72645000Y-98570000D03*
X72645000Y-99220000D03*
X72645000Y-99870000D03*
X72645000Y-100520000D03*
X72645000Y-101170000D03*
X72645000Y-101820000D03*
X72645000Y-102470000D03*
D11*
X70312500Y-98400000D03*
X68487500Y-98400000D03*
D10*
X118725000Y-110262500D03*
X118725000Y-112087500D03*
D19*
X140600000Y-67950000D03*
X140600000Y-63950000D03*
D35*
X88750000Y-89090000D03*
X88750000Y-90360000D03*
X88750000Y-91630000D03*
X88750000Y-92900000D03*
X88750000Y-94170000D03*
X88750000Y-95440000D03*
X88750000Y-96710000D03*
X88750000Y-97980000D03*
X88750000Y-99250000D03*
X88750000Y-100520000D03*
X88750000Y-101790000D03*
X88750000Y-103060000D03*
X88750000Y-104330000D03*
X88750000Y-105600000D03*
D36*
X90515000Y-106850000D03*
X91785000Y-106850000D03*
X93055000Y-106850000D03*
X94325000Y-106850000D03*
X95595000Y-106850000D03*
X96865000Y-106850000D03*
X98135000Y-106850000D03*
X99405000Y-106850000D03*
X100675000Y-106850000D03*
X101945000Y-106850000D03*
X103215000Y-106850000D03*
X104485000Y-106850000D03*
D35*
X106250000Y-105600000D03*
X106250000Y-104330000D03*
X106250000Y-103060000D03*
X106250000Y-101790000D03*
X106250000Y-100520000D03*
X106250000Y-99250000D03*
X106250000Y-97980000D03*
X106250000Y-96710000D03*
X106250000Y-95440000D03*
X106250000Y-94170000D03*
X106250000Y-92900000D03*
X106250000Y-91630000D03*
X106250000Y-90360000D03*
X106250000Y-89090000D03*
D37*
X94600000Y-95410000D03*
X96000000Y-95410000D03*
X97400000Y-95410000D03*
X94600000Y-96810000D03*
X96000000Y-96810000D03*
X97400000Y-96810000D03*
X94600000Y-98210000D03*
X96000000Y-98210000D03*
X97400000Y-98210000D03*
D38*
X89850000Y-81875000D03*
X89850000Y-85275000D03*
D39*
X88210000Y-83575000D03*
D11*
X131662500Y-97975000D03*
X129837500Y-97975000D03*
D14*
X64200000Y-119625000D03*
X62300000Y-119625000D03*
D15*
X77475000Y-63900000D03*
X77475000Y-65800000D03*
D13*
X124575000Y-92300000D03*
X124575000Y-90400000D03*
D11*
X131662500Y-100350000D03*
X129837500Y-100350000D03*
D14*
X122350000Y-94200000D03*
X120450000Y-94200000D03*
D18*
X95750000Y-69662500D03*
X95750000Y-67837500D03*
D11*
X79637500Y-132775000D03*
X77812500Y-132775000D03*
D19*
X67000000Y-123575000D03*
X67000000Y-119575000D03*
D11*
X120250000Y-77275000D03*
X118425000Y-77275000D03*
D31*
X54150000Y-122900000D03*
D30*
X51450000Y-121900000D03*
X51450000Y-128900000D03*
D31*
X54150000Y-127900000D03*
D32*
X54150000Y-124100000D03*
X54150000Y-124750000D03*
X54150000Y-125400000D03*
X54150000Y-126050000D03*
X54150000Y-126700000D03*
D33*
X51450000Y-128300000D03*
D34*
X51450000Y-126400000D03*
D33*
X51450000Y-122500000D03*
D34*
X51450000Y-124400000D03*
D13*
X109050000Y-107250000D03*
X109050000Y-105350000D03*
D11*
X129012500Y-81500000D03*
X127187500Y-81500000D03*
D18*
X118050000Y-88237500D03*
X118050000Y-86412500D03*
D40*
X60425000Y-119625000D03*
X57525000Y-119625000D03*
D41*
X75687500Y-122200000D03*
X75687500Y-123150000D03*
X75687500Y-124100000D03*
X77962500Y-124100000D03*
X77962500Y-122200000D03*
D12*
X67500000Y-106350000D03*
X69400000Y-106350000D03*
D16*
X75837500Y-96575000D03*
X77662500Y-96575000D03*
D11*
X72837500Y-131925000D03*
X71012500Y-131925000D03*
D14*
X67850000Y-63425000D03*
X65950000Y-63425000D03*
D18*
X131800000Y-85112500D03*
X131800000Y-83287500D03*
D19*
X63625000Y-79750000D03*
X63625000Y-83750000D03*
D16*
X124562500Y-102200000D03*
X126387500Y-102200000D03*
X108837500Y-103000000D03*
X110662500Y-103000000D03*
D18*
X74812500Y-132087500D03*
X74812500Y-130262500D03*
D10*
X80950000Y-110025000D03*
X80950000Y-111850000D03*
D15*
X127825000Y-83275000D03*
X127825000Y-85175000D03*
D12*
X124125000Y-87925000D03*
X126025000Y-87925000D03*
D15*
X127675000Y-94625000D03*
X127675000Y-96525000D03*
D10*
X67500000Y-102512500D03*
X67500000Y-104337500D03*
D18*
X116050000Y-86687500D03*
X116050000Y-84862500D03*
D10*
X130350000Y-110500000D03*
X130350000Y-112325000D03*
D11*
X122362500Y-101725000D03*
X120537500Y-101725000D03*
D18*
X125650000Y-96462500D03*
X125650000Y-94637500D03*
D11*
X132187500Y-89500000D03*
X130362500Y-89500000D03*
X142262500Y-81075000D03*
X140437500Y-81075000D03*
D42*
X91000000Y-113262500D03*
X91000000Y-114837500D03*
D11*
X59337500Y-80250000D03*
X57512500Y-80250000D03*
D12*
X83900000Y-88275000D03*
X85800000Y-88275000D03*
D16*
X129812500Y-67825000D03*
X131637500Y-67825000D03*
D22*
X123262500Y-75410000D03*
X125162500Y-75410000D03*
X124212500Y-73390000D03*
D12*
X116775000Y-92175000D03*
X118675000Y-92175000D03*
D16*
X124562500Y-100225000D03*
X126387500Y-100225000D03*
D20*
X93750000Y-66000000D03*
X95650000Y-66000000D03*
X94700000Y-64000000D03*
D43*
X113787500Y-102775000D03*
X112212500Y-102775000D03*
D13*
X81575000Y-65800000D03*
X81575000Y-63900000D03*
D44*
X137375000Y-65050000D03*
X137375000Y-67950000D03*
D16*
X103912500Y-109625000D03*
X105737500Y-109625000D03*
D15*
X70425000Y-108600000D03*
X70425000Y-110500000D03*
X93125000Y-82600000D03*
X93125000Y-84500000D03*
X75425000Y-63900000D03*
X75425000Y-65800000D03*
D45*
X110725000Y-109195000D03*
X110725000Y-110465000D03*
X110725000Y-111735000D03*
X110725000Y-113005000D03*
X115675000Y-113005000D03*
X115675000Y-111735000D03*
X115675000Y-110465000D03*
X115675000Y-109195000D03*
D15*
X80650000Y-122200000D03*
X80650000Y-124100000D03*
M02*
