G04 #@! TF.GenerationSoftware,KiCad,Pcbnew,(6.0.6)*
G04 #@! TF.CreationDate,2023-04-23T20:46:21-02:30*
G04 #@! TF.ProjectId,ControlBoard,436f6e74-726f-46c4-926f-6172642e6b69,rev?*
G04 #@! TF.SameCoordinates,Original*
G04 #@! TF.FileFunction,Soldermask,Top*
G04 #@! TF.FilePolarity,Negative*
%FSLAX46Y46*%
G04 Gerber Fmt 4.6, Leading zero omitted, Abs format (unit mm)*
G04 Created by KiCad (PCBNEW (6.0.6)) date 2023-04-23 20:46:21*
%MOMM*%
%LPD*%
G01*
G04 APERTURE LIST*
G04 Aperture macros list*
%AMRoundRect*
0 Rectangle with rounded corners*
0 $1 Rounding radius*
0 $2 $3 $4 $5 $6 $7 $8 $9 X,Y pos of 4 corners*
0 Add a 4 corners polygon primitive as box body*
4,1,4,$2,$3,$4,$5,$6,$7,$8,$9,$2,$3,0*
0 Add four circle primitives for the rounded corners*
1,1,$1+$1,$2,$3*
1,1,$1+$1,$4,$5*
1,1,$1+$1,$6,$7*
1,1,$1+$1,$8,$9*
0 Add four rect primitives between the rounded corners*
20,1,$1+$1,$2,$3,$4,$5,0*
20,1,$1+$1,$4,$5,$6,$7,0*
20,1,$1+$1,$6,$7,$8,$9,0*
20,1,$1+$1,$8,$9,$2,$3,0*%
G04 Aperture macros list end*
%ADD10RoundRect,0.250000X-0.450000X0.262500X-0.450000X-0.262500X0.450000X-0.262500X0.450000X0.262500X0*%
%ADD11C,0.800000*%
%ADD12C,6.400000*%
%ADD13RoundRect,0.250000X0.262500X0.450000X-0.262500X0.450000X-0.262500X-0.450000X0.262500X-0.450000X0*%
%ADD14RoundRect,0.250000X-0.250000X-0.475000X0.250000X-0.475000X0.250000X0.475000X-0.250000X0.475000X0*%
%ADD15RoundRect,0.250000X0.475000X-0.250000X0.475000X0.250000X-0.475000X0.250000X-0.475000X-0.250000X0*%
%ADD16RoundRect,0.250000X0.250000X0.475000X-0.250000X0.475000X-0.250000X-0.475000X0.250000X-0.475000X0*%
%ADD17RoundRect,0.250000X-0.475000X0.250000X-0.475000X-0.250000X0.475000X-0.250000X0.475000X0.250000X0*%
%ADD18R,1.700000X1.700000*%
%ADD19O,1.700000X1.700000*%
%ADD20RoundRect,0.250000X-0.262500X-0.450000X0.262500X-0.450000X0.262500X0.450000X-0.262500X0.450000X0*%
%ADD21R,1.600000X0.350000*%
%ADD22C,3.000000*%
%ADD23RoundRect,0.250001X-0.499999X-0.759999X0.499999X-0.759999X0.499999X0.759999X-0.499999X0.759999X0*%
%ADD24O,1.500000X2.020000*%
%ADD25RoundRect,0.250000X0.450000X-0.262500X0.450000X0.262500X-0.450000X0.262500X-0.450000X-0.262500X0*%
%ADD26R,1.800000X2.500000*%
%ADD27R,1.600000X1.600000*%
%ADD28C,1.600000*%
%ADD29R,0.800000X0.900000*%
%ADD30R,0.800000X0.550000*%
%ADD31R,0.600000X0.800000*%
%ADD32RoundRect,0.062500X0.062500X-0.337500X0.062500X0.337500X-0.062500X0.337500X-0.062500X-0.337500X0*%
%ADD33RoundRect,0.062500X0.337500X-0.062500X0.337500X0.062500X-0.337500X0.062500X-0.337500X-0.062500X0*%
%ADD34R,3.350000X3.350000*%
%ADD35R,0.550000X0.800000*%
%ADD36C,1.000000*%
%ADD37R,2.500000X1.800000*%
%ADD38RoundRect,0.250001X0.759999X-0.499999X0.759999X0.499999X-0.759999X0.499999X-0.759999X-0.499999X0*%
%ADD39O,2.020000X1.500000*%
%ADD40RoundRect,0.250001X-0.759999X0.499999X-0.759999X-0.499999X0.759999X-0.499999X0.759999X0.499999X0*%
%ADD41R,0.900000X1.700000*%
%ADD42R,0.800000X1.100000*%
%ADD43R,1.350000X0.400000*%
%ADD44R,1.550000X1.200000*%
%ADD45O,1.550000X0.890000*%
%ADD46O,0.950000X1.250000*%
%ADD47R,1.550000X1.500000*%
%ADD48RoundRect,0.250001X0.499999X0.759999X-0.499999X0.759999X-0.499999X-0.759999X0.499999X-0.759999X0*%
%ADD49R,1.500000X0.900000*%
%ADD50R,0.900000X1.500000*%
%ADD51R,0.900000X0.900000*%
%ADD52R,1.700000X0.900000*%
%ADD53R,1.100000X0.800000*%
%ADD54RoundRect,0.250000X-0.845000X0.620000X-0.845000X-0.620000X0.845000X-0.620000X0.845000X0.620000X0*%
%ADD55O,2.190000X1.740000*%
%ADD56C,1.900000*%
%ADD57R,1.300000X1.400000*%
%ADD58RoundRect,0.150000X-0.512500X-0.150000X0.512500X-0.150000X0.512500X0.150000X-0.512500X0.150000X0*%
%ADD59C,1.700000*%
%ADD60R,1.905000X2.000000*%
%ADD61O,1.905000X2.000000*%
%ADD62RoundRect,0.250000X-0.350000X-0.625000X0.350000X-0.625000X0.350000X0.625000X-0.350000X0.625000X0*%
%ADD63O,1.200000X1.750000*%
%ADD64RoundRect,0.250000X-0.625000X0.350000X-0.625000X-0.350000X0.625000X-0.350000X0.625000X0.350000X0*%
%ADD65O,1.750000X1.200000*%
%ADD66RoundRect,0.218750X-0.256250X0.218750X-0.256250X-0.218750X0.256250X-0.218750X0.256250X0.218750X0*%
%ADD67RoundRect,0.218750X0.218750X0.256250X-0.218750X0.256250X-0.218750X-0.256250X0.218750X-0.256250X0*%
%ADD68R,1.400000X1.300000*%
%ADD69R,1.000000X1.000000*%
%ADD70O,1.000000X1.000000*%
%ADD71RoundRect,0.150000X-0.825000X-0.150000X0.825000X-0.150000X0.825000X0.150000X-0.825000X0.150000X0*%
G04 APERTURE END LIST*
D10*
X82925000Y-110025000D03*
X82925000Y-111850000D03*
X92925000Y-113012500D03*
X92925000Y-114837500D03*
D11*
X53302944Y-141697056D03*
X53302944Y-138302944D03*
D12*
X55000000Y-140000000D03*
D11*
X56697056Y-141697056D03*
X57400000Y-140000000D03*
X56697056Y-138302944D03*
X52600000Y-140000000D03*
X55000000Y-142400000D03*
X55000000Y-137600000D03*
D13*
X53862500Y-60250000D03*
X52037500Y-60250000D03*
D14*
X83900000Y-86150000D03*
X85800000Y-86150000D03*
D15*
X72400000Y-129600000D03*
X72400000Y-127700000D03*
D10*
X129825000Y-83287500D03*
X129825000Y-85112500D03*
D14*
X116775000Y-94200000D03*
X118675000Y-94200000D03*
D10*
X115650000Y-66012500D03*
X115650000Y-67837500D03*
D16*
X85825000Y-94375000D03*
X83925000Y-94375000D03*
D15*
X64675000Y-73875000D03*
X64675000Y-71975000D03*
D17*
X62625000Y-71975000D03*
X62625000Y-73875000D03*
D10*
X105750000Y-67837500D03*
X105750000Y-69662500D03*
D18*
X112800000Y-84145000D03*
D19*
X112800000Y-86685000D03*
X112800000Y-89225000D03*
X112800000Y-91765000D03*
D10*
X130350000Y-104500000D03*
X130350000Y-106325000D03*
D20*
X122000000Y-77275000D03*
X123825000Y-77275000D03*
D21*
X116755000Y-96030000D03*
X116755000Y-96680000D03*
X116755000Y-97330000D03*
X116755000Y-97980000D03*
X116755000Y-98630000D03*
X116755000Y-99280000D03*
X116755000Y-99930000D03*
X122355000Y-99930000D03*
X122355000Y-99280000D03*
X122355000Y-98630000D03*
X122355000Y-97980000D03*
X122355000Y-97330000D03*
X122355000Y-96680000D03*
X122355000Y-96030000D03*
D22*
X67025000Y-55175000D03*
D23*
X65525000Y-59495000D03*
D24*
X68525000Y-59495000D03*
D15*
X64675000Y-70375000D03*
X64675000Y-68475000D03*
D25*
X107750000Y-69662500D03*
X107750000Y-67837500D03*
D13*
X85787500Y-92375000D03*
X83962500Y-92375000D03*
D14*
X124125000Y-85850000D03*
X126025000Y-85850000D03*
D13*
X85762500Y-90375000D03*
X83937500Y-90375000D03*
D26*
X132275000Y-74425000D03*
X132275000Y-78425000D03*
D13*
X116850000Y-75175000D03*
X115025000Y-75175000D03*
D20*
X139987500Y-134425000D03*
X141812500Y-134425000D03*
D27*
X80050000Y-58727651D03*
D28*
X80050000Y-55227651D03*
D10*
X93750000Y-67837500D03*
X93750000Y-69662500D03*
D25*
X64650000Y-89512500D03*
X64650000Y-87687500D03*
D14*
X110850000Y-115125000D03*
X112750000Y-115125000D03*
D11*
X138302944Y-138302944D03*
X138302944Y-141697056D03*
X140000000Y-137600000D03*
X142400000Y-140000000D03*
X141697056Y-141697056D03*
X137600000Y-140000000D03*
X141697056Y-138302944D03*
X140000000Y-142400000D03*
D12*
X140000000Y-140000000D03*
D15*
X62625000Y-70375000D03*
X62625000Y-68475000D03*
D20*
X103187500Y-111650000D03*
X105012500Y-111650000D03*
D29*
X117750000Y-66000000D03*
X119650000Y-66000000D03*
X118700000Y-64000000D03*
D16*
X122350000Y-92175000D03*
X120450000Y-92175000D03*
D13*
X78625000Y-130775000D03*
X76800000Y-130775000D03*
D20*
X79575000Y-128350000D03*
X81400000Y-128350000D03*
X86062500Y-110350000D03*
X87887500Y-110350000D03*
X127187500Y-79525000D03*
X129012500Y-79525000D03*
D30*
X77237500Y-128350000D03*
X77237500Y-127400000D03*
X77237500Y-126450000D03*
X74837500Y-126450000D03*
X74837500Y-127400000D03*
X74837500Y-128350000D03*
D26*
X63200000Y-126150000D03*
X63200000Y-130150000D03*
D13*
X112112500Y-99250000D03*
X110287500Y-99250000D03*
D31*
X119212500Y-75435000D03*
X121112500Y-75435000D03*
X120162500Y-73415000D03*
D32*
X121225000Y-84050000D03*
X121725000Y-84050000D03*
X122225000Y-84050000D03*
X122725000Y-84050000D03*
X123225000Y-84050000D03*
X123725000Y-84050000D03*
X124225000Y-84050000D03*
D33*
X125175000Y-83100000D03*
X125175000Y-82600000D03*
X125175000Y-82100000D03*
X125175000Y-81600000D03*
X125175000Y-81100000D03*
X125175000Y-80600000D03*
X125175000Y-80100000D03*
D32*
X124225000Y-79150000D03*
X123725000Y-79150000D03*
X123225000Y-79150000D03*
X122725000Y-79150000D03*
X122225000Y-79150000D03*
X121725000Y-79150000D03*
X121225000Y-79150000D03*
D33*
X120275000Y-80100000D03*
X120275000Y-80600000D03*
X120275000Y-81100000D03*
X120275000Y-81600000D03*
X120275000Y-82100000D03*
X120275000Y-82600000D03*
X120275000Y-83100000D03*
D34*
X122725000Y-81600000D03*
D16*
X78250000Y-106375000D03*
X76350000Y-106375000D03*
D35*
X68450000Y-108100000D03*
X67500000Y-108100000D03*
X66550000Y-108100000D03*
X66550000Y-110500000D03*
X68450000Y-110500000D03*
D15*
X79525000Y-65800000D03*
X79525000Y-63900000D03*
D13*
X116825000Y-73150000D03*
X115000000Y-73150000D03*
D20*
X117812500Y-67850000D03*
X119637500Y-67850000D03*
D29*
X129750000Y-66000000D03*
X131650000Y-66000000D03*
X130700000Y-64000000D03*
D26*
X135950000Y-76175000D03*
X135950000Y-80175000D03*
D20*
X55012500Y-134325000D03*
X56837500Y-134325000D03*
X79575000Y-126375000D03*
X81400000Y-126375000D03*
X64212500Y-98500000D03*
X66037500Y-98500000D03*
D17*
X137400000Y-61275000D03*
X137400000Y-63175000D03*
D14*
X72650000Y-106375000D03*
X74550000Y-106375000D03*
D36*
X67975000Y-132350000D03*
D35*
X126725000Y-92800000D03*
X127675000Y-92800000D03*
X128625000Y-92800000D03*
X128625000Y-90400000D03*
X126725000Y-90400000D03*
D16*
X78250000Y-104325000D03*
X76350000Y-104325000D03*
D29*
X105750000Y-66000000D03*
X107650000Y-66000000D03*
X106700000Y-64000000D03*
D14*
X72650000Y-104325000D03*
X74550000Y-104325000D03*
D10*
X127500000Y-65987500D03*
X127500000Y-67812500D03*
D11*
X55000000Y-57400000D03*
D12*
X55000000Y-55000000D03*
D11*
X53302944Y-56697056D03*
X56697056Y-56697056D03*
X55000000Y-52600000D03*
X57400000Y-55000000D03*
X53302944Y-53302944D03*
X56697056Y-53302944D03*
X52600000Y-55000000D03*
D37*
X58135000Y-122625000D03*
X62135000Y-122625000D03*
D10*
X140000000Y-59650000D03*
X140000000Y-61475000D03*
D20*
X83262500Y-99250000D03*
X85087500Y-99250000D03*
D13*
X72637500Y-96400000D03*
X70812500Y-96400000D03*
D22*
X55175000Y-88650000D03*
X55175000Y-111350000D03*
D38*
X59495000Y-113500000D03*
D39*
X59495000Y-110500000D03*
X59495000Y-107500000D03*
X59495000Y-104500000D03*
X59495000Y-101500000D03*
X59495000Y-98500000D03*
X59495000Y-95500000D03*
X59495000Y-92500000D03*
X59495000Y-89500000D03*
X59495000Y-86500000D03*
D15*
X108250000Y-112050000D03*
X108250000Y-110150000D03*
D22*
X139825000Y-111350000D03*
X139825000Y-88650000D03*
D40*
X135505000Y-86500000D03*
D39*
X135505000Y-89500000D03*
X135505000Y-92500000D03*
X135505000Y-95500000D03*
X135505000Y-98500000D03*
X135505000Y-101500000D03*
X135505000Y-104500000D03*
X135505000Y-107500000D03*
X135505000Y-110500000D03*
X135505000Y-113500000D03*
D25*
X64650000Y-95487500D03*
X64650000Y-93662500D03*
D20*
X62412500Y-104500000D03*
X64237500Y-104500000D03*
D11*
X112875000Y-106225000D03*
D41*
X114575000Y-106225000D03*
X111175000Y-106225000D03*
D42*
X112875000Y-104585000D03*
D20*
X62412500Y-110500000D03*
X64237500Y-110500000D03*
D43*
X140850000Y-75750000D03*
X140850000Y-75100000D03*
X140850000Y-74450000D03*
X140850000Y-73800000D03*
X140850000Y-73150000D03*
D44*
X143550000Y-77350000D03*
D45*
X143550000Y-77950000D03*
D46*
X140850000Y-71950000D03*
D47*
X143550000Y-75450000D03*
X143550000Y-73450000D03*
D44*
X143550000Y-71550000D03*
D46*
X140850000Y-76950000D03*
D45*
X143550000Y-70950000D03*
D36*
X54850000Y-78650000D03*
D21*
X78245000Y-102470000D03*
X78245000Y-101820000D03*
X78245000Y-101170000D03*
X78245000Y-100520000D03*
X78245000Y-99870000D03*
X78245000Y-99220000D03*
X78245000Y-98570000D03*
X72645000Y-98570000D03*
X72645000Y-99220000D03*
X72645000Y-99870000D03*
X72645000Y-100520000D03*
X72645000Y-101170000D03*
X72645000Y-101820000D03*
X72645000Y-102470000D03*
D13*
X70312500Y-98400000D03*
X68487500Y-98400000D03*
D22*
X64425000Y-139875000D03*
D48*
X65925000Y-135555000D03*
D24*
X62925000Y-135555000D03*
D22*
X76300000Y-139850000D03*
D48*
X77800000Y-135530000D03*
D24*
X74800000Y-135530000D03*
D22*
X105200000Y-55175000D03*
D23*
X103700000Y-59495000D03*
D24*
X106700000Y-59495000D03*
D10*
X118725000Y-110262500D03*
X118725000Y-112087500D03*
D26*
X140600000Y-67950000D03*
X140600000Y-63950000D03*
D49*
X88750000Y-89090000D03*
X88750000Y-90360000D03*
X88750000Y-91630000D03*
X88750000Y-92900000D03*
X88750000Y-94170000D03*
X88750000Y-95440000D03*
X88750000Y-96710000D03*
X88750000Y-97980000D03*
X88750000Y-99250000D03*
X88750000Y-100520000D03*
X88750000Y-101790000D03*
X88750000Y-103060000D03*
X88750000Y-104330000D03*
X88750000Y-105600000D03*
D50*
X90515000Y-106850000D03*
X91785000Y-106850000D03*
X93055000Y-106850000D03*
X94325000Y-106850000D03*
X95595000Y-106850000D03*
X96865000Y-106850000D03*
X98135000Y-106850000D03*
X99405000Y-106850000D03*
X100675000Y-106850000D03*
X101945000Y-106850000D03*
X103215000Y-106850000D03*
X104485000Y-106850000D03*
D49*
X106250000Y-105600000D03*
X106250000Y-104330000D03*
X106250000Y-103060000D03*
X106250000Y-101790000D03*
X106250000Y-100520000D03*
X106250000Y-99250000D03*
X106250000Y-97980000D03*
X106250000Y-96710000D03*
X106250000Y-95440000D03*
X106250000Y-94170000D03*
X106250000Y-92900000D03*
X106250000Y-91630000D03*
X106250000Y-90360000D03*
X106250000Y-89090000D03*
D51*
X94600000Y-95410000D03*
X96000000Y-95410000D03*
X97400000Y-95410000D03*
X94600000Y-96810000D03*
X96000000Y-96810000D03*
X97400000Y-96810000D03*
X94600000Y-98210000D03*
X96000000Y-98210000D03*
X97400000Y-98210000D03*
D11*
X89850000Y-83575000D03*
D52*
X89850000Y-81875000D03*
X89850000Y-85275000D03*
D53*
X88210000Y-83575000D03*
D54*
X68900000Y-79625000D03*
D55*
X68900000Y-82165000D03*
X68900000Y-84705000D03*
D13*
X131662500Y-97975000D03*
X129837500Y-97975000D03*
D56*
X59041079Y-68668921D03*
X59041079Y-71208921D03*
X59041079Y-73748921D03*
D16*
X64200000Y-119625000D03*
X62300000Y-119625000D03*
D17*
X77475000Y-63900000D03*
X77475000Y-65800000D03*
D15*
X124575000Y-92300000D03*
X124575000Y-90400000D03*
D13*
X131662500Y-100350000D03*
X129837500Y-100350000D03*
D16*
X122350000Y-94200000D03*
X120450000Y-94200000D03*
D25*
X95750000Y-69662500D03*
X95750000Y-67837500D03*
D13*
X79637500Y-132775000D03*
X77812500Y-132775000D03*
D26*
X67000000Y-123575000D03*
X67000000Y-119575000D03*
D13*
X120250000Y-77275000D03*
X118425000Y-77275000D03*
D43*
X54150000Y-124100000D03*
X54150000Y-124750000D03*
X54150000Y-125400000D03*
X54150000Y-126050000D03*
X54150000Y-126700000D03*
D45*
X51450000Y-121900000D03*
D44*
X51450000Y-128300000D03*
D46*
X54150000Y-127900000D03*
D45*
X51450000Y-128900000D03*
D47*
X51450000Y-126400000D03*
D44*
X51450000Y-122500000D03*
D46*
X54150000Y-122900000D03*
D47*
X51450000Y-124400000D03*
D36*
X81825000Y-130675000D03*
D15*
X109050000Y-107250000D03*
X109050000Y-105350000D03*
D22*
X93200000Y-55175000D03*
D23*
X91700000Y-59495000D03*
D24*
X94700000Y-59495000D03*
D36*
X78450000Y-84625000D03*
D13*
X129012500Y-81500000D03*
X127187500Y-81500000D03*
D25*
X118050000Y-88237500D03*
X118050000Y-86412500D03*
D57*
X60425000Y-119625000D03*
X57525000Y-119625000D03*
D58*
X75687500Y-122200000D03*
X75687500Y-123150000D03*
X75687500Y-124100000D03*
X77962500Y-124100000D03*
X77962500Y-122200000D03*
D14*
X67500000Y-106350000D03*
X69400000Y-106350000D03*
D20*
X75837500Y-96575000D03*
X77662500Y-96575000D03*
D13*
X72837500Y-131925000D03*
X71012500Y-131925000D03*
D16*
X67850000Y-63425000D03*
X65950000Y-63425000D03*
D25*
X131800000Y-85112500D03*
X131800000Y-83287500D03*
D26*
X63625000Y-79750000D03*
X63625000Y-83750000D03*
D18*
X133850000Y-120320000D03*
D59*
X131310000Y-120320000D03*
X128770000Y-120320000D03*
X126230000Y-120320000D03*
X123690000Y-120320000D03*
X121150000Y-120320000D03*
X118610000Y-120320000D03*
X116070000Y-120320000D03*
X113530000Y-120320000D03*
X110990000Y-120320000D03*
X108450000Y-120320000D03*
X105910000Y-120320000D03*
X103370000Y-120320000D03*
X100830000Y-120320000D03*
X98290000Y-120320000D03*
X95750000Y-120320000D03*
X93210000Y-120320000D03*
X90670000Y-120320000D03*
X133850000Y-143180000D03*
X131310000Y-143180000D03*
X128770000Y-143180000D03*
X126230000Y-143180000D03*
X123690000Y-143180000D03*
X121150000Y-143180000D03*
X118610000Y-143180000D03*
X116070000Y-143180000D03*
X113530000Y-143180000D03*
X110990000Y-143180000D03*
X108450000Y-143180000D03*
X105910000Y-143180000D03*
X103370000Y-143180000D03*
X100830000Y-143180000D03*
X98290000Y-143180000D03*
X95750000Y-143180000D03*
X93210000Y-143180000D03*
X90670000Y-143180000D03*
D20*
X124562500Y-102200000D03*
X126387500Y-102200000D03*
X108837500Y-103000000D03*
X110662500Y-103000000D03*
D25*
X74812500Y-132087500D03*
X74812500Y-130262500D03*
D10*
X80950000Y-110025000D03*
X80950000Y-111850000D03*
D17*
X127825000Y-83275000D03*
X127825000Y-85175000D03*
D14*
X124125000Y-87925000D03*
X126025000Y-87925000D03*
D17*
X127675000Y-94625000D03*
X127675000Y-96525000D03*
D10*
X67500000Y-102512500D03*
X67500000Y-104337500D03*
D22*
X129200000Y-55175000D03*
D23*
X127700000Y-59495000D03*
D24*
X130700000Y-59495000D03*
D60*
X82465000Y-69030000D03*
D61*
X79925000Y-69030000D03*
X77385000Y-69030000D03*
D62*
X74950000Y-115800000D03*
D63*
X76950000Y-115800000D03*
X78950000Y-115800000D03*
X80950000Y-115800000D03*
D25*
X116050000Y-86687500D03*
X116050000Y-84862500D03*
D64*
X123850000Y-108100000D03*
D65*
X123850000Y-110100000D03*
X123850000Y-112100000D03*
X123850000Y-114100000D03*
D10*
X130350000Y-110500000D03*
X130350000Y-112325000D03*
D13*
X122362500Y-101725000D03*
X120537500Y-101725000D03*
D25*
X125650000Y-96462500D03*
X125650000Y-94637500D03*
D13*
X132187500Y-89500000D03*
X130362500Y-89500000D03*
X142262500Y-81075000D03*
X140437500Y-81075000D03*
D66*
X91000000Y-113262500D03*
X91000000Y-114837500D03*
D13*
X59337500Y-80250000D03*
X57512500Y-80250000D03*
D14*
X83900000Y-88275000D03*
X85800000Y-88275000D03*
D12*
X140000000Y-55000000D03*
D11*
X137600000Y-55000000D03*
X140000000Y-52600000D03*
X141697056Y-53302944D03*
X141697056Y-56697056D03*
X142400000Y-55000000D03*
X138302944Y-56697056D03*
X138302944Y-53302944D03*
X140000000Y-57400000D03*
D36*
X68150000Y-68100000D03*
D20*
X129812500Y-67825000D03*
X131637500Y-67825000D03*
D31*
X123262500Y-75410000D03*
X125162500Y-75410000D03*
X124212500Y-73390000D03*
D14*
X116775000Y-92175000D03*
X118675000Y-92175000D03*
D20*
X124562500Y-100225000D03*
X126387500Y-100225000D03*
D29*
X93750000Y-66000000D03*
X95650000Y-66000000D03*
X94700000Y-64000000D03*
D67*
X113787500Y-102775000D03*
X112212500Y-102775000D03*
D15*
X81575000Y-65800000D03*
X81575000Y-63900000D03*
D68*
X137375000Y-65050000D03*
X137375000Y-67950000D03*
D20*
X103912500Y-109625000D03*
X105737500Y-109625000D03*
D69*
X95600000Y-113325000D03*
D70*
X96870000Y-113325000D03*
X98140000Y-113325000D03*
X99410000Y-113325000D03*
X100680000Y-113325000D03*
D22*
X117200000Y-55175000D03*
D23*
X115700000Y-59495000D03*
D24*
X118700000Y-59495000D03*
D36*
X72775000Y-123150000D03*
D17*
X70425000Y-108600000D03*
X70425000Y-110500000D03*
X93125000Y-82600000D03*
X93125000Y-84500000D03*
X75425000Y-63900000D03*
X75425000Y-65800000D03*
D71*
X110725000Y-109195000D03*
X110725000Y-110465000D03*
X110725000Y-111735000D03*
X110725000Y-113005000D03*
X115675000Y-113005000D03*
X115675000Y-111735000D03*
X115675000Y-110465000D03*
X115675000Y-109195000D03*
D17*
X80650000Y-122200000D03*
X80650000Y-124100000D03*
M02*
