G04 #@! TF.GenerationSoftware,KiCad,Pcbnew,(6.0.6)*
G04 #@! TF.CreationDate,2023-04-23T20:46:21-02:30*
G04 #@! TF.ProjectId,ControlBoard,436f6e74-726f-46c4-926f-6172642e6b69,rev?*
G04 #@! TF.SameCoordinates,Original*
G04 #@! TF.FileFunction,Soldermask,Bot*
G04 #@! TF.FilePolarity,Negative*
%FSLAX46Y46*%
G04 Gerber Fmt 4.6, Leading zero omitted, Abs format (unit mm)*
G04 Created by KiCad (PCBNEW (6.0.6)) date 2023-04-23 20:46:21*
%MOMM*%
%LPD*%
G01*
G04 APERTURE LIST*
G04 Aperture macros list*
%AMRoundRect*
0 Rectangle with rounded corners*
0 $1 Rounding radius*
0 $2 $3 $4 $5 $6 $7 $8 $9 X,Y pos of 4 corners*
0 Add a 4 corners polygon primitive as box body*
4,1,4,$2,$3,$4,$5,$6,$7,$8,$9,$2,$3,0*
0 Add four circle primitives for the rounded corners*
1,1,$1+$1,$2,$3*
1,1,$1+$1,$4,$5*
1,1,$1+$1,$6,$7*
1,1,$1+$1,$8,$9*
0 Add four rect primitives between the rounded corners*
20,1,$1+$1,$2,$3,$4,$5,0*
20,1,$1+$1,$4,$5,$6,$7,0*
20,1,$1+$1,$6,$7,$8,$9,0*
20,1,$1+$1,$8,$9,$2,$3,0*%
G04 Aperture macros list end*
%ADD10C,0.800000*%
%ADD11C,6.400000*%
%ADD12R,1.700000X1.700000*%
%ADD13O,1.700000X1.700000*%
%ADD14C,3.000000*%
%ADD15RoundRect,0.250001X-0.499999X-0.759999X0.499999X-0.759999X0.499999X0.759999X-0.499999X0.759999X0*%
%ADD16O,1.500000X2.020000*%
%ADD17R,1.600000X1.600000*%
%ADD18C,1.600000*%
%ADD19RoundRect,0.250001X0.759999X-0.499999X0.759999X0.499999X-0.759999X0.499999X-0.759999X-0.499999X0*%
%ADD20O,2.020000X1.500000*%
%ADD21RoundRect,0.250001X-0.759999X0.499999X-0.759999X-0.499999X0.759999X-0.499999X0.759999X0.499999X0*%
%ADD22O,1.550000X0.890000*%
%ADD23O,0.950000X1.250000*%
%ADD24RoundRect,0.250001X0.499999X0.759999X-0.499999X0.759999X-0.499999X-0.759999X0.499999X-0.759999X0*%
%ADD25RoundRect,0.250000X-0.845000X0.620000X-0.845000X-0.620000X0.845000X-0.620000X0.845000X0.620000X0*%
%ADD26O,2.190000X1.740000*%
%ADD27C,1.900000*%
%ADD28C,1.700000*%
%ADD29R,1.905000X2.000000*%
%ADD30O,1.905000X2.000000*%
%ADD31RoundRect,0.250000X-0.350000X-0.625000X0.350000X-0.625000X0.350000X0.625000X-0.350000X0.625000X0*%
%ADD32O,1.200000X1.750000*%
%ADD33RoundRect,0.250000X-0.625000X0.350000X-0.625000X-0.350000X0.625000X-0.350000X0.625000X0.350000X0*%
%ADD34O,1.750000X1.200000*%
%ADD35R,1.000000X1.000000*%
%ADD36O,1.000000X1.000000*%
%ADD37RoundRect,0.250000X-0.262500X-0.450000X0.262500X-0.450000X0.262500X0.450000X-0.262500X0.450000X0*%
%ADD38RoundRect,0.250000X-0.450000X0.262500X-0.450000X-0.262500X0.450000X-0.262500X0.450000X0.262500X0*%
%ADD39RoundRect,0.250000X-0.250000X-0.475000X0.250000X-0.475000X0.250000X0.475000X-0.250000X0.475000X0*%
%ADD40RoundRect,0.250000X0.250000X0.475000X-0.250000X0.475000X-0.250000X-0.475000X0.250000X-0.475000X0*%
%ADD41RoundRect,0.250000X0.450000X-0.262500X0.450000X0.262500X-0.450000X0.262500X-0.450000X-0.262500X0*%
%ADD42RoundRect,0.250000X0.475000X-0.250000X0.475000X0.250000X-0.475000X0.250000X-0.475000X-0.250000X0*%
G04 APERTURE END LIST*
D10*
X53302944Y-141697056D03*
X53302944Y-138302944D03*
D11*
X55000000Y-140000000D03*
D10*
X56697056Y-141697056D03*
X57400000Y-140000000D03*
X56697056Y-138302944D03*
X52600000Y-140000000D03*
X55000000Y-142400000D03*
X55000000Y-137600000D03*
D12*
X112800000Y-84145000D03*
D13*
X112800000Y-86685000D03*
X112800000Y-89225000D03*
X112800000Y-91765000D03*
D14*
X67025000Y-55175000D03*
D15*
X65525000Y-59495000D03*
D16*
X68525000Y-59495000D03*
D17*
X80050000Y-58727651D03*
D18*
X80050000Y-55227651D03*
D10*
X138302944Y-138302944D03*
X138302944Y-141697056D03*
X140000000Y-137600000D03*
X142400000Y-140000000D03*
X141697056Y-141697056D03*
X137600000Y-140000000D03*
X141697056Y-138302944D03*
X140000000Y-142400000D03*
D11*
X140000000Y-140000000D03*
D10*
X55000000Y-57400000D03*
D11*
X55000000Y-55000000D03*
D10*
X53302944Y-56697056D03*
X56697056Y-56697056D03*
X55000000Y-52600000D03*
X57400000Y-55000000D03*
X53302944Y-53302944D03*
X56697056Y-53302944D03*
X52600000Y-55000000D03*
D14*
X55175000Y-88650000D03*
X55175000Y-111350000D03*
D19*
X59495000Y-113500000D03*
D20*
X59495000Y-110500000D03*
X59495000Y-107500000D03*
X59495000Y-104500000D03*
X59495000Y-101500000D03*
X59495000Y-98500000D03*
X59495000Y-95500000D03*
X59495000Y-92500000D03*
X59495000Y-89500000D03*
X59495000Y-86500000D03*
D14*
X139825000Y-111350000D03*
X139825000Y-88650000D03*
D21*
X135505000Y-86500000D03*
D20*
X135505000Y-89500000D03*
X135505000Y-92500000D03*
X135505000Y-95500000D03*
X135505000Y-98500000D03*
X135505000Y-101500000D03*
X135505000Y-104500000D03*
X135505000Y-107500000D03*
X135505000Y-110500000D03*
X135505000Y-113500000D03*
D10*
X112875000Y-106225000D03*
D22*
X143550000Y-77950000D03*
D23*
X140850000Y-71950000D03*
X140850000Y-76950000D03*
D22*
X143550000Y-70950000D03*
D14*
X64425000Y-139875000D03*
D24*
X65925000Y-135555000D03*
D16*
X62925000Y-135555000D03*
D14*
X76300000Y-139850000D03*
D24*
X77800000Y-135530000D03*
D16*
X74800000Y-135530000D03*
D14*
X105200000Y-55175000D03*
D15*
X103700000Y-59495000D03*
D16*
X106700000Y-59495000D03*
D10*
X89850000Y-83575000D03*
D25*
X68900000Y-79625000D03*
D26*
X68900000Y-82165000D03*
X68900000Y-84705000D03*
D27*
X59041079Y-68668921D03*
X59041079Y-71208921D03*
X59041079Y-73748921D03*
D22*
X51450000Y-121900000D03*
D23*
X54150000Y-127900000D03*
D22*
X51450000Y-128900000D03*
D23*
X54150000Y-122900000D03*
D14*
X93200000Y-55175000D03*
D15*
X91700000Y-59495000D03*
D16*
X94700000Y-59495000D03*
D12*
X133850000Y-120320000D03*
D28*
X131310000Y-120320000D03*
X128770000Y-120320000D03*
X126230000Y-120320000D03*
X123690000Y-120320000D03*
X121150000Y-120320000D03*
X118610000Y-120320000D03*
X116070000Y-120320000D03*
X113530000Y-120320000D03*
X110990000Y-120320000D03*
X108450000Y-120320000D03*
X105910000Y-120320000D03*
X103370000Y-120320000D03*
X100830000Y-120320000D03*
X98290000Y-120320000D03*
X95750000Y-120320000D03*
X93210000Y-120320000D03*
X90670000Y-120320000D03*
X133850000Y-143180000D03*
X131310000Y-143180000D03*
X128770000Y-143180000D03*
X126230000Y-143180000D03*
X123690000Y-143180000D03*
X121150000Y-143180000D03*
X118610000Y-143180000D03*
X116070000Y-143180000D03*
X113530000Y-143180000D03*
X110990000Y-143180000D03*
X108450000Y-143180000D03*
X105910000Y-143180000D03*
X103370000Y-143180000D03*
X100830000Y-143180000D03*
X98290000Y-143180000D03*
X95750000Y-143180000D03*
X93210000Y-143180000D03*
X90670000Y-143180000D03*
D14*
X129200000Y-55175000D03*
D15*
X127700000Y-59495000D03*
D16*
X130700000Y-59495000D03*
D29*
X82465000Y-69030000D03*
D30*
X79925000Y-69030000D03*
X77385000Y-69030000D03*
D31*
X74950000Y-115800000D03*
D32*
X76950000Y-115800000D03*
X78950000Y-115800000D03*
X80950000Y-115800000D03*
D33*
X123850000Y-108100000D03*
D34*
X123850000Y-110100000D03*
X123850000Y-112100000D03*
X123850000Y-114100000D03*
D11*
X140000000Y-55000000D03*
D10*
X137600000Y-55000000D03*
X140000000Y-52600000D03*
X141697056Y-53302944D03*
X141697056Y-56697056D03*
X142400000Y-55000000D03*
X138302944Y-56697056D03*
X138302944Y-53302944D03*
X140000000Y-57400000D03*
D35*
X95600000Y-113325000D03*
D36*
X96870000Y-113325000D03*
X98140000Y-113325000D03*
X99410000Y-113325000D03*
X100680000Y-113325000D03*
D14*
X117200000Y-55175000D03*
D15*
X115700000Y-59495000D03*
D16*
X118700000Y-59495000D03*
D37*
X124387500Y-94400000D03*
X126212500Y-94400000D03*
D38*
X70400000Y-104062500D03*
X70400000Y-105887500D03*
X85925000Y-132662500D03*
X85925000Y-134487500D03*
X128750000Y-136175000D03*
X128750000Y-138000000D03*
X83900000Y-132662500D03*
X83900000Y-134487500D03*
X112050000Y-101787500D03*
X112050000Y-103612500D03*
X108875000Y-102362500D03*
X108875000Y-104187500D03*
D39*
X126900000Y-140050000D03*
X128800000Y-140050000D03*
D40*
X132475000Y-140050000D03*
X130575000Y-140050000D03*
D38*
X83600000Y-101537500D03*
X83600000Y-103362500D03*
X81650000Y-101537500D03*
X81650000Y-103362500D03*
X114025000Y-101787500D03*
X114025000Y-103612500D03*
X130700000Y-136175000D03*
X130700000Y-138000000D03*
D41*
X79675000Y-105537500D03*
X79675000Y-103712500D03*
X129125000Y-125137500D03*
X129125000Y-123312500D03*
D37*
X111337500Y-95050000D03*
X113162500Y-95050000D03*
D41*
X134425000Y-140275000D03*
X134425000Y-138450000D03*
D42*
X131300000Y-125200000D03*
X131300000Y-123300000D03*
D38*
X103900000Y-101337500D03*
X103900000Y-103162500D03*
D41*
X133850000Y-125187500D03*
X133850000Y-123362500D03*
M02*
