%FSLAX45Y45*%
G04 Gerber Fmt 4.5, Leading zero omitted, Abs format (unit mm)*
G04 Created by KiCad (PCBNEW (6.0.6)) date 2023-04-23 19:50:39*
%MOMM*%
%LPD*%
G01*
G04 APERTURE LIST*
%TA.AperFunction,Profile*%
%ADD10C,0.100000*%
%TD*%
%ADD11C,0.200000*%
%ADD12C,0.040000*%
%ADD13C,0.050000*%
%ADD14C,0.080000*%
%ADD15C,0.100000*%
%ADD16C,0.102000*%
%ADD17C,0.110000*%
%ADD18C,0.119000*%
%ADD19C,0.120000*%
%ADD20C,0.127000*%
%ADD21C,0.177000*%
%ADD22C,0.193040*%
%ADD23C,0.280000*%
%ADD24C,0.300000*%
%ADD25C,0.320000*%
G04 APERTURE END LIST*
D10*
X4000000Y-14500000D02*
X4000000Y-2500000D01*
X4000000Y-14500000D02*
X22000000Y-14500000D01*
X4000000Y-2500000D02*
X22000000Y-2500000D01*
X22000000Y-14500000D02*
X22000000Y-2500000D01*
D11*
D12*
X4242500Y-3572500D02*
X4282500Y-3612500D01*
X4282500Y-3572500D02*
X4242500Y-3612500D01*
X4247500Y-4417500D02*
X4287500Y-4457500D01*
X4287500Y-4417500D02*
X4247500Y-4457500D01*
X4260000Y-5360000D02*
X4300000Y-5400000D01*
X4300000Y-5360000D02*
X4260000Y-5400000D01*
X4267500Y-6257500D02*
X4307500Y-6297500D01*
X4307500Y-6257500D02*
X4267500Y-6297500D01*
X4277500Y-7207500D02*
X4317500Y-7247500D01*
X4317500Y-7207500D02*
X4277500Y-7247500D01*
X4277500Y-7800000D02*
X4317500Y-7840000D01*
X4317500Y-7800000D02*
X4277500Y-7840000D01*
X4897500Y-4005000D02*
X4937500Y-4045000D01*
X4937500Y-4005000D02*
X4897500Y-4045000D01*
X4917500Y-4862500D02*
X4957500Y-4902500D01*
X4957500Y-4862500D02*
X4917500Y-4902500D01*
X4945000Y-5900000D02*
X4985000Y-5940000D01*
X4985000Y-5900000D02*
X4945000Y-5940000D01*
X4962500Y-6737500D02*
X5002500Y-6777500D01*
X5002500Y-6737500D02*
X4962500Y-6777500D01*
X5050000Y-8750000D02*
X5090000Y-8790000D01*
X5090000Y-8750000D02*
X5050000Y-8790000D01*
X5062500Y-8200000D02*
X5102500Y-8240000D01*
X5102500Y-8200000D02*
X5062500Y-8240000D01*
X5310000Y-13980000D02*
X5350000Y-14020000D01*
X5350000Y-13980000D02*
X5310000Y-14020000D01*
X5325000Y-2980000D02*
X5365000Y-3020000D01*
X5365000Y-2980000D02*
X5325000Y-3020000D01*
X5360000Y-9280000D02*
X5400000Y-9320000D01*
X5400000Y-9280000D02*
X5360000Y-9320000D01*
X5522500Y-6332500D02*
X5562500Y-6372500D01*
X5562500Y-6332500D02*
X5522500Y-6372500D01*
X5530000Y-4405000D02*
X5570000Y-4445000D01*
X5570000Y-4405000D02*
X5530000Y-4445000D01*
X5530000Y-5367500D02*
X5570000Y-5407500D01*
X5570000Y-5367500D02*
X5530000Y-5407500D01*
X5552500Y-3577500D02*
X5592500Y-3617500D01*
X5592500Y-3577500D02*
X5552500Y-3617500D01*
X5580000Y-9300000D02*
X5620000Y-9340000D01*
X5620000Y-9300000D02*
X5580000Y-9340000D01*
X6085000Y-8752500D02*
X6125000Y-8792500D01*
X6125000Y-8752500D02*
X6085000Y-8792500D01*
X6087500Y-6752500D02*
X6127500Y-6792500D01*
X6127500Y-6752500D02*
X6087500Y-6792500D01*
X6087500Y-7017500D02*
X6127500Y-7057500D01*
X6127500Y-7017500D02*
X6087500Y-7057500D01*
X6172500Y-13372500D02*
X6212500Y-13412500D01*
X6212500Y-13372500D02*
X6172500Y-13412500D01*
X6205000Y-5900000D02*
X6245000Y-5940000D01*
X6245000Y-5900000D02*
X6205000Y-5940000D01*
X6337500Y-5122500D02*
X6377500Y-5162500D01*
X6377500Y-5122500D02*
X6337500Y-5162500D01*
X6337500Y-5305000D02*
X6377500Y-5345000D01*
X6377500Y-5305000D02*
X6337500Y-5345000D01*
X6337500Y-5477500D02*
X6377500Y-5517500D01*
X6377500Y-5477500D02*
X6337500Y-5517500D01*
X6337500Y-5677500D02*
X6377500Y-5717500D01*
X6377500Y-5677500D02*
X6337500Y-5717500D01*
X6342500Y-4555000D02*
X6382500Y-4595000D01*
X6382500Y-4555000D02*
X6342500Y-4595000D01*
X6342500Y-4742500D02*
X6382500Y-4782500D01*
X6382500Y-4742500D02*
X6342500Y-4782500D01*
X6342500Y-4922500D02*
X6382500Y-4962500D01*
X6382500Y-4922500D02*
X6342500Y-4962500D01*
X6370000Y-9307500D02*
X6410000Y-9347500D01*
X6410000Y-9307500D02*
X6370000Y-9347500D01*
X6445000Y-8250000D02*
X6485000Y-8290000D01*
X6485000Y-8250000D02*
X6445000Y-8290000D01*
X6465000Y-6732500D02*
X6505000Y-6772500D01*
X6505000Y-6732500D02*
X6465000Y-6772500D01*
X6465000Y-7025000D02*
X6505000Y-7065000D01*
X6505000Y-7025000D02*
X6465000Y-7065000D01*
X6492500Y-8927500D02*
X6532500Y-8967500D01*
X6532500Y-8927500D02*
X6492500Y-8967500D01*
X6517500Y-5680000D02*
X6557500Y-5720000D01*
X6557500Y-5680000D02*
X6517500Y-5720000D01*
X6705000Y-5677500D02*
X6745000Y-5717500D01*
X6745000Y-5677500D02*
X6705000Y-5717500D01*
X6737500Y-6405000D02*
X6777500Y-6445000D01*
X6777500Y-6405000D02*
X6737500Y-6445000D01*
X6877500Y-5672500D02*
X6917500Y-5712500D01*
X6917500Y-5672500D02*
X6877500Y-5712500D01*
X7010000Y-6140000D02*
X7050000Y-6180000D01*
X7050000Y-6140000D02*
X7010000Y-6180000D01*
X7067500Y-4737500D02*
X7107500Y-4777500D01*
X7107500Y-4737500D02*
X7067500Y-4777500D01*
X7067500Y-4920000D02*
X7107500Y-4960000D01*
X7107500Y-4920000D02*
X7067500Y-4960000D01*
X7067500Y-5122500D02*
X7107500Y-5162500D01*
X7107500Y-5122500D02*
X7067500Y-5162500D01*
X7067500Y-5310000D02*
X7107500Y-5350000D01*
X7107500Y-5310000D02*
X7067500Y-5350000D01*
X7067500Y-5477500D02*
X7107500Y-5517500D01*
X7107500Y-5477500D02*
X7067500Y-5517500D01*
X7067500Y-5667500D02*
X7107500Y-5707500D01*
X7107500Y-5667500D02*
X7067500Y-5707500D01*
X7072500Y-4547500D02*
X7112500Y-4587500D01*
X7112500Y-4547500D02*
X7072500Y-4587500D01*
X7215000Y-8182500D02*
X7255000Y-8222500D01*
X7255000Y-8182500D02*
X7215000Y-8222500D01*
X7215000Y-8310000D02*
X7255000Y-8350000D01*
X7255000Y-8310000D02*
X7215000Y-8350000D01*
X7217500Y-8062500D02*
X7257500Y-8102500D01*
X7257500Y-8062500D02*
X7217500Y-8102500D01*
X7220000Y-7942500D02*
X7260000Y-7982500D01*
X7260000Y-7942500D02*
X7220000Y-7982500D01*
X7222500Y-7827500D02*
X7262500Y-7867500D01*
X7262500Y-7827500D02*
X7222500Y-7867500D01*
X7310000Y-6017500D02*
X7350000Y-6057500D01*
X7350000Y-6017500D02*
X7310000Y-6057500D01*
X7317500Y-6400000D02*
X7357500Y-6440000D01*
X7357500Y-6400000D02*
X7317500Y-6440000D01*
X7337500Y-4742500D02*
X7377500Y-4782500D01*
X7377500Y-4742500D02*
X7337500Y-4782500D01*
X7337500Y-5130000D02*
X7377500Y-5170000D01*
X7377500Y-5130000D02*
X7337500Y-5170000D01*
X7337500Y-5310000D02*
X7377500Y-5350000D01*
X7377500Y-5310000D02*
X7337500Y-5350000D01*
X7340000Y-4395000D02*
X7380000Y-4435000D01*
X7380000Y-4395000D02*
X7340000Y-4435000D01*
X7340000Y-4552500D02*
X7380000Y-4592500D01*
X7380000Y-4552500D02*
X7340000Y-4592500D01*
X7340000Y-4922500D02*
X7380000Y-4962500D01*
X7380000Y-4922500D02*
X7340000Y-4962500D01*
X7340000Y-5472500D02*
X7380000Y-5512500D01*
X7380000Y-5472500D02*
X7340000Y-5512500D01*
X7342500Y-5607500D02*
X7382500Y-5647500D01*
X7382500Y-5607500D02*
X7342500Y-5647500D01*
X7532500Y-4390000D02*
X7572500Y-4430000D01*
X7572500Y-4390000D02*
X7532500Y-4430000D01*
X7582500Y-6120000D02*
X7622500Y-6160000D01*
X7622500Y-6120000D02*
X7582500Y-6160000D01*
X7602500Y-4007500D02*
X7642500Y-4047500D01*
X7642500Y-4007500D02*
X7602500Y-4047500D01*
X7610000Y-2705000D02*
X7650000Y-2745000D01*
X7650000Y-2705000D02*
X7610000Y-2745000D01*
X7642500Y-8135000D02*
X7682500Y-8175000D01*
X7682500Y-8135000D02*
X7642500Y-8175000D01*
X7642500Y-8260000D02*
X7682500Y-8300000D01*
X7682500Y-8260000D02*
X7642500Y-8300000D01*
X7647500Y-8010000D02*
X7687500Y-8050000D01*
X7687500Y-8010000D02*
X7647500Y-8050000D01*
X7652500Y-7877500D02*
X7692500Y-7917500D01*
X7692500Y-7877500D02*
X7652500Y-7917500D01*
X7705000Y-4390000D02*
X7745000Y-4430000D01*
X7745000Y-4390000D02*
X7705000Y-4430000D01*
X7855000Y-6420000D02*
X7895000Y-6460000D01*
X7895000Y-6420000D02*
X7855000Y-6460000D01*
X7862500Y-5895000D02*
X7902500Y-5935000D01*
X7902500Y-5895000D02*
X7862500Y-5935000D01*
X7875000Y-6772500D02*
X7915000Y-6812500D01*
X7915000Y-6772500D02*
X7875000Y-6812500D01*
X7880000Y-4392500D02*
X7920000Y-4432500D01*
X7920000Y-4392500D02*
X7880000Y-4432500D01*
X7882500Y-7102500D02*
X7922500Y-7142500D01*
X7922500Y-7102500D02*
X7882500Y-7142500D01*
X7882500Y-7415000D02*
X7922500Y-7455000D01*
X7922500Y-7415000D02*
X7882500Y-7455000D01*
X8065000Y-4397500D02*
X8105000Y-4437500D01*
X8105000Y-4397500D02*
X8065000Y-4437500D01*
X8070000Y-4542500D02*
X8110000Y-4582500D01*
X8110000Y-4542500D02*
X8070000Y-4582500D01*
X8070000Y-4737500D02*
X8110000Y-4777500D01*
X8110000Y-4737500D02*
X8070000Y-4777500D01*
X8070000Y-4922500D02*
X8110000Y-4962500D01*
X8110000Y-4922500D02*
X8070000Y-4962500D01*
X8070000Y-5130000D02*
X8110000Y-5170000D01*
X8110000Y-5130000D02*
X8070000Y-5170000D01*
X8070000Y-5307500D02*
X8110000Y-5347500D01*
X8110000Y-5307500D02*
X8070000Y-5347500D01*
X8070000Y-5465000D02*
X8110000Y-5505000D01*
X8110000Y-5465000D02*
X8070000Y-5505000D01*
X8070000Y-5605000D02*
X8110000Y-5645000D01*
X8110000Y-5605000D02*
X8070000Y-5645000D01*
X8307500Y-9550000D02*
X8347500Y-9590000D01*
X8347500Y-9550000D02*
X8307500Y-9590000D01*
X8327500Y-4537500D02*
X8367500Y-4577500D01*
X8367500Y-4537500D02*
X8327500Y-4577500D01*
X8350000Y-7677500D02*
X8390000Y-7717500D01*
X8390000Y-7677500D02*
X8350000Y-7717500D01*
X8355000Y-3355000D02*
X8395000Y-3395000D01*
X8395000Y-3355000D02*
X8355000Y-3395000D01*
X8565000Y-7677500D02*
X8605000Y-7717500D01*
X8605000Y-7677500D02*
X8565000Y-7717500D01*
X9015000Y-5047500D02*
X9055000Y-5087500D01*
X9055000Y-5047500D02*
X9015000Y-5087500D01*
X9045000Y-4007500D02*
X9085000Y-4047500D01*
X9085000Y-4007500D02*
X9045000Y-4047500D01*
X9052500Y-2992500D02*
X9092500Y-3032500D01*
X9092500Y-2992500D02*
X9052500Y-3032500D01*
X9237500Y-8937500D02*
X9277500Y-8977500D01*
X9277500Y-8937500D02*
X9237500Y-8977500D01*
X9425000Y-13252500D02*
X9465000Y-13292500D01*
X9465000Y-13252500D02*
X9425000Y-13292500D01*
X9737500Y-4532500D02*
X9777500Y-4572500D01*
X9777500Y-4532500D02*
X9737500Y-4572500D01*
X9757500Y-3390000D02*
X9797500Y-3430000D01*
X9797500Y-3390000D02*
X9757500Y-3430000D01*
X10102500Y-5535000D02*
X10142500Y-5575000D01*
X10142500Y-5535000D02*
X10102500Y-5575000D01*
X10260000Y-8262500D02*
X10300000Y-8302500D01*
X10300000Y-8262500D02*
X10260000Y-8302500D01*
X10480000Y-9365000D02*
X10520000Y-9405000D01*
X10520000Y-9365000D02*
X10480000Y-9405000D01*
X10805000Y-3010000D02*
X10845000Y-3050000D01*
X10845000Y-3010000D02*
X10805000Y-3050000D01*
X12080000Y-8777500D02*
X12120000Y-8817500D01*
X12120000Y-8777500D02*
X12080000Y-8817500D01*
X12200000Y-10152500D02*
X12240000Y-10192500D01*
X12240000Y-10152500D02*
X12200000Y-10192500D01*
X12202500Y-9947500D02*
X12242500Y-9987500D01*
X12242500Y-9947500D02*
X12202500Y-9987500D01*
X12202500Y-10380000D02*
X12242500Y-10420000D01*
X12242500Y-10380000D02*
X12202500Y-10420000D01*
X12202500Y-10587500D02*
X12242500Y-10627500D01*
X12242500Y-10587500D02*
X12202500Y-10627500D01*
X12205000Y-10802500D02*
X12245000Y-10842500D01*
X12245000Y-10802500D02*
X12205000Y-10842500D01*
X12392500Y-9952500D02*
X12432500Y-9992500D01*
X12432500Y-9952500D02*
X12392500Y-9992500D01*
X12392500Y-10150000D02*
X12432500Y-10190000D01*
X12432500Y-10150000D02*
X12392500Y-10190000D01*
X12582500Y-9952500D02*
X12622500Y-9992500D01*
X12622500Y-9952500D02*
X12582500Y-9992500D01*
X12582500Y-10152500D02*
X12622500Y-10192500D01*
X12622500Y-10152500D02*
X12582500Y-10192500D01*
X12792500Y-9685000D02*
X12832500Y-9725000D01*
X12832500Y-9685000D02*
X12792500Y-9725000D01*
X12795000Y-9487500D02*
X12835000Y-9527500D01*
X12835000Y-9487500D02*
X12795000Y-9527500D01*
X12797500Y-9292500D02*
X12837500Y-9332500D01*
X12837500Y-9292500D02*
X12797500Y-9332500D01*
X12840000Y-10032500D02*
X12880000Y-10072500D01*
X12880000Y-10032500D02*
X12840000Y-10072500D01*
X12852500Y-10915000D02*
X12892500Y-10955000D01*
X12892500Y-10915000D02*
X12852500Y-10955000D01*
X12852500Y-11185000D02*
X12892500Y-11225000D01*
X12892500Y-11185000D02*
X12852500Y-11225000D01*
X12980000Y-9685000D02*
X13020000Y-9725000D01*
X13020000Y-9685000D02*
X12980000Y-9725000D01*
X12982500Y-9487500D02*
X13022500Y-9527500D01*
X13022500Y-9487500D02*
X12982500Y-9527500D01*
X12985000Y-9292500D02*
X13025000Y-9332500D01*
X13025000Y-9292500D02*
X12985000Y-9332500D01*
X13025000Y-2872500D02*
X13065000Y-2912500D01*
X13065000Y-2872500D02*
X13025000Y-2912500D01*
X13085000Y-10032500D02*
X13125000Y-10072500D01*
X13125000Y-10032500D02*
X13085000Y-10072500D01*
X13100000Y-10912500D02*
X13140000Y-10952500D01*
X13140000Y-10912500D02*
X13100000Y-10952500D01*
X13102500Y-11185000D02*
X13142500Y-11225000D01*
X13142500Y-11185000D02*
X13102500Y-11225000D01*
X13170000Y-9685000D02*
X13210000Y-9725000D01*
X13210000Y-9685000D02*
X13170000Y-9725000D01*
X13172500Y-9487500D02*
X13212500Y-9527500D01*
X13212500Y-9487500D02*
X13172500Y-9527500D01*
X13175000Y-9292500D02*
X13215000Y-9332500D01*
X13215000Y-9292500D02*
X13175000Y-9332500D01*
X13187500Y-7967500D02*
X13227500Y-8007500D01*
X13227500Y-7967500D02*
X13187500Y-8007500D01*
X13352500Y-9292500D02*
X13392500Y-9332500D01*
X13392500Y-9292500D02*
X13352500Y-9332500D01*
X13512500Y-9292500D02*
X13552500Y-9332500D01*
X13552500Y-9292500D02*
X13512500Y-9332500D01*
X13677500Y-9292500D02*
X13717500Y-9332500D01*
X13717500Y-9292500D02*
X13677500Y-9332500D01*
X13995000Y-2900000D02*
X14035000Y-2940000D01*
X14035000Y-2900000D02*
X13995000Y-2940000D01*
X14615000Y-3172500D02*
X14655000Y-3212500D01*
X14655000Y-3172500D02*
X14615000Y-3212500D01*
X15110000Y-7710000D02*
X15150000Y-7750000D01*
X15150000Y-7710000D02*
X15110000Y-7750000D01*
X15657500Y-3842500D02*
X15697500Y-3882500D01*
X15697500Y-3842500D02*
X15657500Y-3882500D01*
X16032500Y-4850000D02*
X16072500Y-4890000D01*
X16072500Y-4850000D02*
X16032500Y-4890000D01*
X16172500Y-4530000D02*
X16212500Y-4570000D01*
X16212500Y-4530000D02*
X16172500Y-4570000D01*
X16397500Y-4900000D02*
X16437500Y-4940000D01*
X16437500Y-4900000D02*
X16397500Y-4940000D01*
X16550000Y-5237500D02*
X16590000Y-5277500D01*
X16590000Y-5237500D02*
X16550000Y-5277500D01*
X16680000Y-3445000D02*
X16720000Y-3485000D01*
X16720000Y-3445000D02*
X16680000Y-3485000D01*
X16715000Y-5605000D02*
X16755000Y-5645000D01*
X16755000Y-5605000D02*
X16715000Y-5645000D01*
X16720000Y-9277500D02*
X16760000Y-9317500D01*
X16760000Y-9277500D02*
X16720000Y-9317500D01*
X16720000Y-9475000D02*
X16760000Y-9515000D01*
X16760000Y-9475000D02*
X16720000Y-9515000D01*
X16720000Y-9687500D02*
X16760000Y-9727500D01*
X16760000Y-9687500D02*
X16720000Y-9727500D01*
X16720000Y-9892500D02*
X16760000Y-9932500D01*
X16760000Y-9892500D02*
X16720000Y-9932500D01*
X16720000Y-10122500D02*
X16760000Y-10162500D01*
X16760000Y-10122500D02*
X16720000Y-10162500D01*
X16932500Y-9892500D02*
X16972500Y-9932500D01*
X16972500Y-9892500D02*
X16932500Y-9932500D01*
X16935000Y-10122500D02*
X16975000Y-10162500D01*
X16975000Y-10122500D02*
X16935000Y-10162500D01*
X16995000Y-12662500D02*
X17035000Y-12702500D01*
X17035000Y-12662500D02*
X16995000Y-12702500D01*
X17035000Y-14042500D02*
X17075000Y-14082500D01*
X17075000Y-14042500D02*
X17035000Y-14082500D01*
X17112500Y-4910000D02*
X17152500Y-4950000D01*
X17152500Y-4910000D02*
X17112500Y-4950000D01*
X17147500Y-9892500D02*
X17187500Y-9932500D01*
X17187500Y-9892500D02*
X17147500Y-9932500D01*
X17147500Y-10122500D02*
X17187500Y-10162500D01*
X17187500Y-10122500D02*
X17147500Y-10162500D01*
X17230000Y-4530000D02*
X17270000Y-4570000D01*
X17270000Y-4530000D02*
X17230000Y-4570000D01*
X17362500Y-3837500D02*
X17402500Y-3877500D01*
X17402500Y-3837500D02*
X17362500Y-3877500D01*
X17410000Y-10725000D02*
X17450000Y-10765000D01*
X17450000Y-10725000D02*
X17410000Y-10765000D01*
X17450000Y-11557500D02*
X17490000Y-11597500D01*
X17490000Y-11557500D02*
X17450000Y-11597500D01*
X17487500Y-12510000D02*
X17527500Y-12550000D01*
X17527500Y-12510000D02*
X17487500Y-12550000D01*
X17535000Y-4780000D02*
X17575000Y-4820000D01*
X17575000Y-4780000D02*
X17535000Y-4820000D01*
X17575000Y-10725000D02*
X17615000Y-10765000D01*
X17615000Y-10725000D02*
X17575000Y-10765000D01*
X17735000Y-10725000D02*
X17775000Y-10765000D01*
X17775000Y-10725000D02*
X17735000Y-10765000D01*
X17812500Y-4955000D02*
X17852500Y-4995000D01*
X17852500Y-4955000D02*
X17812500Y-4995000D01*
X17870000Y-5397500D02*
X17910000Y-5437500D01*
X17910000Y-5397500D02*
X17870000Y-5437500D01*
X17912500Y-10725000D02*
X17952500Y-10765000D01*
X17952500Y-10725000D02*
X17912500Y-10765000D01*
X17915000Y-10530000D02*
X17955000Y-10570000D01*
X17955000Y-10530000D02*
X17915000Y-10570000D01*
X17917500Y-10332500D02*
X17957500Y-10372500D01*
X17957500Y-10332500D02*
X17917500Y-10372500D01*
X17960000Y-10010000D02*
X18000000Y-10050000D01*
X18000000Y-10010000D02*
X17960000Y-10050000D01*
X17962500Y-9802500D02*
X18002500Y-9842500D01*
X18002500Y-9802500D02*
X17962500Y-9842500D01*
X18057500Y-3532500D02*
X18097500Y-3572500D01*
X18097500Y-3532500D02*
X18057500Y-3572500D01*
X18095000Y-7242500D02*
X18135000Y-7282500D01*
X18135000Y-7242500D02*
X18095000Y-7282500D01*
X18102500Y-10725000D02*
X18142500Y-10765000D01*
X18142500Y-10725000D02*
X18102500Y-10765000D01*
X18105000Y-10530000D02*
X18145000Y-10570000D01*
X18145000Y-10530000D02*
X18105000Y-10570000D01*
X18107500Y-10332500D02*
X18147500Y-10372500D01*
X18147500Y-10332500D02*
X18107500Y-10372500D01*
X18127500Y-5492500D02*
X18167500Y-5532500D01*
X18167500Y-5492500D02*
X18127500Y-5532500D01*
X18202500Y-4435000D02*
X18242500Y-4475000D01*
X18242500Y-4435000D02*
X18202500Y-4475000D01*
X18247500Y-9802500D02*
X18287500Y-9842500D01*
X18287500Y-9802500D02*
X18247500Y-9842500D01*
X18247500Y-10017500D02*
X18287500Y-10057500D01*
X18287500Y-10017500D02*
X18247500Y-10057500D01*
X18290000Y-10725000D02*
X18330000Y-10765000D01*
X18330000Y-10725000D02*
X18290000Y-10765000D01*
X18292500Y-10530000D02*
X18332500Y-10570000D01*
X18332500Y-10530000D02*
X18292500Y-10570000D01*
X18295000Y-10332500D02*
X18335000Y-10372500D01*
X18335000Y-10332500D02*
X18295000Y-10372500D01*
X18377500Y-4050000D02*
X18417500Y-4090000D01*
X18417500Y-4050000D02*
X18377500Y-4090000D01*
X18440000Y-5022500D02*
X18480000Y-5062500D01*
X18480000Y-5022500D02*
X18440000Y-5062500D01*
X18537500Y-9805000D02*
X18577500Y-9845000D01*
X18577500Y-9805000D02*
X18537500Y-9845000D01*
X18537500Y-10020000D02*
X18577500Y-10060000D01*
X18577500Y-10020000D02*
X18537500Y-10060000D01*
X18575000Y-3672500D02*
X18615000Y-3712500D01*
X18615000Y-3672500D02*
X18575000Y-3712500D01*
X18850000Y-5667500D02*
X18890000Y-5707500D01*
X18890000Y-5667500D02*
X18850000Y-5707500D01*
X18940000Y-4505000D02*
X18980000Y-4545000D01*
X18980000Y-4505000D02*
X18940000Y-4545000D01*
X18952500Y-4695000D02*
X18992500Y-4735000D01*
X18992500Y-4695000D02*
X18952500Y-4735000D01*
X19467500Y-5187500D02*
X19507500Y-5227500D01*
X19507500Y-5187500D02*
X19467500Y-5227500D01*
X19532500Y-4655000D02*
X19572500Y-4695000D01*
X19572500Y-4655000D02*
X19532500Y-4695000D01*
X19637500Y-5467500D02*
X19677500Y-5507500D01*
X19677500Y-5467500D02*
X19637500Y-5507500D01*
X19742500Y-3430000D02*
X19782500Y-3470000D01*
X19782500Y-3430000D02*
X19742500Y-3470000D01*
X20030000Y-4755000D02*
X20070000Y-4795000D01*
X20070000Y-4755000D02*
X20030000Y-4795000D01*
X20082500Y-4385000D02*
X20122500Y-4425000D01*
X20122500Y-4385000D02*
X20082500Y-4425000D01*
X20357500Y-5820000D02*
X20397500Y-5860000D01*
X20397500Y-5820000D02*
X20357500Y-5860000D01*
X20452500Y-3845000D02*
X20492500Y-3885000D01*
X20492500Y-3845000D02*
X20452500Y-3885000D01*
X20660000Y-13980000D02*
X20700000Y-14020000D01*
X20700000Y-13980000D02*
X20660000Y-14020000D01*
X20815000Y-5110000D02*
X20855000Y-5150000D01*
X20855000Y-5110000D02*
X20815000Y-5150000D01*
X20902500Y-4135000D02*
X20942500Y-4175000D01*
X20942500Y-4135000D02*
X20902500Y-4175000D01*
X20957500Y-12942500D02*
X20997500Y-12982500D01*
X20997500Y-12942500D02*
X20957500Y-12982500D01*
X21180000Y-6807500D02*
X21220000Y-6847500D01*
X21220000Y-6807500D02*
X21180000Y-6847500D01*
X21480000Y-3776250D02*
X21520000Y-3816250D01*
X21520000Y-3776250D02*
X21480000Y-3816250D01*
X21490000Y-4445000D02*
X21530000Y-4485000D01*
X21530000Y-4445000D02*
X21490000Y-4485000D01*
X21567500Y-5615000D02*
X21607500Y-5655000D01*
X21607500Y-5615000D02*
X21567500Y-5655000D01*
D13*
X4285000Y-3000000D02*
G75*
G03*
X4285000Y-3000000I-25000J0D01*
G01*
X4285000Y-14000000D02*
G75*
G03*
X4285000Y-14000000I-25000J0D01*
G01*
X4355294Y-2830294D02*
G75*
G03*
X4355294Y-2830294I-25000J0D01*
G01*
X4355294Y-3169706D02*
G75*
G03*
X4355294Y-3169706I-25000J0D01*
G01*
X4355294Y-13830294D02*
G75*
G03*
X4355294Y-13830294I-25000J0D01*
G01*
X4355294Y-14169706D02*
G75*
G03*
X4355294Y-14169706I-25000J0D01*
G01*
X4525000Y-2760000D02*
G75*
G03*
X4525000Y-2760000I-25000J0D01*
G01*
X4525000Y-3240000D02*
G75*
G03*
X4525000Y-3240000I-25000J0D01*
G01*
X4525000Y-13760000D02*
G75*
G03*
X4525000Y-13760000I-25000J0D01*
G01*
X4525000Y-14240000D02*
G75*
G03*
X4525000Y-14240000I-25000J0D01*
G01*
X4694706Y-2830294D02*
G75*
G03*
X4694706Y-2830294I-25000J0D01*
G01*
X4694706Y-3169706D02*
G75*
G03*
X4694706Y-3169706I-25000J0D01*
G01*
X4694706Y-13830294D02*
G75*
G03*
X4694706Y-13830294I-25000J0D01*
G01*
X4694706Y-14169706D02*
G75*
G03*
X4694706Y-14169706I-25000J0D01*
G01*
X4765000Y-3000000D02*
G75*
G03*
X4765000Y-3000000I-25000J0D01*
G01*
X4765000Y-14000000D02*
G75*
G03*
X4765000Y-14000000I-25000J0D01*
G01*
X21285000Y-3000000D02*
G75*
G03*
X21285000Y-3000000I-25000J0D01*
G01*
X21285000Y-14000000D02*
G75*
G03*
X21285000Y-14000000I-25000J0D01*
G01*
X21355294Y-2830294D02*
G75*
G03*
X21355294Y-2830294I-25000J0D01*
G01*
X21355294Y-3169706D02*
G75*
G03*
X21355294Y-3169706I-25000J0D01*
G01*
X21355294Y-13830294D02*
G75*
G03*
X21355294Y-13830294I-25000J0D01*
G01*
X21355294Y-14169706D02*
G75*
G03*
X21355294Y-14169706I-25000J0D01*
G01*
X21525000Y-2760000D02*
G75*
G03*
X21525000Y-2760000I-25000J0D01*
G01*
X21525000Y-3240000D02*
G75*
G03*
X21525000Y-3240000I-25000J0D01*
G01*
X21525000Y-13760000D02*
G75*
G03*
X21525000Y-13760000I-25000J0D01*
G01*
X21525000Y-14240000D02*
G75*
G03*
X21525000Y-14240000I-25000J0D01*
G01*
X21694706Y-2830294D02*
G75*
G03*
X21694706Y-2830294I-25000J0D01*
G01*
X21694706Y-3169706D02*
G75*
G03*
X21694706Y-3169706I-25000J0D01*
G01*
X21694706Y-13830294D02*
G75*
G03*
X21694706Y-13830294I-25000J0D01*
G01*
X21694706Y-14169706D02*
G75*
G03*
X21694706Y-14169706I-25000J0D01*
G01*
X21765000Y-3000000D02*
G75*
G03*
X21765000Y-3000000I-25000J0D01*
G01*
X21765000Y-14000000D02*
G75*
G03*
X21765000Y-14000000I-25000J0D01*
G01*
D14*
X16257500Y-5939262D02*
X16257500Y-6019262D01*
X16217500Y-5979262D02*
X16297500Y-5979262D01*
X16257500Y-6189262D02*
X16257500Y-6269262D01*
X16217500Y-6229262D02*
X16297500Y-6229262D01*
D15*
X4627856Y-8505356D02*
X4627856Y-8434644D01*
X4557144Y-8434644D01*
X4557144Y-8505356D01*
X4627856Y-8505356D01*
X4627856Y-8755356D02*
X4627856Y-8684644D01*
X4557144Y-8684644D01*
X4557144Y-8755356D01*
X4627856Y-8755356D01*
X4627856Y-9005356D02*
X4627856Y-8934644D01*
X4557144Y-8934644D01*
X4557144Y-9005356D01*
X4627856Y-9005356D01*
X8677856Y-11287856D02*
X8677856Y-11217144D01*
X8607144Y-11217144D01*
X8607144Y-11287856D01*
X8677856Y-11287856D01*
X8677856Y-11787856D02*
X8677856Y-11717144D01*
X8607144Y-11717144D01*
X8607144Y-11787856D01*
X8677856Y-11787856D01*
X10882856Y-5332856D02*
X10882856Y-5262144D01*
X10812144Y-5262144D01*
X10812144Y-5332856D01*
X10882856Y-5332856D01*
X11382856Y-5332856D02*
X11382856Y-5262144D01*
X11312144Y-5262144D01*
X11312144Y-5332856D01*
X11382856Y-5332856D01*
X17435356Y-6276356D02*
X17435356Y-6205644D01*
X17364644Y-6205644D01*
X17364644Y-6276356D01*
X17435356Y-6276356D01*
X17435356Y-6530356D02*
X17435356Y-6459644D01*
X17364644Y-6459644D01*
X17364644Y-6530356D01*
X17435356Y-6530356D01*
X17435356Y-6784356D02*
X17435356Y-6713644D01*
X17364644Y-6713644D01*
X17364644Y-6784356D01*
X17435356Y-6784356D01*
D16*
X11767500Y-3426000D02*
X11818500Y-3375000D01*
X11767500Y-3324000D01*
X11716500Y-3375000D01*
X11767500Y-3426000D01*
X11767500Y-3726000D02*
X11818500Y-3675000D01*
X11767500Y-3624000D01*
X11716500Y-3675000D01*
X11767500Y-3726000D01*
X18513500Y-12626000D02*
X18564500Y-12575000D01*
X18513500Y-12524000D01*
X18462500Y-12575000D01*
X18513500Y-12626000D01*
X18513500Y-12926000D02*
X18564500Y-12875000D01*
X18513500Y-12824000D01*
X18462500Y-12875000D01*
X18513500Y-12926000D01*
X21696500Y-6531000D02*
X21747500Y-6480000D01*
X21696500Y-6429000D01*
X21645500Y-6480000D01*
X21696500Y-6531000D01*
X21696500Y-6831000D02*
X21747500Y-6780000D01*
X21696500Y-6729000D01*
X21645500Y-6780000D01*
X21696500Y-6831000D01*
D17*
X11885000Y-10227000D02*
X11995000Y-10337000D01*
X11995000Y-10227000D02*
X11885000Y-10337000D01*
X11995000Y-10282000D02*
G75*
G03*
X11995000Y-10282000I-55000J0D01*
G01*
X11885000Y-10481000D02*
X11995000Y-10591000D01*
X11995000Y-10481000D02*
X11885000Y-10591000D01*
X11995000Y-10536000D02*
G75*
G03*
X11995000Y-10536000I-55000J0D01*
G01*
X11885000Y-10735000D02*
X11995000Y-10845000D01*
X11995000Y-10735000D02*
X11885000Y-10845000D01*
X11995000Y-10790000D02*
G75*
G03*
X11995000Y-10790000I-55000J0D01*
G01*
X16379500Y-9556000D02*
X16489500Y-9666000D01*
X16489500Y-9556000D02*
X16379500Y-9666000D01*
X16489500Y-9611000D02*
G75*
G03*
X16489500Y-9611000I-55000J0D01*
G01*
X16379500Y-9810000D02*
X16489500Y-9920000D01*
X16489500Y-9810000D02*
X16379500Y-9920000D01*
X16489500Y-9865000D02*
G75*
G03*
X16489500Y-9865000I-55000J0D01*
G01*
X16379500Y-10064000D02*
X16489500Y-10174000D01*
X16489500Y-10064000D02*
X16379500Y-10174000D01*
X16489500Y-10119000D02*
G75*
G03*
X16489500Y-10119000I-55000J0D01*
G01*
D18*
X15911500Y-2792500D02*
X16030500Y-2911500D01*
X16030500Y-2792500D02*
X15911500Y-2911500D01*
X15971000Y-2792500D02*
X15971000Y-2911500D01*
X15911500Y-2852000D02*
X16030500Y-2852000D01*
X16165500Y-2792500D02*
X16284500Y-2911500D01*
X16284500Y-2792500D02*
X16165500Y-2911500D01*
X16225000Y-2792500D02*
X16225000Y-2911500D01*
X16165500Y-2852000D02*
X16284500Y-2852000D01*
X16419500Y-2792500D02*
X16538500Y-2911500D01*
X16538500Y-2792500D02*
X16419500Y-2911500D01*
X16479000Y-2792500D02*
X16479000Y-2911500D01*
X16419500Y-2852000D02*
X16538500Y-2852000D01*
X17111500Y-2792500D02*
X17230500Y-2911500D01*
X17230500Y-2792500D02*
X17111500Y-2911500D01*
X17171000Y-2792500D02*
X17171000Y-2911500D01*
X17111500Y-2852000D02*
X17230500Y-2852000D01*
X17365500Y-2792500D02*
X17484500Y-2911500D01*
X17484500Y-2792500D02*
X17365500Y-2911500D01*
X17425000Y-2792500D02*
X17425000Y-2911500D01*
X17365500Y-2852000D02*
X17484500Y-2852000D01*
X17619500Y-2792500D02*
X17738500Y-2911500D01*
X17738500Y-2792500D02*
X17619500Y-2911500D01*
X17679000Y-2792500D02*
X17679000Y-2911500D01*
X17619500Y-2852000D02*
X17738500Y-2852000D01*
X18985500Y-2785500D02*
X19104500Y-2904500D01*
X19104500Y-2785500D02*
X18985500Y-2904500D01*
X19045000Y-2785500D02*
X19045000Y-2904500D01*
X18985500Y-2845000D02*
X19104500Y-2845000D01*
X19239500Y-2785500D02*
X19358500Y-2904500D01*
X19358500Y-2785500D02*
X19239500Y-2904500D01*
X19299000Y-2785500D02*
X19299000Y-2904500D01*
X19239500Y-2845000D02*
X19358500Y-2845000D01*
X19493500Y-2785500D02*
X19612500Y-2904500D01*
X19612500Y-2785500D02*
X19493500Y-2904500D01*
X19553000Y-2785500D02*
X19553000Y-2904500D01*
X19493500Y-2845000D02*
X19612500Y-2845000D01*
X20185500Y-2785500D02*
X20304500Y-2904500D01*
X20304500Y-2785500D02*
X20185500Y-2904500D01*
X20245000Y-2785500D02*
X20245000Y-2904500D01*
X20185500Y-2845000D02*
X20304500Y-2845000D01*
X20439500Y-2785500D02*
X20558500Y-2904500D01*
X20558500Y-2785500D02*
X20439500Y-2904500D01*
X20499000Y-2785500D02*
X20499000Y-2904500D01*
X20439500Y-2845000D02*
X20558500Y-2845000D01*
X20693500Y-2785500D02*
X20812500Y-2904500D01*
X20812500Y-2785500D02*
X20693500Y-2904500D01*
X20753000Y-2785500D02*
X20753000Y-2904500D01*
X20693500Y-2845000D02*
X20812500Y-2845000D01*
D19*
X9547000Y-6228275D02*
X9667000Y-6348275D01*
X9667000Y-6228275D02*
X9547000Y-6348275D01*
X9649427Y-6330702D02*
X9649427Y-6245849D01*
X9564573Y-6245849D01*
X9564573Y-6330702D01*
X9649427Y-6330702D01*
X9547000Y-6978275D02*
X9667000Y-7098275D01*
X9667000Y-6978275D02*
X9547000Y-7098275D01*
X9649427Y-7080702D02*
X9649427Y-6995849D01*
X9564573Y-6995849D01*
X9564573Y-7080702D01*
X9649427Y-7080702D01*
D20*
X12172821Y-5232000D02*
X12299821Y-5359000D01*
X12299821Y-5232000D02*
X12172821Y-5359000D01*
X12236321Y-5359000D02*
X12299821Y-5295500D01*
X12236321Y-5232000D01*
X12172821Y-5295500D01*
X12236321Y-5359000D01*
X12172821Y-5994000D02*
X12299821Y-6121000D01*
X12299821Y-5994000D02*
X12172821Y-6121000D01*
X12236321Y-6121000D02*
X12299821Y-6057500D01*
X12236321Y-5994000D01*
X12172821Y-6057500D01*
X12236321Y-6121000D01*
X12172821Y-6756000D02*
X12299821Y-6883000D01*
X12299821Y-6756000D02*
X12172821Y-6883000D01*
X12236321Y-6883000D02*
X12299821Y-6819500D01*
X12236321Y-6756000D01*
X12172821Y-6819500D01*
X12236321Y-6883000D01*
X14966821Y-5613000D02*
X15093821Y-5740000D01*
X15093821Y-5613000D02*
X14966821Y-5740000D01*
X15030321Y-5740000D02*
X15093821Y-5676500D01*
X15030321Y-5613000D01*
X14966821Y-5676500D01*
X15030321Y-5740000D01*
X14966821Y-5994000D02*
X15093821Y-6121000D01*
X15093821Y-5994000D02*
X14966821Y-6121000D01*
X15030321Y-6121000D02*
X15093821Y-6057500D01*
X15030321Y-5994000D01*
X14966821Y-6057500D01*
X15030321Y-6121000D01*
X14966821Y-6375000D02*
X15093821Y-6502000D01*
X15093821Y-6375000D02*
X14966821Y-6502000D01*
X15030321Y-6502000D02*
X15093821Y-6438500D01*
X15030321Y-6375000D01*
X14966821Y-6438500D01*
X15030321Y-6502000D01*
D21*
X9602500Y-10311500D02*
X9602500Y-10488500D01*
X9514000Y-10400000D02*
X9691000Y-10400000D01*
X9691000Y-10400000D02*
G75*
G03*
X9691000Y-10400000I-88500J0D01*
G01*
X9602500Y-11661500D02*
X9602500Y-11838500D01*
X9514000Y-11750000D02*
X9691000Y-11750000D01*
X9691000Y-11750000D02*
G75*
G03*
X9691000Y-11750000I-88500J0D01*
G01*
X9942500Y-10311500D02*
X9942500Y-10488500D01*
X9854000Y-10400000D02*
X10031000Y-10400000D01*
X10031000Y-10400000D02*
G75*
G03*
X10031000Y-10400000I-88500J0D01*
G01*
X9942500Y-11661500D02*
X9942500Y-11838500D01*
X9854000Y-11750000D02*
X10031000Y-11750000D01*
X10031000Y-11750000D02*
G75*
G03*
X10031000Y-11750000I-88500J0D01*
G01*
X11072500Y-6419000D02*
X11072500Y-6596000D01*
X10984000Y-6507500D02*
X11161000Y-6507500D01*
X11161000Y-6507500D02*
G75*
G03*
X11161000Y-6507500I-88500J0D01*
G01*
X11072500Y-7769000D02*
X11072500Y-7946000D01*
X10984000Y-7857500D02*
X11161000Y-7857500D01*
X11161000Y-7857500D02*
G75*
G03*
X11161000Y-7857500I-88500J0D01*
G01*
X11412500Y-6419000D02*
X11412500Y-6596000D01*
X11324000Y-6507500D02*
X11501000Y-6507500D01*
X11501000Y-6507500D02*
G75*
G03*
X11501000Y-6507500I-88500J0D01*
G01*
X11412500Y-7769000D02*
X11412500Y-7946000D01*
X11324000Y-7857500D02*
X11501000Y-7857500D01*
X11501000Y-7857500D02*
G75*
G03*
X11501000Y-7857500I-88500J0D01*
G01*
X13682500Y-3766500D02*
X13682500Y-3943500D01*
X13594000Y-3855000D02*
X13771000Y-3855000D01*
X13771000Y-3855000D02*
G75*
G03*
X13771000Y-3855000I-88500J0D01*
G01*
X13682500Y-4106500D02*
X13682500Y-4283500D01*
X13594000Y-4195000D02*
X13771000Y-4195000D01*
X13771000Y-4195000D02*
G75*
G03*
X13771000Y-4195000I-88500J0D01*
G01*
X14205000Y-8424000D02*
X14205000Y-8601000D01*
X14116500Y-8512500D02*
X14293500Y-8512500D01*
X14293500Y-8512500D02*
G75*
G03*
X14293500Y-8512500I-88500J0D01*
G01*
X14205000Y-9774000D02*
X14205000Y-9951000D01*
X14116500Y-9862500D02*
X14293500Y-9862500D01*
X14293500Y-9862500D02*
G75*
G03*
X14293500Y-9862500I-88500J0D01*
G01*
X14545000Y-8424000D02*
X14545000Y-8601000D01*
X14456500Y-8512500D02*
X14633500Y-8512500D01*
X14633500Y-8512500D02*
G75*
G03*
X14633500Y-8512500I-88500J0D01*
G01*
X14545000Y-9774000D02*
X14545000Y-9951000D01*
X14456500Y-9862500D02*
X14633500Y-9862500D01*
X14633500Y-9862500D02*
G75*
G03*
X14633500Y-9862500I-88500J0D01*
G01*
X15032500Y-3766500D02*
X15032500Y-3943500D01*
X14944000Y-3855000D02*
X15121000Y-3855000D01*
X15121000Y-3855000D02*
G75*
G03*
X15121000Y-3855000I-88500J0D01*
G01*
X15032500Y-4106500D02*
X15032500Y-4283500D01*
X14944000Y-4195000D02*
X15121000Y-4195000D01*
X15121000Y-4195000D02*
G75*
G03*
X15121000Y-4195000I-88500J0D01*
G01*
X16032500Y-8201500D02*
X16032500Y-8378500D01*
X15944000Y-8290000D02*
X16121000Y-8290000D01*
X16121000Y-8290000D02*
G75*
G03*
X16121000Y-8290000I-88500J0D01*
G01*
X16032500Y-8541500D02*
X16032500Y-8718500D01*
X15944000Y-8630000D02*
X16121000Y-8630000D01*
X16121000Y-8630000D02*
G75*
G03*
X16121000Y-8630000I-88500J0D01*
G01*
X17382500Y-8201500D02*
X17382500Y-8378500D01*
X17294000Y-8290000D02*
X17471000Y-8290000D01*
X17471000Y-8290000D02*
G75*
G03*
X17471000Y-8290000I-88500J0D01*
G01*
X17382500Y-8541500D02*
X17382500Y-8718500D01*
X17294000Y-8630000D02*
X17471000Y-8630000D01*
X17471000Y-8630000D02*
G75*
G03*
X17471000Y-8630000I-88500J0D01*
G01*
X18782500Y-6341500D02*
X18782500Y-6518500D01*
X18694000Y-6430000D02*
X18871000Y-6430000D01*
X18871000Y-6430000D02*
G75*
G03*
X18871000Y-6430000I-88500J0D01*
G01*
X18782500Y-6681500D02*
X18782500Y-6858500D01*
X18694000Y-6770000D02*
X18871000Y-6770000D01*
X18871000Y-6770000D02*
G75*
G03*
X18871000Y-6770000I-88500J0D01*
G01*
X20132500Y-6341500D02*
X20132500Y-6518500D01*
X20044000Y-6430000D02*
X20221000Y-6430000D01*
X20221000Y-6430000D02*
G75*
G03*
X20221000Y-6430000I-88500J0D01*
G01*
X20132500Y-6681500D02*
X20132500Y-6858500D01*
X20044000Y-6770000D02*
X20221000Y-6770000D01*
X20221000Y-6770000D02*
G75*
G03*
X20221000Y-6770000I-88500J0D01*
G01*
D22*
X15098572Y-5363751D02*
X15098572Y-5227249D01*
X14962070Y-5227249D01*
X14962070Y-5363751D01*
X15098572Y-5363751D01*
X15126841Y-5295500D02*
G75*
G03*
X15126841Y-5295500I-96520J0D01*
G01*
X15098572Y-6887751D02*
X15098572Y-6751249D01*
X14962070Y-6751249D01*
X14962070Y-6887751D01*
X15098572Y-6887751D01*
X15126841Y-6819500D02*
G75*
G03*
X15126841Y-6819500I-96520J0D01*
G01*
D23*
X6308000Y-11207500D02*
X6448000Y-11067500D01*
X6308000Y-10927500D01*
X6168000Y-11067500D01*
X6308000Y-11207500D01*
X6448000Y-11067500D02*
G75*
G03*
X6448000Y-11067500I-140000J0D01*
G01*
X6308000Y-12207500D02*
X6448000Y-12067500D01*
X6308000Y-11927500D01*
X6168000Y-12067500D01*
X6308000Y-12207500D01*
X6448000Y-12067500D02*
G75*
G03*
X6448000Y-12067500I-140000J0D01*
G01*
X6725000Y-4948000D02*
X6865000Y-4808000D01*
X6725000Y-4668000D01*
X6585000Y-4808000D01*
X6725000Y-4948000D01*
X6865000Y-4808000D02*
G75*
G03*
X6865000Y-4808000I-140000J0D01*
G01*
X6725000Y-5448000D02*
X6865000Y-5308000D01*
X6725000Y-5168000D01*
X6585000Y-5308000D01*
X6725000Y-5448000D01*
X6865000Y-5308000D02*
G75*
G03*
X6865000Y-5308000I-140000J0D01*
G01*
X6808000Y-11207500D02*
X6948000Y-11067500D01*
X6808000Y-10927500D01*
X6668000Y-11067500D01*
X6808000Y-11207500D01*
X6948000Y-11067500D02*
G75*
G03*
X6948000Y-11067500I-140000J0D01*
G01*
X6808000Y-12207500D02*
X6948000Y-12067500D01*
X6808000Y-11927500D01*
X6668000Y-12067500D01*
X6808000Y-12207500D01*
X6948000Y-12067500D02*
G75*
G03*
X6948000Y-12067500I-140000J0D01*
G01*
X7725000Y-4948000D02*
X7865000Y-4808000D01*
X7725000Y-4668000D01*
X7585000Y-4808000D01*
X7725000Y-4948000D01*
X7865000Y-4808000D02*
G75*
G03*
X7865000Y-4808000I-140000J0D01*
G01*
X7725000Y-5448000D02*
X7865000Y-5308000D01*
X7725000Y-5168000D01*
X7585000Y-5308000D01*
X7725000Y-5448000D01*
X7865000Y-5308000D02*
G75*
G03*
X7865000Y-5308000I-140000J0D01*
G01*
X13370000Y-11827000D02*
X13510000Y-11687000D01*
X13370000Y-11547000D01*
X13230000Y-11687000D01*
X13370000Y-11827000D01*
X13510000Y-11687000D02*
G75*
G03*
X13510000Y-11687000I-140000J0D01*
G01*
X13370000Y-12327000D02*
X13510000Y-12187000D01*
X13370000Y-12047000D01*
X13230000Y-12187000D01*
X13370000Y-12327000D01*
X13510000Y-12187000D02*
G75*
G03*
X13510000Y-12187000I-140000J0D01*
G01*
X14370000Y-11827000D02*
X14510000Y-11687000D01*
X14370000Y-11547000D01*
X14230000Y-11687000D01*
X14370000Y-11827000D01*
X14510000Y-11687000D02*
G75*
G03*
X14510000Y-11687000I-140000J0D01*
G01*
X14370000Y-12327000D02*
X14510000Y-12187000D01*
X14370000Y-12047000D01*
X14230000Y-12187000D01*
X14370000Y-12327000D01*
X14510000Y-12187000D02*
G75*
G03*
X14510000Y-12187000I-140000J0D01*
G01*
X19187000Y-8817500D02*
X19327000Y-8677500D01*
X19187000Y-8537500D01*
X19047000Y-8677500D01*
X19187000Y-8817500D01*
X19327000Y-8677500D02*
G75*
G03*
X19327000Y-8677500I-140000J0D01*
G01*
X19187000Y-9817500D02*
X19327000Y-9677500D01*
X19187000Y-9537500D01*
X19047000Y-9677500D01*
X19187000Y-9817500D01*
X19327000Y-9677500D02*
G75*
G03*
X19327000Y-9677500I-140000J0D01*
G01*
X19687000Y-8817500D02*
X19827000Y-8677500D01*
X19687000Y-8537500D01*
X19547000Y-8677500D01*
X19687000Y-8817500D01*
X19827000Y-8677500D02*
G75*
G03*
X19827000Y-8677500I-140000J0D01*
G01*
X19687000Y-9817500D02*
X19827000Y-9677500D01*
X19687000Y-9537500D01*
X19547000Y-9677500D01*
X19687000Y-9817500D01*
X19827000Y-9677500D02*
G75*
G03*
X19827000Y-9677500I-140000J0D01*
G01*
D24*
X5408000Y-10344500D02*
X5408000Y-10644500D01*
X5258000Y-10494500D02*
X5558000Y-10494500D01*
X5514067Y-10600567D02*
X5514067Y-10388433D01*
X5301933Y-10388433D01*
X5301933Y-10600567D01*
X5514067Y-10600567D01*
X5408000Y-12490500D02*
X5408000Y-12790500D01*
X5258000Y-12640500D02*
X5558000Y-12640500D01*
X5514067Y-12746567D02*
X5514067Y-12534433D01*
X5301933Y-12534433D01*
X5301933Y-12746567D01*
X5514067Y-12746567D01*
X6152000Y-3758000D02*
X6152000Y-4058000D01*
X6002000Y-3908000D02*
X6302000Y-3908000D01*
X6258067Y-4014067D02*
X6258067Y-3801933D01*
X6045933Y-3801933D01*
X6045933Y-4014067D01*
X6258067Y-4014067D01*
X8298000Y-3758000D02*
X8298000Y-4058000D01*
X8148000Y-3908000D02*
X8448000Y-3908000D01*
X8404067Y-4014067D02*
X8404067Y-3801933D01*
X8191933Y-3801933D01*
X8191933Y-4014067D01*
X8404067Y-4014067D01*
X12797000Y-12937000D02*
X12797000Y-13237000D01*
X12647000Y-13087000D02*
X12947000Y-13087000D01*
X12903067Y-13193067D02*
X12903067Y-12980933D01*
X12690933Y-12980933D01*
X12690933Y-13193067D01*
X12903067Y-13193067D01*
X14943000Y-12937000D02*
X14943000Y-13237000D01*
X14793000Y-13087000D02*
X15093000Y-13087000D01*
X15049067Y-13193067D02*
X15049067Y-12980933D01*
X14836933Y-12980933D01*
X14836933Y-13193067D01*
X15049067Y-13193067D01*
X20587000Y-7954500D02*
X20587000Y-8254500D01*
X20437000Y-8104500D02*
X20737000Y-8104500D01*
X20693067Y-8210567D02*
X20693067Y-7998433D01*
X20480933Y-7998433D01*
X20480933Y-8210567D01*
X20693067Y-8210567D01*
X20587000Y-10100500D02*
X20587000Y-10400500D01*
X20437000Y-10250500D02*
X20737000Y-10250500D01*
X20693067Y-10356567D02*
X20693067Y-10144433D01*
X20480933Y-10144433D01*
X20480933Y-10356567D01*
X20693067Y-10356567D01*
D25*
X4500000Y-2840000D02*
X4500000Y-3160000D01*
X4340000Y-3000000D02*
X4660000Y-3000000D01*
X4500000Y-3160000D02*
X4660000Y-3000000D01*
X4500000Y-2840000D01*
X4340000Y-3000000D01*
X4500000Y-3160000D01*
X4500000Y-13840000D02*
X4500000Y-14160000D01*
X4340000Y-14000000D02*
X4660000Y-14000000D01*
X4500000Y-14160000D02*
X4660000Y-14000000D01*
X4500000Y-13840000D01*
X4340000Y-14000000D01*
X4500000Y-14160000D01*
X21500000Y-2840000D02*
X21500000Y-3160000D01*
X21340000Y-3000000D02*
X21660000Y-3000000D01*
X21500000Y-3160000D02*
X21660000Y-3000000D01*
X21500000Y-2840000D01*
X21340000Y-3000000D01*
X21500000Y-3160000D01*
X21500000Y-13840000D02*
X21500000Y-14160000D01*
X21340000Y-14000000D02*
X21660000Y-14000000D01*
X21500000Y-14160000D02*
X21660000Y-14000000D01*
X21500000Y-13840000D01*
X21340000Y-14000000D01*
X21500000Y-14160000D01*
D11*
X4252619Y-14815476D02*
X4252619Y-14615476D01*
X4300238Y-14615476D01*
X4328810Y-14625000D01*
X4347857Y-14644048D01*
X4357381Y-14663095D01*
X4366905Y-14701190D01*
X4366905Y-14729762D01*
X4357381Y-14767857D01*
X4347857Y-14786905D01*
X4328810Y-14805952D01*
X4300238Y-14815476D01*
X4252619Y-14815476D01*
X4452619Y-14815476D02*
X4452619Y-14682143D01*
X4452619Y-14720238D02*
X4462143Y-14701190D01*
X4471667Y-14691667D01*
X4490714Y-14682143D01*
X4509762Y-14682143D01*
X4576429Y-14815476D02*
X4576429Y-14682143D01*
X4576429Y-14615476D02*
X4566905Y-14625000D01*
X4576429Y-14634524D01*
X4585952Y-14625000D01*
X4576429Y-14615476D01*
X4576429Y-14634524D01*
X4700238Y-14815476D02*
X4681190Y-14805952D01*
X4671667Y-14786905D01*
X4671667Y-14615476D01*
X4805000Y-14815476D02*
X4785952Y-14805952D01*
X4776429Y-14786905D01*
X4776429Y-14615476D01*
X5033571Y-14815476D02*
X5033571Y-14615476D01*
X5100238Y-14758333D01*
X5166905Y-14615476D01*
X5166905Y-14815476D01*
X5347857Y-14815476D02*
X5347857Y-14710714D01*
X5338333Y-14691667D01*
X5319286Y-14682143D01*
X5281190Y-14682143D01*
X5262143Y-14691667D01*
X5347857Y-14805952D02*
X5328810Y-14815476D01*
X5281190Y-14815476D01*
X5262143Y-14805952D01*
X5252619Y-14786905D01*
X5252619Y-14767857D01*
X5262143Y-14748809D01*
X5281190Y-14739286D01*
X5328810Y-14739286D01*
X5347857Y-14729762D01*
X5443095Y-14682143D02*
X5443095Y-14882143D01*
X5443095Y-14691667D02*
X5462143Y-14682143D01*
X5500238Y-14682143D01*
X5519286Y-14691667D01*
X5528810Y-14701190D01*
X5538333Y-14720238D01*
X5538333Y-14777381D01*
X5528810Y-14796428D01*
X5519286Y-14805952D01*
X5500238Y-14815476D01*
X5462143Y-14815476D01*
X5443095Y-14805952D01*
X5624048Y-14796428D02*
X5633571Y-14805952D01*
X5624048Y-14815476D01*
X5614524Y-14805952D01*
X5624048Y-14796428D01*
X5624048Y-14815476D01*
X5624048Y-14691667D02*
X5633571Y-14701190D01*
X5624048Y-14710714D01*
X5614524Y-14701190D01*
X5624048Y-14691667D01*
X5624048Y-14710714D01*
D12*
X3955000Y-15125000D02*
X3995000Y-15165000D01*
X3995000Y-15125000D02*
X3955000Y-15165000D01*
D11*
X4290714Y-15035476D02*
X4309762Y-15035476D01*
X4328810Y-15045000D01*
X4338333Y-15054524D01*
X4347857Y-15073571D01*
X4357381Y-15111667D01*
X4357381Y-15159286D01*
X4347857Y-15197381D01*
X4338333Y-15216428D01*
X4328810Y-15225952D01*
X4309762Y-15235476D01*
X4290714Y-15235476D01*
X4271667Y-15225952D01*
X4262143Y-15216428D01*
X4252619Y-15197381D01*
X4243095Y-15159286D01*
X4243095Y-15111667D01*
X4252619Y-15073571D01*
X4262143Y-15054524D01*
X4271667Y-15045000D01*
X4290714Y-15035476D01*
X4443095Y-15216428D02*
X4452619Y-15225952D01*
X4443095Y-15235476D01*
X4433571Y-15225952D01*
X4443095Y-15216428D01*
X4443095Y-15235476D01*
X4624048Y-15102143D02*
X4624048Y-15235476D01*
X4576429Y-15025952D02*
X4528810Y-15168809D01*
X4652619Y-15168809D01*
X4766905Y-15035476D02*
X4785952Y-15035476D01*
X4805000Y-15045000D01*
X4814524Y-15054524D01*
X4824048Y-15073571D01*
X4833571Y-15111667D01*
X4833571Y-15159286D01*
X4824048Y-15197381D01*
X4814524Y-15216428D01*
X4805000Y-15225952D01*
X4785952Y-15235476D01*
X4766905Y-15235476D01*
X4747857Y-15225952D01*
X4738333Y-15216428D01*
X4728810Y-15197381D01*
X4719286Y-15159286D01*
X4719286Y-15111667D01*
X4728810Y-15073571D01*
X4738333Y-15054524D01*
X4747857Y-15045000D01*
X4766905Y-15035476D01*
X4957381Y-15035476D02*
X4976429Y-15035476D01*
X4995476Y-15045000D01*
X5005000Y-15054524D01*
X5014524Y-15073571D01*
X5024048Y-15111667D01*
X5024048Y-15159286D01*
X5014524Y-15197381D01*
X5005000Y-15216428D01*
X4995476Y-15225952D01*
X4976429Y-15235476D01*
X4957381Y-15235476D01*
X4938333Y-15225952D01*
X4928810Y-15216428D01*
X4919286Y-15197381D01*
X4909762Y-15159286D01*
X4909762Y-15111667D01*
X4919286Y-15073571D01*
X4928810Y-15054524D01*
X4938333Y-15045000D01*
X4957381Y-15035476D01*
X5109762Y-15235476D02*
X5109762Y-15102143D01*
X5109762Y-15121190D02*
X5119286Y-15111667D01*
X5138333Y-15102143D01*
X5166905Y-15102143D01*
X5185952Y-15111667D01*
X5195476Y-15130714D01*
X5195476Y-15235476D01*
X5195476Y-15130714D02*
X5205000Y-15111667D01*
X5224048Y-15102143D01*
X5252619Y-15102143D01*
X5271667Y-15111667D01*
X5281190Y-15130714D01*
X5281190Y-15235476D01*
X5376429Y-15235476D02*
X5376429Y-15102143D01*
X5376429Y-15121190D02*
X5385952Y-15111667D01*
X5405000Y-15102143D01*
X5433571Y-15102143D01*
X5452619Y-15111667D01*
X5462143Y-15130714D01*
X5462143Y-15235476D01*
X5462143Y-15130714D02*
X5471667Y-15111667D01*
X5490714Y-15102143D01*
X5519286Y-15102143D01*
X5538333Y-15111667D01*
X5547857Y-15130714D01*
X5547857Y-15235476D01*
X5938333Y-15025952D02*
X5766905Y-15283095D01*
X6195476Y-15035476D02*
X6214524Y-15035476D01*
X6233571Y-15045000D01*
X6243095Y-15054524D01*
X6252619Y-15073571D01*
X6262143Y-15111667D01*
X6262143Y-15159286D01*
X6252619Y-15197381D01*
X6243095Y-15216428D01*
X6233571Y-15225952D01*
X6214524Y-15235476D01*
X6195476Y-15235476D01*
X6176428Y-15225952D01*
X6166905Y-15216428D01*
X6157381Y-15197381D01*
X6147857Y-15159286D01*
X6147857Y-15111667D01*
X6157381Y-15073571D01*
X6166905Y-15054524D01*
X6176428Y-15045000D01*
X6195476Y-15035476D01*
X6347857Y-15216428D02*
X6357381Y-15225952D01*
X6347857Y-15235476D01*
X6338333Y-15225952D01*
X6347857Y-15216428D01*
X6347857Y-15235476D01*
X6481190Y-15035476D02*
X6500238Y-15035476D01*
X6519286Y-15045000D01*
X6528809Y-15054524D01*
X6538333Y-15073571D01*
X6547857Y-15111667D01*
X6547857Y-15159286D01*
X6538333Y-15197381D01*
X6528809Y-15216428D01*
X6519286Y-15225952D01*
X6500238Y-15235476D01*
X6481190Y-15235476D01*
X6462143Y-15225952D01*
X6452619Y-15216428D01*
X6443095Y-15197381D01*
X6433571Y-15159286D01*
X6433571Y-15111667D01*
X6443095Y-15073571D01*
X6452619Y-15054524D01*
X6462143Y-15045000D01*
X6481190Y-15035476D01*
X6738333Y-15235476D02*
X6624048Y-15235476D01*
X6681190Y-15235476D02*
X6681190Y-15035476D01*
X6662143Y-15064048D01*
X6643095Y-15083095D01*
X6624048Y-15092619D01*
X6919286Y-15035476D02*
X6824048Y-15035476D01*
X6814524Y-15130714D01*
X6824048Y-15121190D01*
X6843095Y-15111667D01*
X6890714Y-15111667D01*
X6909762Y-15121190D01*
X6919286Y-15130714D01*
X6928809Y-15149762D01*
X6928809Y-15197381D01*
X6919286Y-15216428D01*
X6909762Y-15225952D01*
X6890714Y-15235476D01*
X6843095Y-15235476D01*
X6824048Y-15225952D01*
X6814524Y-15216428D01*
X6995476Y-15035476D02*
X7128809Y-15035476D01*
X7043095Y-15235476D01*
X7195476Y-15035476D02*
X7195476Y-15073571D01*
X7271667Y-15035476D02*
X7271667Y-15073571D01*
X7566905Y-15311667D02*
X7557381Y-15302143D01*
X7538333Y-15273571D01*
X7528809Y-15254524D01*
X7519286Y-15225952D01*
X7509762Y-15178333D01*
X7509762Y-15140238D01*
X7519286Y-15092619D01*
X7528809Y-15064048D01*
X7538333Y-15045000D01*
X7557381Y-15016428D01*
X7566905Y-15006905D01*
X7633571Y-15054524D02*
X7643095Y-15045000D01*
X7662143Y-15035476D01*
X7709762Y-15035476D01*
X7728809Y-15045000D01*
X7738333Y-15054524D01*
X7747857Y-15073571D01*
X7747857Y-15092619D01*
X7738333Y-15121190D01*
X7624048Y-15235476D01*
X7747857Y-15235476D01*
X7871667Y-15035476D02*
X7890714Y-15035476D01*
X7909762Y-15045000D01*
X7919286Y-15054524D01*
X7928809Y-15073571D01*
X7938333Y-15111667D01*
X7938333Y-15159286D01*
X7928809Y-15197381D01*
X7919286Y-15216428D01*
X7909762Y-15225952D01*
X7890714Y-15235476D01*
X7871667Y-15235476D01*
X7852619Y-15225952D01*
X7843095Y-15216428D01*
X7833571Y-15197381D01*
X7824048Y-15159286D01*
X7824048Y-15111667D01*
X7833571Y-15073571D01*
X7843095Y-15054524D01*
X7852619Y-15045000D01*
X7871667Y-15035476D01*
X8109762Y-15035476D02*
X8071667Y-15035476D01*
X8052619Y-15045000D01*
X8043095Y-15054524D01*
X8024048Y-15083095D01*
X8014524Y-15121190D01*
X8014524Y-15197381D01*
X8024048Y-15216428D01*
X8033571Y-15225952D01*
X8052619Y-15235476D01*
X8090714Y-15235476D01*
X8109762Y-15225952D01*
X8119286Y-15216428D01*
X8128809Y-15197381D01*
X8128809Y-15149762D01*
X8119286Y-15130714D01*
X8109762Y-15121190D01*
X8090714Y-15111667D01*
X8052619Y-15111667D01*
X8033571Y-15121190D01*
X8024048Y-15130714D01*
X8014524Y-15149762D01*
X8366905Y-15235476D02*
X8366905Y-15035476D01*
X8452619Y-15235476D02*
X8452619Y-15130714D01*
X8443095Y-15111667D01*
X8424048Y-15102143D01*
X8395476Y-15102143D01*
X8376428Y-15111667D01*
X8366905Y-15121190D01*
X8576429Y-15235476D02*
X8557381Y-15225952D01*
X8547857Y-15216428D01*
X8538333Y-15197381D01*
X8538333Y-15140238D01*
X8547857Y-15121190D01*
X8557381Y-15111667D01*
X8576429Y-15102143D01*
X8605000Y-15102143D01*
X8624048Y-15111667D01*
X8633571Y-15121190D01*
X8643095Y-15140238D01*
X8643095Y-15197381D01*
X8633571Y-15216428D01*
X8624048Y-15225952D01*
X8605000Y-15235476D01*
X8576429Y-15235476D01*
X8757381Y-15235476D02*
X8738333Y-15225952D01*
X8728810Y-15206905D01*
X8728810Y-15035476D01*
X8909762Y-15225952D02*
X8890714Y-15235476D01*
X8852619Y-15235476D01*
X8833571Y-15225952D01*
X8824048Y-15206905D01*
X8824048Y-15130714D01*
X8833571Y-15111667D01*
X8852619Y-15102143D01*
X8890714Y-15102143D01*
X8909762Y-15111667D01*
X8919286Y-15130714D01*
X8919286Y-15149762D01*
X8824048Y-15168809D01*
X8995476Y-15225952D02*
X9014524Y-15235476D01*
X9052619Y-15235476D01*
X9071667Y-15225952D01*
X9081190Y-15206905D01*
X9081190Y-15197381D01*
X9071667Y-15178333D01*
X9052619Y-15168809D01*
X9024048Y-15168809D01*
X9005000Y-15159286D01*
X8995476Y-15140238D01*
X8995476Y-15130714D01*
X9005000Y-15111667D01*
X9024048Y-15102143D01*
X9052619Y-15102143D01*
X9071667Y-15111667D01*
X9147857Y-15311667D02*
X9157381Y-15302143D01*
X9176429Y-15273571D01*
X9185952Y-15254524D01*
X9195476Y-15225952D01*
X9205000Y-15178333D01*
X9205000Y-15140238D01*
X9195476Y-15092619D01*
X9185952Y-15064048D01*
X9176429Y-15045000D01*
X9157381Y-15016428D01*
X9147857Y-15006905D01*
D13*
X3995000Y-15409000D02*
G75*
G03*
X3995000Y-15409000I-25000J0D01*
G01*
D11*
X4290714Y-15299476D02*
X4309762Y-15299476D01*
X4328810Y-15309000D01*
X4338333Y-15318524D01*
X4347857Y-15337571D01*
X4357381Y-15375667D01*
X4357381Y-15423286D01*
X4347857Y-15461381D01*
X4338333Y-15480428D01*
X4328810Y-15489952D01*
X4309762Y-15499476D01*
X4290714Y-15499476D01*
X4271667Y-15489952D01*
X4262143Y-15480428D01*
X4252619Y-15461381D01*
X4243095Y-15423286D01*
X4243095Y-15375667D01*
X4252619Y-15337571D01*
X4262143Y-15318524D01*
X4271667Y-15309000D01*
X4290714Y-15299476D01*
X4443095Y-15480428D02*
X4452619Y-15489952D01*
X4443095Y-15499476D01*
X4433571Y-15489952D01*
X4443095Y-15480428D01*
X4443095Y-15499476D01*
X4633571Y-15299476D02*
X4538333Y-15299476D01*
X4528810Y-15394714D01*
X4538333Y-15385190D01*
X4557381Y-15375667D01*
X4605000Y-15375667D01*
X4624048Y-15385190D01*
X4633571Y-15394714D01*
X4643095Y-15413762D01*
X4643095Y-15461381D01*
X4633571Y-15480428D01*
X4624048Y-15489952D01*
X4605000Y-15499476D01*
X4557381Y-15499476D01*
X4538333Y-15489952D01*
X4528810Y-15480428D01*
X4766905Y-15299476D02*
X4785952Y-15299476D01*
X4805000Y-15309000D01*
X4814524Y-15318524D01*
X4824048Y-15337571D01*
X4833571Y-15375667D01*
X4833571Y-15423286D01*
X4824048Y-15461381D01*
X4814524Y-15480428D01*
X4805000Y-15489952D01*
X4785952Y-15499476D01*
X4766905Y-15499476D01*
X4747857Y-15489952D01*
X4738333Y-15480428D01*
X4728810Y-15461381D01*
X4719286Y-15423286D01*
X4719286Y-15375667D01*
X4728810Y-15337571D01*
X4738333Y-15318524D01*
X4747857Y-15309000D01*
X4766905Y-15299476D01*
X4957381Y-15299476D02*
X4976429Y-15299476D01*
X4995476Y-15309000D01*
X5005000Y-15318524D01*
X5014524Y-15337571D01*
X5024048Y-15375667D01*
X5024048Y-15423286D01*
X5014524Y-15461381D01*
X5005000Y-15480428D01*
X4995476Y-15489952D01*
X4976429Y-15499476D01*
X4957381Y-15499476D01*
X4938333Y-15489952D01*
X4928810Y-15480428D01*
X4919286Y-15461381D01*
X4909762Y-15423286D01*
X4909762Y-15375667D01*
X4919286Y-15337571D01*
X4928810Y-15318524D01*
X4938333Y-15309000D01*
X4957381Y-15299476D01*
X5109762Y-15499476D02*
X5109762Y-15366143D01*
X5109762Y-15385190D02*
X5119286Y-15375667D01*
X5138333Y-15366143D01*
X5166905Y-15366143D01*
X5185952Y-15375667D01*
X5195476Y-15394714D01*
X5195476Y-15499476D01*
X5195476Y-15394714D02*
X5205000Y-15375667D01*
X5224048Y-15366143D01*
X5252619Y-15366143D01*
X5271667Y-15375667D01*
X5281190Y-15394714D01*
X5281190Y-15499476D01*
X5376429Y-15499476D02*
X5376429Y-15366143D01*
X5376429Y-15385190D02*
X5385952Y-15375667D01*
X5405000Y-15366143D01*
X5433571Y-15366143D01*
X5452619Y-15375667D01*
X5462143Y-15394714D01*
X5462143Y-15499476D01*
X5462143Y-15394714D02*
X5471667Y-15375667D01*
X5490714Y-15366143D01*
X5519286Y-15366143D01*
X5538333Y-15375667D01*
X5547857Y-15394714D01*
X5547857Y-15499476D01*
X5938333Y-15289952D02*
X5766905Y-15547095D01*
X6195476Y-15299476D02*
X6214524Y-15299476D01*
X6233571Y-15309000D01*
X6243095Y-15318524D01*
X6252619Y-15337571D01*
X6262143Y-15375667D01*
X6262143Y-15423286D01*
X6252619Y-15461381D01*
X6243095Y-15480428D01*
X6233571Y-15489952D01*
X6214524Y-15499476D01*
X6195476Y-15499476D01*
X6176428Y-15489952D01*
X6166905Y-15480428D01*
X6157381Y-15461381D01*
X6147857Y-15423286D01*
X6147857Y-15375667D01*
X6157381Y-15337571D01*
X6166905Y-15318524D01*
X6176428Y-15309000D01*
X6195476Y-15299476D01*
X6347857Y-15480428D02*
X6357381Y-15489952D01*
X6347857Y-15499476D01*
X6338333Y-15489952D01*
X6347857Y-15480428D01*
X6347857Y-15499476D01*
X6481190Y-15299476D02*
X6500238Y-15299476D01*
X6519286Y-15309000D01*
X6528809Y-15318524D01*
X6538333Y-15337571D01*
X6547857Y-15375667D01*
X6547857Y-15423286D01*
X6538333Y-15461381D01*
X6528809Y-15480428D01*
X6519286Y-15489952D01*
X6500238Y-15499476D01*
X6481190Y-15499476D01*
X6462143Y-15489952D01*
X6452619Y-15480428D01*
X6443095Y-15461381D01*
X6433571Y-15423286D01*
X6433571Y-15375667D01*
X6443095Y-15337571D01*
X6452619Y-15318524D01*
X6462143Y-15309000D01*
X6481190Y-15299476D01*
X6738333Y-15499476D02*
X6624048Y-15499476D01*
X6681190Y-15499476D02*
X6681190Y-15299476D01*
X6662143Y-15328048D01*
X6643095Y-15347095D01*
X6624048Y-15356619D01*
X6833571Y-15499476D02*
X6871667Y-15499476D01*
X6890714Y-15489952D01*
X6900238Y-15480428D01*
X6919286Y-15451857D01*
X6928809Y-15413762D01*
X6928809Y-15337571D01*
X6919286Y-15318524D01*
X6909762Y-15309000D01*
X6890714Y-15299476D01*
X6852619Y-15299476D01*
X6833571Y-15309000D01*
X6824048Y-15318524D01*
X6814524Y-15337571D01*
X6814524Y-15385190D01*
X6824048Y-15404238D01*
X6833571Y-15413762D01*
X6852619Y-15423286D01*
X6890714Y-15423286D01*
X6909762Y-15413762D01*
X6919286Y-15404238D01*
X6928809Y-15385190D01*
X6995476Y-15299476D02*
X7128809Y-15299476D01*
X7043095Y-15499476D01*
X7195476Y-15299476D02*
X7195476Y-15337571D01*
X7271667Y-15299476D02*
X7271667Y-15337571D01*
X7566905Y-15575667D02*
X7557381Y-15566143D01*
X7538333Y-15537571D01*
X7528809Y-15518524D01*
X7519286Y-15489952D01*
X7509762Y-15442333D01*
X7509762Y-15404238D01*
X7519286Y-15356619D01*
X7528809Y-15328048D01*
X7538333Y-15309000D01*
X7557381Y-15280428D01*
X7566905Y-15270905D01*
X7624048Y-15299476D02*
X7747857Y-15299476D01*
X7681190Y-15375667D01*
X7709762Y-15375667D01*
X7728809Y-15385190D01*
X7738333Y-15394714D01*
X7747857Y-15413762D01*
X7747857Y-15461381D01*
X7738333Y-15480428D01*
X7728809Y-15489952D01*
X7709762Y-15499476D01*
X7652619Y-15499476D01*
X7633571Y-15489952D01*
X7624048Y-15480428D01*
X7824048Y-15318524D02*
X7833571Y-15309000D01*
X7852619Y-15299476D01*
X7900238Y-15299476D01*
X7919286Y-15309000D01*
X7928809Y-15318524D01*
X7938333Y-15337571D01*
X7938333Y-15356619D01*
X7928809Y-15385190D01*
X7814524Y-15499476D01*
X7938333Y-15499476D01*
X8176428Y-15499476D02*
X8176428Y-15299476D01*
X8262143Y-15499476D02*
X8262143Y-15394714D01*
X8252619Y-15375667D01*
X8233571Y-15366143D01*
X8205000Y-15366143D01*
X8185952Y-15375667D01*
X8176428Y-15385190D01*
X8385952Y-15499476D02*
X8366905Y-15489952D01*
X8357381Y-15480428D01*
X8347857Y-15461381D01*
X8347857Y-15404238D01*
X8357381Y-15385190D01*
X8366905Y-15375667D01*
X8385952Y-15366143D01*
X8414524Y-15366143D01*
X8433571Y-15375667D01*
X8443095Y-15385190D01*
X8452619Y-15404238D01*
X8452619Y-15461381D01*
X8443095Y-15480428D01*
X8433571Y-15489952D01*
X8414524Y-15499476D01*
X8385952Y-15499476D01*
X8566905Y-15499476D02*
X8547857Y-15489952D01*
X8538333Y-15470905D01*
X8538333Y-15299476D01*
X8719286Y-15489952D02*
X8700238Y-15499476D01*
X8662143Y-15499476D01*
X8643095Y-15489952D01*
X8633571Y-15470905D01*
X8633571Y-15394714D01*
X8643095Y-15375667D01*
X8662143Y-15366143D01*
X8700238Y-15366143D01*
X8719286Y-15375667D01*
X8728810Y-15394714D01*
X8728810Y-15413762D01*
X8633571Y-15432809D01*
X8805000Y-15489952D02*
X8824048Y-15499476D01*
X8862143Y-15499476D01*
X8881190Y-15489952D01*
X8890714Y-15470905D01*
X8890714Y-15461381D01*
X8881190Y-15442333D01*
X8862143Y-15432809D01*
X8833571Y-15432809D01*
X8814524Y-15423286D01*
X8805000Y-15404238D01*
X8805000Y-15394714D01*
X8814524Y-15375667D01*
X8833571Y-15366143D01*
X8862143Y-15366143D01*
X8881190Y-15375667D01*
X8957381Y-15575667D02*
X8966905Y-15566143D01*
X8985952Y-15537571D01*
X8995476Y-15518524D01*
X9005000Y-15489952D01*
X9014524Y-15442333D01*
X9014524Y-15404238D01*
X9005000Y-15356619D01*
X8995476Y-15328048D01*
X8985952Y-15309000D01*
X8966905Y-15280428D01*
X8957381Y-15270905D01*
D14*
X3955000Y-15633000D02*
X3955000Y-15713000D01*
X3915000Y-15673000D02*
X3995000Y-15673000D01*
D11*
X4290714Y-15563476D02*
X4309762Y-15563476D01*
X4328810Y-15573000D01*
X4338333Y-15582524D01*
X4347857Y-15601571D01*
X4357381Y-15639667D01*
X4357381Y-15687286D01*
X4347857Y-15725381D01*
X4338333Y-15744428D01*
X4328810Y-15753952D01*
X4309762Y-15763476D01*
X4290714Y-15763476D01*
X4271667Y-15753952D01*
X4262143Y-15744428D01*
X4252619Y-15725381D01*
X4243095Y-15687286D01*
X4243095Y-15639667D01*
X4252619Y-15601571D01*
X4262143Y-15582524D01*
X4271667Y-15573000D01*
X4290714Y-15563476D01*
X4443095Y-15744428D02*
X4452619Y-15753952D01*
X4443095Y-15763476D01*
X4433571Y-15753952D01*
X4443095Y-15744428D01*
X4443095Y-15763476D01*
X4566905Y-15649190D02*
X4547857Y-15639667D01*
X4538333Y-15630143D01*
X4528810Y-15611095D01*
X4528810Y-15601571D01*
X4538333Y-15582524D01*
X4547857Y-15573000D01*
X4566905Y-15563476D01*
X4605000Y-15563476D01*
X4624048Y-15573000D01*
X4633571Y-15582524D01*
X4643095Y-15601571D01*
X4643095Y-15611095D01*
X4633571Y-15630143D01*
X4624048Y-15639667D01*
X4605000Y-15649190D01*
X4566905Y-15649190D01*
X4547857Y-15658714D01*
X4538333Y-15668238D01*
X4528810Y-15687286D01*
X4528810Y-15725381D01*
X4538333Y-15744428D01*
X4547857Y-15753952D01*
X4566905Y-15763476D01*
X4605000Y-15763476D01*
X4624048Y-15753952D01*
X4633571Y-15744428D01*
X4643095Y-15725381D01*
X4643095Y-15687286D01*
X4633571Y-15668238D01*
X4624048Y-15658714D01*
X4605000Y-15649190D01*
X4766905Y-15563476D02*
X4785952Y-15563476D01*
X4805000Y-15573000D01*
X4814524Y-15582524D01*
X4824048Y-15601571D01*
X4833571Y-15639667D01*
X4833571Y-15687286D01*
X4824048Y-15725381D01*
X4814524Y-15744428D01*
X4805000Y-15753952D01*
X4785952Y-15763476D01*
X4766905Y-15763476D01*
X4747857Y-15753952D01*
X4738333Y-15744428D01*
X4728810Y-15725381D01*
X4719286Y-15687286D01*
X4719286Y-15639667D01*
X4728810Y-15601571D01*
X4738333Y-15582524D01*
X4747857Y-15573000D01*
X4766905Y-15563476D01*
X4957381Y-15563476D02*
X4976429Y-15563476D01*
X4995476Y-15573000D01*
X5005000Y-15582524D01*
X5014524Y-15601571D01*
X5024048Y-15639667D01*
X5024048Y-15687286D01*
X5014524Y-15725381D01*
X5005000Y-15744428D01*
X4995476Y-15753952D01*
X4976429Y-15763476D01*
X4957381Y-15763476D01*
X4938333Y-15753952D01*
X4928810Y-15744428D01*
X4919286Y-15725381D01*
X4909762Y-15687286D01*
X4909762Y-15639667D01*
X4919286Y-15601571D01*
X4928810Y-15582524D01*
X4938333Y-15573000D01*
X4957381Y-15563476D01*
X5109762Y-15763476D02*
X5109762Y-15630143D01*
X5109762Y-15649190D02*
X5119286Y-15639667D01*
X5138333Y-15630143D01*
X5166905Y-15630143D01*
X5185952Y-15639667D01*
X5195476Y-15658714D01*
X5195476Y-15763476D01*
X5195476Y-15658714D02*
X5205000Y-15639667D01*
X5224048Y-15630143D01*
X5252619Y-15630143D01*
X5271667Y-15639667D01*
X5281190Y-15658714D01*
X5281190Y-15763476D01*
X5376429Y-15763476D02*
X5376429Y-15630143D01*
X5376429Y-15649190D02*
X5385952Y-15639667D01*
X5405000Y-15630143D01*
X5433571Y-15630143D01*
X5452619Y-15639667D01*
X5462143Y-15658714D01*
X5462143Y-15763476D01*
X5462143Y-15658714D02*
X5471667Y-15639667D01*
X5490714Y-15630143D01*
X5519286Y-15630143D01*
X5538333Y-15639667D01*
X5547857Y-15658714D01*
X5547857Y-15763476D01*
X5938333Y-15553952D02*
X5766905Y-15811095D01*
X6195476Y-15563476D02*
X6214524Y-15563476D01*
X6233571Y-15573000D01*
X6243095Y-15582524D01*
X6252619Y-15601571D01*
X6262143Y-15639667D01*
X6262143Y-15687286D01*
X6252619Y-15725381D01*
X6243095Y-15744428D01*
X6233571Y-15753952D01*
X6214524Y-15763476D01*
X6195476Y-15763476D01*
X6176428Y-15753952D01*
X6166905Y-15744428D01*
X6157381Y-15725381D01*
X6147857Y-15687286D01*
X6147857Y-15639667D01*
X6157381Y-15601571D01*
X6166905Y-15582524D01*
X6176428Y-15573000D01*
X6195476Y-15563476D01*
X6347857Y-15744428D02*
X6357381Y-15753952D01*
X6347857Y-15763476D01*
X6338333Y-15753952D01*
X6347857Y-15744428D01*
X6347857Y-15763476D01*
X6481190Y-15563476D02*
X6500238Y-15563476D01*
X6519286Y-15573000D01*
X6528809Y-15582524D01*
X6538333Y-15601571D01*
X6547857Y-15639667D01*
X6547857Y-15687286D01*
X6538333Y-15725381D01*
X6528809Y-15744428D01*
X6519286Y-15753952D01*
X6500238Y-15763476D01*
X6481190Y-15763476D01*
X6462143Y-15753952D01*
X6452619Y-15744428D01*
X6443095Y-15725381D01*
X6433571Y-15687286D01*
X6433571Y-15639667D01*
X6443095Y-15601571D01*
X6452619Y-15582524D01*
X6462143Y-15573000D01*
X6481190Y-15563476D01*
X6614524Y-15563476D02*
X6738333Y-15563476D01*
X6671667Y-15639667D01*
X6700238Y-15639667D01*
X6719286Y-15649190D01*
X6728809Y-15658714D01*
X6738333Y-15677762D01*
X6738333Y-15725381D01*
X6728809Y-15744428D01*
X6719286Y-15753952D01*
X6700238Y-15763476D01*
X6643095Y-15763476D01*
X6624048Y-15753952D01*
X6614524Y-15744428D01*
X6928809Y-15763476D02*
X6814524Y-15763476D01*
X6871667Y-15763476D02*
X6871667Y-15563476D01*
X6852619Y-15592048D01*
X6833571Y-15611095D01*
X6814524Y-15620619D01*
X7109762Y-15563476D02*
X7014524Y-15563476D01*
X7005000Y-15658714D01*
X7014524Y-15649190D01*
X7033571Y-15639667D01*
X7081190Y-15639667D01*
X7100238Y-15649190D01*
X7109762Y-15658714D01*
X7119286Y-15677762D01*
X7119286Y-15725381D01*
X7109762Y-15744428D01*
X7100238Y-15753952D01*
X7081190Y-15763476D01*
X7033571Y-15763476D01*
X7014524Y-15753952D01*
X7005000Y-15744428D01*
X7195476Y-15563476D02*
X7195476Y-15601571D01*
X7271667Y-15563476D02*
X7271667Y-15601571D01*
X7566905Y-15839667D02*
X7557381Y-15830143D01*
X7538333Y-15801571D01*
X7528809Y-15782524D01*
X7519286Y-15753952D01*
X7509762Y-15706333D01*
X7509762Y-15668238D01*
X7519286Y-15620619D01*
X7528809Y-15592048D01*
X7538333Y-15573000D01*
X7557381Y-15544428D01*
X7566905Y-15534905D01*
X7633571Y-15582524D02*
X7643095Y-15573000D01*
X7662143Y-15563476D01*
X7709762Y-15563476D01*
X7728809Y-15573000D01*
X7738333Y-15582524D01*
X7747857Y-15601571D01*
X7747857Y-15620619D01*
X7738333Y-15649190D01*
X7624048Y-15763476D01*
X7747857Y-15763476D01*
X7985952Y-15763476D02*
X7985952Y-15563476D01*
X8071667Y-15763476D02*
X8071667Y-15658714D01*
X8062143Y-15639667D01*
X8043095Y-15630143D01*
X8014524Y-15630143D01*
X7995476Y-15639667D01*
X7985952Y-15649190D01*
X8195476Y-15763476D02*
X8176428Y-15753952D01*
X8166905Y-15744428D01*
X8157381Y-15725381D01*
X8157381Y-15668238D01*
X8166905Y-15649190D01*
X8176428Y-15639667D01*
X8195476Y-15630143D01*
X8224048Y-15630143D01*
X8243095Y-15639667D01*
X8252619Y-15649190D01*
X8262143Y-15668238D01*
X8262143Y-15725381D01*
X8252619Y-15744428D01*
X8243095Y-15753952D01*
X8224048Y-15763476D01*
X8195476Y-15763476D01*
X8376428Y-15763476D02*
X8357381Y-15753952D01*
X8347857Y-15734905D01*
X8347857Y-15563476D01*
X8528810Y-15753952D02*
X8509762Y-15763476D01*
X8471667Y-15763476D01*
X8452619Y-15753952D01*
X8443095Y-15734905D01*
X8443095Y-15658714D01*
X8452619Y-15639667D01*
X8471667Y-15630143D01*
X8509762Y-15630143D01*
X8528810Y-15639667D01*
X8538333Y-15658714D01*
X8538333Y-15677762D01*
X8443095Y-15696809D01*
X8614524Y-15753952D02*
X8633571Y-15763476D01*
X8671667Y-15763476D01*
X8690714Y-15753952D01*
X8700238Y-15734905D01*
X8700238Y-15725381D01*
X8690714Y-15706333D01*
X8671667Y-15696809D01*
X8643095Y-15696809D01*
X8624048Y-15687286D01*
X8614524Y-15668238D01*
X8614524Y-15658714D01*
X8624048Y-15639667D01*
X8643095Y-15630143D01*
X8671667Y-15630143D01*
X8690714Y-15639667D01*
X8766905Y-15839667D02*
X8776429Y-15830143D01*
X8795476Y-15801571D01*
X8805000Y-15782524D01*
X8814524Y-15753952D01*
X8824048Y-15706333D01*
X8824048Y-15668238D01*
X8814524Y-15620619D01*
X8805000Y-15592048D01*
X8795476Y-15573000D01*
X8776429Y-15544428D01*
X8766905Y-15534905D01*
D15*
X3980356Y-15972356D02*
X3980356Y-15901644D01*
X3909644Y-15901644D01*
X3909644Y-15972356D01*
X3980356Y-15972356D01*
D11*
X4357381Y-16027476D02*
X4243095Y-16027476D01*
X4300238Y-16027476D02*
X4300238Y-15827476D01*
X4281190Y-15856048D01*
X4262143Y-15875095D01*
X4243095Y-15884619D01*
X4443095Y-16008428D02*
X4452619Y-16017952D01*
X4443095Y-16027476D01*
X4433571Y-16017952D01*
X4443095Y-16008428D01*
X4443095Y-16027476D01*
X4576429Y-15827476D02*
X4595476Y-15827476D01*
X4614524Y-15837000D01*
X4624048Y-15846524D01*
X4633571Y-15865571D01*
X4643095Y-15903667D01*
X4643095Y-15951286D01*
X4633571Y-15989381D01*
X4624048Y-16008428D01*
X4614524Y-16017952D01*
X4595476Y-16027476D01*
X4576429Y-16027476D01*
X4557381Y-16017952D01*
X4547857Y-16008428D01*
X4538333Y-15989381D01*
X4528810Y-15951286D01*
X4528810Y-15903667D01*
X4538333Y-15865571D01*
X4547857Y-15846524D01*
X4557381Y-15837000D01*
X4576429Y-15827476D01*
X4766905Y-15827476D02*
X4785952Y-15827476D01*
X4805000Y-15837000D01*
X4814524Y-15846524D01*
X4824048Y-15865571D01*
X4833571Y-15903667D01*
X4833571Y-15951286D01*
X4824048Y-15989381D01*
X4814524Y-16008428D01*
X4805000Y-16017952D01*
X4785952Y-16027476D01*
X4766905Y-16027476D01*
X4747857Y-16017952D01*
X4738333Y-16008428D01*
X4728810Y-15989381D01*
X4719286Y-15951286D01*
X4719286Y-15903667D01*
X4728810Y-15865571D01*
X4738333Y-15846524D01*
X4747857Y-15837000D01*
X4766905Y-15827476D01*
X4957381Y-15827476D02*
X4976429Y-15827476D01*
X4995476Y-15837000D01*
X5005000Y-15846524D01*
X5014524Y-15865571D01*
X5024048Y-15903667D01*
X5024048Y-15951286D01*
X5014524Y-15989381D01*
X5005000Y-16008428D01*
X4995476Y-16017952D01*
X4976429Y-16027476D01*
X4957381Y-16027476D01*
X4938333Y-16017952D01*
X4928810Y-16008428D01*
X4919286Y-15989381D01*
X4909762Y-15951286D01*
X4909762Y-15903667D01*
X4919286Y-15865571D01*
X4928810Y-15846524D01*
X4938333Y-15837000D01*
X4957381Y-15827476D01*
X5109762Y-16027476D02*
X5109762Y-15894143D01*
X5109762Y-15913190D02*
X5119286Y-15903667D01*
X5138333Y-15894143D01*
X5166905Y-15894143D01*
X5185952Y-15903667D01*
X5195476Y-15922714D01*
X5195476Y-16027476D01*
X5195476Y-15922714D02*
X5205000Y-15903667D01*
X5224048Y-15894143D01*
X5252619Y-15894143D01*
X5271667Y-15903667D01*
X5281190Y-15922714D01*
X5281190Y-16027476D01*
X5376429Y-16027476D02*
X5376429Y-15894143D01*
X5376429Y-15913190D02*
X5385952Y-15903667D01*
X5405000Y-15894143D01*
X5433571Y-15894143D01*
X5452619Y-15903667D01*
X5462143Y-15922714D01*
X5462143Y-16027476D01*
X5462143Y-15922714D02*
X5471667Y-15903667D01*
X5490714Y-15894143D01*
X5519286Y-15894143D01*
X5538333Y-15903667D01*
X5547857Y-15922714D01*
X5547857Y-16027476D01*
X5938333Y-15817952D02*
X5766905Y-16075095D01*
X6195476Y-15827476D02*
X6214524Y-15827476D01*
X6233571Y-15837000D01*
X6243095Y-15846524D01*
X6252619Y-15865571D01*
X6262143Y-15903667D01*
X6262143Y-15951286D01*
X6252619Y-15989381D01*
X6243095Y-16008428D01*
X6233571Y-16017952D01*
X6214524Y-16027476D01*
X6195476Y-16027476D01*
X6176428Y-16017952D01*
X6166905Y-16008428D01*
X6157381Y-15989381D01*
X6147857Y-15951286D01*
X6147857Y-15903667D01*
X6157381Y-15865571D01*
X6166905Y-15846524D01*
X6176428Y-15837000D01*
X6195476Y-15827476D01*
X6347857Y-16008428D02*
X6357381Y-16017952D01*
X6347857Y-16027476D01*
X6338333Y-16017952D01*
X6347857Y-16008428D01*
X6347857Y-16027476D01*
X6481190Y-15827476D02*
X6500238Y-15827476D01*
X6519286Y-15837000D01*
X6528809Y-15846524D01*
X6538333Y-15865571D01*
X6547857Y-15903667D01*
X6547857Y-15951286D01*
X6538333Y-15989381D01*
X6528809Y-16008428D01*
X6519286Y-16017952D01*
X6500238Y-16027476D01*
X6481190Y-16027476D01*
X6462143Y-16017952D01*
X6452619Y-16008428D01*
X6443095Y-15989381D01*
X6433571Y-15951286D01*
X6433571Y-15903667D01*
X6443095Y-15865571D01*
X6452619Y-15846524D01*
X6462143Y-15837000D01*
X6481190Y-15827476D01*
X6614524Y-15827476D02*
X6738333Y-15827476D01*
X6671667Y-15903667D01*
X6700238Y-15903667D01*
X6719286Y-15913190D01*
X6728809Y-15922714D01*
X6738333Y-15941762D01*
X6738333Y-15989381D01*
X6728809Y-16008428D01*
X6719286Y-16017952D01*
X6700238Y-16027476D01*
X6643095Y-16027476D01*
X6624048Y-16017952D01*
X6614524Y-16008428D01*
X6833571Y-16027476D02*
X6871667Y-16027476D01*
X6890714Y-16017952D01*
X6900238Y-16008428D01*
X6919286Y-15979857D01*
X6928809Y-15941762D01*
X6928809Y-15865571D01*
X6919286Y-15846524D01*
X6909762Y-15837000D01*
X6890714Y-15827476D01*
X6852619Y-15827476D01*
X6833571Y-15837000D01*
X6824048Y-15846524D01*
X6814524Y-15865571D01*
X6814524Y-15913190D01*
X6824048Y-15932238D01*
X6833571Y-15941762D01*
X6852619Y-15951286D01*
X6890714Y-15951286D01*
X6909762Y-15941762D01*
X6919286Y-15932238D01*
X6928809Y-15913190D01*
X7100238Y-15894143D02*
X7100238Y-16027476D01*
X7052619Y-15817952D02*
X7005000Y-15960809D01*
X7128809Y-15960809D01*
X7195476Y-15827476D02*
X7195476Y-15865571D01*
X7271667Y-15827476D02*
X7271667Y-15865571D01*
X7566905Y-16103667D02*
X7557381Y-16094143D01*
X7538333Y-16065571D01*
X7528809Y-16046524D01*
X7519286Y-16017952D01*
X7509762Y-15970333D01*
X7509762Y-15932238D01*
X7519286Y-15884619D01*
X7528809Y-15856048D01*
X7538333Y-15837000D01*
X7557381Y-15808428D01*
X7566905Y-15798905D01*
X7747857Y-16027476D02*
X7633571Y-16027476D01*
X7690714Y-16027476D02*
X7690714Y-15827476D01*
X7671667Y-15856048D01*
X7652619Y-15875095D01*
X7633571Y-15884619D01*
X7871667Y-15827476D02*
X7890714Y-15827476D01*
X7909762Y-15837000D01*
X7919286Y-15846524D01*
X7928809Y-15865571D01*
X7938333Y-15903667D01*
X7938333Y-15951286D01*
X7928809Y-15989381D01*
X7919286Y-16008428D01*
X7909762Y-16017952D01*
X7890714Y-16027476D01*
X7871667Y-16027476D01*
X7852619Y-16017952D01*
X7843095Y-16008428D01*
X7833571Y-15989381D01*
X7824048Y-15951286D01*
X7824048Y-15903667D01*
X7833571Y-15865571D01*
X7843095Y-15846524D01*
X7852619Y-15837000D01*
X7871667Y-15827476D01*
X8176428Y-16027476D02*
X8176428Y-15827476D01*
X8262143Y-16027476D02*
X8262143Y-15922714D01*
X8252619Y-15903667D01*
X8233571Y-15894143D01*
X8205000Y-15894143D01*
X8185952Y-15903667D01*
X8176428Y-15913190D01*
X8385952Y-16027476D02*
X8366905Y-16017952D01*
X8357381Y-16008428D01*
X8347857Y-15989381D01*
X8347857Y-15932238D01*
X8357381Y-15913190D01*
X8366905Y-15903667D01*
X8385952Y-15894143D01*
X8414524Y-15894143D01*
X8433571Y-15903667D01*
X8443095Y-15913190D01*
X8452619Y-15932238D01*
X8452619Y-15989381D01*
X8443095Y-16008428D01*
X8433571Y-16017952D01*
X8414524Y-16027476D01*
X8385952Y-16027476D01*
X8566905Y-16027476D02*
X8547857Y-16017952D01*
X8538333Y-15998905D01*
X8538333Y-15827476D01*
X8719286Y-16017952D02*
X8700238Y-16027476D01*
X8662143Y-16027476D01*
X8643095Y-16017952D01*
X8633571Y-15998905D01*
X8633571Y-15922714D01*
X8643095Y-15903667D01*
X8662143Y-15894143D01*
X8700238Y-15894143D01*
X8719286Y-15903667D01*
X8728810Y-15922714D01*
X8728810Y-15941762D01*
X8633571Y-15960809D01*
X8805000Y-16017952D02*
X8824048Y-16027476D01*
X8862143Y-16027476D01*
X8881190Y-16017952D01*
X8890714Y-15998905D01*
X8890714Y-15989381D01*
X8881190Y-15970333D01*
X8862143Y-15960809D01*
X8833571Y-15960809D01*
X8814524Y-15951286D01*
X8805000Y-15932238D01*
X8805000Y-15922714D01*
X8814524Y-15903667D01*
X8833571Y-15894143D01*
X8862143Y-15894143D01*
X8881190Y-15903667D01*
X8957381Y-16103667D02*
X8966905Y-16094143D01*
X8985952Y-16065571D01*
X8995476Y-16046524D01*
X9005000Y-16017952D01*
X9014524Y-15970333D01*
X9014524Y-15932238D01*
X9005000Y-15884619D01*
X8995476Y-15856048D01*
X8985952Y-15837000D01*
X8966905Y-15808428D01*
X8957381Y-15798905D01*
D16*
X3944000Y-16252000D02*
X3995000Y-16201000D01*
X3944000Y-16150000D01*
X3893000Y-16201000D01*
X3944000Y-16252000D01*
D11*
X4357381Y-16291476D02*
X4243095Y-16291476D01*
X4300238Y-16291476D02*
X4300238Y-16091476D01*
X4281190Y-16120048D01*
X4262143Y-16139095D01*
X4243095Y-16148619D01*
X4443095Y-16272428D02*
X4452619Y-16281952D01*
X4443095Y-16291476D01*
X4433571Y-16281952D01*
X4443095Y-16272428D01*
X4443095Y-16291476D01*
X4576429Y-16091476D02*
X4595476Y-16091476D01*
X4614524Y-16101000D01*
X4624048Y-16110524D01*
X4633571Y-16129571D01*
X4643095Y-16167667D01*
X4643095Y-16215286D01*
X4633571Y-16253381D01*
X4624048Y-16272428D01*
X4614524Y-16281952D01*
X4595476Y-16291476D01*
X4576429Y-16291476D01*
X4557381Y-16281952D01*
X4547857Y-16272428D01*
X4538333Y-16253381D01*
X4528810Y-16215286D01*
X4528810Y-16167667D01*
X4538333Y-16129571D01*
X4547857Y-16110524D01*
X4557381Y-16101000D01*
X4576429Y-16091476D01*
X4719286Y-16110524D02*
X4728810Y-16101000D01*
X4747857Y-16091476D01*
X4795476Y-16091476D01*
X4814524Y-16101000D01*
X4824048Y-16110524D01*
X4833571Y-16129571D01*
X4833571Y-16148619D01*
X4824048Y-16177190D01*
X4709762Y-16291476D01*
X4833571Y-16291476D01*
X4957381Y-16091476D02*
X4976429Y-16091476D01*
X4995476Y-16101000D01*
X5005000Y-16110524D01*
X5014524Y-16129571D01*
X5024048Y-16167667D01*
X5024048Y-16215286D01*
X5014524Y-16253381D01*
X5005000Y-16272428D01*
X4995476Y-16281952D01*
X4976429Y-16291476D01*
X4957381Y-16291476D01*
X4938333Y-16281952D01*
X4928810Y-16272428D01*
X4919286Y-16253381D01*
X4909762Y-16215286D01*
X4909762Y-16167667D01*
X4919286Y-16129571D01*
X4928810Y-16110524D01*
X4938333Y-16101000D01*
X4957381Y-16091476D01*
X5109762Y-16291476D02*
X5109762Y-16158143D01*
X5109762Y-16177190D02*
X5119286Y-16167667D01*
X5138333Y-16158143D01*
X5166905Y-16158143D01*
X5185952Y-16167667D01*
X5195476Y-16186714D01*
X5195476Y-16291476D01*
X5195476Y-16186714D02*
X5205000Y-16167667D01*
X5224048Y-16158143D01*
X5252619Y-16158143D01*
X5271667Y-16167667D01*
X5281190Y-16186714D01*
X5281190Y-16291476D01*
X5376429Y-16291476D02*
X5376429Y-16158143D01*
X5376429Y-16177190D02*
X5385952Y-16167667D01*
X5405000Y-16158143D01*
X5433571Y-16158143D01*
X5452619Y-16167667D01*
X5462143Y-16186714D01*
X5462143Y-16291476D01*
X5462143Y-16186714D02*
X5471667Y-16167667D01*
X5490714Y-16158143D01*
X5519286Y-16158143D01*
X5538333Y-16167667D01*
X5547857Y-16186714D01*
X5547857Y-16291476D01*
X5938333Y-16081952D02*
X5766905Y-16339095D01*
X6195476Y-16091476D02*
X6214524Y-16091476D01*
X6233571Y-16101000D01*
X6243095Y-16110524D01*
X6252619Y-16129571D01*
X6262143Y-16167667D01*
X6262143Y-16215286D01*
X6252619Y-16253381D01*
X6243095Y-16272428D01*
X6233571Y-16281952D01*
X6214524Y-16291476D01*
X6195476Y-16291476D01*
X6176428Y-16281952D01*
X6166905Y-16272428D01*
X6157381Y-16253381D01*
X6147857Y-16215286D01*
X6147857Y-16167667D01*
X6157381Y-16129571D01*
X6166905Y-16110524D01*
X6176428Y-16101000D01*
X6195476Y-16091476D01*
X6347857Y-16272428D02*
X6357381Y-16281952D01*
X6347857Y-16291476D01*
X6338333Y-16281952D01*
X6347857Y-16272428D01*
X6347857Y-16291476D01*
X6481190Y-16091476D02*
X6500238Y-16091476D01*
X6519286Y-16101000D01*
X6528809Y-16110524D01*
X6538333Y-16129571D01*
X6547857Y-16167667D01*
X6547857Y-16215286D01*
X6538333Y-16253381D01*
X6528809Y-16272428D01*
X6519286Y-16281952D01*
X6500238Y-16291476D01*
X6481190Y-16291476D01*
X6462143Y-16281952D01*
X6452619Y-16272428D01*
X6443095Y-16253381D01*
X6433571Y-16215286D01*
X6433571Y-16167667D01*
X6443095Y-16129571D01*
X6452619Y-16110524D01*
X6462143Y-16101000D01*
X6481190Y-16091476D01*
X6719286Y-16158143D02*
X6719286Y-16291476D01*
X6671667Y-16081952D02*
X6624048Y-16224809D01*
X6747857Y-16224809D01*
X6862143Y-16091476D02*
X6881190Y-16091476D01*
X6900238Y-16101000D01*
X6909762Y-16110524D01*
X6919286Y-16129571D01*
X6928809Y-16167667D01*
X6928809Y-16215286D01*
X6919286Y-16253381D01*
X6909762Y-16272428D01*
X6900238Y-16281952D01*
X6881190Y-16291476D01*
X6862143Y-16291476D01*
X6843095Y-16281952D01*
X6833571Y-16272428D01*
X6824048Y-16253381D01*
X6814524Y-16215286D01*
X6814524Y-16167667D01*
X6824048Y-16129571D01*
X6833571Y-16110524D01*
X6843095Y-16101000D01*
X6862143Y-16091476D01*
X7005000Y-16110524D02*
X7014524Y-16101000D01*
X7033571Y-16091476D01*
X7081190Y-16091476D01*
X7100238Y-16101000D01*
X7109762Y-16110524D01*
X7119286Y-16129571D01*
X7119286Y-16148619D01*
X7109762Y-16177190D01*
X6995476Y-16291476D01*
X7119286Y-16291476D01*
X7195476Y-16091476D02*
X7195476Y-16129571D01*
X7271667Y-16091476D02*
X7271667Y-16129571D01*
X7566905Y-16367667D02*
X7557381Y-16358143D01*
X7538333Y-16329571D01*
X7528809Y-16310524D01*
X7519286Y-16281952D01*
X7509762Y-16234333D01*
X7509762Y-16196238D01*
X7519286Y-16148619D01*
X7528809Y-16120048D01*
X7538333Y-16101000D01*
X7557381Y-16072428D01*
X7566905Y-16062905D01*
X7728809Y-16091476D02*
X7690714Y-16091476D01*
X7671667Y-16101000D01*
X7662143Y-16110524D01*
X7643095Y-16139095D01*
X7633571Y-16177190D01*
X7633571Y-16253381D01*
X7643095Y-16272428D01*
X7652619Y-16281952D01*
X7671667Y-16291476D01*
X7709762Y-16291476D01*
X7728809Y-16281952D01*
X7738333Y-16272428D01*
X7747857Y-16253381D01*
X7747857Y-16205762D01*
X7738333Y-16186714D01*
X7728809Y-16177190D01*
X7709762Y-16167667D01*
X7671667Y-16167667D01*
X7652619Y-16177190D01*
X7643095Y-16186714D01*
X7633571Y-16205762D01*
X7985952Y-16291476D02*
X7985952Y-16091476D01*
X8071667Y-16291476D02*
X8071667Y-16186714D01*
X8062143Y-16167667D01*
X8043095Y-16158143D01*
X8014524Y-16158143D01*
X7995476Y-16167667D01*
X7985952Y-16177190D01*
X8195476Y-16291476D02*
X8176428Y-16281952D01*
X8166905Y-16272428D01*
X8157381Y-16253381D01*
X8157381Y-16196238D01*
X8166905Y-16177190D01*
X8176428Y-16167667D01*
X8195476Y-16158143D01*
X8224048Y-16158143D01*
X8243095Y-16167667D01*
X8252619Y-16177190D01*
X8262143Y-16196238D01*
X8262143Y-16253381D01*
X8252619Y-16272428D01*
X8243095Y-16281952D01*
X8224048Y-16291476D01*
X8195476Y-16291476D01*
X8376428Y-16291476D02*
X8357381Y-16281952D01*
X8347857Y-16262905D01*
X8347857Y-16091476D01*
X8528810Y-16281952D02*
X8509762Y-16291476D01*
X8471667Y-16291476D01*
X8452619Y-16281952D01*
X8443095Y-16262905D01*
X8443095Y-16186714D01*
X8452619Y-16167667D01*
X8471667Y-16158143D01*
X8509762Y-16158143D01*
X8528810Y-16167667D01*
X8538333Y-16186714D01*
X8538333Y-16205762D01*
X8443095Y-16224809D01*
X8614524Y-16281952D02*
X8633571Y-16291476D01*
X8671667Y-16291476D01*
X8690714Y-16281952D01*
X8700238Y-16262905D01*
X8700238Y-16253381D01*
X8690714Y-16234333D01*
X8671667Y-16224809D01*
X8643095Y-16224809D01*
X8624048Y-16215286D01*
X8614524Y-16196238D01*
X8614524Y-16186714D01*
X8624048Y-16167667D01*
X8643095Y-16158143D01*
X8671667Y-16158143D01*
X8690714Y-16167667D01*
X8766905Y-16367667D02*
X8776429Y-16358143D01*
X8795476Y-16329571D01*
X8805000Y-16310524D01*
X8814524Y-16281952D01*
X8824048Y-16234333D01*
X8824048Y-16196238D01*
X8814524Y-16148619D01*
X8805000Y-16120048D01*
X8795476Y-16101000D01*
X8776429Y-16072428D01*
X8766905Y-16062905D01*
D17*
X3885000Y-16410000D02*
X3995000Y-16520000D01*
X3995000Y-16410000D02*
X3885000Y-16520000D01*
X3995000Y-16465000D02*
G75*
G03*
X3995000Y-16465000I-55000J0D01*
G01*
D11*
X4357381Y-16555476D02*
X4243095Y-16555476D01*
X4300238Y-16555476D02*
X4300238Y-16355476D01*
X4281190Y-16384048D01*
X4262143Y-16403095D01*
X4243095Y-16412619D01*
X4443095Y-16536428D02*
X4452619Y-16545952D01*
X4443095Y-16555476D01*
X4433571Y-16545952D01*
X4443095Y-16536428D01*
X4443095Y-16555476D01*
X4643095Y-16555476D02*
X4528810Y-16555476D01*
X4585952Y-16555476D02*
X4585952Y-16355476D01*
X4566905Y-16384048D01*
X4547857Y-16403095D01*
X4528810Y-16412619D01*
X4766905Y-16355476D02*
X4785952Y-16355476D01*
X4805000Y-16365000D01*
X4814524Y-16374524D01*
X4824048Y-16393571D01*
X4833571Y-16431667D01*
X4833571Y-16479286D01*
X4824048Y-16517381D01*
X4814524Y-16536428D01*
X4805000Y-16545952D01*
X4785952Y-16555476D01*
X4766905Y-16555476D01*
X4747857Y-16545952D01*
X4738333Y-16536428D01*
X4728810Y-16517381D01*
X4719286Y-16479286D01*
X4719286Y-16431667D01*
X4728810Y-16393571D01*
X4738333Y-16374524D01*
X4747857Y-16365000D01*
X4766905Y-16355476D01*
X4957381Y-16355476D02*
X4976429Y-16355476D01*
X4995476Y-16365000D01*
X5005000Y-16374524D01*
X5014524Y-16393571D01*
X5024048Y-16431667D01*
X5024048Y-16479286D01*
X5014524Y-16517381D01*
X5005000Y-16536428D01*
X4995476Y-16545952D01*
X4976429Y-16555476D01*
X4957381Y-16555476D01*
X4938333Y-16545952D01*
X4928810Y-16536428D01*
X4919286Y-16517381D01*
X4909762Y-16479286D01*
X4909762Y-16431667D01*
X4919286Y-16393571D01*
X4928810Y-16374524D01*
X4938333Y-16365000D01*
X4957381Y-16355476D01*
X5109762Y-16555476D02*
X5109762Y-16422143D01*
X5109762Y-16441190D02*
X5119286Y-16431667D01*
X5138333Y-16422143D01*
X5166905Y-16422143D01*
X5185952Y-16431667D01*
X5195476Y-16450714D01*
X5195476Y-16555476D01*
X5195476Y-16450714D02*
X5205000Y-16431667D01*
X5224048Y-16422143D01*
X5252619Y-16422143D01*
X5271667Y-16431667D01*
X5281190Y-16450714D01*
X5281190Y-16555476D01*
X5376429Y-16555476D02*
X5376429Y-16422143D01*
X5376429Y-16441190D02*
X5385952Y-16431667D01*
X5405000Y-16422143D01*
X5433571Y-16422143D01*
X5452619Y-16431667D01*
X5462143Y-16450714D01*
X5462143Y-16555476D01*
X5462143Y-16450714D02*
X5471667Y-16431667D01*
X5490714Y-16422143D01*
X5519286Y-16422143D01*
X5538333Y-16431667D01*
X5547857Y-16450714D01*
X5547857Y-16555476D01*
X5938333Y-16345952D02*
X5766905Y-16603095D01*
X6195476Y-16355476D02*
X6214524Y-16355476D01*
X6233571Y-16365000D01*
X6243095Y-16374524D01*
X6252619Y-16393571D01*
X6262143Y-16431667D01*
X6262143Y-16479286D01*
X6252619Y-16517381D01*
X6243095Y-16536428D01*
X6233571Y-16545952D01*
X6214524Y-16555476D01*
X6195476Y-16555476D01*
X6176428Y-16545952D01*
X6166905Y-16536428D01*
X6157381Y-16517381D01*
X6147857Y-16479286D01*
X6147857Y-16431667D01*
X6157381Y-16393571D01*
X6166905Y-16374524D01*
X6176428Y-16365000D01*
X6195476Y-16355476D01*
X6347857Y-16536428D02*
X6357381Y-16545952D01*
X6347857Y-16555476D01*
X6338333Y-16545952D01*
X6347857Y-16536428D01*
X6347857Y-16555476D01*
X6481190Y-16355476D02*
X6500238Y-16355476D01*
X6519286Y-16365000D01*
X6528809Y-16374524D01*
X6538333Y-16393571D01*
X6547857Y-16431667D01*
X6547857Y-16479286D01*
X6538333Y-16517381D01*
X6528809Y-16536428D01*
X6519286Y-16545952D01*
X6500238Y-16555476D01*
X6481190Y-16555476D01*
X6462143Y-16545952D01*
X6452619Y-16536428D01*
X6443095Y-16517381D01*
X6433571Y-16479286D01*
X6433571Y-16431667D01*
X6443095Y-16393571D01*
X6452619Y-16374524D01*
X6462143Y-16365000D01*
X6481190Y-16355476D01*
X6719286Y-16422143D02*
X6719286Y-16555476D01*
X6671667Y-16345952D02*
X6624048Y-16488809D01*
X6747857Y-16488809D01*
X6805000Y-16355476D02*
X6928809Y-16355476D01*
X6862143Y-16431667D01*
X6890714Y-16431667D01*
X6909762Y-16441190D01*
X6919286Y-16450714D01*
X6928809Y-16469762D01*
X6928809Y-16517381D01*
X6919286Y-16536428D01*
X6909762Y-16545952D01*
X6890714Y-16555476D01*
X6833571Y-16555476D01*
X6814524Y-16545952D01*
X6805000Y-16536428D01*
X6995476Y-16355476D02*
X7119286Y-16355476D01*
X7052619Y-16431667D01*
X7081190Y-16431667D01*
X7100238Y-16441190D01*
X7109762Y-16450714D01*
X7119286Y-16469762D01*
X7119286Y-16517381D01*
X7109762Y-16536428D01*
X7100238Y-16545952D01*
X7081190Y-16555476D01*
X7024048Y-16555476D01*
X7005000Y-16545952D01*
X6995476Y-16536428D01*
X7195476Y-16355476D02*
X7195476Y-16393571D01*
X7271667Y-16355476D02*
X7271667Y-16393571D01*
X7566905Y-16631667D02*
X7557381Y-16622143D01*
X7538333Y-16593571D01*
X7528809Y-16574524D01*
X7519286Y-16545952D01*
X7509762Y-16498333D01*
X7509762Y-16460238D01*
X7519286Y-16412619D01*
X7528809Y-16384048D01*
X7538333Y-16365000D01*
X7557381Y-16336428D01*
X7566905Y-16326905D01*
X7728809Y-16355476D02*
X7690714Y-16355476D01*
X7671667Y-16365000D01*
X7662143Y-16374524D01*
X7643095Y-16403095D01*
X7633571Y-16441190D01*
X7633571Y-16517381D01*
X7643095Y-16536428D01*
X7652619Y-16545952D01*
X7671667Y-16555476D01*
X7709762Y-16555476D01*
X7728809Y-16545952D01*
X7738333Y-16536428D01*
X7747857Y-16517381D01*
X7747857Y-16469762D01*
X7738333Y-16450714D01*
X7728809Y-16441190D01*
X7709762Y-16431667D01*
X7671667Y-16431667D01*
X7652619Y-16441190D01*
X7643095Y-16450714D01*
X7633571Y-16469762D01*
X7985952Y-16555476D02*
X7985952Y-16355476D01*
X8071667Y-16555476D02*
X8071667Y-16450714D01*
X8062143Y-16431667D01*
X8043095Y-16422143D01*
X8014524Y-16422143D01*
X7995476Y-16431667D01*
X7985952Y-16441190D01*
X8195476Y-16555476D02*
X8176428Y-16545952D01*
X8166905Y-16536428D01*
X8157381Y-16517381D01*
X8157381Y-16460238D01*
X8166905Y-16441190D01*
X8176428Y-16431667D01*
X8195476Y-16422143D01*
X8224048Y-16422143D01*
X8243095Y-16431667D01*
X8252619Y-16441190D01*
X8262143Y-16460238D01*
X8262143Y-16517381D01*
X8252619Y-16536428D01*
X8243095Y-16545952D01*
X8224048Y-16555476D01*
X8195476Y-16555476D01*
X8376428Y-16555476D02*
X8357381Y-16545952D01*
X8347857Y-16526905D01*
X8347857Y-16355476D01*
X8528810Y-16545952D02*
X8509762Y-16555476D01*
X8471667Y-16555476D01*
X8452619Y-16545952D01*
X8443095Y-16526905D01*
X8443095Y-16450714D01*
X8452619Y-16431667D01*
X8471667Y-16422143D01*
X8509762Y-16422143D01*
X8528810Y-16431667D01*
X8538333Y-16450714D01*
X8538333Y-16469762D01*
X8443095Y-16488809D01*
X8614524Y-16545952D02*
X8633571Y-16555476D01*
X8671667Y-16555476D01*
X8690714Y-16545952D01*
X8700238Y-16526905D01*
X8700238Y-16517381D01*
X8690714Y-16498333D01*
X8671667Y-16488809D01*
X8643095Y-16488809D01*
X8624048Y-16479286D01*
X8614524Y-16460238D01*
X8614524Y-16450714D01*
X8624048Y-16431667D01*
X8643095Y-16422143D01*
X8671667Y-16422143D01*
X8690714Y-16431667D01*
X8766905Y-16631667D02*
X8776429Y-16622143D01*
X8795476Y-16593571D01*
X8805000Y-16574524D01*
X8814524Y-16545952D01*
X8824048Y-16498333D01*
X8824048Y-16460238D01*
X8814524Y-16412619D01*
X8805000Y-16384048D01*
X8795476Y-16365000D01*
X8776429Y-16336428D01*
X8766905Y-16326905D01*
D18*
X3876000Y-16669500D02*
X3995000Y-16788500D01*
X3995000Y-16669500D02*
X3876000Y-16788500D01*
X3935500Y-16669500D02*
X3935500Y-16788500D01*
X3876000Y-16729000D02*
X3995000Y-16729000D01*
D11*
X4357381Y-16819476D02*
X4243095Y-16819476D01*
X4300238Y-16819476D02*
X4300238Y-16619476D01*
X4281190Y-16648048D01*
X4262143Y-16667095D01*
X4243095Y-16676619D01*
X4443095Y-16800429D02*
X4452619Y-16809952D01*
X4443095Y-16819476D01*
X4433571Y-16809952D01*
X4443095Y-16800429D01*
X4443095Y-16819476D01*
X4643095Y-16819476D02*
X4528810Y-16819476D01*
X4585952Y-16819476D02*
X4585952Y-16619476D01*
X4566905Y-16648048D01*
X4547857Y-16667095D01*
X4528810Y-16676619D01*
X4738333Y-16819476D02*
X4776429Y-16819476D01*
X4795476Y-16809952D01*
X4805000Y-16800429D01*
X4824048Y-16771857D01*
X4833571Y-16733762D01*
X4833571Y-16657571D01*
X4824048Y-16638524D01*
X4814524Y-16629000D01*
X4795476Y-16619476D01*
X4757381Y-16619476D01*
X4738333Y-16629000D01*
X4728810Y-16638524D01*
X4719286Y-16657571D01*
X4719286Y-16705190D01*
X4728810Y-16724238D01*
X4738333Y-16733762D01*
X4757381Y-16743286D01*
X4795476Y-16743286D01*
X4814524Y-16733762D01*
X4824048Y-16724238D01*
X4833571Y-16705190D01*
X4957381Y-16619476D02*
X4976429Y-16619476D01*
X4995476Y-16629000D01*
X5005000Y-16638524D01*
X5014524Y-16657571D01*
X5024048Y-16695667D01*
X5024048Y-16743286D01*
X5014524Y-16781381D01*
X5005000Y-16800429D01*
X4995476Y-16809952D01*
X4976429Y-16819476D01*
X4957381Y-16819476D01*
X4938333Y-16809952D01*
X4928810Y-16800429D01*
X4919286Y-16781381D01*
X4909762Y-16743286D01*
X4909762Y-16695667D01*
X4919286Y-16657571D01*
X4928810Y-16638524D01*
X4938333Y-16629000D01*
X4957381Y-16619476D01*
X5109762Y-16819476D02*
X5109762Y-16686143D01*
X5109762Y-16705190D02*
X5119286Y-16695667D01*
X5138333Y-16686143D01*
X5166905Y-16686143D01*
X5185952Y-16695667D01*
X5195476Y-16714714D01*
X5195476Y-16819476D01*
X5195476Y-16714714D02*
X5205000Y-16695667D01*
X5224048Y-16686143D01*
X5252619Y-16686143D01*
X5271667Y-16695667D01*
X5281190Y-16714714D01*
X5281190Y-16819476D01*
X5376429Y-16819476D02*
X5376429Y-16686143D01*
X5376429Y-16705190D02*
X5385952Y-16695667D01*
X5405000Y-16686143D01*
X5433571Y-16686143D01*
X5452619Y-16695667D01*
X5462143Y-16714714D01*
X5462143Y-16819476D01*
X5462143Y-16714714D02*
X5471667Y-16695667D01*
X5490714Y-16686143D01*
X5519286Y-16686143D01*
X5538333Y-16695667D01*
X5547857Y-16714714D01*
X5547857Y-16819476D01*
X5938333Y-16609952D02*
X5766905Y-16867095D01*
X6195476Y-16619476D02*
X6214524Y-16619476D01*
X6233571Y-16629000D01*
X6243095Y-16638524D01*
X6252619Y-16657571D01*
X6262143Y-16695667D01*
X6262143Y-16743286D01*
X6252619Y-16781381D01*
X6243095Y-16800429D01*
X6233571Y-16809952D01*
X6214524Y-16819476D01*
X6195476Y-16819476D01*
X6176428Y-16809952D01*
X6166905Y-16800429D01*
X6157381Y-16781381D01*
X6147857Y-16743286D01*
X6147857Y-16695667D01*
X6157381Y-16657571D01*
X6166905Y-16638524D01*
X6176428Y-16629000D01*
X6195476Y-16619476D01*
X6347857Y-16800429D02*
X6357381Y-16809952D01*
X6347857Y-16819476D01*
X6338333Y-16809952D01*
X6347857Y-16800429D01*
X6347857Y-16819476D01*
X6481190Y-16619476D02*
X6500238Y-16619476D01*
X6519286Y-16629000D01*
X6528809Y-16638524D01*
X6538333Y-16657571D01*
X6547857Y-16695667D01*
X6547857Y-16743286D01*
X6538333Y-16781381D01*
X6528809Y-16800429D01*
X6519286Y-16809952D01*
X6500238Y-16819476D01*
X6481190Y-16819476D01*
X6462143Y-16809952D01*
X6452619Y-16800429D01*
X6443095Y-16781381D01*
X6433571Y-16743286D01*
X6433571Y-16695667D01*
X6443095Y-16657571D01*
X6452619Y-16638524D01*
X6462143Y-16629000D01*
X6481190Y-16619476D01*
X6719286Y-16686143D02*
X6719286Y-16819476D01*
X6671667Y-16609952D02*
X6624048Y-16752809D01*
X6747857Y-16752809D01*
X6909762Y-16619476D02*
X6871667Y-16619476D01*
X6852619Y-16629000D01*
X6843095Y-16638524D01*
X6824048Y-16667095D01*
X6814524Y-16705190D01*
X6814524Y-16781381D01*
X6824048Y-16800429D01*
X6833571Y-16809952D01*
X6852619Y-16819476D01*
X6890714Y-16819476D01*
X6909762Y-16809952D01*
X6919286Y-16800429D01*
X6928809Y-16781381D01*
X6928809Y-16733762D01*
X6919286Y-16714714D01*
X6909762Y-16705190D01*
X6890714Y-16695667D01*
X6852619Y-16695667D01*
X6833571Y-16705190D01*
X6824048Y-16714714D01*
X6814524Y-16733762D01*
X7024048Y-16819476D02*
X7062143Y-16819476D01*
X7081190Y-16809952D01*
X7090714Y-16800429D01*
X7109762Y-16771857D01*
X7119286Y-16733762D01*
X7119286Y-16657571D01*
X7109762Y-16638524D01*
X7100238Y-16629000D01*
X7081190Y-16619476D01*
X7043095Y-16619476D01*
X7024048Y-16629000D01*
X7014524Y-16638524D01*
X7005000Y-16657571D01*
X7005000Y-16705190D01*
X7014524Y-16724238D01*
X7024048Y-16733762D01*
X7043095Y-16743286D01*
X7081190Y-16743286D01*
X7100238Y-16733762D01*
X7109762Y-16724238D01*
X7119286Y-16705190D01*
X7195476Y-16619476D02*
X7195476Y-16657571D01*
X7271667Y-16619476D02*
X7271667Y-16657571D01*
X7566905Y-16895667D02*
X7557381Y-16886143D01*
X7538333Y-16857571D01*
X7528809Y-16838524D01*
X7519286Y-16809952D01*
X7509762Y-16762333D01*
X7509762Y-16724238D01*
X7519286Y-16676619D01*
X7528809Y-16648048D01*
X7538333Y-16629000D01*
X7557381Y-16600428D01*
X7566905Y-16590905D01*
X7747857Y-16819476D02*
X7633571Y-16819476D01*
X7690714Y-16819476D02*
X7690714Y-16619476D01*
X7671667Y-16648048D01*
X7652619Y-16667095D01*
X7633571Y-16676619D01*
X7824048Y-16638524D02*
X7833571Y-16629000D01*
X7852619Y-16619476D01*
X7900238Y-16619476D01*
X7919286Y-16629000D01*
X7928809Y-16638524D01*
X7938333Y-16657571D01*
X7938333Y-16676619D01*
X7928809Y-16705190D01*
X7814524Y-16819476D01*
X7938333Y-16819476D01*
X8176428Y-16819476D02*
X8176428Y-16619476D01*
X8262143Y-16819476D02*
X8262143Y-16714714D01*
X8252619Y-16695667D01*
X8233571Y-16686143D01*
X8205000Y-16686143D01*
X8185952Y-16695667D01*
X8176428Y-16705190D01*
X8385952Y-16819476D02*
X8366905Y-16809952D01*
X8357381Y-16800429D01*
X8347857Y-16781381D01*
X8347857Y-16724238D01*
X8357381Y-16705190D01*
X8366905Y-16695667D01*
X8385952Y-16686143D01*
X8414524Y-16686143D01*
X8433571Y-16695667D01*
X8443095Y-16705190D01*
X8452619Y-16724238D01*
X8452619Y-16781381D01*
X8443095Y-16800429D01*
X8433571Y-16809952D01*
X8414524Y-16819476D01*
X8385952Y-16819476D01*
X8566905Y-16819476D02*
X8547857Y-16809952D01*
X8538333Y-16790905D01*
X8538333Y-16619476D01*
X8719286Y-16809952D02*
X8700238Y-16819476D01*
X8662143Y-16819476D01*
X8643095Y-16809952D01*
X8633571Y-16790905D01*
X8633571Y-16714714D01*
X8643095Y-16695667D01*
X8662143Y-16686143D01*
X8700238Y-16686143D01*
X8719286Y-16695667D01*
X8728810Y-16714714D01*
X8728810Y-16733762D01*
X8633571Y-16752809D01*
X8805000Y-16809952D02*
X8824048Y-16819476D01*
X8862143Y-16819476D01*
X8881190Y-16809952D01*
X8890714Y-16790905D01*
X8890714Y-16781381D01*
X8881190Y-16762333D01*
X8862143Y-16752809D01*
X8833571Y-16752809D01*
X8814524Y-16743286D01*
X8805000Y-16724238D01*
X8805000Y-16714714D01*
X8814524Y-16695667D01*
X8833571Y-16686143D01*
X8862143Y-16686143D01*
X8881190Y-16695667D01*
X8957381Y-16895667D02*
X8966905Y-16886143D01*
X8985952Y-16857571D01*
X8995476Y-16838524D01*
X9005000Y-16809952D01*
X9014524Y-16762333D01*
X9014524Y-16724238D01*
X9005000Y-16676619D01*
X8995476Y-16648048D01*
X8985952Y-16629000D01*
X8966905Y-16600428D01*
X8957381Y-16590905D01*
D19*
X3875000Y-16933000D02*
X3995000Y-17053000D01*
X3995000Y-16933000D02*
X3875000Y-17053000D01*
X3977427Y-17035427D02*
X3977427Y-16950573D01*
X3892573Y-16950573D01*
X3892573Y-17035427D01*
X3977427Y-17035427D01*
D11*
X4357381Y-17083476D02*
X4243095Y-17083476D01*
X4300238Y-17083476D02*
X4300238Y-16883476D01*
X4281190Y-16912048D01*
X4262143Y-16931095D01*
X4243095Y-16940619D01*
X4443095Y-17064429D02*
X4452619Y-17073952D01*
X4443095Y-17083476D01*
X4433571Y-17073952D01*
X4443095Y-17064429D01*
X4443095Y-17083476D01*
X4528810Y-16902524D02*
X4538333Y-16893000D01*
X4557381Y-16883476D01*
X4605000Y-16883476D01*
X4624048Y-16893000D01*
X4633571Y-16902524D01*
X4643095Y-16921571D01*
X4643095Y-16940619D01*
X4633571Y-16969190D01*
X4519286Y-17083476D01*
X4643095Y-17083476D01*
X4766905Y-16883476D02*
X4785952Y-16883476D01*
X4805000Y-16893000D01*
X4814524Y-16902524D01*
X4824048Y-16921571D01*
X4833571Y-16959667D01*
X4833571Y-17007286D01*
X4824048Y-17045381D01*
X4814524Y-17064429D01*
X4805000Y-17073952D01*
X4785952Y-17083476D01*
X4766905Y-17083476D01*
X4747857Y-17073952D01*
X4738333Y-17064429D01*
X4728810Y-17045381D01*
X4719286Y-17007286D01*
X4719286Y-16959667D01*
X4728810Y-16921571D01*
X4738333Y-16902524D01*
X4747857Y-16893000D01*
X4766905Y-16883476D01*
X4957381Y-16883476D02*
X4976429Y-16883476D01*
X4995476Y-16893000D01*
X5005000Y-16902524D01*
X5014524Y-16921571D01*
X5024048Y-16959667D01*
X5024048Y-17007286D01*
X5014524Y-17045381D01*
X5005000Y-17064429D01*
X4995476Y-17073952D01*
X4976429Y-17083476D01*
X4957381Y-17083476D01*
X4938333Y-17073952D01*
X4928810Y-17064429D01*
X4919286Y-17045381D01*
X4909762Y-17007286D01*
X4909762Y-16959667D01*
X4919286Y-16921571D01*
X4928810Y-16902524D01*
X4938333Y-16893000D01*
X4957381Y-16883476D01*
X5109762Y-17083476D02*
X5109762Y-16950143D01*
X5109762Y-16969190D02*
X5119286Y-16959667D01*
X5138333Y-16950143D01*
X5166905Y-16950143D01*
X5185952Y-16959667D01*
X5195476Y-16978714D01*
X5195476Y-17083476D01*
X5195476Y-16978714D02*
X5205000Y-16959667D01*
X5224048Y-16950143D01*
X5252619Y-16950143D01*
X5271667Y-16959667D01*
X5281190Y-16978714D01*
X5281190Y-17083476D01*
X5376429Y-17083476D02*
X5376429Y-16950143D01*
X5376429Y-16969190D02*
X5385952Y-16959667D01*
X5405000Y-16950143D01*
X5433571Y-16950143D01*
X5452619Y-16959667D01*
X5462143Y-16978714D01*
X5462143Y-17083476D01*
X5462143Y-16978714D02*
X5471667Y-16959667D01*
X5490714Y-16950143D01*
X5519286Y-16950143D01*
X5538333Y-16959667D01*
X5547857Y-16978714D01*
X5547857Y-17083476D01*
X5938333Y-16873952D02*
X5766905Y-17131095D01*
X6195476Y-16883476D02*
X6214524Y-16883476D01*
X6233571Y-16893000D01*
X6243095Y-16902524D01*
X6252619Y-16921571D01*
X6262143Y-16959667D01*
X6262143Y-17007286D01*
X6252619Y-17045381D01*
X6243095Y-17064429D01*
X6233571Y-17073952D01*
X6214524Y-17083476D01*
X6195476Y-17083476D01*
X6176428Y-17073952D01*
X6166905Y-17064429D01*
X6157381Y-17045381D01*
X6147857Y-17007286D01*
X6147857Y-16959667D01*
X6157381Y-16921571D01*
X6166905Y-16902524D01*
X6176428Y-16893000D01*
X6195476Y-16883476D01*
X6347857Y-17064429D02*
X6357381Y-17073952D01*
X6347857Y-17083476D01*
X6338333Y-17073952D01*
X6347857Y-17064429D01*
X6347857Y-17083476D01*
X6481190Y-16883476D02*
X6500238Y-16883476D01*
X6519286Y-16893000D01*
X6528809Y-16902524D01*
X6538333Y-16921571D01*
X6547857Y-16959667D01*
X6547857Y-17007286D01*
X6538333Y-17045381D01*
X6528809Y-17064429D01*
X6519286Y-17073952D01*
X6500238Y-17083476D01*
X6481190Y-17083476D01*
X6462143Y-17073952D01*
X6452619Y-17064429D01*
X6443095Y-17045381D01*
X6433571Y-17007286D01*
X6433571Y-16959667D01*
X6443095Y-16921571D01*
X6452619Y-16902524D01*
X6462143Y-16893000D01*
X6481190Y-16883476D01*
X6719286Y-16950143D02*
X6719286Y-17083476D01*
X6671667Y-16873952D02*
X6624048Y-17016810D01*
X6747857Y-17016810D01*
X6805000Y-16883476D02*
X6938333Y-16883476D01*
X6852619Y-17083476D01*
X7005000Y-16902524D02*
X7014524Y-16893000D01*
X7033571Y-16883476D01*
X7081190Y-16883476D01*
X7100238Y-16893000D01*
X7109762Y-16902524D01*
X7119286Y-16921571D01*
X7119286Y-16940619D01*
X7109762Y-16969190D01*
X6995476Y-17083476D01*
X7119286Y-17083476D01*
X7195476Y-16883476D02*
X7195476Y-16921571D01*
X7271667Y-16883476D02*
X7271667Y-16921571D01*
X7566905Y-17159667D02*
X7557381Y-17150143D01*
X7538333Y-17121571D01*
X7528809Y-17102524D01*
X7519286Y-17073952D01*
X7509762Y-17026333D01*
X7509762Y-16988238D01*
X7519286Y-16940619D01*
X7528809Y-16912048D01*
X7538333Y-16893000D01*
X7557381Y-16864429D01*
X7566905Y-16854905D01*
X7633571Y-16902524D02*
X7643095Y-16893000D01*
X7662143Y-16883476D01*
X7709762Y-16883476D01*
X7728809Y-16893000D01*
X7738333Y-16902524D01*
X7747857Y-16921571D01*
X7747857Y-16940619D01*
X7738333Y-16969190D01*
X7624048Y-17083476D01*
X7747857Y-17083476D01*
X7985952Y-17083476D02*
X7985952Y-16883476D01*
X8071667Y-17083476D02*
X8071667Y-16978714D01*
X8062143Y-16959667D01*
X8043095Y-16950143D01*
X8014524Y-16950143D01*
X7995476Y-16959667D01*
X7985952Y-16969190D01*
X8195476Y-17083476D02*
X8176428Y-17073952D01*
X8166905Y-17064429D01*
X8157381Y-17045381D01*
X8157381Y-16988238D01*
X8166905Y-16969190D01*
X8176428Y-16959667D01*
X8195476Y-16950143D01*
X8224048Y-16950143D01*
X8243095Y-16959667D01*
X8252619Y-16969190D01*
X8262143Y-16988238D01*
X8262143Y-17045381D01*
X8252619Y-17064429D01*
X8243095Y-17073952D01*
X8224048Y-17083476D01*
X8195476Y-17083476D01*
X8376428Y-17083476D02*
X8357381Y-17073952D01*
X8347857Y-17054905D01*
X8347857Y-16883476D01*
X8528810Y-17073952D02*
X8509762Y-17083476D01*
X8471667Y-17083476D01*
X8452619Y-17073952D01*
X8443095Y-17054905D01*
X8443095Y-16978714D01*
X8452619Y-16959667D01*
X8471667Y-16950143D01*
X8509762Y-16950143D01*
X8528810Y-16959667D01*
X8538333Y-16978714D01*
X8538333Y-16997762D01*
X8443095Y-17016810D01*
X8614524Y-17073952D02*
X8633571Y-17083476D01*
X8671667Y-17083476D01*
X8690714Y-17073952D01*
X8700238Y-17054905D01*
X8700238Y-17045381D01*
X8690714Y-17026333D01*
X8671667Y-17016810D01*
X8643095Y-17016810D01*
X8624048Y-17007286D01*
X8614524Y-16988238D01*
X8614524Y-16978714D01*
X8624048Y-16959667D01*
X8643095Y-16950143D01*
X8671667Y-16950143D01*
X8690714Y-16959667D01*
X8766905Y-17159667D02*
X8776429Y-17150143D01*
X8795476Y-17121571D01*
X8805000Y-17102524D01*
X8814524Y-17073952D01*
X8824048Y-17026333D01*
X8824048Y-16988238D01*
X8814524Y-16940619D01*
X8805000Y-16912048D01*
X8795476Y-16893000D01*
X8776429Y-16864429D01*
X8766905Y-16854905D01*
D20*
X3868000Y-17193500D02*
X3995000Y-17320500D01*
X3995000Y-17193500D02*
X3868000Y-17320500D01*
X3931500Y-17320500D02*
X3995000Y-17257000D01*
X3931500Y-17193500D01*
X3868000Y-17257000D01*
X3931500Y-17320500D01*
D11*
X4357381Y-17347476D02*
X4243095Y-17347476D01*
X4300238Y-17347476D02*
X4300238Y-17147476D01*
X4281190Y-17176048D01*
X4262143Y-17195095D01*
X4243095Y-17204619D01*
X4443095Y-17328429D02*
X4452619Y-17337952D01*
X4443095Y-17347476D01*
X4433571Y-17337952D01*
X4443095Y-17328429D01*
X4443095Y-17347476D01*
X4528810Y-17166524D02*
X4538333Y-17157000D01*
X4557381Y-17147476D01*
X4605000Y-17147476D01*
X4624048Y-17157000D01*
X4633571Y-17166524D01*
X4643095Y-17185571D01*
X4643095Y-17204619D01*
X4633571Y-17233190D01*
X4519286Y-17347476D01*
X4643095Y-17347476D01*
X4709762Y-17147476D02*
X4843095Y-17147476D01*
X4757381Y-17347476D01*
X4957381Y-17147476D02*
X4976429Y-17147476D01*
X4995476Y-17157000D01*
X5005000Y-17166524D01*
X5014524Y-17185571D01*
X5024048Y-17223667D01*
X5024048Y-17271286D01*
X5014524Y-17309381D01*
X5005000Y-17328429D01*
X4995476Y-17337952D01*
X4976429Y-17347476D01*
X4957381Y-17347476D01*
X4938333Y-17337952D01*
X4928810Y-17328429D01*
X4919286Y-17309381D01*
X4909762Y-17271286D01*
X4909762Y-17223667D01*
X4919286Y-17185571D01*
X4928810Y-17166524D01*
X4938333Y-17157000D01*
X4957381Y-17147476D01*
X5109762Y-17347476D02*
X5109762Y-17214143D01*
X5109762Y-17233190D02*
X5119286Y-17223667D01*
X5138333Y-17214143D01*
X5166905Y-17214143D01*
X5185952Y-17223667D01*
X5195476Y-17242714D01*
X5195476Y-17347476D01*
X5195476Y-17242714D02*
X5205000Y-17223667D01*
X5224048Y-17214143D01*
X5252619Y-17214143D01*
X5271667Y-17223667D01*
X5281190Y-17242714D01*
X5281190Y-17347476D01*
X5376429Y-17347476D02*
X5376429Y-17214143D01*
X5376429Y-17233190D02*
X5385952Y-17223667D01*
X5405000Y-17214143D01*
X5433571Y-17214143D01*
X5452619Y-17223667D01*
X5462143Y-17242714D01*
X5462143Y-17347476D01*
X5462143Y-17242714D02*
X5471667Y-17223667D01*
X5490714Y-17214143D01*
X5519286Y-17214143D01*
X5538333Y-17223667D01*
X5547857Y-17242714D01*
X5547857Y-17347476D01*
X5938333Y-17137952D02*
X5766905Y-17395095D01*
X6195476Y-17147476D02*
X6214524Y-17147476D01*
X6233571Y-17157000D01*
X6243095Y-17166524D01*
X6252619Y-17185571D01*
X6262143Y-17223667D01*
X6262143Y-17271286D01*
X6252619Y-17309381D01*
X6243095Y-17328429D01*
X6233571Y-17337952D01*
X6214524Y-17347476D01*
X6195476Y-17347476D01*
X6176428Y-17337952D01*
X6166905Y-17328429D01*
X6157381Y-17309381D01*
X6147857Y-17271286D01*
X6147857Y-17223667D01*
X6157381Y-17185571D01*
X6166905Y-17166524D01*
X6176428Y-17157000D01*
X6195476Y-17147476D01*
X6347857Y-17328429D02*
X6357381Y-17337952D01*
X6347857Y-17347476D01*
X6338333Y-17337952D01*
X6347857Y-17328429D01*
X6347857Y-17347476D01*
X6481190Y-17147476D02*
X6500238Y-17147476D01*
X6519286Y-17157000D01*
X6528809Y-17166524D01*
X6538333Y-17185571D01*
X6547857Y-17223667D01*
X6547857Y-17271286D01*
X6538333Y-17309381D01*
X6528809Y-17328429D01*
X6519286Y-17337952D01*
X6500238Y-17347476D01*
X6481190Y-17347476D01*
X6462143Y-17337952D01*
X6452619Y-17328429D01*
X6443095Y-17309381D01*
X6433571Y-17271286D01*
X6433571Y-17223667D01*
X6443095Y-17185571D01*
X6452619Y-17166524D01*
X6462143Y-17157000D01*
X6481190Y-17147476D01*
X6728809Y-17147476D02*
X6633571Y-17147476D01*
X6624048Y-17242714D01*
X6633571Y-17233190D01*
X6652619Y-17223667D01*
X6700238Y-17223667D01*
X6719286Y-17233190D01*
X6728809Y-17242714D01*
X6738333Y-17261762D01*
X6738333Y-17309381D01*
X6728809Y-17328429D01*
X6719286Y-17337952D01*
X6700238Y-17347476D01*
X6652619Y-17347476D01*
X6633571Y-17337952D01*
X6624048Y-17328429D01*
X6862143Y-17147476D02*
X6881190Y-17147476D01*
X6900238Y-17157000D01*
X6909762Y-17166524D01*
X6919286Y-17185571D01*
X6928809Y-17223667D01*
X6928809Y-17271286D01*
X6919286Y-17309381D01*
X6909762Y-17328429D01*
X6900238Y-17337952D01*
X6881190Y-17347476D01*
X6862143Y-17347476D01*
X6843095Y-17337952D01*
X6833571Y-17328429D01*
X6824048Y-17309381D01*
X6814524Y-17271286D01*
X6814524Y-17223667D01*
X6824048Y-17185571D01*
X6833571Y-17166524D01*
X6843095Y-17157000D01*
X6862143Y-17147476D01*
X7052619Y-17147476D02*
X7071667Y-17147476D01*
X7090714Y-17157000D01*
X7100238Y-17166524D01*
X7109762Y-17185571D01*
X7119286Y-17223667D01*
X7119286Y-17271286D01*
X7109762Y-17309381D01*
X7100238Y-17328429D01*
X7090714Y-17337952D01*
X7071667Y-17347476D01*
X7052619Y-17347476D01*
X7033571Y-17337952D01*
X7024048Y-17328429D01*
X7014524Y-17309381D01*
X7005000Y-17271286D01*
X7005000Y-17223667D01*
X7014524Y-17185571D01*
X7024048Y-17166524D01*
X7033571Y-17157000D01*
X7052619Y-17147476D01*
X7195476Y-17147476D02*
X7195476Y-17185571D01*
X7271667Y-17147476D02*
X7271667Y-17185571D01*
X7566905Y-17423667D02*
X7557381Y-17414143D01*
X7538333Y-17385571D01*
X7528809Y-17366524D01*
X7519286Y-17337952D01*
X7509762Y-17290333D01*
X7509762Y-17252238D01*
X7519286Y-17204619D01*
X7528809Y-17176048D01*
X7538333Y-17157000D01*
X7557381Y-17128429D01*
X7566905Y-17118905D01*
X7728809Y-17147476D02*
X7690714Y-17147476D01*
X7671667Y-17157000D01*
X7662143Y-17166524D01*
X7643095Y-17195095D01*
X7633571Y-17233190D01*
X7633571Y-17309381D01*
X7643095Y-17328429D01*
X7652619Y-17337952D01*
X7671667Y-17347476D01*
X7709762Y-17347476D01*
X7728809Y-17337952D01*
X7738333Y-17328429D01*
X7747857Y-17309381D01*
X7747857Y-17261762D01*
X7738333Y-17242714D01*
X7728809Y-17233190D01*
X7709762Y-17223667D01*
X7671667Y-17223667D01*
X7652619Y-17233190D01*
X7643095Y-17242714D01*
X7633571Y-17261762D01*
X7985952Y-17347476D02*
X7985952Y-17147476D01*
X8071667Y-17347476D02*
X8071667Y-17242714D01*
X8062143Y-17223667D01*
X8043095Y-17214143D01*
X8014524Y-17214143D01*
X7995476Y-17223667D01*
X7985952Y-17233190D01*
X8195476Y-17347476D02*
X8176428Y-17337952D01*
X8166905Y-17328429D01*
X8157381Y-17309381D01*
X8157381Y-17252238D01*
X8166905Y-17233190D01*
X8176428Y-17223667D01*
X8195476Y-17214143D01*
X8224048Y-17214143D01*
X8243095Y-17223667D01*
X8252619Y-17233190D01*
X8262143Y-17252238D01*
X8262143Y-17309381D01*
X8252619Y-17328429D01*
X8243095Y-17337952D01*
X8224048Y-17347476D01*
X8195476Y-17347476D01*
X8376428Y-17347476D02*
X8357381Y-17337952D01*
X8347857Y-17318905D01*
X8347857Y-17147476D01*
X8528810Y-17337952D02*
X8509762Y-17347476D01*
X8471667Y-17347476D01*
X8452619Y-17337952D01*
X8443095Y-17318905D01*
X8443095Y-17242714D01*
X8452619Y-17223667D01*
X8471667Y-17214143D01*
X8509762Y-17214143D01*
X8528810Y-17223667D01*
X8538333Y-17242714D01*
X8538333Y-17261762D01*
X8443095Y-17280810D01*
X8614524Y-17337952D02*
X8633571Y-17347476D01*
X8671667Y-17347476D01*
X8690714Y-17337952D01*
X8700238Y-17318905D01*
X8700238Y-17309381D01*
X8690714Y-17290333D01*
X8671667Y-17280810D01*
X8643095Y-17280810D01*
X8624048Y-17271286D01*
X8614524Y-17252238D01*
X8614524Y-17242714D01*
X8624048Y-17223667D01*
X8643095Y-17214143D01*
X8671667Y-17214143D01*
X8690714Y-17223667D01*
X8766905Y-17423667D02*
X8776429Y-17414143D01*
X8795476Y-17385571D01*
X8805000Y-17366524D01*
X8814524Y-17337952D01*
X8824048Y-17290333D01*
X8824048Y-17252238D01*
X8814524Y-17204619D01*
X8805000Y-17176048D01*
X8795476Y-17157000D01*
X8776429Y-17128429D01*
X8766905Y-17118905D01*
D21*
X3906500Y-17432500D02*
X3906500Y-17609500D01*
X3818000Y-17521000D02*
X3995000Y-17521000D01*
X3995000Y-17521000D02*
G75*
G03*
X3995000Y-17521000I-88500J0D01*
G01*
D11*
X4357381Y-17611476D02*
X4243095Y-17611476D01*
X4300238Y-17611476D02*
X4300238Y-17411476D01*
X4281190Y-17440048D01*
X4262143Y-17459095D01*
X4243095Y-17468619D01*
X4443095Y-17592429D02*
X4452619Y-17601952D01*
X4443095Y-17611476D01*
X4433571Y-17601952D01*
X4443095Y-17592429D01*
X4443095Y-17611476D01*
X4519286Y-17411476D02*
X4652619Y-17411476D01*
X4566905Y-17611476D01*
X4709762Y-17411476D02*
X4843095Y-17411476D01*
X4757381Y-17611476D01*
X4957381Y-17411476D02*
X4976429Y-17411476D01*
X4995476Y-17421000D01*
X5005000Y-17430524D01*
X5014524Y-17449571D01*
X5024048Y-17487667D01*
X5024048Y-17535286D01*
X5014524Y-17573381D01*
X5005000Y-17592429D01*
X4995476Y-17601952D01*
X4976429Y-17611476D01*
X4957381Y-17611476D01*
X4938333Y-17601952D01*
X4928810Y-17592429D01*
X4919286Y-17573381D01*
X4909762Y-17535286D01*
X4909762Y-17487667D01*
X4919286Y-17449571D01*
X4928810Y-17430524D01*
X4938333Y-17421000D01*
X4957381Y-17411476D01*
X5109762Y-17611476D02*
X5109762Y-17478143D01*
X5109762Y-17497190D02*
X5119286Y-17487667D01*
X5138333Y-17478143D01*
X5166905Y-17478143D01*
X5185952Y-17487667D01*
X5195476Y-17506714D01*
X5195476Y-17611476D01*
X5195476Y-17506714D02*
X5205000Y-17487667D01*
X5224048Y-17478143D01*
X5252619Y-17478143D01*
X5271667Y-17487667D01*
X5281190Y-17506714D01*
X5281190Y-17611476D01*
X5376429Y-17611476D02*
X5376429Y-17478143D01*
X5376429Y-17497190D02*
X5385952Y-17487667D01*
X5405000Y-17478143D01*
X5433571Y-17478143D01*
X5452619Y-17487667D01*
X5462143Y-17506714D01*
X5462143Y-17611476D01*
X5462143Y-17506714D02*
X5471667Y-17487667D01*
X5490714Y-17478143D01*
X5519286Y-17478143D01*
X5538333Y-17487667D01*
X5547857Y-17506714D01*
X5547857Y-17611476D01*
X5938333Y-17401952D02*
X5766905Y-17659095D01*
X6195476Y-17411476D02*
X6214524Y-17411476D01*
X6233571Y-17421000D01*
X6243095Y-17430524D01*
X6252619Y-17449571D01*
X6262143Y-17487667D01*
X6262143Y-17535286D01*
X6252619Y-17573381D01*
X6243095Y-17592429D01*
X6233571Y-17601952D01*
X6214524Y-17611476D01*
X6195476Y-17611476D01*
X6176428Y-17601952D01*
X6166905Y-17592429D01*
X6157381Y-17573381D01*
X6147857Y-17535286D01*
X6147857Y-17487667D01*
X6157381Y-17449571D01*
X6166905Y-17430524D01*
X6176428Y-17421000D01*
X6195476Y-17411476D01*
X6347857Y-17592429D02*
X6357381Y-17601952D01*
X6347857Y-17611476D01*
X6338333Y-17601952D01*
X6347857Y-17592429D01*
X6347857Y-17611476D01*
X6481190Y-17411476D02*
X6500238Y-17411476D01*
X6519286Y-17421000D01*
X6528809Y-17430524D01*
X6538333Y-17449571D01*
X6547857Y-17487667D01*
X6547857Y-17535286D01*
X6538333Y-17573381D01*
X6528809Y-17592429D01*
X6519286Y-17601952D01*
X6500238Y-17611476D01*
X6481190Y-17611476D01*
X6462143Y-17601952D01*
X6452619Y-17592429D01*
X6443095Y-17573381D01*
X6433571Y-17535286D01*
X6433571Y-17487667D01*
X6443095Y-17449571D01*
X6452619Y-17430524D01*
X6462143Y-17421000D01*
X6481190Y-17411476D01*
X6719286Y-17411476D02*
X6681190Y-17411476D01*
X6662143Y-17421000D01*
X6652619Y-17430524D01*
X6633571Y-17459095D01*
X6624048Y-17497190D01*
X6624048Y-17573381D01*
X6633571Y-17592429D01*
X6643095Y-17601952D01*
X6662143Y-17611476D01*
X6700238Y-17611476D01*
X6719286Y-17601952D01*
X6728809Y-17592429D01*
X6738333Y-17573381D01*
X6738333Y-17525762D01*
X6728809Y-17506714D01*
X6719286Y-17497190D01*
X6700238Y-17487667D01*
X6662143Y-17487667D01*
X6643095Y-17497190D01*
X6633571Y-17506714D01*
X6624048Y-17525762D01*
X6833571Y-17611476D02*
X6871667Y-17611476D01*
X6890714Y-17601952D01*
X6900238Y-17592429D01*
X6919286Y-17563857D01*
X6928809Y-17525762D01*
X6928809Y-17449571D01*
X6919286Y-17430524D01*
X6909762Y-17421000D01*
X6890714Y-17411476D01*
X6852619Y-17411476D01*
X6833571Y-17421000D01*
X6824048Y-17430524D01*
X6814524Y-17449571D01*
X6814524Y-17497190D01*
X6824048Y-17516238D01*
X6833571Y-17525762D01*
X6852619Y-17535286D01*
X6890714Y-17535286D01*
X6909762Y-17525762D01*
X6919286Y-17516238D01*
X6928809Y-17497190D01*
X6995476Y-17411476D02*
X7128809Y-17411476D01*
X7043095Y-17611476D01*
X7195476Y-17411476D02*
X7195476Y-17449571D01*
X7271667Y-17411476D02*
X7271667Y-17449571D01*
X7566905Y-17687667D02*
X7557381Y-17678143D01*
X7538333Y-17649571D01*
X7528809Y-17630524D01*
X7519286Y-17601952D01*
X7509762Y-17554333D01*
X7509762Y-17516238D01*
X7519286Y-17468619D01*
X7528809Y-17440048D01*
X7538333Y-17421000D01*
X7557381Y-17392429D01*
X7566905Y-17382905D01*
X7633571Y-17430524D02*
X7643095Y-17421000D01*
X7662143Y-17411476D01*
X7709762Y-17411476D01*
X7728809Y-17421000D01*
X7738333Y-17430524D01*
X7747857Y-17449571D01*
X7747857Y-17468619D01*
X7738333Y-17497190D01*
X7624048Y-17611476D01*
X7747857Y-17611476D01*
X7919286Y-17478143D02*
X7919286Y-17611476D01*
X7871667Y-17401952D02*
X7824048Y-17544810D01*
X7947857Y-17544810D01*
X8176428Y-17611476D02*
X8176428Y-17411476D01*
X8262143Y-17611476D02*
X8262143Y-17506714D01*
X8252619Y-17487667D01*
X8233571Y-17478143D01*
X8205000Y-17478143D01*
X8185952Y-17487667D01*
X8176428Y-17497190D01*
X8385952Y-17611476D02*
X8366905Y-17601952D01*
X8357381Y-17592429D01*
X8347857Y-17573381D01*
X8347857Y-17516238D01*
X8357381Y-17497190D01*
X8366905Y-17487667D01*
X8385952Y-17478143D01*
X8414524Y-17478143D01*
X8433571Y-17487667D01*
X8443095Y-17497190D01*
X8452619Y-17516238D01*
X8452619Y-17573381D01*
X8443095Y-17592429D01*
X8433571Y-17601952D01*
X8414524Y-17611476D01*
X8385952Y-17611476D01*
X8566905Y-17611476D02*
X8547857Y-17601952D01*
X8538333Y-17582905D01*
X8538333Y-17411476D01*
X8719286Y-17601952D02*
X8700238Y-17611476D01*
X8662143Y-17611476D01*
X8643095Y-17601952D01*
X8633571Y-17582905D01*
X8633571Y-17506714D01*
X8643095Y-17487667D01*
X8662143Y-17478143D01*
X8700238Y-17478143D01*
X8719286Y-17487667D01*
X8728810Y-17506714D01*
X8728810Y-17525762D01*
X8633571Y-17544810D01*
X8805000Y-17601952D02*
X8824048Y-17611476D01*
X8862143Y-17611476D01*
X8881190Y-17601952D01*
X8890714Y-17582905D01*
X8890714Y-17573381D01*
X8881190Y-17554333D01*
X8862143Y-17544810D01*
X8833571Y-17544810D01*
X8814524Y-17535286D01*
X8805000Y-17516238D01*
X8805000Y-17506714D01*
X8814524Y-17487667D01*
X8833571Y-17478143D01*
X8862143Y-17478143D01*
X8881190Y-17487667D01*
X8957381Y-17687667D02*
X8966905Y-17678143D01*
X8985952Y-17649571D01*
X8995476Y-17630524D01*
X9005000Y-17601952D01*
X9014524Y-17554333D01*
X9014524Y-17516238D01*
X9005000Y-17468619D01*
X8995476Y-17440048D01*
X8985952Y-17421000D01*
X8966905Y-17392429D01*
X8957381Y-17382905D01*
D22*
X3966731Y-17886251D02*
X3966731Y-17749749D01*
X3830229Y-17749749D01*
X3830229Y-17886251D01*
X3966731Y-17886251D01*
X3995000Y-17818000D02*
G75*
G03*
X3995000Y-17818000I-96520J0D01*
G01*
D11*
X4357381Y-17908476D02*
X4243095Y-17908476D01*
X4300238Y-17908476D02*
X4300238Y-17708476D01*
X4281190Y-17737048D01*
X4262143Y-17756095D01*
X4243095Y-17765619D01*
X4443095Y-17889429D02*
X4452619Y-17898952D01*
X4443095Y-17908476D01*
X4433571Y-17898952D01*
X4443095Y-17889429D01*
X4443095Y-17908476D01*
X4547857Y-17908476D02*
X4585952Y-17908476D01*
X4605000Y-17898952D01*
X4614524Y-17889429D01*
X4633571Y-17860857D01*
X4643095Y-17822762D01*
X4643095Y-17746571D01*
X4633571Y-17727524D01*
X4624048Y-17718000D01*
X4605000Y-17708476D01*
X4566905Y-17708476D01*
X4547857Y-17718000D01*
X4538333Y-17727524D01*
X4528810Y-17746571D01*
X4528810Y-17794190D01*
X4538333Y-17813238D01*
X4547857Y-17822762D01*
X4566905Y-17832286D01*
X4605000Y-17832286D01*
X4624048Y-17822762D01*
X4633571Y-17813238D01*
X4643095Y-17794190D01*
X4709762Y-17708476D02*
X4833571Y-17708476D01*
X4766905Y-17784667D01*
X4795476Y-17784667D01*
X4814524Y-17794190D01*
X4824048Y-17803714D01*
X4833571Y-17822762D01*
X4833571Y-17870381D01*
X4824048Y-17889429D01*
X4814524Y-17898952D01*
X4795476Y-17908476D01*
X4738333Y-17908476D01*
X4719286Y-17898952D01*
X4709762Y-17889429D01*
X4957381Y-17708476D02*
X4976429Y-17708476D01*
X4995476Y-17718000D01*
X5005000Y-17727524D01*
X5014524Y-17746571D01*
X5024048Y-17784667D01*
X5024048Y-17832286D01*
X5014524Y-17870381D01*
X5005000Y-17889429D01*
X4995476Y-17898952D01*
X4976429Y-17908476D01*
X4957381Y-17908476D01*
X4938333Y-17898952D01*
X4928810Y-17889429D01*
X4919286Y-17870381D01*
X4909762Y-17832286D01*
X4909762Y-17784667D01*
X4919286Y-17746571D01*
X4928810Y-17727524D01*
X4938333Y-17718000D01*
X4957381Y-17708476D01*
X5109762Y-17908476D02*
X5109762Y-17775143D01*
X5109762Y-17794190D02*
X5119286Y-17784667D01*
X5138333Y-17775143D01*
X5166905Y-17775143D01*
X5185952Y-17784667D01*
X5195476Y-17803714D01*
X5195476Y-17908476D01*
X5195476Y-17803714D02*
X5205000Y-17784667D01*
X5224048Y-17775143D01*
X5252619Y-17775143D01*
X5271667Y-17784667D01*
X5281190Y-17803714D01*
X5281190Y-17908476D01*
X5376429Y-17908476D02*
X5376429Y-17775143D01*
X5376429Y-17794190D02*
X5385952Y-17784667D01*
X5405000Y-17775143D01*
X5433571Y-17775143D01*
X5452619Y-17784667D01*
X5462143Y-17803714D01*
X5462143Y-17908476D01*
X5462143Y-17803714D02*
X5471667Y-17784667D01*
X5490714Y-17775143D01*
X5519286Y-17775143D01*
X5538333Y-17784667D01*
X5547857Y-17803714D01*
X5547857Y-17908476D01*
X5938333Y-17698952D02*
X5766905Y-17956095D01*
X6195476Y-17708476D02*
X6214524Y-17708476D01*
X6233571Y-17718000D01*
X6243095Y-17727524D01*
X6252619Y-17746571D01*
X6262143Y-17784667D01*
X6262143Y-17832286D01*
X6252619Y-17870381D01*
X6243095Y-17889429D01*
X6233571Y-17898952D01*
X6214524Y-17908476D01*
X6195476Y-17908476D01*
X6176428Y-17898952D01*
X6166905Y-17889429D01*
X6157381Y-17870381D01*
X6147857Y-17832286D01*
X6147857Y-17784667D01*
X6157381Y-17746571D01*
X6166905Y-17727524D01*
X6176428Y-17718000D01*
X6195476Y-17708476D01*
X6347857Y-17889429D02*
X6357381Y-17898952D01*
X6347857Y-17908476D01*
X6338333Y-17898952D01*
X6347857Y-17889429D01*
X6347857Y-17908476D01*
X6481190Y-17708476D02*
X6500238Y-17708476D01*
X6519286Y-17718000D01*
X6528809Y-17727524D01*
X6538333Y-17746571D01*
X6547857Y-17784667D01*
X6547857Y-17832286D01*
X6538333Y-17870381D01*
X6528809Y-17889429D01*
X6519286Y-17898952D01*
X6500238Y-17908476D01*
X6481190Y-17908476D01*
X6462143Y-17898952D01*
X6452619Y-17889429D01*
X6443095Y-17870381D01*
X6433571Y-17832286D01*
X6433571Y-17784667D01*
X6443095Y-17746571D01*
X6452619Y-17727524D01*
X6462143Y-17718000D01*
X6481190Y-17708476D01*
X6614524Y-17708476D02*
X6747857Y-17708476D01*
X6662143Y-17908476D01*
X6909762Y-17708476D02*
X6871667Y-17708476D01*
X6852619Y-17718000D01*
X6843095Y-17727524D01*
X6824048Y-17756095D01*
X6814524Y-17794190D01*
X6814524Y-17870381D01*
X6824048Y-17889429D01*
X6833571Y-17898952D01*
X6852619Y-17908476D01*
X6890714Y-17908476D01*
X6909762Y-17898952D01*
X6919286Y-17889429D01*
X6928809Y-17870381D01*
X6928809Y-17822762D01*
X6919286Y-17803714D01*
X6909762Y-17794190D01*
X6890714Y-17784667D01*
X6852619Y-17784667D01*
X6833571Y-17794190D01*
X6824048Y-17803714D01*
X6814524Y-17822762D01*
X7052619Y-17708476D02*
X7071667Y-17708476D01*
X7090714Y-17718000D01*
X7100238Y-17727524D01*
X7109762Y-17746571D01*
X7119286Y-17784667D01*
X7119286Y-17832286D01*
X7109762Y-17870381D01*
X7100238Y-17889429D01*
X7090714Y-17898952D01*
X7071667Y-17908476D01*
X7052619Y-17908476D01*
X7033571Y-17898952D01*
X7024048Y-17889429D01*
X7014524Y-17870381D01*
X7005000Y-17832286D01*
X7005000Y-17784667D01*
X7014524Y-17746571D01*
X7024048Y-17727524D01*
X7033571Y-17718000D01*
X7052619Y-17708476D01*
X7195476Y-17708476D02*
X7195476Y-17746571D01*
X7271667Y-17708476D02*
X7271667Y-17746571D01*
X7566905Y-17984667D02*
X7557381Y-17975143D01*
X7538333Y-17946571D01*
X7528809Y-17927524D01*
X7519286Y-17898952D01*
X7509762Y-17851333D01*
X7509762Y-17813238D01*
X7519286Y-17765619D01*
X7528809Y-17737048D01*
X7538333Y-17718000D01*
X7557381Y-17689429D01*
X7566905Y-17679905D01*
X7633571Y-17727524D02*
X7643095Y-17718000D01*
X7662143Y-17708476D01*
X7709762Y-17708476D01*
X7728809Y-17718000D01*
X7738333Y-17727524D01*
X7747857Y-17746571D01*
X7747857Y-17765619D01*
X7738333Y-17794190D01*
X7624048Y-17908476D01*
X7747857Y-17908476D01*
X7985952Y-17908476D02*
X7985952Y-17708476D01*
X8071667Y-17908476D02*
X8071667Y-17803714D01*
X8062143Y-17784667D01*
X8043095Y-17775143D01*
X8014524Y-17775143D01*
X7995476Y-17784667D01*
X7985952Y-17794190D01*
X8195476Y-17908476D02*
X8176428Y-17898952D01*
X8166905Y-17889429D01*
X8157381Y-17870381D01*
X8157381Y-17813238D01*
X8166905Y-17794190D01*
X8176428Y-17784667D01*
X8195476Y-17775143D01*
X8224048Y-17775143D01*
X8243095Y-17784667D01*
X8252619Y-17794190D01*
X8262143Y-17813238D01*
X8262143Y-17870381D01*
X8252619Y-17889429D01*
X8243095Y-17898952D01*
X8224048Y-17908476D01*
X8195476Y-17908476D01*
X8376428Y-17908476D02*
X8357381Y-17898952D01*
X8347857Y-17879905D01*
X8347857Y-17708476D01*
X8528810Y-17898952D02*
X8509762Y-17908476D01*
X8471667Y-17908476D01*
X8452619Y-17898952D01*
X8443095Y-17879905D01*
X8443095Y-17803714D01*
X8452619Y-17784667D01*
X8471667Y-17775143D01*
X8509762Y-17775143D01*
X8528810Y-17784667D01*
X8538333Y-17803714D01*
X8538333Y-17822762D01*
X8443095Y-17841810D01*
X8614524Y-17898952D02*
X8633571Y-17908476D01*
X8671667Y-17908476D01*
X8690714Y-17898952D01*
X8700238Y-17879905D01*
X8700238Y-17870381D01*
X8690714Y-17851333D01*
X8671667Y-17841810D01*
X8643095Y-17841810D01*
X8624048Y-17832286D01*
X8614524Y-17813238D01*
X8614524Y-17803714D01*
X8624048Y-17784667D01*
X8643095Y-17775143D01*
X8671667Y-17775143D01*
X8690714Y-17784667D01*
X8766905Y-17984667D02*
X8776429Y-17975143D01*
X8795476Y-17946571D01*
X8805000Y-17927524D01*
X8814524Y-17898952D01*
X8824048Y-17851333D01*
X8824048Y-17813238D01*
X8814524Y-17765619D01*
X8805000Y-17737048D01*
X8795476Y-17718000D01*
X8776429Y-17689429D01*
X8766905Y-17679905D01*
X3895000Y-18231040D02*
X3995000Y-18131040D01*
X3895000Y-18031040D01*
X3795000Y-18131040D01*
X3895000Y-18231040D01*
X3995000Y-18131040D02*
G75*
G03*
X3995000Y-18131040I-100000J0D01*
G01*
X4243095Y-18040564D02*
X4252619Y-18031040D01*
X4271667Y-18021516D01*
X4319286Y-18021516D01*
X4338333Y-18031040D01*
X4347857Y-18040564D01*
X4357381Y-18059611D01*
X4357381Y-18078659D01*
X4347857Y-18107230D01*
X4233571Y-18221516D01*
X4357381Y-18221516D01*
X4443095Y-18202469D02*
X4452619Y-18211992D01*
X4443095Y-18221516D01*
X4433571Y-18211992D01*
X4443095Y-18202469D01*
X4443095Y-18221516D01*
X4566905Y-18107230D02*
X4547857Y-18097707D01*
X4538333Y-18088183D01*
X4528810Y-18069135D01*
X4528810Y-18059611D01*
X4538333Y-18040564D01*
X4547857Y-18031040D01*
X4566905Y-18021516D01*
X4605000Y-18021516D01*
X4624048Y-18031040D01*
X4633571Y-18040564D01*
X4643095Y-18059611D01*
X4643095Y-18069135D01*
X4633571Y-18088183D01*
X4624048Y-18097707D01*
X4605000Y-18107230D01*
X4566905Y-18107230D01*
X4547857Y-18116754D01*
X4538333Y-18126278D01*
X4528810Y-18145326D01*
X4528810Y-18183421D01*
X4538333Y-18202469D01*
X4547857Y-18211992D01*
X4566905Y-18221516D01*
X4605000Y-18221516D01*
X4624048Y-18211992D01*
X4633571Y-18202469D01*
X4643095Y-18183421D01*
X4643095Y-18145326D01*
X4633571Y-18126278D01*
X4624048Y-18116754D01*
X4605000Y-18107230D01*
X4766905Y-18021516D02*
X4785952Y-18021516D01*
X4805000Y-18031040D01*
X4814524Y-18040564D01*
X4824048Y-18059611D01*
X4833571Y-18097707D01*
X4833571Y-18145326D01*
X4824048Y-18183421D01*
X4814524Y-18202469D01*
X4805000Y-18211992D01*
X4785952Y-18221516D01*
X4766905Y-18221516D01*
X4747857Y-18211992D01*
X4738333Y-18202469D01*
X4728810Y-18183421D01*
X4719286Y-18145326D01*
X4719286Y-18097707D01*
X4728810Y-18059611D01*
X4738333Y-18040564D01*
X4747857Y-18031040D01*
X4766905Y-18021516D01*
X4957381Y-18021516D02*
X4976429Y-18021516D01*
X4995476Y-18031040D01*
X5005000Y-18040564D01*
X5014524Y-18059611D01*
X5024048Y-18097707D01*
X5024048Y-18145326D01*
X5014524Y-18183421D01*
X5005000Y-18202469D01*
X4995476Y-18211992D01*
X4976429Y-18221516D01*
X4957381Y-18221516D01*
X4938333Y-18211992D01*
X4928810Y-18202469D01*
X4919286Y-18183421D01*
X4909762Y-18145326D01*
X4909762Y-18097707D01*
X4919286Y-18059611D01*
X4928810Y-18040564D01*
X4938333Y-18031040D01*
X4957381Y-18021516D01*
X5109762Y-18221516D02*
X5109762Y-18088183D01*
X5109762Y-18107230D02*
X5119286Y-18097707D01*
X5138333Y-18088183D01*
X5166905Y-18088183D01*
X5185952Y-18097707D01*
X5195476Y-18116754D01*
X5195476Y-18221516D01*
X5195476Y-18116754D02*
X5205000Y-18097707D01*
X5224048Y-18088183D01*
X5252619Y-18088183D01*
X5271667Y-18097707D01*
X5281190Y-18116754D01*
X5281190Y-18221516D01*
X5376429Y-18221516D02*
X5376429Y-18088183D01*
X5376429Y-18107230D02*
X5385952Y-18097707D01*
X5405000Y-18088183D01*
X5433571Y-18088183D01*
X5452619Y-18097707D01*
X5462143Y-18116754D01*
X5462143Y-18221516D01*
X5462143Y-18116754D02*
X5471667Y-18097707D01*
X5490714Y-18088183D01*
X5519286Y-18088183D01*
X5538333Y-18097707D01*
X5547857Y-18116754D01*
X5547857Y-18221516D01*
X5938333Y-18011992D02*
X5766905Y-18269135D01*
X6195476Y-18021516D02*
X6214524Y-18021516D01*
X6233571Y-18031040D01*
X6243095Y-18040564D01*
X6252619Y-18059611D01*
X6262143Y-18097707D01*
X6262143Y-18145326D01*
X6252619Y-18183421D01*
X6243095Y-18202469D01*
X6233571Y-18211992D01*
X6214524Y-18221516D01*
X6195476Y-18221516D01*
X6176428Y-18211992D01*
X6166905Y-18202469D01*
X6157381Y-18183421D01*
X6147857Y-18145326D01*
X6147857Y-18097707D01*
X6157381Y-18059611D01*
X6166905Y-18040564D01*
X6176428Y-18031040D01*
X6195476Y-18021516D01*
X6347857Y-18202469D02*
X6357381Y-18211992D01*
X6347857Y-18221516D01*
X6338333Y-18211992D01*
X6347857Y-18202469D01*
X6347857Y-18221516D01*
X6547857Y-18221516D02*
X6433571Y-18221516D01*
X6490714Y-18221516D02*
X6490714Y-18021516D01*
X6471667Y-18050088D01*
X6452619Y-18069135D01*
X6433571Y-18078659D01*
X6738333Y-18221516D02*
X6624048Y-18221516D01*
X6681190Y-18221516D02*
X6681190Y-18021516D01*
X6662143Y-18050088D01*
X6643095Y-18069135D01*
X6624048Y-18078659D01*
X6862143Y-18021516D02*
X6881190Y-18021516D01*
X6900238Y-18031040D01*
X6909762Y-18040564D01*
X6919286Y-18059611D01*
X6928809Y-18097707D01*
X6928809Y-18145326D01*
X6919286Y-18183421D01*
X6909762Y-18202469D01*
X6900238Y-18211992D01*
X6881190Y-18221516D01*
X6862143Y-18221516D01*
X6843095Y-18211992D01*
X6833571Y-18202469D01*
X6824048Y-18183421D01*
X6814524Y-18145326D01*
X6814524Y-18097707D01*
X6824048Y-18059611D01*
X6833571Y-18040564D01*
X6843095Y-18031040D01*
X6862143Y-18021516D01*
X7005000Y-18040564D02*
X7014524Y-18031040D01*
X7033571Y-18021516D01*
X7081190Y-18021516D01*
X7100238Y-18031040D01*
X7109762Y-18040564D01*
X7119286Y-18059611D01*
X7119286Y-18078659D01*
X7109762Y-18107230D01*
X6995476Y-18221516D01*
X7119286Y-18221516D01*
X7195476Y-18021516D02*
X7195476Y-18059611D01*
X7271667Y-18021516D02*
X7271667Y-18059611D01*
X7566905Y-18297707D02*
X7557381Y-18288183D01*
X7538333Y-18259611D01*
X7528809Y-18240564D01*
X7519286Y-18211992D01*
X7509762Y-18164373D01*
X7509762Y-18126278D01*
X7519286Y-18078659D01*
X7528809Y-18050088D01*
X7538333Y-18031040D01*
X7557381Y-18002469D01*
X7566905Y-17992945D01*
X7747857Y-18221516D02*
X7633571Y-18221516D01*
X7690714Y-18221516D02*
X7690714Y-18021516D01*
X7671667Y-18050088D01*
X7652619Y-18069135D01*
X7633571Y-18078659D01*
X7919286Y-18021516D02*
X7881190Y-18021516D01*
X7862143Y-18031040D01*
X7852619Y-18040564D01*
X7833571Y-18069135D01*
X7824048Y-18107230D01*
X7824048Y-18183421D01*
X7833571Y-18202469D01*
X7843095Y-18211992D01*
X7862143Y-18221516D01*
X7900238Y-18221516D01*
X7919286Y-18211992D01*
X7928809Y-18202469D01*
X7938333Y-18183421D01*
X7938333Y-18135802D01*
X7928809Y-18116754D01*
X7919286Y-18107230D01*
X7900238Y-18097707D01*
X7862143Y-18097707D01*
X7843095Y-18107230D01*
X7833571Y-18116754D01*
X7824048Y-18135802D01*
X8176428Y-18221516D02*
X8176428Y-18021516D01*
X8262143Y-18221516D02*
X8262143Y-18116754D01*
X8252619Y-18097707D01*
X8233571Y-18088183D01*
X8205000Y-18088183D01*
X8185952Y-18097707D01*
X8176428Y-18107230D01*
X8385952Y-18221516D02*
X8366905Y-18211992D01*
X8357381Y-18202469D01*
X8347857Y-18183421D01*
X8347857Y-18126278D01*
X8357381Y-18107230D01*
X8366905Y-18097707D01*
X8385952Y-18088183D01*
X8414524Y-18088183D01*
X8433571Y-18097707D01*
X8443095Y-18107230D01*
X8452619Y-18126278D01*
X8452619Y-18183421D01*
X8443095Y-18202469D01*
X8433571Y-18211992D01*
X8414524Y-18221516D01*
X8385952Y-18221516D01*
X8566905Y-18221516D02*
X8547857Y-18211992D01*
X8538333Y-18192945D01*
X8538333Y-18021516D01*
X8719286Y-18211992D02*
X8700238Y-18221516D01*
X8662143Y-18221516D01*
X8643095Y-18211992D01*
X8633571Y-18192945D01*
X8633571Y-18116754D01*
X8643095Y-18097707D01*
X8662143Y-18088183D01*
X8700238Y-18088183D01*
X8719286Y-18097707D01*
X8728810Y-18116754D01*
X8728810Y-18135802D01*
X8633571Y-18154850D01*
X8805000Y-18211992D02*
X8824048Y-18221516D01*
X8862143Y-18221516D01*
X8881190Y-18211992D01*
X8890714Y-18192945D01*
X8890714Y-18183421D01*
X8881190Y-18164373D01*
X8862143Y-18154850D01*
X8833571Y-18154850D01*
X8814524Y-18145326D01*
X8805000Y-18126278D01*
X8805000Y-18116754D01*
X8814524Y-18097707D01*
X8833571Y-18088183D01*
X8862143Y-18088183D01*
X8881190Y-18097707D01*
X8957381Y-18297707D02*
X8966905Y-18288183D01*
X8985952Y-18259611D01*
X8995476Y-18240564D01*
X9005000Y-18211992D01*
X9014524Y-18164373D01*
X9014524Y-18126278D01*
X9005000Y-18078659D01*
X8995476Y-18050088D01*
X8985952Y-18031040D01*
X8966905Y-18002469D01*
X8957381Y-17992945D01*
X3895000Y-18351040D02*
X3895000Y-18551040D01*
X3795000Y-18451040D02*
X3995000Y-18451040D01*
X3965711Y-18521751D02*
X3965711Y-18380329D01*
X3824289Y-18380329D01*
X3824289Y-18521751D01*
X3965711Y-18521751D01*
X4233571Y-18341516D02*
X4357381Y-18341516D01*
X4290714Y-18417707D01*
X4319286Y-18417707D01*
X4338333Y-18427230D01*
X4347857Y-18436754D01*
X4357381Y-18455802D01*
X4357381Y-18503421D01*
X4347857Y-18522469D01*
X4338333Y-18531992D01*
X4319286Y-18541516D01*
X4262143Y-18541516D01*
X4243095Y-18531992D01*
X4233571Y-18522469D01*
X4443095Y-18522469D02*
X4452619Y-18531992D01*
X4443095Y-18541516D01*
X4433571Y-18531992D01*
X4443095Y-18522469D01*
X4443095Y-18541516D01*
X4576429Y-18341516D02*
X4595476Y-18341516D01*
X4614524Y-18351040D01*
X4624048Y-18360564D01*
X4633571Y-18379611D01*
X4643095Y-18417707D01*
X4643095Y-18465326D01*
X4633571Y-18503421D01*
X4624048Y-18522469D01*
X4614524Y-18531992D01*
X4595476Y-18541516D01*
X4576429Y-18541516D01*
X4557381Y-18531992D01*
X4547857Y-18522469D01*
X4538333Y-18503421D01*
X4528810Y-18465326D01*
X4528810Y-18417707D01*
X4538333Y-18379611D01*
X4547857Y-18360564D01*
X4557381Y-18351040D01*
X4576429Y-18341516D01*
X4766905Y-18341516D02*
X4785952Y-18341516D01*
X4805000Y-18351040D01*
X4814524Y-18360564D01*
X4824048Y-18379611D01*
X4833571Y-18417707D01*
X4833571Y-18465326D01*
X4824048Y-18503421D01*
X4814524Y-18522469D01*
X4805000Y-18531992D01*
X4785952Y-18541516D01*
X4766905Y-18541516D01*
X4747857Y-18531992D01*
X4738333Y-18522469D01*
X4728810Y-18503421D01*
X4719286Y-18465326D01*
X4719286Y-18417707D01*
X4728810Y-18379611D01*
X4738333Y-18360564D01*
X4747857Y-18351040D01*
X4766905Y-18341516D01*
X4957381Y-18341516D02*
X4976429Y-18341516D01*
X4995476Y-18351040D01*
X5005000Y-18360564D01*
X5014524Y-18379611D01*
X5024048Y-18417707D01*
X5024048Y-18465326D01*
X5014524Y-18503421D01*
X5005000Y-18522469D01*
X4995476Y-18531992D01*
X4976429Y-18541516D01*
X4957381Y-18541516D01*
X4938333Y-18531992D01*
X4928810Y-18522469D01*
X4919286Y-18503421D01*
X4909762Y-18465326D01*
X4909762Y-18417707D01*
X4919286Y-18379611D01*
X4928810Y-18360564D01*
X4938333Y-18351040D01*
X4957381Y-18341516D01*
X5109762Y-18541516D02*
X5109762Y-18408183D01*
X5109762Y-18427230D02*
X5119286Y-18417707D01*
X5138333Y-18408183D01*
X5166905Y-18408183D01*
X5185952Y-18417707D01*
X5195476Y-18436754D01*
X5195476Y-18541516D01*
X5195476Y-18436754D02*
X5205000Y-18417707D01*
X5224048Y-18408183D01*
X5252619Y-18408183D01*
X5271667Y-18417707D01*
X5281190Y-18436754D01*
X5281190Y-18541516D01*
X5376429Y-18541516D02*
X5376429Y-18408183D01*
X5376429Y-18427230D02*
X5385952Y-18417707D01*
X5405000Y-18408183D01*
X5433571Y-18408183D01*
X5452619Y-18417707D01*
X5462143Y-18436754D01*
X5462143Y-18541516D01*
X5462143Y-18436754D02*
X5471667Y-18417707D01*
X5490714Y-18408183D01*
X5519286Y-18408183D01*
X5538333Y-18417707D01*
X5547857Y-18436754D01*
X5547857Y-18541516D01*
X5938333Y-18331992D02*
X5766905Y-18589135D01*
X6195476Y-18341516D02*
X6214524Y-18341516D01*
X6233571Y-18351040D01*
X6243095Y-18360564D01*
X6252619Y-18379611D01*
X6262143Y-18417707D01*
X6262143Y-18465326D01*
X6252619Y-18503421D01*
X6243095Y-18522469D01*
X6233571Y-18531992D01*
X6214524Y-18541516D01*
X6195476Y-18541516D01*
X6176428Y-18531992D01*
X6166905Y-18522469D01*
X6157381Y-18503421D01*
X6147857Y-18465326D01*
X6147857Y-18417707D01*
X6157381Y-18379611D01*
X6166905Y-18360564D01*
X6176428Y-18351040D01*
X6195476Y-18341516D01*
X6347857Y-18522469D02*
X6357381Y-18531992D01*
X6347857Y-18541516D01*
X6338333Y-18531992D01*
X6347857Y-18522469D01*
X6347857Y-18541516D01*
X6547857Y-18541516D02*
X6433571Y-18541516D01*
X6490714Y-18541516D02*
X6490714Y-18341516D01*
X6471667Y-18370088D01*
X6452619Y-18389135D01*
X6433571Y-18398659D01*
X6738333Y-18541516D02*
X6624048Y-18541516D01*
X6681190Y-18541516D02*
X6681190Y-18341516D01*
X6662143Y-18370088D01*
X6643095Y-18389135D01*
X6624048Y-18398659D01*
X6852619Y-18427230D02*
X6833571Y-18417707D01*
X6824048Y-18408183D01*
X6814524Y-18389135D01*
X6814524Y-18379611D01*
X6824048Y-18360564D01*
X6833571Y-18351040D01*
X6852619Y-18341516D01*
X6890714Y-18341516D01*
X6909762Y-18351040D01*
X6919286Y-18360564D01*
X6928809Y-18379611D01*
X6928809Y-18389135D01*
X6919286Y-18408183D01*
X6909762Y-18417707D01*
X6890714Y-18427230D01*
X6852619Y-18427230D01*
X6833571Y-18436754D01*
X6824048Y-18446278D01*
X6814524Y-18465326D01*
X6814524Y-18503421D01*
X6824048Y-18522469D01*
X6833571Y-18531992D01*
X6852619Y-18541516D01*
X6890714Y-18541516D01*
X6909762Y-18531992D01*
X6919286Y-18522469D01*
X6928809Y-18503421D01*
X6928809Y-18465326D01*
X6919286Y-18446278D01*
X6909762Y-18436754D01*
X6890714Y-18427230D01*
X7119286Y-18541516D02*
X7005000Y-18541516D01*
X7062143Y-18541516D02*
X7062143Y-18341516D01*
X7043095Y-18370088D01*
X7024048Y-18389135D01*
X7005000Y-18398659D01*
X7195476Y-18341516D02*
X7195476Y-18379611D01*
X7271667Y-18341516D02*
X7271667Y-18379611D01*
X7566905Y-18617707D02*
X7557381Y-18608183D01*
X7538333Y-18579611D01*
X7528809Y-18560564D01*
X7519286Y-18531992D01*
X7509762Y-18484373D01*
X7509762Y-18446278D01*
X7519286Y-18398659D01*
X7528809Y-18370088D01*
X7538333Y-18351040D01*
X7557381Y-18322469D01*
X7566905Y-18312945D01*
X7671667Y-18427230D02*
X7652619Y-18417707D01*
X7643095Y-18408183D01*
X7633571Y-18389135D01*
X7633571Y-18379611D01*
X7643095Y-18360564D01*
X7652619Y-18351040D01*
X7671667Y-18341516D01*
X7709762Y-18341516D01*
X7728809Y-18351040D01*
X7738333Y-18360564D01*
X7747857Y-18379611D01*
X7747857Y-18389135D01*
X7738333Y-18408183D01*
X7728809Y-18417707D01*
X7709762Y-18427230D01*
X7671667Y-18427230D01*
X7652619Y-18436754D01*
X7643095Y-18446278D01*
X7633571Y-18465326D01*
X7633571Y-18503421D01*
X7643095Y-18522469D01*
X7652619Y-18531992D01*
X7671667Y-18541516D01*
X7709762Y-18541516D01*
X7728809Y-18531992D01*
X7738333Y-18522469D01*
X7747857Y-18503421D01*
X7747857Y-18465326D01*
X7738333Y-18446278D01*
X7728809Y-18436754D01*
X7709762Y-18427230D01*
X7985952Y-18541516D02*
X7985952Y-18341516D01*
X8071667Y-18541516D02*
X8071667Y-18436754D01*
X8062143Y-18417707D01*
X8043095Y-18408183D01*
X8014524Y-18408183D01*
X7995476Y-18417707D01*
X7985952Y-18427230D01*
X8195476Y-18541516D02*
X8176428Y-18531992D01*
X8166905Y-18522469D01*
X8157381Y-18503421D01*
X8157381Y-18446278D01*
X8166905Y-18427230D01*
X8176428Y-18417707D01*
X8195476Y-18408183D01*
X8224048Y-18408183D01*
X8243095Y-18417707D01*
X8252619Y-18427230D01*
X8262143Y-18446278D01*
X8262143Y-18503421D01*
X8252619Y-18522469D01*
X8243095Y-18531992D01*
X8224048Y-18541516D01*
X8195476Y-18541516D01*
X8376428Y-18541516D02*
X8357381Y-18531992D01*
X8347857Y-18512945D01*
X8347857Y-18341516D01*
X8528810Y-18531992D02*
X8509762Y-18541516D01*
X8471667Y-18541516D01*
X8452619Y-18531992D01*
X8443095Y-18512945D01*
X8443095Y-18436754D01*
X8452619Y-18417707D01*
X8471667Y-18408183D01*
X8509762Y-18408183D01*
X8528810Y-18417707D01*
X8538333Y-18436754D01*
X8538333Y-18455802D01*
X8443095Y-18474850D01*
X8614524Y-18531992D02*
X8633571Y-18541516D01*
X8671667Y-18541516D01*
X8690714Y-18531992D01*
X8700238Y-18512945D01*
X8700238Y-18503421D01*
X8690714Y-18484373D01*
X8671667Y-18474850D01*
X8643095Y-18474850D01*
X8624048Y-18465326D01*
X8614524Y-18446278D01*
X8614524Y-18436754D01*
X8624048Y-18417707D01*
X8643095Y-18408183D01*
X8671667Y-18408183D01*
X8690714Y-18417707D01*
X8766905Y-18617707D02*
X8776429Y-18608183D01*
X8795476Y-18579611D01*
X8805000Y-18560564D01*
X8814524Y-18531992D01*
X8824048Y-18484373D01*
X8824048Y-18446278D01*
X8814524Y-18398659D01*
X8805000Y-18370088D01*
X8795476Y-18351040D01*
X8776429Y-18322469D01*
X8766905Y-18312945D01*
X3895000Y-18671040D02*
X3895000Y-18871040D01*
X3795000Y-18771040D02*
X3995000Y-18771040D01*
X3895000Y-18871040D02*
X3995000Y-18771040D01*
X3895000Y-18671040D01*
X3795000Y-18771040D01*
X3895000Y-18871040D01*
X4233571Y-18661516D02*
X4357381Y-18661516D01*
X4290714Y-18737707D01*
X4319286Y-18737707D01*
X4338333Y-18747230D01*
X4347857Y-18756754D01*
X4357381Y-18775802D01*
X4357381Y-18823421D01*
X4347857Y-18842469D01*
X4338333Y-18851992D01*
X4319286Y-18861516D01*
X4262143Y-18861516D01*
X4243095Y-18851992D01*
X4233571Y-18842469D01*
X4443095Y-18842469D02*
X4452619Y-18851992D01*
X4443095Y-18861516D01*
X4433571Y-18851992D01*
X4443095Y-18842469D01*
X4443095Y-18861516D01*
X4528810Y-18680564D02*
X4538333Y-18671040D01*
X4557381Y-18661516D01*
X4605000Y-18661516D01*
X4624048Y-18671040D01*
X4633571Y-18680564D01*
X4643095Y-18699611D01*
X4643095Y-18718659D01*
X4633571Y-18747230D01*
X4519286Y-18861516D01*
X4643095Y-18861516D01*
X4766905Y-18661516D02*
X4785952Y-18661516D01*
X4805000Y-18671040D01*
X4814524Y-18680564D01*
X4824048Y-18699611D01*
X4833571Y-18737707D01*
X4833571Y-18785326D01*
X4824048Y-18823421D01*
X4814524Y-18842469D01*
X4805000Y-18851992D01*
X4785952Y-18861516D01*
X4766905Y-18861516D01*
X4747857Y-18851992D01*
X4738333Y-18842469D01*
X4728810Y-18823421D01*
X4719286Y-18785326D01*
X4719286Y-18737707D01*
X4728810Y-18699611D01*
X4738333Y-18680564D01*
X4747857Y-18671040D01*
X4766905Y-18661516D01*
X4957381Y-18661516D02*
X4976429Y-18661516D01*
X4995476Y-18671040D01*
X5005000Y-18680564D01*
X5014524Y-18699611D01*
X5024048Y-18737707D01*
X5024048Y-18785326D01*
X5014524Y-18823421D01*
X5005000Y-18842469D01*
X4995476Y-18851992D01*
X4976429Y-18861516D01*
X4957381Y-18861516D01*
X4938333Y-18851992D01*
X4928810Y-18842469D01*
X4919286Y-18823421D01*
X4909762Y-18785326D01*
X4909762Y-18737707D01*
X4919286Y-18699611D01*
X4928810Y-18680564D01*
X4938333Y-18671040D01*
X4957381Y-18661516D01*
X5109762Y-18861516D02*
X5109762Y-18728183D01*
X5109762Y-18747230D02*
X5119286Y-18737707D01*
X5138333Y-18728183D01*
X5166905Y-18728183D01*
X5185952Y-18737707D01*
X5195476Y-18756754D01*
X5195476Y-18861516D01*
X5195476Y-18756754D02*
X5205000Y-18737707D01*
X5224048Y-18728183D01*
X5252619Y-18728183D01*
X5271667Y-18737707D01*
X5281190Y-18756754D01*
X5281190Y-18861516D01*
X5376429Y-18861516D02*
X5376429Y-18728183D01*
X5376429Y-18747230D02*
X5385952Y-18737707D01*
X5405000Y-18728183D01*
X5433571Y-18728183D01*
X5452619Y-18737707D01*
X5462143Y-18756754D01*
X5462143Y-18861516D01*
X5462143Y-18756754D02*
X5471667Y-18737707D01*
X5490714Y-18728183D01*
X5519286Y-18728183D01*
X5538333Y-18737707D01*
X5547857Y-18756754D01*
X5547857Y-18861516D01*
X5938333Y-18651992D02*
X5766905Y-18909135D01*
X6195476Y-18661516D02*
X6214524Y-18661516D01*
X6233571Y-18671040D01*
X6243095Y-18680564D01*
X6252619Y-18699611D01*
X6262143Y-18737707D01*
X6262143Y-18785326D01*
X6252619Y-18823421D01*
X6243095Y-18842469D01*
X6233571Y-18851992D01*
X6214524Y-18861516D01*
X6195476Y-18861516D01*
X6176428Y-18851992D01*
X6166905Y-18842469D01*
X6157381Y-18823421D01*
X6147857Y-18785326D01*
X6147857Y-18737707D01*
X6157381Y-18699611D01*
X6166905Y-18680564D01*
X6176428Y-18671040D01*
X6195476Y-18661516D01*
X6347857Y-18842469D02*
X6357381Y-18851992D01*
X6347857Y-18861516D01*
X6338333Y-18851992D01*
X6347857Y-18842469D01*
X6347857Y-18861516D01*
X6547857Y-18861516D02*
X6433571Y-18861516D01*
X6490714Y-18861516D02*
X6490714Y-18661516D01*
X6471667Y-18690088D01*
X6452619Y-18709135D01*
X6433571Y-18718659D01*
X6624048Y-18680564D02*
X6633571Y-18671040D01*
X6652619Y-18661516D01*
X6700238Y-18661516D01*
X6719286Y-18671040D01*
X6728809Y-18680564D01*
X6738333Y-18699611D01*
X6738333Y-18718659D01*
X6728809Y-18747230D01*
X6614524Y-18861516D01*
X6738333Y-18861516D01*
X6909762Y-18661516D02*
X6871667Y-18661516D01*
X6852619Y-18671040D01*
X6843095Y-18680564D01*
X6824048Y-18709135D01*
X6814524Y-18747230D01*
X6814524Y-18823421D01*
X6824048Y-18842469D01*
X6833571Y-18851992D01*
X6852619Y-18861516D01*
X6890714Y-18861516D01*
X6909762Y-18851992D01*
X6919286Y-18842469D01*
X6928809Y-18823421D01*
X6928809Y-18775802D01*
X6919286Y-18756754D01*
X6909762Y-18747230D01*
X6890714Y-18737707D01*
X6852619Y-18737707D01*
X6833571Y-18747230D01*
X6824048Y-18756754D01*
X6814524Y-18775802D01*
X7052619Y-18661516D02*
X7071667Y-18661516D01*
X7090714Y-18671040D01*
X7100238Y-18680564D01*
X7109762Y-18699611D01*
X7119286Y-18737707D01*
X7119286Y-18785326D01*
X7109762Y-18823421D01*
X7100238Y-18842469D01*
X7090714Y-18851992D01*
X7071667Y-18861516D01*
X7052619Y-18861516D01*
X7033571Y-18851992D01*
X7024048Y-18842469D01*
X7014524Y-18823421D01*
X7005000Y-18785326D01*
X7005000Y-18737707D01*
X7014524Y-18699611D01*
X7024048Y-18680564D01*
X7033571Y-18671040D01*
X7052619Y-18661516D01*
X7195476Y-18661516D02*
X7195476Y-18699611D01*
X7271667Y-18661516D02*
X7271667Y-18699611D01*
X7566905Y-18937707D02*
X7557381Y-18928183D01*
X7538333Y-18899611D01*
X7528809Y-18880564D01*
X7519286Y-18851992D01*
X7509762Y-18804373D01*
X7509762Y-18766278D01*
X7519286Y-18718659D01*
X7528809Y-18690088D01*
X7538333Y-18671040D01*
X7557381Y-18642469D01*
X7566905Y-18632945D01*
X7728809Y-18728183D02*
X7728809Y-18861516D01*
X7681190Y-18651992D02*
X7633571Y-18794850D01*
X7757381Y-18794850D01*
X7985952Y-18861516D02*
X7985952Y-18661516D01*
X8071667Y-18861516D02*
X8071667Y-18756754D01*
X8062143Y-18737707D01*
X8043095Y-18728183D01*
X8014524Y-18728183D01*
X7995476Y-18737707D01*
X7985952Y-18747230D01*
X8195476Y-18861516D02*
X8176428Y-18851992D01*
X8166905Y-18842469D01*
X8157381Y-18823421D01*
X8157381Y-18766278D01*
X8166905Y-18747230D01*
X8176428Y-18737707D01*
X8195476Y-18728183D01*
X8224048Y-18728183D01*
X8243095Y-18737707D01*
X8252619Y-18747230D01*
X8262143Y-18766278D01*
X8262143Y-18823421D01*
X8252619Y-18842469D01*
X8243095Y-18851992D01*
X8224048Y-18861516D01*
X8195476Y-18861516D01*
X8376428Y-18861516D02*
X8357381Y-18851992D01*
X8347857Y-18832945D01*
X8347857Y-18661516D01*
X8528810Y-18851992D02*
X8509762Y-18861516D01*
X8471667Y-18861516D01*
X8452619Y-18851992D01*
X8443095Y-18832945D01*
X8443095Y-18756754D01*
X8452619Y-18737707D01*
X8471667Y-18728183D01*
X8509762Y-18728183D01*
X8528810Y-18737707D01*
X8538333Y-18756754D01*
X8538333Y-18775802D01*
X8443095Y-18794850D01*
X8614524Y-18851992D02*
X8633571Y-18861516D01*
X8671667Y-18861516D01*
X8690714Y-18851992D01*
X8700238Y-18832945D01*
X8700238Y-18823421D01*
X8690714Y-18804373D01*
X8671667Y-18794850D01*
X8643095Y-18794850D01*
X8624048Y-18785326D01*
X8614524Y-18766278D01*
X8614524Y-18756754D01*
X8624048Y-18737707D01*
X8643095Y-18728183D01*
X8671667Y-18728183D01*
X8690714Y-18737707D01*
X8766905Y-18937707D02*
X8776429Y-18928183D01*
X8795476Y-18899611D01*
X8805000Y-18880564D01*
X8814524Y-18851992D01*
X8824048Y-18804373D01*
X8824048Y-18766278D01*
X8814524Y-18718659D01*
X8805000Y-18690088D01*
X8795476Y-18671040D01*
X8776429Y-18642469D01*
X8766905Y-18632945D01*
M02*
