%FSLAX45Y45*%
G04 Gerber Fmt 4.5, Leading zero omitted, Abs format (unit mm)*
G04 Created by KiCad (PCBNEW (6.0.6)) date 2023-04-23 19:50:39*
%MOMM*%
%LPD*%
G01*
G04 APERTURE LIST*
%TA.AperFunction,Profile*%
%ADD10C,0.100000*%
%TD*%
%ADD11C,0.200000*%
%ADD12C,0.127000*%
G04 APERTURE END LIST*
D10*
X4000000Y-14500000D02*
X4000000Y-2500000D01*
X4000000Y-14500000D02*
X22000000Y-14500000D01*
X4000000Y-2500000D02*
X22000000Y-2500000D01*
X22000000Y-14500000D02*
X22000000Y-2500000D01*
D11*
D12*
X11508000Y-3011500D02*
X11635000Y-3138500D01*
X11635000Y-3011500D02*
X11508000Y-3138500D01*
X11508000Y-3911500D02*
X11635000Y-4038500D01*
X11635000Y-3911500D02*
X11508000Y-4038500D01*
X18254000Y-12211500D02*
X18381000Y-12338500D01*
X18381000Y-12211500D02*
X18254000Y-12338500D01*
X18254000Y-13111500D02*
X18381000Y-13238500D01*
X18381000Y-13111500D02*
X18254000Y-13238500D01*
X21829000Y-6116500D02*
X21956000Y-6243500D01*
X21956000Y-6116500D02*
X21829000Y-6243500D01*
X21829000Y-7016500D02*
X21956000Y-7143500D01*
X21956000Y-7016500D02*
X21829000Y-7143500D01*
D11*
X4252619Y-14815476D02*
X4252619Y-14615476D01*
X4300238Y-14615476D01*
X4328810Y-14625000D01*
X4347857Y-14644048D01*
X4357381Y-14663095D01*
X4366905Y-14701190D01*
X4366905Y-14729762D01*
X4357381Y-14767857D01*
X4347857Y-14786905D01*
X4328810Y-14805952D01*
X4300238Y-14815476D01*
X4252619Y-14815476D01*
X4452619Y-14815476D02*
X4452619Y-14682143D01*
X4452619Y-14720238D02*
X4462143Y-14701190D01*
X4471667Y-14691667D01*
X4490714Y-14682143D01*
X4509762Y-14682143D01*
X4576429Y-14815476D02*
X4576429Y-14682143D01*
X4576429Y-14615476D02*
X4566905Y-14625000D01*
X4576429Y-14634524D01*
X4585952Y-14625000D01*
X4576429Y-14615476D01*
X4576429Y-14634524D01*
X4700238Y-14815476D02*
X4681190Y-14805952D01*
X4671667Y-14786905D01*
X4671667Y-14615476D01*
X4805000Y-14815476D02*
X4785952Y-14805952D01*
X4776429Y-14786905D01*
X4776429Y-14615476D01*
X5033571Y-14815476D02*
X5033571Y-14615476D01*
X5100238Y-14758333D01*
X5166905Y-14615476D01*
X5166905Y-14815476D01*
X5347857Y-14815476D02*
X5347857Y-14710714D01*
X5338333Y-14691667D01*
X5319286Y-14682143D01*
X5281190Y-14682143D01*
X5262143Y-14691667D01*
X5347857Y-14805952D02*
X5328810Y-14815476D01*
X5281190Y-14815476D01*
X5262143Y-14805952D01*
X5252619Y-14786905D01*
X5252619Y-14767857D01*
X5262143Y-14748809D01*
X5281190Y-14739286D01*
X5328810Y-14739286D01*
X5347857Y-14729762D01*
X5443095Y-14682143D02*
X5443095Y-14882143D01*
X5443095Y-14691667D02*
X5462143Y-14682143D01*
X5500238Y-14682143D01*
X5519286Y-14691667D01*
X5528810Y-14701190D01*
X5538333Y-14720238D01*
X5538333Y-14777381D01*
X5528810Y-14796428D01*
X5519286Y-14805952D01*
X5500238Y-14815476D01*
X5462143Y-14815476D01*
X5443095Y-14805952D01*
X5624048Y-14796428D02*
X5633571Y-14805952D01*
X5624048Y-14815476D01*
X5614524Y-14805952D01*
X5624048Y-14796428D01*
X5624048Y-14815476D01*
X5624048Y-14691667D02*
X5633571Y-14701190D01*
X5624048Y-14710714D01*
X5614524Y-14701190D01*
X5624048Y-14691667D01*
X5624048Y-14710714D01*
D12*
X3868000Y-15081500D02*
X3995000Y-15208500D01*
X3995000Y-15081500D02*
X3868000Y-15208500D01*
D11*
X4357381Y-15235476D02*
X4243095Y-15235476D01*
X4300238Y-15235476D02*
X4300238Y-15035476D01*
X4281190Y-15064048D01*
X4262143Y-15083095D01*
X4243095Y-15092619D01*
X4443095Y-15216428D02*
X4452619Y-15225952D01*
X4443095Y-15235476D01*
X4433571Y-15225952D01*
X4443095Y-15216428D01*
X4443095Y-15235476D01*
X4528810Y-15054524D02*
X4538333Y-15045000D01*
X4557381Y-15035476D01*
X4605000Y-15035476D01*
X4624048Y-15045000D01*
X4633571Y-15054524D01*
X4643095Y-15073571D01*
X4643095Y-15092619D01*
X4633571Y-15121190D01*
X4519286Y-15235476D01*
X4643095Y-15235476D01*
X4709762Y-15035476D02*
X4843095Y-15035476D01*
X4757381Y-15235476D01*
X4957381Y-15035476D02*
X4976429Y-15035476D01*
X4995476Y-15045000D01*
X5005000Y-15054524D01*
X5014524Y-15073571D01*
X5024048Y-15111667D01*
X5024048Y-15159286D01*
X5014524Y-15197381D01*
X5005000Y-15216428D01*
X4995476Y-15225952D01*
X4976429Y-15235476D01*
X4957381Y-15235476D01*
X4938333Y-15225952D01*
X4928810Y-15216428D01*
X4919286Y-15197381D01*
X4909762Y-15159286D01*
X4909762Y-15111667D01*
X4919286Y-15073571D01*
X4928810Y-15054524D01*
X4938333Y-15045000D01*
X4957381Y-15035476D01*
X5109762Y-15235476D02*
X5109762Y-15102143D01*
X5109762Y-15121190D02*
X5119286Y-15111667D01*
X5138333Y-15102143D01*
X5166905Y-15102143D01*
X5185952Y-15111667D01*
X5195476Y-15130714D01*
X5195476Y-15235476D01*
X5195476Y-15130714D02*
X5205000Y-15111667D01*
X5224048Y-15102143D01*
X5252619Y-15102143D01*
X5271667Y-15111667D01*
X5281190Y-15130714D01*
X5281190Y-15235476D01*
X5376429Y-15235476D02*
X5376429Y-15102143D01*
X5376429Y-15121190D02*
X5385952Y-15111667D01*
X5405000Y-15102143D01*
X5433571Y-15102143D01*
X5452619Y-15111667D01*
X5462143Y-15130714D01*
X5462143Y-15235476D01*
X5462143Y-15130714D02*
X5471667Y-15111667D01*
X5490714Y-15102143D01*
X5519286Y-15102143D01*
X5538333Y-15111667D01*
X5547857Y-15130714D01*
X5547857Y-15235476D01*
X5938333Y-15025952D02*
X5766905Y-15283095D01*
X6195476Y-15035476D02*
X6214524Y-15035476D01*
X6233571Y-15045000D01*
X6243095Y-15054524D01*
X6252619Y-15073571D01*
X6262143Y-15111667D01*
X6262143Y-15159286D01*
X6252619Y-15197381D01*
X6243095Y-15216428D01*
X6233571Y-15225952D01*
X6214524Y-15235476D01*
X6195476Y-15235476D01*
X6176428Y-15225952D01*
X6166905Y-15216428D01*
X6157381Y-15197381D01*
X6147857Y-15159286D01*
X6147857Y-15111667D01*
X6157381Y-15073571D01*
X6166905Y-15054524D01*
X6176428Y-15045000D01*
X6195476Y-15035476D01*
X6347857Y-15216428D02*
X6357381Y-15225952D01*
X6347857Y-15235476D01*
X6338333Y-15225952D01*
X6347857Y-15216428D01*
X6347857Y-15235476D01*
X6481190Y-15035476D02*
X6500238Y-15035476D01*
X6519286Y-15045000D01*
X6528809Y-15054524D01*
X6538333Y-15073571D01*
X6547857Y-15111667D01*
X6547857Y-15159286D01*
X6538333Y-15197381D01*
X6528809Y-15216428D01*
X6519286Y-15225952D01*
X6500238Y-15235476D01*
X6481190Y-15235476D01*
X6462143Y-15225952D01*
X6452619Y-15216428D01*
X6443095Y-15197381D01*
X6433571Y-15159286D01*
X6433571Y-15111667D01*
X6443095Y-15073571D01*
X6452619Y-15054524D01*
X6462143Y-15045000D01*
X6481190Y-15035476D01*
X6728809Y-15035476D02*
X6633571Y-15035476D01*
X6624048Y-15130714D01*
X6633571Y-15121190D01*
X6652619Y-15111667D01*
X6700238Y-15111667D01*
X6719286Y-15121190D01*
X6728809Y-15130714D01*
X6738333Y-15149762D01*
X6738333Y-15197381D01*
X6728809Y-15216428D01*
X6719286Y-15225952D01*
X6700238Y-15235476D01*
X6652619Y-15235476D01*
X6633571Y-15225952D01*
X6624048Y-15216428D01*
X6862143Y-15035476D02*
X6881190Y-15035476D01*
X6900238Y-15045000D01*
X6909762Y-15054524D01*
X6919286Y-15073571D01*
X6928809Y-15111667D01*
X6928809Y-15159286D01*
X6919286Y-15197381D01*
X6909762Y-15216428D01*
X6900238Y-15225952D01*
X6881190Y-15235476D01*
X6862143Y-15235476D01*
X6843095Y-15225952D01*
X6833571Y-15216428D01*
X6824048Y-15197381D01*
X6814524Y-15159286D01*
X6814524Y-15111667D01*
X6824048Y-15073571D01*
X6833571Y-15054524D01*
X6843095Y-15045000D01*
X6862143Y-15035476D01*
X7052619Y-15035476D02*
X7071667Y-15035476D01*
X7090714Y-15045000D01*
X7100238Y-15054524D01*
X7109762Y-15073571D01*
X7119286Y-15111667D01*
X7119286Y-15159286D01*
X7109762Y-15197381D01*
X7100238Y-15216428D01*
X7090714Y-15225952D01*
X7071667Y-15235476D01*
X7052619Y-15235476D01*
X7033571Y-15225952D01*
X7024048Y-15216428D01*
X7014524Y-15197381D01*
X7005000Y-15159286D01*
X7005000Y-15111667D01*
X7014524Y-15073571D01*
X7024048Y-15054524D01*
X7033571Y-15045000D01*
X7052619Y-15035476D01*
X7195476Y-15035476D02*
X7195476Y-15073571D01*
X7271667Y-15035476D02*
X7271667Y-15073571D01*
X7566905Y-15311667D02*
X7557381Y-15302143D01*
X7538333Y-15273571D01*
X7528809Y-15254524D01*
X7519286Y-15225952D01*
X7509762Y-15178333D01*
X7509762Y-15140238D01*
X7519286Y-15092619D01*
X7528809Y-15064048D01*
X7538333Y-15045000D01*
X7557381Y-15016428D01*
X7566905Y-15006905D01*
X7728809Y-15035476D02*
X7690714Y-15035476D01*
X7671667Y-15045000D01*
X7662143Y-15054524D01*
X7643095Y-15083095D01*
X7633571Y-15121190D01*
X7633571Y-15197381D01*
X7643095Y-15216428D01*
X7652619Y-15225952D01*
X7671667Y-15235476D01*
X7709762Y-15235476D01*
X7728809Y-15225952D01*
X7738333Y-15216428D01*
X7747857Y-15197381D01*
X7747857Y-15149762D01*
X7738333Y-15130714D01*
X7728809Y-15121190D01*
X7709762Y-15111667D01*
X7671667Y-15111667D01*
X7652619Y-15121190D01*
X7643095Y-15130714D01*
X7633571Y-15149762D01*
X7985952Y-15235476D02*
X7985952Y-15035476D01*
X8071667Y-15235476D02*
X8071667Y-15130714D01*
X8062143Y-15111667D01*
X8043095Y-15102143D01*
X8014524Y-15102143D01*
X7995476Y-15111667D01*
X7985952Y-15121190D01*
X8195476Y-15235476D02*
X8176428Y-15225952D01*
X8166905Y-15216428D01*
X8157381Y-15197381D01*
X8157381Y-15140238D01*
X8166905Y-15121190D01*
X8176428Y-15111667D01*
X8195476Y-15102143D01*
X8224048Y-15102143D01*
X8243095Y-15111667D01*
X8252619Y-15121190D01*
X8262143Y-15140238D01*
X8262143Y-15197381D01*
X8252619Y-15216428D01*
X8243095Y-15225952D01*
X8224048Y-15235476D01*
X8195476Y-15235476D01*
X8376428Y-15235476D02*
X8357381Y-15225952D01*
X8347857Y-15206905D01*
X8347857Y-15035476D01*
X8528810Y-15225952D02*
X8509762Y-15235476D01*
X8471667Y-15235476D01*
X8452619Y-15225952D01*
X8443095Y-15206905D01*
X8443095Y-15130714D01*
X8452619Y-15111667D01*
X8471667Y-15102143D01*
X8509762Y-15102143D01*
X8528810Y-15111667D01*
X8538333Y-15130714D01*
X8538333Y-15149762D01*
X8443095Y-15168809D01*
X8614524Y-15225952D02*
X8633571Y-15235476D01*
X8671667Y-15235476D01*
X8690714Y-15225952D01*
X8700238Y-15206905D01*
X8700238Y-15197381D01*
X8690714Y-15178333D01*
X8671667Y-15168809D01*
X8643095Y-15168809D01*
X8624048Y-15159286D01*
X8614524Y-15140238D01*
X8614524Y-15130714D01*
X8624048Y-15111667D01*
X8643095Y-15102143D01*
X8671667Y-15102143D01*
X8690714Y-15111667D01*
X8766905Y-15311667D02*
X8776429Y-15302143D01*
X8795476Y-15273571D01*
X8805000Y-15254524D01*
X8814524Y-15225952D01*
X8824048Y-15178333D01*
X8824048Y-15140238D01*
X8814524Y-15092619D01*
X8805000Y-15064048D01*
X8795476Y-15045000D01*
X8776429Y-15016428D01*
X8766905Y-15006905D01*
X9128810Y-15311667D02*
X9119286Y-15302143D01*
X9100238Y-15273571D01*
X9090714Y-15254524D01*
X9081190Y-15225952D01*
X9071667Y-15178333D01*
X9071667Y-15140238D01*
X9081190Y-15092619D01*
X9090714Y-15064048D01*
X9100238Y-15045000D01*
X9119286Y-15016428D01*
X9128810Y-15006905D01*
X9205000Y-15102143D02*
X9205000Y-15235476D01*
X9205000Y-15121190D02*
X9214524Y-15111667D01*
X9233571Y-15102143D01*
X9262143Y-15102143D01*
X9281190Y-15111667D01*
X9290714Y-15130714D01*
X9290714Y-15235476D01*
X9414524Y-15235476D02*
X9395476Y-15225952D01*
X9385952Y-15216428D01*
X9376429Y-15197381D01*
X9376429Y-15140238D01*
X9385952Y-15121190D01*
X9395476Y-15111667D01*
X9414524Y-15102143D01*
X9443095Y-15102143D01*
X9462143Y-15111667D01*
X9471667Y-15121190D01*
X9481190Y-15140238D01*
X9481190Y-15197381D01*
X9471667Y-15216428D01*
X9462143Y-15225952D01*
X9443095Y-15235476D01*
X9414524Y-15235476D01*
X9538333Y-15102143D02*
X9614524Y-15102143D01*
X9566905Y-15035476D02*
X9566905Y-15206905D01*
X9576429Y-15225952D01*
X9595476Y-15235476D01*
X9614524Y-15235476D01*
X9833571Y-15102143D02*
X9833571Y-15302143D01*
X9833571Y-15111667D02*
X9852619Y-15102143D01*
X9890714Y-15102143D01*
X9909762Y-15111667D01*
X9919286Y-15121190D01*
X9928810Y-15140238D01*
X9928810Y-15197381D01*
X9919286Y-15216428D01*
X9909762Y-15225952D01*
X9890714Y-15235476D01*
X9852619Y-15235476D01*
X9833571Y-15225952D01*
X10043095Y-15235476D02*
X10024048Y-15225952D01*
X10014524Y-15206905D01*
X10014524Y-15035476D01*
X10205000Y-15235476D02*
X10205000Y-15130714D01*
X10195476Y-15111667D01*
X10176429Y-15102143D01*
X10138333Y-15102143D01*
X10119286Y-15111667D01*
X10205000Y-15225952D02*
X10185952Y-15235476D01*
X10138333Y-15235476D01*
X10119286Y-15225952D01*
X10109762Y-15206905D01*
X10109762Y-15187857D01*
X10119286Y-15168809D01*
X10138333Y-15159286D01*
X10185952Y-15159286D01*
X10205000Y-15149762D01*
X10271667Y-15102143D02*
X10347857Y-15102143D01*
X10300238Y-15035476D02*
X10300238Y-15206905D01*
X10309762Y-15225952D01*
X10328810Y-15235476D01*
X10347857Y-15235476D01*
X10490714Y-15225952D02*
X10471667Y-15235476D01*
X10433571Y-15235476D01*
X10414524Y-15225952D01*
X10405000Y-15206905D01*
X10405000Y-15130714D01*
X10414524Y-15111667D01*
X10433571Y-15102143D01*
X10471667Y-15102143D01*
X10490714Y-15111667D01*
X10500238Y-15130714D01*
X10500238Y-15149762D01*
X10405000Y-15168809D01*
X10671667Y-15235476D02*
X10671667Y-15035476D01*
X10671667Y-15225952D02*
X10652619Y-15235476D01*
X10614524Y-15235476D01*
X10595476Y-15225952D01*
X10585952Y-15216428D01*
X10576429Y-15197381D01*
X10576429Y-15140238D01*
X10585952Y-15121190D01*
X10595476Y-15111667D01*
X10614524Y-15102143D01*
X10652619Y-15102143D01*
X10671667Y-15111667D01*
X10747857Y-15311667D02*
X10757381Y-15302143D01*
X10776429Y-15273571D01*
X10785952Y-15254524D01*
X10795476Y-15225952D01*
X10805000Y-15178333D01*
X10805000Y-15140238D01*
X10795476Y-15092619D01*
X10785952Y-15064048D01*
X10776429Y-15045000D01*
X10757381Y-15016428D01*
X10747857Y-15006905D01*
M02*
