G04 #@! TF.GenerationSoftware,KiCad,Pcbnew,(6.0.6)*
G04 #@! TF.CreationDate,2023-04-23T19:49:20-02:30*
G04 #@! TF.ProjectId,PowerDistributionBoard,506f7765-7244-4697-9374-726962757469,rev?*
G04 #@! TF.SameCoordinates,Original*
G04 #@! TF.FileFunction,Paste,Top*
G04 #@! TF.FilePolarity,Positive*
%FSLAX46Y46*%
G04 Gerber Fmt 4.6, Leading zero omitted, Abs format (unit mm)*
G04 Created by KiCad (PCBNEW (6.0.6)) date 2023-04-23 19:49:20*
%MOMM*%
%LPD*%
G01*
G04 APERTURE LIST*
G04 Aperture macros list*
%AMRoundRect*
0 Rectangle with rounded corners*
0 $1 Rounding radius*
0 $2 $3 $4 $5 $6 $7 $8 $9 X,Y pos of 4 corners*
0 Add a 4 corners polygon primitive as box body*
4,1,4,$2,$3,$4,$5,$6,$7,$8,$9,$2,$3,0*
0 Add four circle primitives for the rounded corners*
1,1,$1+$1,$2,$3*
1,1,$1+$1,$4,$5*
1,1,$1+$1,$6,$7*
1,1,$1+$1,$8,$9*
0 Add four rect primitives between the rounded corners*
20,1,$1+$1,$2,$3,$4,$5,0*
20,1,$1+$1,$4,$5,$6,$7,0*
20,1,$1+$1,$6,$7,$8,$9,0*
20,1,$1+$1,$8,$9,$2,$3,0*%
G04 Aperture macros list end*
%ADD10R,1.800000X2.500000*%
%ADD11RoundRect,0.150000X-0.587500X-0.150000X0.587500X-0.150000X0.587500X0.150000X-0.587500X0.150000X0*%
%ADD12RoundRect,0.250000X-0.450000X0.262500X-0.450000X-0.262500X0.450000X-0.262500X0.450000X0.262500X0*%
%ADD13RoundRect,0.250000X1.425000X-0.362500X1.425000X0.362500X-1.425000X0.362500X-1.425000X-0.362500X0*%
%ADD14R,2.500000X1.800000*%
%ADD15RoundRect,0.250000X-0.475000X0.250000X-0.475000X-0.250000X0.475000X-0.250000X0.475000X0.250000X0*%
%ADD16R,0.410000X1.600000*%
%ADD17RoundRect,0.250000X0.262500X0.450000X-0.262500X0.450000X-0.262500X-0.450000X0.262500X-0.450000X0*%
%ADD18RoundRect,0.250000X0.325000X0.450000X-0.325000X0.450000X-0.325000X-0.450000X0.325000X-0.450000X0*%
%ADD19RoundRect,0.250000X-0.262500X-0.450000X0.262500X-0.450000X0.262500X0.450000X-0.262500X0.450000X0*%
%ADD20R,0.800000X0.900000*%
%ADD21RoundRect,0.147500X-0.147500X-0.172500X0.147500X-0.172500X0.147500X0.172500X-0.147500X0.172500X0*%
%ADD22RoundRect,0.250000X0.450000X-0.262500X0.450000X0.262500X-0.450000X0.262500X-0.450000X-0.262500X0*%
%ADD23RoundRect,0.250000X0.250000X0.475000X-0.250000X0.475000X-0.250000X-0.475000X0.250000X-0.475000X0*%
%ADD24RoundRect,0.250000X0.475000X-0.250000X0.475000X0.250000X-0.475000X0.250000X-0.475000X-0.250000X0*%
%ADD25R,0.900000X0.800000*%
%ADD26R,5.200000X8.750000*%
%ADD27R,6.230000X6.740000*%
%ADD28R,2.280000X1.524000*%
%ADD29RoundRect,0.250000X0.450000X-0.325000X0.450000X0.325000X-0.450000X0.325000X-0.450000X-0.325000X0*%
%ADD30R,6.740000X6.230000*%
%ADD31R,1.524000X2.280000*%
%ADD32RoundRect,0.150000X-0.150000X0.825000X-0.150000X-0.825000X0.150000X-0.825000X0.150000X0.825000X0*%
%ADD33RoundRect,0.250000X-0.362500X-1.425000X0.362500X-1.425000X0.362500X1.425000X-0.362500X1.425000X0*%
%ADD34R,0.900000X1.200000*%
%ADD35R,5.250000X4.550000*%
%ADD36R,1.100000X4.600000*%
%ADD37RoundRect,0.250000X-1.425000X0.362500X-1.425000X-0.362500X1.425000X-0.362500X1.425000X0.362500X0*%
%ADD38RoundRect,0.250000X-0.250000X-0.475000X0.250000X-0.475000X0.250000X0.475000X-0.250000X0.475000X0*%
%ADD39RoundRect,0.250000X-0.650000X0.325000X-0.650000X-0.325000X0.650000X-0.325000X0.650000X0.325000X0*%
%ADD40R,0.762000X1.143000*%
G04 APERTURE END LIST*
D10*
X76575000Y-117250000D03*
X76575000Y-113250000D03*
D11*
X198062500Y-54880000D03*
X198062500Y-52980000D03*
X199937500Y-53930000D03*
D12*
X62125000Y-91462500D03*
X62125000Y-93287500D03*
D13*
X134925000Y-101212500D03*
X134925000Y-95287500D03*
D14*
X205225000Y-33950000D03*
X201225000Y-33950000D03*
D15*
X83700000Y-78400000D03*
X83700000Y-80300000D03*
D16*
X193617500Y-50559300D03*
X194252500Y-50559300D03*
X194887500Y-50559300D03*
X195522500Y-50559300D03*
X196157500Y-50559300D03*
X196792500Y-50559300D03*
X197427500Y-50559300D03*
X198062500Y-50559300D03*
X198062500Y-45250700D03*
X197427500Y-45250700D03*
X196792500Y-45250700D03*
X196157500Y-45250700D03*
X195522500Y-45250700D03*
X194887500Y-45250700D03*
X194252500Y-45250700D03*
X193617500Y-45250700D03*
D17*
X209937500Y-140000000D03*
X208112500Y-140000000D03*
X201802500Y-45255000D03*
X199977500Y-45255000D03*
D18*
X182437500Y-40700000D03*
X180387500Y-40700000D03*
D15*
X154675000Y-59775000D03*
X154675000Y-61675000D03*
D17*
X170712500Y-36900000D03*
X168887500Y-36900000D03*
D19*
X66462500Y-84700000D03*
X68287500Y-84700000D03*
D20*
X192190000Y-41345000D03*
X194090000Y-41345000D03*
X193140000Y-38945000D03*
D21*
X60515000Y-89850000D03*
X61485000Y-89850000D03*
D22*
X150350000Y-31862500D03*
X150350000Y-30037500D03*
X60100000Y-93287500D03*
X60100000Y-91462500D03*
D23*
X184600000Y-55125000D03*
X182700000Y-55125000D03*
D24*
X160520000Y-47415000D03*
X160520000Y-45515000D03*
D22*
X164150000Y-54812500D03*
X164150000Y-52987500D03*
D15*
X179100000Y-62275000D03*
X179100000Y-64175000D03*
D20*
X198615000Y-41345000D03*
X200515000Y-41345000D03*
X199565000Y-38945000D03*
D24*
X179100000Y-67650000D03*
X179100000Y-65750000D03*
D17*
X205240000Y-36900000D03*
X203415000Y-36900000D03*
X201390000Y-36900000D03*
X199565000Y-36900000D03*
D10*
X125800000Y-37425000D03*
X125800000Y-33425000D03*
D25*
X168625000Y-128725000D03*
X168625000Y-126825000D03*
X166625000Y-127775000D03*
D19*
X170862500Y-128725000D03*
X172687500Y-128725000D03*
X187502500Y-36900000D03*
X189327500Y-36900000D03*
D17*
X171012500Y-45500000D03*
X169187500Y-45500000D03*
D26*
X61925000Y-76175000D03*
X51125000Y-76175000D03*
D22*
X119400000Y-117587500D03*
X119400000Y-115762500D03*
X75625000Y-86262500D03*
X75625000Y-84437500D03*
D19*
X156775000Y-36900000D03*
X158600000Y-36900000D03*
D27*
X142040000Y-107650000D03*
D28*
X134895000Y-105370000D03*
X134895000Y-109930000D03*
D19*
X50137500Y-140000000D03*
X51962500Y-140000000D03*
D14*
X174675000Y-33950000D03*
X170675000Y-33950000D03*
X162875000Y-33950000D03*
X158875000Y-33950000D03*
D15*
X85850000Y-78400000D03*
X85850000Y-80300000D03*
D29*
X148025000Y-31937500D03*
X148025000Y-29887500D03*
D12*
X56025000Y-90087500D03*
X56025000Y-91912500D03*
X177525000Y-126937500D03*
X177525000Y-128762500D03*
D23*
X68325000Y-89475000D03*
X66425000Y-89475000D03*
D30*
X182625000Y-87860000D03*
D31*
X180345000Y-95005000D03*
X184905000Y-95005000D03*
D32*
X184610000Y-47350000D03*
X183340000Y-47350000D03*
X182070000Y-47350000D03*
X180800000Y-47350000D03*
X179530000Y-47350000D03*
X178260000Y-47350000D03*
X176990000Y-47350000D03*
X176990000Y-52300000D03*
X178260000Y-52300000D03*
X179530000Y-52300000D03*
X180800000Y-52300000D03*
X182070000Y-52300000D03*
X183340000Y-52300000D03*
X184610000Y-52300000D03*
D19*
X160600000Y-36900000D03*
X162425000Y-36900000D03*
D22*
X164350000Y-108900000D03*
X164350000Y-107075000D03*
D19*
X50225000Y-30000000D03*
X52050000Y-30000000D03*
D22*
X58050000Y-91912500D03*
X58050000Y-90087500D03*
D20*
X161485000Y-41345000D03*
X163385000Y-41345000D03*
X162435000Y-38945000D03*
D33*
X170187500Y-95475000D03*
X176112500Y-95475000D03*
D19*
X159662500Y-43300000D03*
X161487500Y-43300000D03*
D33*
X124537500Y-105350000D03*
X130462500Y-105350000D03*
D24*
X191265000Y-47155000D03*
X191265000Y-45255000D03*
D22*
X191550000Y-51537500D03*
X191550000Y-49712500D03*
D17*
X68287500Y-87300000D03*
X66462500Y-87300000D03*
D14*
X193250000Y-33950000D03*
X189250000Y-33950000D03*
D34*
X70225000Y-85850000D03*
X73525000Y-85850000D03*
D12*
X215000000Y-34787500D03*
X215000000Y-36612500D03*
D35*
X69125000Y-68950000D03*
X74675000Y-68950000D03*
X74675000Y-73800000D03*
X69125000Y-73800000D03*
D36*
X69360000Y-80525000D03*
X74440000Y-80525000D03*
D17*
X174537500Y-36900000D03*
X172712500Y-36900000D03*
D24*
X169785000Y-51195000D03*
X169785000Y-49295000D03*
X200515000Y-50900000D03*
X200515000Y-49000000D03*
D15*
X181175000Y-65750000D03*
X181175000Y-67650000D03*
D12*
X53775000Y-89562500D03*
X53775000Y-91387500D03*
D20*
X167935000Y-41345000D03*
X169835000Y-41345000D03*
X168885000Y-38945000D03*
D18*
X179612500Y-72625000D03*
X177562500Y-72625000D03*
D10*
X209675000Y-64275000D03*
X209675000Y-68275000D03*
D12*
X53775000Y-84037500D03*
X53775000Y-85862500D03*
D16*
X162912500Y-50824300D03*
X163547500Y-50824300D03*
X164182500Y-50824300D03*
X164817500Y-50824300D03*
X165452500Y-50824300D03*
X166087500Y-50824300D03*
X166722500Y-50824300D03*
X167357500Y-50824300D03*
X167357500Y-45515700D03*
X166722500Y-45515700D03*
X166087500Y-45515700D03*
X165452500Y-45515700D03*
X164817500Y-45515700D03*
X164182500Y-45515700D03*
X163547500Y-45515700D03*
X162912500Y-45515700D03*
D23*
X53975000Y-82200000D03*
X52075000Y-82200000D03*
D17*
X126087500Y-74775000D03*
X124262500Y-74775000D03*
D12*
X164300000Y-127762500D03*
X164300000Y-129587500D03*
D19*
X191302500Y-36900000D03*
X193127500Y-36900000D03*
D37*
X176100000Y-99387500D03*
X176100000Y-105312500D03*
D17*
X175825000Y-72625000D03*
X174000000Y-72625000D03*
D23*
X53975000Y-87700000D03*
X52075000Y-87700000D03*
D38*
X61525000Y-82700000D03*
X63425000Y-82700000D03*
D17*
X51412500Y-89700000D03*
X49587500Y-89700000D03*
D19*
X180400000Y-42900000D03*
X182225000Y-42900000D03*
D11*
X167362500Y-55025000D03*
X167362500Y-53125000D03*
X169237500Y-54075000D03*
D19*
X189912500Y-43250000D03*
X191737500Y-43250000D03*
D22*
X175075000Y-128762500D03*
X175075000Y-126937500D03*
D24*
X181175000Y-64175000D03*
X181175000Y-62275000D03*
D39*
X157125000Y-59350000D03*
X157125000Y-62300000D03*
D40*
X55885000Y-87853500D03*
X57155000Y-87853500D03*
X58425000Y-87853500D03*
X59695000Y-87853500D03*
X59695000Y-82646500D03*
X58425000Y-82646500D03*
X57155000Y-82646500D03*
X55885000Y-82646500D03*
M02*
