M48
; DRILL file {KiCad (6.0.6)} date Sun Apr 23 19:50:17 2023
; FORMAT={-:-/ absolute / metric / decimal}
; #@! TF.CreationDate,2023-04-23T19:50:17-02:30
; #@! TF.GenerationSoftware,Kicad,Pcbnew,(6.0.6)
; #@! TF.FileFunction,Plated,1,4,PTH
FMAT,2
METRIC
; #@! TA.AperFunction,Plated,PTH,ViaDrill
T1C0.400
; #@! TA.AperFunction,Plated,PTH,ComponentDrill
T2C0.500
; #@! TA.AperFunction,Plated,PTH,ComponentDrill
T3C0.800
; #@! TA.AperFunction,Plated,PTH,ComponentDrill
T4C1.000
; #@! TA.AperFunction,Plated,PTH,ComponentDrill
T5C1.020
; #@! TA.AperFunction,Plated,PTH,ComponentDrill
T6C1.100
; #@! TA.AperFunction,Plated,PTH,ComponentDrill
T7C1.190
; #@! TA.AperFunction,Plated,PTH,ComponentDrill
T8C1.200
; #@! TA.AperFunction,Plated,PTH,ComponentDrill
T9C1.270
; #@! TA.AperFunction,Plated,PTH,ComponentDrill
T10C1.770
; #@! TA.AperFunction,Plated,PTH,ComponentDrill
T11C1.930
; #@! TA.AperFunction,Plated,PTH,ComponentDrill
T12C2.800
; #@! TA.AperFunction,Plated,PTH,ComponentDrill
T13C3.000
; #@! TA.AperFunction,Plated,PTH,ComponentDrill
T14C3.200
%
G90
G05
T1
X42.625Y-35.925
X42.675Y-44.375
X42.8Y-53.8
X42.875Y-62.775
X42.975Y-72.275
X42.975Y-78.2
X49.175Y-40.25
X49.375Y-48.825
X49.65Y-59.2
X49.825Y-67.575
X50.7Y-87.7
X50.825Y-82.2
X53.3Y-140.0
X53.45Y-30.0
X53.8Y-93.0
X55.425Y-63.525
X55.5Y-44.25
X55.5Y-53.875
X55.725Y-35.975
X56.0Y-93.2
X61.05Y-87.725
X61.075Y-67.725
X61.075Y-70.375
X61.925Y-133.925
X62.25Y-59.2
X63.575Y-51.425
X63.575Y-53.25
X63.575Y-54.975
X63.575Y-56.975
X63.625Y-45.75
X63.625Y-47.625
X63.625Y-49.425
X63.9Y-93.275
X64.65Y-82.7
X64.85Y-67.525
X64.85Y-70.45
X65.125Y-89.475
X65.375Y-57.0
X67.25Y-56.975
X67.575Y-64.25
X68.975Y-56.925
X70.3Y-61.6
X70.875Y-47.575
X70.875Y-49.4
X70.875Y-51.425
X70.875Y-53.3
X70.875Y-54.975
X70.875Y-56.875
X70.925Y-45.675
X72.35Y-82.025
X72.35Y-83.3
X72.375Y-80.825
X72.4Y-79.625
X72.425Y-78.475
X73.3Y-60.375
X73.375Y-64.2
X73.575Y-47.625
X73.575Y-51.5
X73.575Y-53.3
X73.6Y-44.15
X73.6Y-45.725
X73.6Y-49.425
X73.6Y-54.925
X73.625Y-56.275
X75.525Y-44.1
X76.025Y-61.4
X76.225Y-40.275
X76.3Y-27.25
X76.625Y-81.55
X76.625Y-82.8
X76.675Y-80.3
X76.725Y-78.975
X77.25Y-44.1
X78.75Y-64.4
X78.825Y-59.15
X78.95Y-67.925
X79.0Y-44.125
X79.025Y-71.225
X79.025Y-74.35
X80.85Y-44.175
X80.9Y-45.625
X80.9Y-47.575
X80.9Y-49.425
X80.9Y-51.5
X80.9Y-53.275
X80.9Y-54.85
X80.9Y-56.25
X83.275Y-95.7
X83.475Y-45.575
X83.7Y-76.975
X83.75Y-33.75
X85.85Y-76.975
X90.35Y-50.675
X90.65Y-40.275
X90.725Y-30.125
X92.575Y-89.575
X94.45Y-132.725
X97.575Y-45.525
X97.775Y-34.1
X101.225Y-55.55
X102.8Y-82.825
X105.0Y-93.85
X108.25Y-30.3
X121.0Y-87.975
X122.2Y-101.725
X122.225Y-99.675
X122.225Y-104.0
X122.225Y-106.075
X122.25Y-108.225
X124.125Y-99.725
X124.125Y-101.7
X126.025Y-99.725
X126.025Y-101.725
X128.125Y-97.05
X128.15Y-95.075
X128.175Y-93.125
X128.6Y-100.525
X128.725Y-109.35
X128.725Y-112.05
X130.0Y-97.05
X130.025Y-95.075
X130.05Y-93.125
X130.45Y-28.925
X131.05Y-100.525
X131.2Y-109.325
X131.225Y-112.05
X131.9Y-97.05
X131.925Y-95.075
X131.95Y-93.125
X132.075Y-79.875
X133.725Y-93.125
X135.325Y-93.125
X136.975Y-93.125
X140.15Y-29.2
X146.35Y-31.925
X151.3Y-77.3
X156.775Y-38.625
X160.525Y-48.7
X161.925Y-45.5
X164.175Y-49.2
X165.7Y-52.575
X167.0Y-34.65
X167.35Y-56.25
X167.4Y-92.975
X167.4Y-94.95
X167.4Y-97.075
X167.4Y-99.125
X167.4Y-101.425
X169.525Y-99.125
X169.55Y-101.425
X170.15Y-126.825
X170.55Y-140.625
X171.325Y-49.3
X171.675Y-99.125
X171.675Y-101.425
X172.5Y-45.5
X173.825Y-38.575
X174.3Y-107.45
X174.7Y-115.775
X175.075Y-125.3
X175.55Y-48.0
X175.95Y-107.45
X177.55Y-107.45
X178.325Y-49.75
X178.9Y-54.175
X179.325Y-107.45
X179.35Y-105.5
X179.375Y-103.525
X179.8Y-100.3
X179.825Y-98.225
X180.775Y-35.525
X181.15Y-72.625
X181.225Y-107.45
X181.25Y-105.5
X181.275Y-103.525
X181.475Y-55.125
X182.225Y-44.55
X182.675Y-98.225
X182.675Y-100.375
X183.1Y-107.45
X183.125Y-105.5
X183.15Y-103.525
X183.975Y-40.7
X184.6Y-50.425
X185.575Y-98.25
X185.575Y-100.4
X185.95Y-36.925
X188.7Y-56.875
X189.6Y-45.25
X189.725Y-47.15
X194.875Y-52.075
X195.525Y-46.75
X196.575Y-54.875
X197.625Y-34.5
X200.5Y-47.75
X201.025Y-44.05
X203.775Y-58.4
X204.725Y-38.65
X206.8Y-140.0
X208.35Y-51.3
X209.225Y-41.55
X209.775Y-129.625
X212.0Y-68.275
X215.0Y-37.962
X215.1Y-44.65
X215.875Y-56.35
T2
X42.6Y-30.0
X42.6Y-140.0
X43.303Y-28.303
X43.303Y-31.697
X43.303Y-138.303
X43.303Y-141.697
X45.0Y-27.6
X45.0Y-32.4
X45.0Y-137.6
X45.0Y-142.4
X46.697Y-28.303
X46.697Y-31.697
X46.697Y-138.303
X46.697Y-141.697
X47.4Y-30.0
X47.4Y-140.0
X212.6Y-30.0
X212.6Y-140.0
X213.303Y-28.303
X213.303Y-31.697
X213.303Y-138.303
X213.303Y-141.697
X215.0Y-27.6
X215.0Y-32.4
X215.0Y-137.6
X215.0Y-142.4
X216.697Y-28.303
X216.697Y-31.697
X216.697Y-138.303
X216.697Y-141.697
X217.4Y-30.0
X217.4Y-140.0
T3
X162.575Y-59.793
X162.575Y-62.293
T4
X45.925Y-84.7
X45.925Y-87.2
X45.925Y-89.7
X86.425Y-112.525
X86.425Y-117.525
X108.475Y-52.975
X113.475Y-52.975
X174.0Y-62.41
X174.0Y-64.95
X174.0Y-67.49
T5
X117.675Y-33.75
X117.675Y-36.75
X185.135Y-125.75
X185.135Y-128.75
X216.965Y-64.8
X216.965Y-67.8
T6
X119.4Y-102.82
X119.4Y-105.36
X119.4Y-107.9
X164.345Y-96.11
X164.345Y-98.65
X164.345Y-101.19
T7
X159.71Y-28.52
X162.25Y-28.52
X164.79Y-28.52
X171.71Y-28.52
X174.25Y-28.52
X176.79Y-28.52
X190.45Y-28.45
X192.99Y-28.45
X195.53Y-28.45
X202.45Y-28.45
X204.99Y-28.45
X207.53Y-28.45
T8
X96.07Y-62.883
X96.07Y-70.383
T9
X122.363Y-52.955
X122.363Y-60.575
X122.363Y-68.195
X150.303Y-56.765
X150.303Y-60.575
X150.303Y-64.385
T10
X96.025Y-104.0
X96.025Y-117.5
X99.425Y-104.0
X99.425Y-117.5
X110.725Y-65.075
X110.725Y-78.575
X114.125Y-65.075
X114.125Y-78.575
X136.825Y-38.55
X136.825Y-41.95
X142.05Y-85.125
X142.05Y-98.625
X145.45Y-85.125
X145.45Y-98.625
X150.325Y-38.55
X150.325Y-41.95
X160.325Y-82.9
X160.325Y-86.3
X173.825Y-82.9
X173.825Y-86.3
X187.825Y-64.3
X187.825Y-67.7
X201.325Y-64.3
X201.325Y-67.7
T11
X150.303Y-52.955
X150.303Y-68.195
T12
X63.08Y-110.675
X63.08Y-120.675
X67.25Y-48.08
X67.25Y-53.08
X68.08Y-110.675
X68.08Y-120.675
X77.25Y-48.08
X77.25Y-53.08
X133.7Y-116.87
X133.7Y-121.87
X143.7Y-116.87
X143.7Y-121.87
X191.87Y-86.775
X191.87Y-96.775
X196.87Y-86.775
X196.87Y-96.775
T13
X54.08Y-104.945
X54.08Y-126.405
X61.52Y-39.08
X82.98Y-39.08
X127.97Y-130.87
X149.43Y-130.87
X205.87Y-81.045
X205.87Y-102.505
T14
X45.0Y-30.0
X45.0Y-140.0
X215.0Y-30.0
X215.0Y-140.0
T0
M30
