G04 #@! TF.GenerationSoftware,KiCad,Pcbnew,(6.0.6)*
G04 #@! TF.CreationDate,2023-04-23T18:47:12-02:30*
G04 #@! TF.ProjectId,EStopTX,4553746f-7054-4582-9e6b-696361645f70,rev?*
G04 #@! TF.SameCoordinates,Original*
G04 #@! TF.FileFunction,Copper,L2,Bot*
G04 #@! TF.FilePolarity,Positive*
%FSLAX46Y46*%
G04 Gerber Fmt 4.6, Leading zero omitted, Abs format (unit mm)*
G04 Created by KiCad (PCBNEW (6.0.6)) date 2023-04-23 18:47:12*
%MOMM*%
%LPD*%
G01*
G04 APERTURE LIST*
G04 Aperture macros list*
%AMRoundRect*
0 Rectangle with rounded corners*
0 $1 Rounding radius*
0 $2 $3 $4 $5 $6 $7 $8 $9 X,Y pos of 4 corners*
0 Add a 4 corners polygon primitive as box body*
4,1,4,$2,$3,$4,$5,$6,$7,$8,$9,$2,$3,0*
0 Add four circle primitives for the rounded corners*
1,1,$1+$1,$2,$3*
1,1,$1+$1,$4,$5*
1,1,$1+$1,$6,$7*
1,1,$1+$1,$8,$9*
0 Add four rect primitives between the rounded corners*
20,1,$1+$1,$2,$3,$4,$5,0*
20,1,$1+$1,$4,$5,$6,$7,0*
20,1,$1+$1,$6,$7,$8,$9,0*
20,1,$1+$1,$8,$9,$2,$3,0*%
G04 Aperture macros list end*
G04 #@! TA.AperFunction,ComponentPad*
%ADD10C,0.800000*%
G04 #@! TD*
G04 #@! TA.AperFunction,ComponentPad*
%ADD11C,6.400000*%
G04 #@! TD*
G04 #@! TA.AperFunction,ComponentPad*
%ADD12R,1.800000X1.800000*%
G04 #@! TD*
G04 #@! TA.AperFunction,ComponentPad*
%ADD13C,1.800000*%
G04 #@! TD*
G04 #@! TA.AperFunction,ComponentPad*
%ADD14R,1.700000X1.700000*%
G04 #@! TD*
G04 #@! TA.AperFunction,ComponentPad*
%ADD15C,1.700000*%
G04 #@! TD*
G04 #@! TA.AperFunction,ComponentPad*
%ADD16C,3.500000*%
G04 #@! TD*
G04 #@! TA.AperFunction,ComponentPad*
%ADD17R,2.475000X2.475000*%
G04 #@! TD*
G04 #@! TA.AperFunction,ComponentPad*
%ADD18C,2.475000*%
G04 #@! TD*
G04 #@! TA.AperFunction,ComponentPad*
%ADD19C,1.600000*%
G04 #@! TD*
G04 #@! TA.AperFunction,ComponentPad*
%ADD20O,1.600000X1.600000*%
G04 #@! TD*
G04 #@! TA.AperFunction,ComponentPad*
%ADD21RoundRect,0.250001X-0.499999X-0.759999X0.499999X-0.759999X0.499999X0.759999X-0.499999X0.759999X0*%
G04 #@! TD*
G04 #@! TA.AperFunction,ComponentPad*
%ADD22O,1.500000X2.020000*%
G04 #@! TD*
G04 APERTURE END LIST*
D10*
X98124944Y-61802944D03*
X101519056Y-65197056D03*
X98124944Y-65197056D03*
X102222000Y-63500000D03*
X97422000Y-63500000D03*
X101519056Y-61802944D03*
X99822000Y-65900000D03*
X99822000Y-61100000D03*
D11*
X99822000Y-63500000D03*
D12*
X98200000Y-71125000D03*
D13*
X98200000Y-73665000D03*
D10*
X175400000Y-114808000D03*
X176102944Y-116505056D03*
X177800000Y-112408000D03*
X180200000Y-114808000D03*
X176102944Y-113110944D03*
X179497056Y-113110944D03*
X179497056Y-116505056D03*
X177800000Y-117208000D03*
D11*
X177800000Y-114808000D03*
D14*
X115350000Y-104447500D03*
D15*
X112850000Y-104447500D03*
X112850000Y-106447500D03*
X115350000Y-106447500D03*
D16*
X120120000Y-109157500D03*
X108080000Y-109157500D03*
D10*
X177546000Y-65900000D03*
D11*
X177546000Y-63500000D03*
D10*
X175848944Y-61802944D03*
X175146000Y-63500000D03*
X177546000Y-61100000D03*
X179946000Y-63500000D03*
X179243056Y-61802944D03*
X179243056Y-65197056D03*
X175848944Y-65197056D03*
D14*
X129794000Y-105156000D03*
D15*
X132334000Y-105156000D03*
X134874000Y-105156000D03*
X137414000Y-105156000D03*
X139954000Y-105156000D03*
X142494000Y-105156000D03*
X145034000Y-105156000D03*
X147574000Y-105156000D03*
X150114000Y-105156000D03*
X152654000Y-105156000D03*
X155194000Y-105156000D03*
X157734000Y-105156000D03*
X160274000Y-105156000D03*
X162814000Y-105156000D03*
X165354000Y-105156000D03*
X167894000Y-105156000D03*
X170434000Y-105156000D03*
X172974000Y-105156000D03*
X129794000Y-82296000D03*
X132334000Y-82296000D03*
X134874000Y-82296000D03*
X137414000Y-82296000D03*
X139954000Y-82296000D03*
X142494000Y-82296000D03*
X145034000Y-82296000D03*
X147574000Y-82296000D03*
X150114000Y-82296000D03*
X152654000Y-82296000D03*
X155194000Y-82296000D03*
X157734000Y-82296000D03*
X160274000Y-82296000D03*
X162814000Y-82296000D03*
X165354000Y-82296000D03*
X167894000Y-82296000D03*
X170434000Y-82296000D03*
X172974000Y-82296000D03*
D17*
X102884500Y-85166000D03*
D18*
X102884500Y-89916000D03*
X102884500Y-94666000D03*
D19*
X129825000Y-113225000D03*
X132325000Y-113225000D03*
X113750000Y-83475000D03*
D20*
X113750000Y-73315000D03*
D21*
X160552000Y-67470000D03*
D22*
X163552000Y-67470000D03*
D10*
X97422000Y-114808000D03*
X99822000Y-117208000D03*
X98124944Y-113110944D03*
D11*
X99822000Y-114808000D03*
D10*
X102222000Y-114808000D03*
X98124944Y-116505056D03*
X101519056Y-113110944D03*
X99822000Y-112408000D03*
X101519056Y-116505056D03*
D19*
X166116000Y-76708000D03*
D20*
X155956000Y-76708000D03*
G04 #@! TA.AperFunction,Conductor*
G36*
X182821121Y-58021002D02*
G01*
X182867614Y-58074658D01*
X182879000Y-58127000D01*
X182879000Y-119873014D01*
X182858998Y-119941135D01*
X182805342Y-119987628D01*
X182753014Y-119999014D01*
X138957734Y-120003969D01*
X94615013Y-120008986D01*
X94546891Y-119988992D01*
X94500392Y-119935341D01*
X94489000Y-119882986D01*
X94489000Y-114796113D01*
X96416527Y-114796113D01*
X96435162Y-115163971D01*
X96435699Y-115167326D01*
X96435700Y-115167332D01*
X96476038Y-115419170D01*
X96493416Y-115527665D01*
X96590608Y-115882941D01*
X96725602Y-116225642D01*
X96896817Y-116551759D01*
X96898718Y-116554588D01*
X96898724Y-116554598D01*
X97083707Y-116829879D01*
X97102252Y-116857477D01*
X97339502Y-117139221D01*
X97442006Y-117237176D01*
X97603329Y-117391341D01*
X97603336Y-117391347D01*
X97605792Y-117393694D01*
X97898008Y-117617919D01*
X98212731Y-117809274D01*
X98546279Y-117965519D01*
X98549497Y-117966621D01*
X98549500Y-117966622D01*
X98891528Y-118083725D01*
X98891536Y-118083727D01*
X98894751Y-118084828D01*
X99254070Y-118165804D01*
X99337002Y-118175253D01*
X99616650Y-118207115D01*
X99616658Y-118207115D01*
X99620033Y-118207500D01*
X99623437Y-118207518D01*
X99623440Y-118207518D01*
X99823074Y-118208563D01*
X99988358Y-118209428D01*
X99991744Y-118209078D01*
X99991746Y-118209078D01*
X100351345Y-118171918D01*
X100351354Y-118171917D01*
X100354737Y-118171567D01*
X100358070Y-118170853D01*
X100358073Y-118170852D01*
X100535488Y-118132817D01*
X100714884Y-118094358D01*
X101064586Y-117978705D01*
X101399752Y-117825961D01*
X101496965Y-117768240D01*
X101713516Y-117639662D01*
X101713521Y-117639659D01*
X101716461Y-117637913D01*
X101743091Y-117617919D01*
X102008276Y-117418812D01*
X102011009Y-117416760D01*
X102279950Y-117165089D01*
X102520138Y-116885846D01*
X102537838Y-116860093D01*
X102726831Y-116585104D01*
X102728762Y-116582295D01*
X102730374Y-116579301D01*
X102730379Y-116579293D01*
X102901761Y-116261001D01*
X102903383Y-116257989D01*
X103041958Y-115916720D01*
X103142865Y-115562482D01*
X103204925Y-115199418D01*
X103206888Y-115167332D01*
X103227301Y-114833572D01*
X103227411Y-114831775D01*
X103227494Y-114808000D01*
X103226850Y-114796113D01*
X174394527Y-114796113D01*
X174413162Y-115163971D01*
X174413699Y-115167326D01*
X174413700Y-115167332D01*
X174454038Y-115419170D01*
X174471416Y-115527665D01*
X174568608Y-115882941D01*
X174703602Y-116225642D01*
X174874817Y-116551759D01*
X174876718Y-116554588D01*
X174876724Y-116554598D01*
X175061707Y-116829879D01*
X175080252Y-116857477D01*
X175317502Y-117139221D01*
X175420006Y-117237176D01*
X175581329Y-117391341D01*
X175581336Y-117391347D01*
X175583792Y-117393694D01*
X175876008Y-117617919D01*
X176190731Y-117809274D01*
X176524279Y-117965519D01*
X176527497Y-117966621D01*
X176527500Y-117966622D01*
X176869528Y-118083725D01*
X176869536Y-118083727D01*
X176872751Y-118084828D01*
X177232070Y-118165804D01*
X177315002Y-118175253D01*
X177594650Y-118207115D01*
X177594658Y-118207115D01*
X177598033Y-118207500D01*
X177601437Y-118207518D01*
X177601440Y-118207518D01*
X177801074Y-118208563D01*
X177966358Y-118209428D01*
X177969744Y-118209078D01*
X177969746Y-118209078D01*
X178329345Y-118171918D01*
X178329354Y-118171917D01*
X178332737Y-118171567D01*
X178336070Y-118170853D01*
X178336073Y-118170852D01*
X178513488Y-118132817D01*
X178692884Y-118094358D01*
X179042586Y-117978705D01*
X179377752Y-117825961D01*
X179474965Y-117768240D01*
X179691516Y-117639662D01*
X179691521Y-117639659D01*
X179694461Y-117637913D01*
X179721091Y-117617919D01*
X179986276Y-117418812D01*
X179989009Y-117416760D01*
X180257950Y-117165089D01*
X180498138Y-116885846D01*
X180515838Y-116860093D01*
X180704831Y-116585104D01*
X180706762Y-116582295D01*
X180708374Y-116579301D01*
X180708379Y-116579293D01*
X180879761Y-116261001D01*
X180881383Y-116257989D01*
X181019958Y-115916720D01*
X181120865Y-115562482D01*
X181182925Y-115199418D01*
X181184888Y-115167332D01*
X181205301Y-114833572D01*
X181205411Y-114831775D01*
X181205494Y-114808000D01*
X181185575Y-114440209D01*
X181126052Y-114076720D01*
X181027620Y-113721786D01*
X181024443Y-113713801D01*
X180892690Y-113382722D01*
X180891431Y-113379558D01*
X180814669Y-113234580D01*
X180720677Y-113057060D01*
X180720673Y-113057053D01*
X180719078Y-113054041D01*
X180512578Y-112749041D01*
X180274346Y-112468128D01*
X180031279Y-112237466D01*
X180009635Y-112216927D01*
X180009634Y-112216926D01*
X180007168Y-112214586D01*
X179812461Y-112066258D01*
X179716879Y-111993444D01*
X179716877Y-111993442D01*
X179714172Y-111991382D01*
X179711260Y-111989625D01*
X179711255Y-111989622D01*
X179401705Y-111802889D01*
X179401696Y-111802884D01*
X179398783Y-111801127D01*
X179395693Y-111799693D01*
X179395688Y-111799690D01*
X179231737Y-111723587D01*
X179064691Y-111646047D01*
X179061466Y-111644955D01*
X179061460Y-111644953D01*
X178719032Y-111529048D01*
X178719027Y-111529047D01*
X178715805Y-111527956D01*
X178481920Y-111476104D01*
X178359536Y-111448972D01*
X178359532Y-111448971D01*
X178356206Y-111448234D01*
X178206624Y-111431720D01*
X177993482Y-111408189D01*
X177993475Y-111408189D01*
X177990100Y-111407816D01*
X177986701Y-111407810D01*
X177986700Y-111407810D01*
X177812979Y-111407507D01*
X177621770Y-111407173D01*
X177484556Y-111421837D01*
X177258910Y-111445951D01*
X177258904Y-111445952D01*
X177255526Y-111446313D01*
X176895650Y-111524779D01*
X176546354Y-111641652D01*
X176543261Y-111643075D01*
X176543260Y-111643075D01*
X176533674Y-111647484D01*
X176211723Y-111795565D01*
X176208789Y-111797321D01*
X176208787Y-111797322D01*
X176114763Y-111853594D01*
X175895672Y-111984718D01*
X175601898Y-112206897D01*
X175333837Y-112459505D01*
X175331625Y-112462095D01*
X175331624Y-112462096D01*
X175280994Y-112521376D01*
X175094626Y-112739585D01*
X175092698Y-112742412D01*
X175092696Y-112742414D01*
X175037343Y-112823559D01*
X174887062Y-113043862D01*
X174881646Y-113054006D01*
X174795459Y-113215420D01*
X174713574Y-113368776D01*
X174712299Y-113371948D01*
X174712297Y-113371952D01*
X174604836Y-113639272D01*
X174576192Y-113710526D01*
X174575273Y-113713794D01*
X174575271Y-113713801D01*
X174480619Y-114050535D01*
X174476521Y-114065115D01*
X174475959Y-114068472D01*
X174475959Y-114068473D01*
X174435205Y-114312012D01*
X174415729Y-114428393D01*
X174394527Y-114796113D01*
X103226850Y-114796113D01*
X103207575Y-114440209D01*
X103186427Y-114311062D01*
X129103493Y-114311062D01*
X129112789Y-114323077D01*
X129163994Y-114358931D01*
X129173489Y-114364414D01*
X129370947Y-114456490D01*
X129381239Y-114460236D01*
X129591688Y-114516625D01*
X129602481Y-114518528D01*
X129819525Y-114537517D01*
X129830475Y-114537517D01*
X130047519Y-114518528D01*
X130058312Y-114516625D01*
X130268761Y-114460236D01*
X130279053Y-114456490D01*
X130476511Y-114364414D01*
X130486006Y-114358931D01*
X130538048Y-114322491D01*
X130546424Y-114312012D01*
X130539356Y-114298566D01*
X129837812Y-113597022D01*
X129823868Y-113589408D01*
X129822035Y-113589539D01*
X129815420Y-113593790D01*
X129109923Y-114299287D01*
X129103493Y-114311062D01*
X103186427Y-114311062D01*
X103148052Y-114076720D01*
X103049620Y-113721786D01*
X103046443Y-113713801D01*
X102914690Y-113382722D01*
X102913431Y-113379558D01*
X102836669Y-113234580D01*
X102834496Y-113230475D01*
X128512483Y-113230475D01*
X128531472Y-113447519D01*
X128533375Y-113458312D01*
X128589764Y-113668761D01*
X128593510Y-113679053D01*
X128685586Y-113876511D01*
X128691069Y-113886006D01*
X128727509Y-113938048D01*
X128737988Y-113946424D01*
X128751434Y-113939356D01*
X129452978Y-113237812D01*
X129459356Y-113226132D01*
X130189408Y-113226132D01*
X130189539Y-113227965D01*
X130193790Y-113234580D01*
X130899287Y-113940077D01*
X130911062Y-113946507D01*
X130923077Y-113937211D01*
X130958931Y-113886006D01*
X130964414Y-113876511D01*
X131056490Y-113679053D01*
X131060236Y-113668761D01*
X131112267Y-113474577D01*
X131149219Y-113413954D01*
X131213079Y-113382933D01*
X131283574Y-113391361D01*
X131338321Y-113436564D01*
X131355093Y-113472457D01*
X131390258Y-113595091D01*
X131393076Y-113600574D01*
X131477123Y-113764113D01*
X131477126Y-113764117D01*
X131479944Y-113769601D01*
X131601818Y-113923369D01*
X131606511Y-113927363D01*
X131606512Y-113927364D01*
X131628908Y-113946424D01*
X131751238Y-114050535D01*
X131756616Y-114053541D01*
X131756618Y-114053542D01*
X131792188Y-114073421D01*
X131922513Y-114146257D01*
X132109118Y-114206889D01*
X132303946Y-114230121D01*
X132310081Y-114229649D01*
X132310083Y-114229649D01*
X132493434Y-114215541D01*
X132493438Y-114215540D01*
X132499576Y-114215068D01*
X132688556Y-114162303D01*
X132863689Y-114073837D01*
X132879049Y-114061837D01*
X133013453Y-113956829D01*
X133018303Y-113953040D01*
X133029493Y-113940077D01*
X133142485Y-113809173D01*
X133142485Y-113809172D01*
X133146509Y-113804511D01*
X133243425Y-113633909D01*
X133305358Y-113447732D01*
X133329949Y-113253071D01*
X133330341Y-113225000D01*
X133311194Y-113029728D01*
X133309413Y-113023829D01*
X133309412Y-113023824D01*
X133256265Y-112847793D01*
X133254484Y-112841894D01*
X133162370Y-112668653D01*
X133038361Y-112516602D01*
X132887180Y-112391535D01*
X132714585Y-112298213D01*
X132620868Y-112269203D01*
X132533039Y-112242015D01*
X132533036Y-112242014D01*
X132527152Y-112240193D01*
X132521027Y-112239549D01*
X132521026Y-112239549D01*
X132338147Y-112220327D01*
X132338146Y-112220327D01*
X132332019Y-112219683D01*
X132209383Y-112230844D01*
X132142759Y-112236907D01*
X132142758Y-112236907D01*
X132136618Y-112237466D01*
X132130704Y-112239207D01*
X132130702Y-112239207D01*
X132001734Y-112277165D01*
X131948393Y-112292864D01*
X131942928Y-112295721D01*
X131779972Y-112380912D01*
X131779968Y-112380915D01*
X131774512Y-112383767D01*
X131769712Y-112387627D01*
X131769711Y-112387627D01*
X131735326Y-112415273D01*
X131621600Y-112506711D01*
X131495480Y-112657016D01*
X131492516Y-112662408D01*
X131492513Y-112662412D01*
X131443338Y-112751862D01*
X131400956Y-112828954D01*
X131399095Y-112834821D01*
X131399094Y-112834823D01*
X131353470Y-112978648D01*
X131313806Y-113037532D01*
X131248604Y-113065624D01*
X131178565Y-113054006D01*
X131125925Y-113006367D01*
X131111661Y-112973160D01*
X131060236Y-112781239D01*
X131056490Y-112770947D01*
X130964414Y-112573489D01*
X130958931Y-112563994D01*
X130922491Y-112511952D01*
X130912012Y-112503576D01*
X130898566Y-112510644D01*
X130197022Y-113212188D01*
X130189408Y-113226132D01*
X129459356Y-113226132D01*
X129460592Y-113223868D01*
X129460461Y-113222035D01*
X129456210Y-113215420D01*
X128750713Y-112509923D01*
X128738938Y-112503493D01*
X128726923Y-112512789D01*
X128691069Y-112563994D01*
X128685586Y-112573489D01*
X128593510Y-112770947D01*
X128589764Y-112781239D01*
X128533375Y-112991688D01*
X128531472Y-113002481D01*
X128512483Y-113219525D01*
X128512483Y-113230475D01*
X102834496Y-113230475D01*
X102742677Y-113057060D01*
X102742673Y-113057053D01*
X102741078Y-113054041D01*
X102534578Y-112749041D01*
X102296346Y-112468128D01*
X102053279Y-112237466D01*
X102031635Y-112216927D01*
X102031634Y-112216926D01*
X102029168Y-112214586D01*
X101928619Y-112137988D01*
X129103576Y-112137988D01*
X129110644Y-112151434D01*
X129812188Y-112852978D01*
X129826132Y-112860592D01*
X129827965Y-112860461D01*
X129834580Y-112856210D01*
X130540077Y-112150713D01*
X130546507Y-112138938D01*
X130537211Y-112126923D01*
X130486006Y-112091069D01*
X130476511Y-112085586D01*
X130279053Y-111993510D01*
X130268761Y-111989764D01*
X130058312Y-111933375D01*
X130047519Y-111931472D01*
X129830475Y-111912483D01*
X129819525Y-111912483D01*
X129602481Y-111931472D01*
X129591688Y-111933375D01*
X129381239Y-111989764D01*
X129370947Y-111993510D01*
X129173489Y-112085586D01*
X129163994Y-112091069D01*
X129111952Y-112127509D01*
X129103576Y-112137988D01*
X101928619Y-112137988D01*
X101834461Y-112066258D01*
X101738879Y-111993444D01*
X101738877Y-111993442D01*
X101736172Y-111991382D01*
X101733260Y-111989625D01*
X101733255Y-111989622D01*
X101423705Y-111802889D01*
X101423696Y-111802884D01*
X101420783Y-111801127D01*
X101417693Y-111799693D01*
X101417688Y-111799690D01*
X101253737Y-111723587D01*
X101086691Y-111646047D01*
X101083466Y-111644955D01*
X101083460Y-111644953D01*
X100741032Y-111529048D01*
X100741027Y-111529047D01*
X100737805Y-111527956D01*
X100503920Y-111476104D01*
X100381536Y-111448972D01*
X100381532Y-111448971D01*
X100378206Y-111448234D01*
X100228624Y-111431720D01*
X100015482Y-111408189D01*
X100015475Y-111408189D01*
X100012100Y-111407816D01*
X100008701Y-111407810D01*
X100008700Y-111407810D01*
X99834979Y-111407507D01*
X99643770Y-111407173D01*
X99506556Y-111421837D01*
X99280910Y-111445951D01*
X99280904Y-111445952D01*
X99277526Y-111446313D01*
X98917650Y-111524779D01*
X98568354Y-111641652D01*
X98565261Y-111643075D01*
X98565260Y-111643075D01*
X98555674Y-111647484D01*
X98233723Y-111795565D01*
X98230789Y-111797321D01*
X98230787Y-111797322D01*
X98136763Y-111853594D01*
X97917672Y-111984718D01*
X97623898Y-112206897D01*
X97355837Y-112459505D01*
X97353625Y-112462095D01*
X97353624Y-112462096D01*
X97302994Y-112521376D01*
X97116626Y-112739585D01*
X97114698Y-112742412D01*
X97114696Y-112742414D01*
X97059343Y-112823559D01*
X96909062Y-113043862D01*
X96903646Y-113054006D01*
X96817459Y-113215420D01*
X96735574Y-113368776D01*
X96734299Y-113371948D01*
X96734297Y-113371952D01*
X96626836Y-113639272D01*
X96598192Y-113710526D01*
X96597273Y-113713794D01*
X96597271Y-113713801D01*
X96502619Y-114050535D01*
X96498521Y-114065115D01*
X96497959Y-114068472D01*
X96497959Y-114068473D01*
X96457205Y-114312012D01*
X96437729Y-114428393D01*
X96416527Y-114796113D01*
X94489000Y-114796113D01*
X94489000Y-110926356D01*
X106676601Y-110926356D01*
X106683059Y-110935716D01*
X106699361Y-110950012D01*
X106705901Y-110955030D01*
X106945144Y-111114887D01*
X106952281Y-111119008D01*
X107210349Y-111246272D01*
X107217953Y-111249422D01*
X107490420Y-111341912D01*
X107498383Y-111344046D01*
X107780600Y-111400183D01*
X107788751Y-111401256D01*
X108075881Y-111420075D01*
X108084119Y-111420075D01*
X108371249Y-111401256D01*
X108379400Y-111400183D01*
X108661617Y-111344046D01*
X108669580Y-111341912D01*
X108942047Y-111249422D01*
X108949651Y-111246272D01*
X109207719Y-111119008D01*
X109214856Y-111114887D01*
X109454099Y-110955030D01*
X109460639Y-110950012D01*
X109475074Y-110937353D01*
X109482050Y-110926356D01*
X118716601Y-110926356D01*
X118723059Y-110935716D01*
X118739361Y-110950012D01*
X118745901Y-110955030D01*
X118985144Y-111114887D01*
X118992281Y-111119008D01*
X119250349Y-111246272D01*
X119257953Y-111249422D01*
X119530420Y-111341912D01*
X119538383Y-111344046D01*
X119820600Y-111400183D01*
X119828751Y-111401256D01*
X120115881Y-111420075D01*
X120124119Y-111420075D01*
X120411249Y-111401256D01*
X120419400Y-111400183D01*
X120701617Y-111344046D01*
X120709580Y-111341912D01*
X120982047Y-111249422D01*
X120989651Y-111246272D01*
X121247719Y-111119008D01*
X121254856Y-111114887D01*
X121494099Y-110955030D01*
X121500639Y-110950012D01*
X121515074Y-110937353D01*
X121523472Y-110924114D01*
X121517638Y-110914349D01*
X120132810Y-109529520D01*
X120118869Y-109521908D01*
X120117034Y-109522039D01*
X120110420Y-109526290D01*
X118724116Y-110912595D01*
X118716601Y-110926356D01*
X109482050Y-110926356D01*
X109483472Y-110924114D01*
X109477638Y-110914349D01*
X108092810Y-109529520D01*
X108078869Y-109521908D01*
X108077034Y-109522039D01*
X108070420Y-109526290D01*
X106684116Y-110912595D01*
X106676601Y-110926356D01*
X94489000Y-110926356D01*
X94489000Y-109161619D01*
X105817425Y-109161619D01*
X105836244Y-109448749D01*
X105837317Y-109456900D01*
X105893454Y-109739117D01*
X105895588Y-109747080D01*
X105988078Y-110019547D01*
X105991228Y-110027151D01*
X106118492Y-110285218D01*
X106122613Y-110292355D01*
X106282470Y-110531599D01*
X106287488Y-110538139D01*
X106300147Y-110552574D01*
X106313386Y-110560972D01*
X106323151Y-110555138D01*
X107707980Y-109170310D01*
X107714357Y-109158631D01*
X108444408Y-109158631D01*
X108444539Y-109160466D01*
X108448790Y-109167080D01*
X109835095Y-110553384D01*
X109848856Y-110560899D01*
X109858216Y-110554441D01*
X109872512Y-110538139D01*
X109877530Y-110531599D01*
X110037387Y-110292355D01*
X110041508Y-110285218D01*
X110168772Y-110027151D01*
X110171922Y-110019547D01*
X110264412Y-109747080D01*
X110266546Y-109739117D01*
X110322683Y-109456900D01*
X110323756Y-109448749D01*
X110342575Y-109161619D01*
X117857425Y-109161619D01*
X117876244Y-109448749D01*
X117877317Y-109456900D01*
X117933454Y-109739117D01*
X117935588Y-109747080D01*
X118028078Y-110019547D01*
X118031228Y-110027151D01*
X118158492Y-110285218D01*
X118162613Y-110292355D01*
X118322470Y-110531599D01*
X118327488Y-110538139D01*
X118340147Y-110552574D01*
X118353386Y-110560972D01*
X118363151Y-110555138D01*
X119747980Y-109170310D01*
X119754357Y-109158631D01*
X120484408Y-109158631D01*
X120484539Y-109160466D01*
X120488790Y-109167080D01*
X121875095Y-110553384D01*
X121888856Y-110560899D01*
X121898216Y-110554441D01*
X121912512Y-110538139D01*
X121917530Y-110531599D01*
X122077387Y-110292355D01*
X122081508Y-110285218D01*
X122208772Y-110027151D01*
X122211922Y-110019547D01*
X122304412Y-109747080D01*
X122306546Y-109739117D01*
X122362683Y-109456900D01*
X122363756Y-109448749D01*
X122382575Y-109161619D01*
X122382575Y-109153381D01*
X122363756Y-108866251D01*
X122362683Y-108858100D01*
X122306546Y-108575883D01*
X122304412Y-108567920D01*
X122211922Y-108295453D01*
X122208772Y-108287849D01*
X122081508Y-108029782D01*
X122077387Y-108022645D01*
X121917530Y-107783401D01*
X121912512Y-107776861D01*
X121899853Y-107762426D01*
X121886614Y-107754028D01*
X121876849Y-107759862D01*
X120492020Y-109144690D01*
X120484408Y-109158631D01*
X119754357Y-109158631D01*
X119755592Y-109156369D01*
X119755461Y-109154534D01*
X119751210Y-109147920D01*
X118364905Y-107761616D01*
X118351144Y-107754101D01*
X118341784Y-107760559D01*
X118327488Y-107776861D01*
X118322470Y-107783401D01*
X118162613Y-108022645D01*
X118158492Y-108029782D01*
X118031228Y-108287849D01*
X118028078Y-108295453D01*
X117935588Y-108567920D01*
X117933454Y-108575883D01*
X117877317Y-108858100D01*
X117876244Y-108866251D01*
X117857425Y-109153381D01*
X117857425Y-109161619D01*
X110342575Y-109161619D01*
X110342575Y-109153381D01*
X110323756Y-108866251D01*
X110322683Y-108858100D01*
X110266546Y-108575883D01*
X110264412Y-108567920D01*
X110171922Y-108295453D01*
X110168772Y-108287849D01*
X110041508Y-108029782D01*
X110037387Y-108022645D01*
X109877530Y-107783401D01*
X109872512Y-107776861D01*
X109859853Y-107762426D01*
X109846614Y-107754028D01*
X109836849Y-107759862D01*
X108452020Y-109144690D01*
X108444408Y-109158631D01*
X107714357Y-109158631D01*
X107715592Y-109156369D01*
X107715461Y-109154534D01*
X107711210Y-109147920D01*
X106324905Y-107761616D01*
X106311144Y-107754101D01*
X106301784Y-107760559D01*
X106287488Y-107776861D01*
X106282470Y-107783401D01*
X106122613Y-108022645D01*
X106118492Y-108029782D01*
X105991228Y-108287849D01*
X105988078Y-108295453D01*
X105895588Y-108567920D01*
X105893454Y-108575883D01*
X105837317Y-108858100D01*
X105836244Y-108866251D01*
X105817425Y-109153381D01*
X105817425Y-109161619D01*
X94489000Y-109161619D01*
X94489000Y-107390886D01*
X106676528Y-107390886D01*
X106682362Y-107400651D01*
X108067190Y-108785480D01*
X108081131Y-108793092D01*
X108082966Y-108792961D01*
X108089580Y-108788710D01*
X109305936Y-107572353D01*
X114589977Y-107572353D01*
X114595258Y-107579407D01*
X114756756Y-107673779D01*
X114766042Y-107678229D01*
X114965001Y-107754203D01*
X114974899Y-107757079D01*
X115183595Y-107799538D01*
X115193823Y-107800757D01*
X115406650Y-107808562D01*
X115416936Y-107808095D01*
X115628185Y-107781034D01*
X115638262Y-107778892D01*
X115842255Y-107717691D01*
X115851842Y-107713933D01*
X116043098Y-107620238D01*
X116051944Y-107614965D01*
X116099247Y-107581223D01*
X116107648Y-107570523D01*
X116100660Y-107557370D01*
X115934176Y-107390886D01*
X118716528Y-107390886D01*
X118722362Y-107400651D01*
X120107190Y-108785480D01*
X120121131Y-108793092D01*
X120122966Y-108792961D01*
X120129580Y-108788710D01*
X121515884Y-107402405D01*
X121523399Y-107388644D01*
X121516941Y-107379284D01*
X121500639Y-107364988D01*
X121494099Y-107359970D01*
X121254856Y-107200113D01*
X121247719Y-107195992D01*
X120989651Y-107068728D01*
X120982047Y-107065578D01*
X120709580Y-106973088D01*
X120701617Y-106970954D01*
X120419400Y-106914817D01*
X120411249Y-106913744D01*
X120124119Y-106894925D01*
X120115881Y-106894925D01*
X119828751Y-106913744D01*
X119820600Y-106914817D01*
X119538383Y-106970954D01*
X119530420Y-106973088D01*
X119257953Y-107065578D01*
X119250349Y-107068728D01*
X118992282Y-107195992D01*
X118985145Y-107200113D01*
X118745901Y-107359970D01*
X118739361Y-107364988D01*
X118724926Y-107377647D01*
X118716528Y-107390886D01*
X115934176Y-107390886D01*
X115362812Y-106819522D01*
X115348868Y-106811908D01*
X115347035Y-106812039D01*
X115340420Y-106816290D01*
X114596737Y-107559973D01*
X114589977Y-107572353D01*
X109305936Y-107572353D01*
X109475884Y-107402405D01*
X109483399Y-107388644D01*
X109476941Y-107379284D01*
X109460639Y-107364988D01*
X109454099Y-107359970D01*
X109214856Y-107200113D01*
X109207719Y-107195992D01*
X108949651Y-107068728D01*
X108942047Y-107065578D01*
X108669580Y-106973088D01*
X108661617Y-106970954D01*
X108379400Y-106914817D01*
X108371249Y-106913744D01*
X108084119Y-106894925D01*
X108075881Y-106894925D01*
X107788751Y-106913744D01*
X107780600Y-106914817D01*
X107498383Y-106970954D01*
X107490420Y-106973088D01*
X107217953Y-107065578D01*
X107210349Y-107068728D01*
X106952282Y-107195992D01*
X106945145Y-107200113D01*
X106705901Y-107359970D01*
X106699361Y-107364988D01*
X106684926Y-107377647D01*
X106676528Y-107390886D01*
X94489000Y-107390886D01*
X94489000Y-106432762D01*
X111794520Y-106432762D01*
X111811759Y-106638053D01*
X111813458Y-106643978D01*
X111862868Y-106816290D01*
X111868544Y-106836086D01*
X111871359Y-106841563D01*
X111871360Y-106841566D01*
X111937856Y-106970954D01*
X111962712Y-107019318D01*
X112090677Y-107180770D01*
X112247564Y-107314291D01*
X112427398Y-107414797D01*
X112522238Y-107445613D01*
X112617471Y-107476556D01*
X112617475Y-107476557D01*
X112623329Y-107478459D01*
X112827894Y-107502851D01*
X112834029Y-107502379D01*
X112834031Y-107502379D01*
X112890039Y-107498069D01*
X113033300Y-107487046D01*
X113039230Y-107485390D01*
X113039232Y-107485390D01*
X113225797Y-107433300D01*
X113225796Y-107433300D01*
X113231725Y-107431645D01*
X113237214Y-107428872D01*
X113237220Y-107428870D01*
X113410116Y-107341533D01*
X113415610Y-107338758D01*
X113577951Y-107211924D01*
X113582737Y-107206380D01*
X113708540Y-107060634D01*
X113708540Y-107060633D01*
X113712564Y-107055972D01*
X113733387Y-107019318D01*
X113760861Y-106970954D01*
X113814323Y-106876844D01*
X113816508Y-106870277D01*
X113816732Y-106869953D01*
X113818774Y-106865367D01*
X113819646Y-106865755D01*
X113856986Y-106811953D01*
X113922574Y-106784771D01*
X113992445Y-106797364D01*
X114044416Y-106845733D01*
X114052809Y-106862643D01*
X114131770Y-107057103D01*
X114136413Y-107066294D01*
X114216460Y-107196920D01*
X114226916Y-107206380D01*
X114235694Y-107202596D01*
X115260905Y-106177385D01*
X115323217Y-106143359D01*
X115394032Y-106148424D01*
X115439095Y-106177385D01*
X116460474Y-107198764D01*
X116472484Y-107205323D01*
X116484223Y-107196355D01*
X116515004Y-107153519D01*
X116520315Y-107144680D01*
X116614670Y-106953767D01*
X116618469Y-106944172D01*
X116680376Y-106740415D01*
X116682555Y-106730334D01*
X116710590Y-106517387D01*
X116711109Y-106510712D01*
X116712572Y-106450864D01*
X116712378Y-106444146D01*
X116694781Y-106230104D01*
X116693096Y-106219924D01*
X116650582Y-106050669D01*
X128436001Y-106050669D01*
X128436371Y-106057490D01*
X128441895Y-106108352D01*
X128445521Y-106123604D01*
X128490676Y-106244054D01*
X128499214Y-106259649D01*
X128575715Y-106361724D01*
X128588276Y-106374285D01*
X128690351Y-106450786D01*
X128705946Y-106459324D01*
X128826394Y-106504478D01*
X128841649Y-106508105D01*
X128892514Y-106513631D01*
X128899328Y-106514000D01*
X129521885Y-106514000D01*
X129537124Y-106509525D01*
X129538329Y-106508135D01*
X129540000Y-106500452D01*
X129540000Y-106495884D01*
X130048000Y-106495884D01*
X130052475Y-106511123D01*
X130053865Y-106512328D01*
X130061548Y-106513999D01*
X130688669Y-106513999D01*
X130695490Y-106513629D01*
X130746352Y-106508105D01*
X130761604Y-106504479D01*
X130882054Y-106459324D01*
X130897649Y-106450786D01*
X130999724Y-106374285D01*
X131012285Y-106361724D01*
X131088786Y-106259649D01*
X131097324Y-106244054D01*
X131142478Y-106123606D01*
X131146105Y-106108351D01*
X131151631Y-106057486D01*
X131152000Y-106050672D01*
X131152000Y-105675192D01*
X131172002Y-105607071D01*
X131225658Y-105560578D01*
X131295932Y-105550474D01*
X131360512Y-105579968D01*
X131390067Y-105617598D01*
X131446712Y-105727818D01*
X131574677Y-105889270D01*
X131731564Y-106022791D01*
X131736942Y-106025797D01*
X131736944Y-106025798D01*
X131757945Y-106037535D01*
X131911398Y-106123297D01*
X131988731Y-106148424D01*
X132101471Y-106185056D01*
X132101475Y-106185057D01*
X132107329Y-106186959D01*
X132311894Y-106211351D01*
X132318029Y-106210879D01*
X132318031Y-106210879D01*
X132374039Y-106206569D01*
X132517300Y-106195546D01*
X132523230Y-106193890D01*
X132523232Y-106193890D01*
X132686073Y-106148424D01*
X132715725Y-106140145D01*
X132721214Y-106137372D01*
X132721220Y-106137370D01*
X132894116Y-106050033D01*
X132899610Y-106047258D01*
X132942979Y-106013375D01*
X133057101Y-105924213D01*
X133061951Y-105920424D01*
X133111217Y-105863349D01*
X133192540Y-105769134D01*
X133192540Y-105769133D01*
X133196564Y-105764472D01*
X133217387Y-105727818D01*
X133285980Y-105607071D01*
X133298323Y-105585344D01*
X133363351Y-105389863D01*
X133389171Y-105185474D01*
X133389583Y-105156000D01*
X133388138Y-105141262D01*
X133818520Y-105141262D01*
X133819036Y-105147406D01*
X133834902Y-105336343D01*
X133835759Y-105346553D01*
X133837458Y-105352478D01*
X133879186Y-105498000D01*
X133892544Y-105544586D01*
X133895359Y-105550063D01*
X133895360Y-105550066D01*
X133968980Y-105693315D01*
X133986712Y-105727818D01*
X134114677Y-105889270D01*
X134271564Y-106022791D01*
X134276942Y-106025797D01*
X134276944Y-106025798D01*
X134297945Y-106037535D01*
X134451398Y-106123297D01*
X134528731Y-106148424D01*
X134641471Y-106185056D01*
X134641475Y-106185057D01*
X134647329Y-106186959D01*
X134851894Y-106211351D01*
X134858029Y-106210879D01*
X134858031Y-106210879D01*
X134914039Y-106206569D01*
X135057300Y-106195546D01*
X135063230Y-106193890D01*
X135063232Y-106193890D01*
X135226073Y-106148424D01*
X135255725Y-106140145D01*
X135261214Y-106137372D01*
X135261220Y-106137370D01*
X135434116Y-106050033D01*
X135439610Y-106047258D01*
X135482979Y-106013375D01*
X135597101Y-105924213D01*
X135601951Y-105920424D01*
X135651217Y-105863349D01*
X135732540Y-105769134D01*
X135732540Y-105769133D01*
X135736564Y-105764472D01*
X135757387Y-105727818D01*
X135825980Y-105607071D01*
X135838323Y-105585344D01*
X135903351Y-105389863D01*
X135929171Y-105185474D01*
X135929583Y-105156000D01*
X135928138Y-105141262D01*
X136358520Y-105141262D01*
X136359036Y-105147406D01*
X136374902Y-105336343D01*
X136375759Y-105346553D01*
X136377458Y-105352478D01*
X136419186Y-105498000D01*
X136432544Y-105544586D01*
X136435359Y-105550063D01*
X136435360Y-105550066D01*
X136508980Y-105693315D01*
X136526712Y-105727818D01*
X136654677Y-105889270D01*
X136811564Y-106022791D01*
X136816942Y-106025797D01*
X136816944Y-106025798D01*
X136837945Y-106037535D01*
X136991398Y-106123297D01*
X137068731Y-106148424D01*
X137181471Y-106185056D01*
X137181475Y-106185057D01*
X137187329Y-106186959D01*
X137391894Y-106211351D01*
X137398029Y-106210879D01*
X137398031Y-106210879D01*
X137454039Y-106206569D01*
X137597300Y-106195546D01*
X137603230Y-106193890D01*
X137603232Y-106193890D01*
X137766073Y-106148424D01*
X137795725Y-106140145D01*
X137801214Y-106137372D01*
X137801220Y-106137370D01*
X137974116Y-106050033D01*
X137979610Y-106047258D01*
X138022979Y-106013375D01*
X138137101Y-105924213D01*
X138141951Y-105920424D01*
X138191217Y-105863349D01*
X138272540Y-105769134D01*
X138272540Y-105769133D01*
X138276564Y-105764472D01*
X138297387Y-105727818D01*
X138365980Y-105607071D01*
X138378323Y-105585344D01*
X138443351Y-105389863D01*
X138469171Y-105185474D01*
X138469583Y-105156000D01*
X138468138Y-105141262D01*
X138898520Y-105141262D01*
X138899036Y-105147406D01*
X138914902Y-105336343D01*
X138915759Y-105346553D01*
X138917458Y-105352478D01*
X138959186Y-105498000D01*
X138972544Y-105544586D01*
X138975359Y-105550063D01*
X138975360Y-105550066D01*
X139048980Y-105693315D01*
X139066712Y-105727818D01*
X139194677Y-105889270D01*
X139351564Y-106022791D01*
X139356942Y-106025797D01*
X139356944Y-106025798D01*
X139377945Y-106037535D01*
X139531398Y-106123297D01*
X139608731Y-106148424D01*
X139721471Y-106185056D01*
X139721475Y-106185057D01*
X139727329Y-106186959D01*
X139931894Y-106211351D01*
X139938029Y-106210879D01*
X139938031Y-106210879D01*
X139994039Y-106206569D01*
X140137300Y-106195546D01*
X140143230Y-106193890D01*
X140143232Y-106193890D01*
X140306073Y-106148424D01*
X140335725Y-106140145D01*
X140341214Y-106137372D01*
X140341220Y-106137370D01*
X140514116Y-106050033D01*
X140519610Y-106047258D01*
X140562979Y-106013375D01*
X140677101Y-105924213D01*
X140681951Y-105920424D01*
X140731217Y-105863349D01*
X140812540Y-105769134D01*
X140812540Y-105769133D01*
X140816564Y-105764472D01*
X140837387Y-105727818D01*
X140905980Y-105607071D01*
X140918323Y-105585344D01*
X140983351Y-105389863D01*
X141009171Y-105185474D01*
X141009583Y-105156000D01*
X141008138Y-105141262D01*
X141438520Y-105141262D01*
X141439036Y-105147406D01*
X141454902Y-105336343D01*
X141455759Y-105346553D01*
X141457458Y-105352478D01*
X141499186Y-105498000D01*
X141512544Y-105544586D01*
X141515359Y-105550063D01*
X141515360Y-105550066D01*
X141588980Y-105693315D01*
X141606712Y-105727818D01*
X141734677Y-105889270D01*
X141891564Y-106022791D01*
X141896942Y-106025797D01*
X141896944Y-106025798D01*
X141917945Y-106037535D01*
X142071398Y-106123297D01*
X142148731Y-106148424D01*
X142261471Y-106185056D01*
X142261475Y-106185057D01*
X142267329Y-106186959D01*
X142471894Y-106211351D01*
X142478029Y-106210879D01*
X142478031Y-106210879D01*
X142534039Y-106206569D01*
X142677300Y-106195546D01*
X142683230Y-106193890D01*
X142683232Y-106193890D01*
X142846073Y-106148424D01*
X142875725Y-106140145D01*
X142881214Y-106137372D01*
X142881220Y-106137370D01*
X143054116Y-106050033D01*
X143059610Y-106047258D01*
X143102979Y-106013375D01*
X143217101Y-105924213D01*
X143221951Y-105920424D01*
X143271217Y-105863349D01*
X143352540Y-105769134D01*
X143352540Y-105769133D01*
X143356564Y-105764472D01*
X143377387Y-105727818D01*
X143445980Y-105607071D01*
X143458323Y-105585344D01*
X143523351Y-105389863D01*
X143549171Y-105185474D01*
X143549583Y-105156000D01*
X143548138Y-105141262D01*
X143978520Y-105141262D01*
X143979036Y-105147406D01*
X143994902Y-105336343D01*
X143995759Y-105346553D01*
X143997458Y-105352478D01*
X144039186Y-105498000D01*
X144052544Y-105544586D01*
X144055359Y-105550063D01*
X144055360Y-105550066D01*
X144128980Y-105693315D01*
X144146712Y-105727818D01*
X144274677Y-105889270D01*
X144431564Y-106022791D01*
X144436942Y-106025797D01*
X144436944Y-106025798D01*
X144457945Y-106037535D01*
X144611398Y-106123297D01*
X144688731Y-106148424D01*
X144801471Y-106185056D01*
X144801475Y-106185057D01*
X144807329Y-106186959D01*
X145011894Y-106211351D01*
X145018029Y-106210879D01*
X145018031Y-106210879D01*
X145074039Y-106206569D01*
X145217300Y-106195546D01*
X145223230Y-106193890D01*
X145223232Y-106193890D01*
X145386073Y-106148424D01*
X145415725Y-106140145D01*
X145421214Y-106137372D01*
X145421220Y-106137370D01*
X145594116Y-106050033D01*
X145599610Y-106047258D01*
X145642979Y-106013375D01*
X145757101Y-105924213D01*
X145761951Y-105920424D01*
X145811217Y-105863349D01*
X145892540Y-105769134D01*
X145892540Y-105769133D01*
X145896564Y-105764472D01*
X145917387Y-105727818D01*
X145985980Y-105607071D01*
X145998323Y-105585344D01*
X146063351Y-105389863D01*
X146089171Y-105185474D01*
X146089583Y-105156000D01*
X146088138Y-105141262D01*
X146518520Y-105141262D01*
X146519036Y-105147406D01*
X146534902Y-105336343D01*
X146535759Y-105346553D01*
X146537458Y-105352478D01*
X146579186Y-105498000D01*
X146592544Y-105544586D01*
X146595359Y-105550063D01*
X146595360Y-105550066D01*
X146668980Y-105693315D01*
X146686712Y-105727818D01*
X146814677Y-105889270D01*
X146971564Y-106022791D01*
X146976942Y-106025797D01*
X146976944Y-106025798D01*
X146997945Y-106037535D01*
X147151398Y-106123297D01*
X147228731Y-106148424D01*
X147341471Y-106185056D01*
X147341475Y-106185057D01*
X147347329Y-106186959D01*
X147551894Y-106211351D01*
X147558029Y-106210879D01*
X147558031Y-106210879D01*
X147614039Y-106206569D01*
X147757300Y-106195546D01*
X147763230Y-106193890D01*
X147763232Y-106193890D01*
X147926073Y-106148424D01*
X147955725Y-106140145D01*
X147961214Y-106137372D01*
X147961220Y-106137370D01*
X148134116Y-106050033D01*
X148139610Y-106047258D01*
X148182979Y-106013375D01*
X148297101Y-105924213D01*
X148301951Y-105920424D01*
X148351217Y-105863349D01*
X148432540Y-105769134D01*
X148432540Y-105769133D01*
X148436564Y-105764472D01*
X148457387Y-105727818D01*
X148525980Y-105607071D01*
X148538323Y-105585344D01*
X148603351Y-105389863D01*
X148629171Y-105185474D01*
X148629583Y-105156000D01*
X148628138Y-105141262D01*
X149058520Y-105141262D01*
X149059036Y-105147406D01*
X149074902Y-105336343D01*
X149075759Y-105346553D01*
X149077458Y-105352478D01*
X149119186Y-105498000D01*
X149132544Y-105544586D01*
X149135359Y-105550063D01*
X149135360Y-105550066D01*
X149208980Y-105693315D01*
X149226712Y-105727818D01*
X149354677Y-105889270D01*
X149511564Y-106022791D01*
X149516942Y-106025797D01*
X149516944Y-106025798D01*
X149537945Y-106037535D01*
X149691398Y-106123297D01*
X149768731Y-106148424D01*
X149881471Y-106185056D01*
X149881475Y-106185057D01*
X149887329Y-106186959D01*
X150091894Y-106211351D01*
X150098029Y-106210879D01*
X150098031Y-106210879D01*
X150154039Y-106206569D01*
X150297300Y-106195546D01*
X150303230Y-106193890D01*
X150303232Y-106193890D01*
X150466073Y-106148424D01*
X150495725Y-106140145D01*
X150501214Y-106137372D01*
X150501220Y-106137370D01*
X150674116Y-106050033D01*
X150679610Y-106047258D01*
X150722979Y-106013375D01*
X150837101Y-105924213D01*
X150841951Y-105920424D01*
X150891217Y-105863349D01*
X150972540Y-105769134D01*
X150972540Y-105769133D01*
X150976564Y-105764472D01*
X150997387Y-105727818D01*
X151065980Y-105607071D01*
X151078323Y-105585344D01*
X151143351Y-105389863D01*
X151169171Y-105185474D01*
X151169583Y-105156000D01*
X151168138Y-105141262D01*
X151598520Y-105141262D01*
X151599036Y-105147406D01*
X151614902Y-105336343D01*
X151615759Y-105346553D01*
X151617458Y-105352478D01*
X151659186Y-105498000D01*
X151672544Y-105544586D01*
X151675359Y-105550063D01*
X151675360Y-105550066D01*
X151748980Y-105693315D01*
X151766712Y-105727818D01*
X151894677Y-105889270D01*
X152051564Y-106022791D01*
X152056942Y-106025797D01*
X152056944Y-106025798D01*
X152077945Y-106037535D01*
X152231398Y-106123297D01*
X152308731Y-106148424D01*
X152421471Y-106185056D01*
X152421475Y-106185057D01*
X152427329Y-106186959D01*
X152631894Y-106211351D01*
X152638029Y-106210879D01*
X152638031Y-106210879D01*
X152694039Y-106206569D01*
X152837300Y-106195546D01*
X152843230Y-106193890D01*
X152843232Y-106193890D01*
X153006073Y-106148424D01*
X153035725Y-106140145D01*
X153041214Y-106137372D01*
X153041220Y-106137370D01*
X153214116Y-106050033D01*
X153219610Y-106047258D01*
X153262979Y-106013375D01*
X153377101Y-105924213D01*
X153381951Y-105920424D01*
X153431217Y-105863349D01*
X153512540Y-105769134D01*
X153512540Y-105769133D01*
X153516564Y-105764472D01*
X153537387Y-105727818D01*
X153605980Y-105607071D01*
X153618323Y-105585344D01*
X153683351Y-105389863D01*
X153709171Y-105185474D01*
X153709583Y-105156000D01*
X153708138Y-105141262D01*
X154138520Y-105141262D01*
X154139036Y-105147406D01*
X154154902Y-105336343D01*
X154155759Y-105346553D01*
X154157458Y-105352478D01*
X154199186Y-105498000D01*
X154212544Y-105544586D01*
X154215359Y-105550063D01*
X154215360Y-105550066D01*
X154288980Y-105693315D01*
X154306712Y-105727818D01*
X154434677Y-105889270D01*
X154591564Y-106022791D01*
X154596942Y-106025797D01*
X154596944Y-106025798D01*
X154617945Y-106037535D01*
X154771398Y-106123297D01*
X154848731Y-106148424D01*
X154961471Y-106185056D01*
X154961475Y-106185057D01*
X154967329Y-106186959D01*
X155171894Y-106211351D01*
X155178029Y-106210879D01*
X155178031Y-106210879D01*
X155234039Y-106206569D01*
X155377300Y-106195546D01*
X155383230Y-106193890D01*
X155383232Y-106193890D01*
X155546073Y-106148424D01*
X155575725Y-106140145D01*
X155581214Y-106137372D01*
X155581220Y-106137370D01*
X155754116Y-106050033D01*
X155759610Y-106047258D01*
X155802979Y-106013375D01*
X155917101Y-105924213D01*
X155921951Y-105920424D01*
X155971217Y-105863349D01*
X156052540Y-105769134D01*
X156052540Y-105769133D01*
X156056564Y-105764472D01*
X156077387Y-105727818D01*
X156145980Y-105607071D01*
X156158323Y-105585344D01*
X156223351Y-105389863D01*
X156249171Y-105185474D01*
X156249583Y-105156000D01*
X156248138Y-105141262D01*
X156678520Y-105141262D01*
X156679036Y-105147406D01*
X156694902Y-105336343D01*
X156695759Y-105346553D01*
X156697458Y-105352478D01*
X156739186Y-105498000D01*
X156752544Y-105544586D01*
X156755359Y-105550063D01*
X156755360Y-105550066D01*
X156828980Y-105693315D01*
X156846712Y-105727818D01*
X156974677Y-105889270D01*
X157131564Y-106022791D01*
X157136942Y-106025797D01*
X157136944Y-106025798D01*
X157157945Y-106037535D01*
X157311398Y-106123297D01*
X157388731Y-106148424D01*
X157501471Y-106185056D01*
X157501475Y-106185057D01*
X157507329Y-106186959D01*
X157711894Y-106211351D01*
X157718029Y-106210879D01*
X157718031Y-106210879D01*
X157774039Y-106206569D01*
X157917300Y-106195546D01*
X157923230Y-106193890D01*
X157923232Y-106193890D01*
X158086073Y-106148424D01*
X158115725Y-106140145D01*
X158121214Y-106137372D01*
X158121220Y-106137370D01*
X158294116Y-106050033D01*
X158299610Y-106047258D01*
X158342979Y-106013375D01*
X158457101Y-105924213D01*
X158461951Y-105920424D01*
X158511217Y-105863349D01*
X158592540Y-105769134D01*
X158592540Y-105769133D01*
X158596564Y-105764472D01*
X158617387Y-105727818D01*
X158685980Y-105607071D01*
X158698323Y-105585344D01*
X158763351Y-105389863D01*
X158789171Y-105185474D01*
X158789583Y-105156000D01*
X158788138Y-105141262D01*
X159218520Y-105141262D01*
X159219036Y-105147406D01*
X159234902Y-105336343D01*
X159235759Y-105346553D01*
X159237458Y-105352478D01*
X159279186Y-105498000D01*
X159292544Y-105544586D01*
X159295359Y-105550063D01*
X159295360Y-105550066D01*
X159368980Y-105693315D01*
X159386712Y-105727818D01*
X159514677Y-105889270D01*
X159671564Y-106022791D01*
X159676942Y-106025797D01*
X159676944Y-106025798D01*
X159697945Y-106037535D01*
X159851398Y-106123297D01*
X159928731Y-106148424D01*
X160041471Y-106185056D01*
X160041475Y-106185057D01*
X160047329Y-106186959D01*
X160251894Y-106211351D01*
X160258029Y-106210879D01*
X160258031Y-106210879D01*
X160314039Y-106206569D01*
X160457300Y-106195546D01*
X160463230Y-106193890D01*
X160463232Y-106193890D01*
X160626073Y-106148424D01*
X160655725Y-106140145D01*
X160661214Y-106137372D01*
X160661220Y-106137370D01*
X160834116Y-106050033D01*
X160839610Y-106047258D01*
X160882979Y-106013375D01*
X160997101Y-105924213D01*
X161001951Y-105920424D01*
X161051217Y-105863349D01*
X161132540Y-105769134D01*
X161132540Y-105769133D01*
X161136564Y-105764472D01*
X161157387Y-105727818D01*
X161225980Y-105607071D01*
X161238323Y-105585344D01*
X161303351Y-105389863D01*
X161329171Y-105185474D01*
X161329583Y-105156000D01*
X161328138Y-105141262D01*
X161758520Y-105141262D01*
X161759036Y-105147406D01*
X161774902Y-105336343D01*
X161775759Y-105346553D01*
X161777458Y-105352478D01*
X161819186Y-105498000D01*
X161832544Y-105544586D01*
X161835359Y-105550063D01*
X161835360Y-105550066D01*
X161908980Y-105693315D01*
X161926712Y-105727818D01*
X162054677Y-105889270D01*
X162211564Y-106022791D01*
X162216942Y-106025797D01*
X162216944Y-106025798D01*
X162237945Y-106037535D01*
X162391398Y-106123297D01*
X162468731Y-106148424D01*
X162581471Y-106185056D01*
X162581475Y-106185057D01*
X162587329Y-106186959D01*
X162791894Y-106211351D01*
X162798029Y-106210879D01*
X162798031Y-106210879D01*
X162854039Y-106206569D01*
X162997300Y-106195546D01*
X163003230Y-106193890D01*
X163003232Y-106193890D01*
X163166073Y-106148424D01*
X163195725Y-106140145D01*
X163201214Y-106137372D01*
X163201220Y-106137370D01*
X163374116Y-106050033D01*
X163379610Y-106047258D01*
X163422979Y-106013375D01*
X163537101Y-105924213D01*
X163541951Y-105920424D01*
X163591217Y-105863349D01*
X163672540Y-105769134D01*
X163672540Y-105769133D01*
X163676564Y-105764472D01*
X163697387Y-105727818D01*
X163765980Y-105607071D01*
X163778323Y-105585344D01*
X163843351Y-105389863D01*
X163869171Y-105185474D01*
X163869583Y-105156000D01*
X163868138Y-105141262D01*
X164298520Y-105141262D01*
X164299036Y-105147406D01*
X164314902Y-105336343D01*
X164315759Y-105346553D01*
X164317458Y-105352478D01*
X164359186Y-105498000D01*
X164372544Y-105544586D01*
X164375359Y-105550063D01*
X164375360Y-105550066D01*
X164448980Y-105693315D01*
X164466712Y-105727818D01*
X164594677Y-105889270D01*
X164751564Y-106022791D01*
X164756942Y-106025797D01*
X164756944Y-106025798D01*
X164777945Y-106037535D01*
X164931398Y-106123297D01*
X165008731Y-106148424D01*
X165121471Y-106185056D01*
X165121475Y-106185057D01*
X165127329Y-106186959D01*
X165331894Y-106211351D01*
X165338029Y-106210879D01*
X165338031Y-106210879D01*
X165394039Y-106206569D01*
X165537300Y-106195546D01*
X165543230Y-106193890D01*
X165543232Y-106193890D01*
X165706073Y-106148424D01*
X165735725Y-106140145D01*
X165741214Y-106137372D01*
X165741220Y-106137370D01*
X165914116Y-106050033D01*
X165919610Y-106047258D01*
X165962979Y-106013375D01*
X166077101Y-105924213D01*
X166081951Y-105920424D01*
X166131217Y-105863349D01*
X166212540Y-105769134D01*
X166212540Y-105769133D01*
X166216564Y-105764472D01*
X166237387Y-105727818D01*
X166305980Y-105607071D01*
X166318323Y-105585344D01*
X166383351Y-105389863D01*
X166409171Y-105185474D01*
X166409583Y-105156000D01*
X166408138Y-105141262D01*
X166838520Y-105141262D01*
X166839036Y-105147406D01*
X166854902Y-105336343D01*
X166855759Y-105346553D01*
X166857458Y-105352478D01*
X166899186Y-105498000D01*
X166912544Y-105544586D01*
X166915359Y-105550063D01*
X166915360Y-105550066D01*
X166988980Y-105693315D01*
X167006712Y-105727818D01*
X167134677Y-105889270D01*
X167291564Y-106022791D01*
X167296942Y-106025797D01*
X167296944Y-106025798D01*
X167317945Y-106037535D01*
X167471398Y-106123297D01*
X167548731Y-106148424D01*
X167661471Y-106185056D01*
X167661475Y-106185057D01*
X167667329Y-106186959D01*
X167871894Y-106211351D01*
X167878029Y-106210879D01*
X167878031Y-106210879D01*
X167934039Y-106206569D01*
X168077300Y-106195546D01*
X168083230Y-106193890D01*
X168083232Y-106193890D01*
X168246073Y-106148424D01*
X168275725Y-106140145D01*
X168281214Y-106137372D01*
X168281220Y-106137370D01*
X168454116Y-106050033D01*
X168459610Y-106047258D01*
X168502979Y-106013375D01*
X168617101Y-105924213D01*
X168621951Y-105920424D01*
X168671217Y-105863349D01*
X168752540Y-105769134D01*
X168752540Y-105769133D01*
X168756564Y-105764472D01*
X168777387Y-105727818D01*
X168845980Y-105607071D01*
X168858323Y-105585344D01*
X168923351Y-105389863D01*
X168949171Y-105185474D01*
X168949583Y-105156000D01*
X168948138Y-105141262D01*
X169378520Y-105141262D01*
X169379036Y-105147406D01*
X169394902Y-105336343D01*
X169395759Y-105346553D01*
X169397458Y-105352478D01*
X169439186Y-105498000D01*
X169452544Y-105544586D01*
X169455359Y-105550063D01*
X169455360Y-105550066D01*
X169528980Y-105693315D01*
X169546712Y-105727818D01*
X169674677Y-105889270D01*
X169831564Y-106022791D01*
X169836942Y-106025797D01*
X169836944Y-106025798D01*
X169857945Y-106037535D01*
X170011398Y-106123297D01*
X170088731Y-106148424D01*
X170201471Y-106185056D01*
X170201475Y-106185057D01*
X170207329Y-106186959D01*
X170411894Y-106211351D01*
X170418029Y-106210879D01*
X170418031Y-106210879D01*
X170474039Y-106206569D01*
X170617300Y-106195546D01*
X170623230Y-106193890D01*
X170623232Y-106193890D01*
X170786073Y-106148424D01*
X170815725Y-106140145D01*
X170821214Y-106137372D01*
X170821220Y-106137370D01*
X170994116Y-106050033D01*
X170999610Y-106047258D01*
X171042979Y-106013375D01*
X171157101Y-105924213D01*
X171161951Y-105920424D01*
X171211217Y-105863349D01*
X171292540Y-105769134D01*
X171292540Y-105769133D01*
X171296564Y-105764472D01*
X171317387Y-105727818D01*
X171385980Y-105607071D01*
X171398323Y-105585344D01*
X171463351Y-105389863D01*
X171489171Y-105185474D01*
X171489583Y-105156000D01*
X171488138Y-105141262D01*
X171918520Y-105141262D01*
X171919036Y-105147406D01*
X171934902Y-105336343D01*
X171935759Y-105346553D01*
X171937458Y-105352478D01*
X171979186Y-105498000D01*
X171992544Y-105544586D01*
X171995359Y-105550063D01*
X171995360Y-105550066D01*
X172068980Y-105693315D01*
X172086712Y-105727818D01*
X172214677Y-105889270D01*
X172371564Y-106022791D01*
X172376942Y-106025797D01*
X172376944Y-106025798D01*
X172397945Y-106037535D01*
X172551398Y-106123297D01*
X172628731Y-106148424D01*
X172741471Y-106185056D01*
X172741475Y-106185057D01*
X172747329Y-106186959D01*
X172951894Y-106211351D01*
X172958029Y-106210879D01*
X172958031Y-106210879D01*
X173014039Y-106206569D01*
X173157300Y-106195546D01*
X173163230Y-106193890D01*
X173163232Y-106193890D01*
X173326073Y-106148424D01*
X173355725Y-106140145D01*
X173361214Y-106137372D01*
X173361220Y-106137370D01*
X173534116Y-106050033D01*
X173539610Y-106047258D01*
X173582979Y-106013375D01*
X173697101Y-105924213D01*
X173701951Y-105920424D01*
X173751217Y-105863349D01*
X173832540Y-105769134D01*
X173832540Y-105769133D01*
X173836564Y-105764472D01*
X173857387Y-105727818D01*
X173925980Y-105607071D01*
X173938323Y-105585344D01*
X174003351Y-105389863D01*
X174029171Y-105185474D01*
X174029583Y-105156000D01*
X174009480Y-104950970D01*
X173949935Y-104753749D01*
X173853218Y-104571849D01*
X173734786Y-104426637D01*
X173726906Y-104416975D01*
X173726903Y-104416972D01*
X173723011Y-104412200D01*
X173705786Y-104397950D01*
X173569025Y-104284811D01*
X173569021Y-104284809D01*
X173564275Y-104280882D01*
X173383055Y-104182897D01*
X173186254Y-104121977D01*
X173180129Y-104121333D01*
X173180128Y-104121333D01*
X172987498Y-104101087D01*
X172987496Y-104101087D01*
X172981369Y-104100443D01*
X172894529Y-104108346D01*
X172782342Y-104118555D01*
X172782339Y-104118556D01*
X172776203Y-104119114D01*
X172578572Y-104177280D01*
X172396002Y-104272726D01*
X172391201Y-104276586D01*
X172391198Y-104276588D01*
X172380971Y-104284811D01*
X172235447Y-104401815D01*
X172103024Y-104559630D01*
X172100056Y-104565028D01*
X172100053Y-104565033D01*
X172056653Y-104643978D01*
X172003776Y-104740162D01*
X171941484Y-104936532D01*
X171940798Y-104942649D01*
X171940797Y-104942653D01*
X171928688Y-105050614D01*
X171918520Y-105141262D01*
X171488138Y-105141262D01*
X171469480Y-104950970D01*
X171409935Y-104753749D01*
X171313218Y-104571849D01*
X171194786Y-104426637D01*
X171186906Y-104416975D01*
X171186903Y-104416972D01*
X171183011Y-104412200D01*
X171165786Y-104397950D01*
X171029025Y-104284811D01*
X171029021Y-104284809D01*
X171024275Y-104280882D01*
X170843055Y-104182897D01*
X170646254Y-104121977D01*
X170640129Y-104121333D01*
X170640128Y-104121333D01*
X170447498Y-104101087D01*
X170447496Y-104101087D01*
X170441369Y-104100443D01*
X170354529Y-104108346D01*
X170242342Y-104118555D01*
X170242339Y-104118556D01*
X170236203Y-104119114D01*
X170038572Y-104177280D01*
X169856002Y-104272726D01*
X169851201Y-104276586D01*
X169851198Y-104276588D01*
X169840971Y-104284811D01*
X169695447Y-104401815D01*
X169563024Y-104559630D01*
X169560056Y-104565028D01*
X169560053Y-104565033D01*
X169516653Y-104643978D01*
X169463776Y-104740162D01*
X169401484Y-104936532D01*
X169400798Y-104942649D01*
X169400797Y-104942653D01*
X169388688Y-105050614D01*
X169378520Y-105141262D01*
X168948138Y-105141262D01*
X168929480Y-104950970D01*
X168869935Y-104753749D01*
X168773218Y-104571849D01*
X168654786Y-104426637D01*
X168646906Y-104416975D01*
X168646903Y-104416972D01*
X168643011Y-104412200D01*
X168625786Y-104397950D01*
X168489025Y-104284811D01*
X168489021Y-104284809D01*
X168484275Y-104280882D01*
X168303055Y-104182897D01*
X168106254Y-104121977D01*
X168100129Y-104121333D01*
X168100128Y-104121333D01*
X167907498Y-104101087D01*
X167907496Y-104101087D01*
X167901369Y-104100443D01*
X167814529Y-104108346D01*
X167702342Y-104118555D01*
X167702339Y-104118556D01*
X167696203Y-104119114D01*
X167498572Y-104177280D01*
X167316002Y-104272726D01*
X167311201Y-104276586D01*
X167311198Y-104276588D01*
X167300971Y-104284811D01*
X167155447Y-104401815D01*
X167023024Y-104559630D01*
X167020056Y-104565028D01*
X167020053Y-104565033D01*
X166976653Y-104643978D01*
X166923776Y-104740162D01*
X166861484Y-104936532D01*
X166860798Y-104942649D01*
X166860797Y-104942653D01*
X166848688Y-105050614D01*
X166838520Y-105141262D01*
X166408138Y-105141262D01*
X166389480Y-104950970D01*
X166329935Y-104753749D01*
X166233218Y-104571849D01*
X166114786Y-104426637D01*
X166106906Y-104416975D01*
X166106903Y-104416972D01*
X166103011Y-104412200D01*
X166085786Y-104397950D01*
X165949025Y-104284811D01*
X165949021Y-104284809D01*
X165944275Y-104280882D01*
X165763055Y-104182897D01*
X165566254Y-104121977D01*
X165560129Y-104121333D01*
X165560128Y-104121333D01*
X165367498Y-104101087D01*
X165367496Y-104101087D01*
X165361369Y-104100443D01*
X165274529Y-104108346D01*
X165162342Y-104118555D01*
X165162339Y-104118556D01*
X165156203Y-104119114D01*
X164958572Y-104177280D01*
X164776002Y-104272726D01*
X164771201Y-104276586D01*
X164771198Y-104276588D01*
X164760971Y-104284811D01*
X164615447Y-104401815D01*
X164483024Y-104559630D01*
X164480056Y-104565028D01*
X164480053Y-104565033D01*
X164436653Y-104643978D01*
X164383776Y-104740162D01*
X164321484Y-104936532D01*
X164320798Y-104942649D01*
X164320797Y-104942653D01*
X164308688Y-105050614D01*
X164298520Y-105141262D01*
X163868138Y-105141262D01*
X163849480Y-104950970D01*
X163789935Y-104753749D01*
X163693218Y-104571849D01*
X163574786Y-104426637D01*
X163566906Y-104416975D01*
X163566903Y-104416972D01*
X163563011Y-104412200D01*
X163545786Y-104397950D01*
X163409025Y-104284811D01*
X163409021Y-104284809D01*
X163404275Y-104280882D01*
X163223055Y-104182897D01*
X163026254Y-104121977D01*
X163020129Y-104121333D01*
X163020128Y-104121333D01*
X162827498Y-104101087D01*
X162827496Y-104101087D01*
X162821369Y-104100443D01*
X162734529Y-104108346D01*
X162622342Y-104118555D01*
X162622339Y-104118556D01*
X162616203Y-104119114D01*
X162418572Y-104177280D01*
X162236002Y-104272726D01*
X162231201Y-104276586D01*
X162231198Y-104276588D01*
X162220971Y-104284811D01*
X162075447Y-104401815D01*
X161943024Y-104559630D01*
X161940056Y-104565028D01*
X161940053Y-104565033D01*
X161896653Y-104643978D01*
X161843776Y-104740162D01*
X161781484Y-104936532D01*
X161780798Y-104942649D01*
X161780797Y-104942653D01*
X161768688Y-105050614D01*
X161758520Y-105141262D01*
X161328138Y-105141262D01*
X161309480Y-104950970D01*
X161249935Y-104753749D01*
X161153218Y-104571849D01*
X161034786Y-104426637D01*
X161026906Y-104416975D01*
X161026903Y-104416972D01*
X161023011Y-104412200D01*
X161005786Y-104397950D01*
X160869025Y-104284811D01*
X160869021Y-104284809D01*
X160864275Y-104280882D01*
X160683055Y-104182897D01*
X160486254Y-104121977D01*
X160480129Y-104121333D01*
X160480128Y-104121333D01*
X160287498Y-104101087D01*
X160287496Y-104101087D01*
X160281369Y-104100443D01*
X160194529Y-104108346D01*
X160082342Y-104118555D01*
X160082339Y-104118556D01*
X160076203Y-104119114D01*
X159878572Y-104177280D01*
X159696002Y-104272726D01*
X159691201Y-104276586D01*
X159691198Y-104276588D01*
X159680971Y-104284811D01*
X159535447Y-104401815D01*
X159403024Y-104559630D01*
X159400056Y-104565028D01*
X159400053Y-104565033D01*
X159356653Y-104643978D01*
X159303776Y-104740162D01*
X159241484Y-104936532D01*
X159240798Y-104942649D01*
X159240797Y-104942653D01*
X159228688Y-105050614D01*
X159218520Y-105141262D01*
X158788138Y-105141262D01*
X158769480Y-104950970D01*
X158709935Y-104753749D01*
X158613218Y-104571849D01*
X158494786Y-104426637D01*
X158486906Y-104416975D01*
X158486903Y-104416972D01*
X158483011Y-104412200D01*
X158465786Y-104397950D01*
X158329025Y-104284811D01*
X158329021Y-104284809D01*
X158324275Y-104280882D01*
X158143055Y-104182897D01*
X157946254Y-104121977D01*
X157940129Y-104121333D01*
X157940128Y-104121333D01*
X157747498Y-104101087D01*
X157747496Y-104101087D01*
X157741369Y-104100443D01*
X157654529Y-104108346D01*
X157542342Y-104118555D01*
X157542339Y-104118556D01*
X157536203Y-104119114D01*
X157338572Y-104177280D01*
X157156002Y-104272726D01*
X157151201Y-104276586D01*
X157151198Y-104276588D01*
X157140971Y-104284811D01*
X156995447Y-104401815D01*
X156863024Y-104559630D01*
X156860056Y-104565028D01*
X156860053Y-104565033D01*
X156816653Y-104643978D01*
X156763776Y-104740162D01*
X156701484Y-104936532D01*
X156700798Y-104942649D01*
X156700797Y-104942653D01*
X156688688Y-105050614D01*
X156678520Y-105141262D01*
X156248138Y-105141262D01*
X156229480Y-104950970D01*
X156169935Y-104753749D01*
X156073218Y-104571849D01*
X155954786Y-104426637D01*
X155946906Y-104416975D01*
X155946903Y-104416972D01*
X155943011Y-104412200D01*
X155925786Y-104397950D01*
X155789025Y-104284811D01*
X155789021Y-104284809D01*
X155784275Y-104280882D01*
X155603055Y-104182897D01*
X155406254Y-104121977D01*
X155400129Y-104121333D01*
X155400128Y-104121333D01*
X155207498Y-104101087D01*
X155207496Y-104101087D01*
X155201369Y-104100443D01*
X155114529Y-104108346D01*
X155002342Y-104118555D01*
X155002339Y-104118556D01*
X154996203Y-104119114D01*
X154798572Y-104177280D01*
X154616002Y-104272726D01*
X154611201Y-104276586D01*
X154611198Y-104276588D01*
X154600971Y-104284811D01*
X154455447Y-104401815D01*
X154323024Y-104559630D01*
X154320056Y-104565028D01*
X154320053Y-104565033D01*
X154276653Y-104643978D01*
X154223776Y-104740162D01*
X154161484Y-104936532D01*
X154160798Y-104942649D01*
X154160797Y-104942653D01*
X154148688Y-105050614D01*
X154138520Y-105141262D01*
X153708138Y-105141262D01*
X153689480Y-104950970D01*
X153629935Y-104753749D01*
X153533218Y-104571849D01*
X153414786Y-104426637D01*
X153406906Y-104416975D01*
X153406903Y-104416972D01*
X153403011Y-104412200D01*
X153385786Y-104397950D01*
X153249025Y-104284811D01*
X153249021Y-104284809D01*
X153244275Y-104280882D01*
X153063055Y-104182897D01*
X152866254Y-104121977D01*
X152860129Y-104121333D01*
X152860128Y-104121333D01*
X152667498Y-104101087D01*
X152667496Y-104101087D01*
X152661369Y-104100443D01*
X152574529Y-104108346D01*
X152462342Y-104118555D01*
X152462339Y-104118556D01*
X152456203Y-104119114D01*
X152258572Y-104177280D01*
X152076002Y-104272726D01*
X152071201Y-104276586D01*
X152071198Y-104276588D01*
X152060971Y-104284811D01*
X151915447Y-104401815D01*
X151783024Y-104559630D01*
X151780056Y-104565028D01*
X151780053Y-104565033D01*
X151736653Y-104643978D01*
X151683776Y-104740162D01*
X151621484Y-104936532D01*
X151620798Y-104942649D01*
X151620797Y-104942653D01*
X151608688Y-105050614D01*
X151598520Y-105141262D01*
X151168138Y-105141262D01*
X151149480Y-104950970D01*
X151089935Y-104753749D01*
X150993218Y-104571849D01*
X150874786Y-104426637D01*
X150866906Y-104416975D01*
X150866903Y-104416972D01*
X150863011Y-104412200D01*
X150845786Y-104397950D01*
X150709025Y-104284811D01*
X150709021Y-104284809D01*
X150704275Y-104280882D01*
X150523055Y-104182897D01*
X150326254Y-104121977D01*
X150320129Y-104121333D01*
X150320128Y-104121333D01*
X150127498Y-104101087D01*
X150127496Y-104101087D01*
X150121369Y-104100443D01*
X150034529Y-104108346D01*
X149922342Y-104118555D01*
X149922339Y-104118556D01*
X149916203Y-104119114D01*
X149718572Y-104177280D01*
X149536002Y-104272726D01*
X149531201Y-104276586D01*
X149531198Y-104276588D01*
X149520971Y-104284811D01*
X149375447Y-104401815D01*
X149243024Y-104559630D01*
X149240056Y-104565028D01*
X149240053Y-104565033D01*
X149196653Y-104643978D01*
X149143776Y-104740162D01*
X149081484Y-104936532D01*
X149080798Y-104942649D01*
X149080797Y-104942653D01*
X149068688Y-105050614D01*
X149058520Y-105141262D01*
X148628138Y-105141262D01*
X148609480Y-104950970D01*
X148549935Y-104753749D01*
X148453218Y-104571849D01*
X148334786Y-104426637D01*
X148326906Y-104416975D01*
X148326903Y-104416972D01*
X148323011Y-104412200D01*
X148305786Y-104397950D01*
X148169025Y-104284811D01*
X148169021Y-104284809D01*
X148164275Y-104280882D01*
X147983055Y-104182897D01*
X147786254Y-104121977D01*
X147780129Y-104121333D01*
X147780128Y-104121333D01*
X147587498Y-104101087D01*
X147587496Y-104101087D01*
X147581369Y-104100443D01*
X147494529Y-104108346D01*
X147382342Y-104118555D01*
X147382339Y-104118556D01*
X147376203Y-104119114D01*
X147178572Y-104177280D01*
X146996002Y-104272726D01*
X146991201Y-104276586D01*
X146991198Y-104276588D01*
X146980971Y-104284811D01*
X146835447Y-104401815D01*
X146703024Y-104559630D01*
X146700056Y-104565028D01*
X146700053Y-104565033D01*
X146656653Y-104643978D01*
X146603776Y-104740162D01*
X146541484Y-104936532D01*
X146540798Y-104942649D01*
X146540797Y-104942653D01*
X146528688Y-105050614D01*
X146518520Y-105141262D01*
X146088138Y-105141262D01*
X146069480Y-104950970D01*
X146009935Y-104753749D01*
X145913218Y-104571849D01*
X145794786Y-104426637D01*
X145786906Y-104416975D01*
X145786903Y-104416972D01*
X145783011Y-104412200D01*
X145765786Y-104397950D01*
X145629025Y-104284811D01*
X145629021Y-104284809D01*
X145624275Y-104280882D01*
X145443055Y-104182897D01*
X145246254Y-104121977D01*
X145240129Y-104121333D01*
X145240128Y-104121333D01*
X145047498Y-104101087D01*
X145047496Y-104101087D01*
X145041369Y-104100443D01*
X144954529Y-104108346D01*
X144842342Y-104118555D01*
X144842339Y-104118556D01*
X144836203Y-104119114D01*
X144638572Y-104177280D01*
X144456002Y-104272726D01*
X144451201Y-104276586D01*
X144451198Y-104276588D01*
X144440971Y-104284811D01*
X144295447Y-104401815D01*
X144163024Y-104559630D01*
X144160056Y-104565028D01*
X144160053Y-104565033D01*
X144116653Y-104643978D01*
X144063776Y-104740162D01*
X144001484Y-104936532D01*
X144000798Y-104942649D01*
X144000797Y-104942653D01*
X143988688Y-105050614D01*
X143978520Y-105141262D01*
X143548138Y-105141262D01*
X143529480Y-104950970D01*
X143469935Y-104753749D01*
X143373218Y-104571849D01*
X143254786Y-104426637D01*
X143246906Y-104416975D01*
X143246903Y-104416972D01*
X143243011Y-104412200D01*
X143225786Y-104397950D01*
X143089025Y-104284811D01*
X143089021Y-104284809D01*
X143084275Y-104280882D01*
X142903055Y-104182897D01*
X142706254Y-104121977D01*
X142700129Y-104121333D01*
X142700128Y-104121333D01*
X142507498Y-104101087D01*
X142507496Y-104101087D01*
X142501369Y-104100443D01*
X142414529Y-104108346D01*
X142302342Y-104118555D01*
X142302339Y-104118556D01*
X142296203Y-104119114D01*
X142098572Y-104177280D01*
X141916002Y-104272726D01*
X141911201Y-104276586D01*
X141911198Y-104276588D01*
X141900971Y-104284811D01*
X141755447Y-104401815D01*
X141623024Y-104559630D01*
X141620056Y-104565028D01*
X141620053Y-104565033D01*
X141576653Y-104643978D01*
X141523776Y-104740162D01*
X141461484Y-104936532D01*
X141460798Y-104942649D01*
X141460797Y-104942653D01*
X141448688Y-105050614D01*
X141438520Y-105141262D01*
X141008138Y-105141262D01*
X140989480Y-104950970D01*
X140929935Y-104753749D01*
X140833218Y-104571849D01*
X140714786Y-104426637D01*
X140706906Y-104416975D01*
X140706903Y-104416972D01*
X140703011Y-104412200D01*
X140685786Y-104397950D01*
X140549025Y-104284811D01*
X140549021Y-104284809D01*
X140544275Y-104280882D01*
X140363055Y-104182897D01*
X140166254Y-104121977D01*
X140160129Y-104121333D01*
X140160128Y-104121333D01*
X139967498Y-104101087D01*
X139967496Y-104101087D01*
X139961369Y-104100443D01*
X139874529Y-104108346D01*
X139762342Y-104118555D01*
X139762339Y-104118556D01*
X139756203Y-104119114D01*
X139558572Y-104177280D01*
X139376002Y-104272726D01*
X139371201Y-104276586D01*
X139371198Y-104276588D01*
X139360971Y-104284811D01*
X139215447Y-104401815D01*
X139083024Y-104559630D01*
X139080056Y-104565028D01*
X139080053Y-104565033D01*
X139036653Y-104643978D01*
X138983776Y-104740162D01*
X138921484Y-104936532D01*
X138920798Y-104942649D01*
X138920797Y-104942653D01*
X138908688Y-105050614D01*
X138898520Y-105141262D01*
X138468138Y-105141262D01*
X138449480Y-104950970D01*
X138389935Y-104753749D01*
X138293218Y-104571849D01*
X138174786Y-104426637D01*
X138166906Y-104416975D01*
X138166903Y-104416972D01*
X138163011Y-104412200D01*
X138145786Y-104397950D01*
X138009025Y-104284811D01*
X138009021Y-104284809D01*
X138004275Y-104280882D01*
X137823055Y-104182897D01*
X137626254Y-104121977D01*
X137620129Y-104121333D01*
X137620128Y-104121333D01*
X137427498Y-104101087D01*
X137427496Y-104101087D01*
X137421369Y-104100443D01*
X137334529Y-104108346D01*
X137222342Y-104118555D01*
X137222339Y-104118556D01*
X137216203Y-104119114D01*
X137018572Y-104177280D01*
X136836002Y-104272726D01*
X136831201Y-104276586D01*
X136831198Y-104276588D01*
X136820971Y-104284811D01*
X136675447Y-104401815D01*
X136543024Y-104559630D01*
X136540056Y-104565028D01*
X136540053Y-104565033D01*
X136496653Y-104643978D01*
X136443776Y-104740162D01*
X136381484Y-104936532D01*
X136380798Y-104942649D01*
X136380797Y-104942653D01*
X136368688Y-105050614D01*
X136358520Y-105141262D01*
X135928138Y-105141262D01*
X135909480Y-104950970D01*
X135849935Y-104753749D01*
X135753218Y-104571849D01*
X135634786Y-104426637D01*
X135626906Y-104416975D01*
X135626903Y-104416972D01*
X135623011Y-104412200D01*
X135605786Y-104397950D01*
X135469025Y-104284811D01*
X135469021Y-104284809D01*
X135464275Y-104280882D01*
X135283055Y-104182897D01*
X135086254Y-104121977D01*
X135080129Y-104121333D01*
X135080128Y-104121333D01*
X134887498Y-104101087D01*
X134887496Y-104101087D01*
X134881369Y-104100443D01*
X134794529Y-104108346D01*
X134682342Y-104118555D01*
X134682339Y-104118556D01*
X134676203Y-104119114D01*
X134478572Y-104177280D01*
X134296002Y-104272726D01*
X134291201Y-104276586D01*
X134291198Y-104276588D01*
X134280971Y-104284811D01*
X134135447Y-104401815D01*
X134003024Y-104559630D01*
X134000056Y-104565028D01*
X134000053Y-104565033D01*
X133956653Y-104643978D01*
X133903776Y-104740162D01*
X133841484Y-104936532D01*
X133840798Y-104942649D01*
X133840797Y-104942653D01*
X133828688Y-105050614D01*
X133818520Y-105141262D01*
X133388138Y-105141262D01*
X133369480Y-104950970D01*
X133309935Y-104753749D01*
X133213218Y-104571849D01*
X133094786Y-104426637D01*
X133086906Y-104416975D01*
X133086903Y-104416972D01*
X133083011Y-104412200D01*
X133065786Y-104397950D01*
X132929025Y-104284811D01*
X132929021Y-104284809D01*
X132924275Y-104280882D01*
X132743055Y-104182897D01*
X132546254Y-104121977D01*
X132540129Y-104121333D01*
X132540128Y-104121333D01*
X132347498Y-104101087D01*
X132347496Y-104101087D01*
X132341369Y-104100443D01*
X132254529Y-104108346D01*
X132142342Y-104118555D01*
X132142339Y-104118556D01*
X132136203Y-104119114D01*
X131938572Y-104177280D01*
X131756002Y-104272726D01*
X131751201Y-104276586D01*
X131751198Y-104276588D01*
X131740971Y-104284811D01*
X131595447Y-104401815D01*
X131463024Y-104559630D01*
X131460054Y-104565033D01*
X131460053Y-104565034D01*
X131388414Y-104695345D01*
X131338068Y-104745404D01*
X131268651Y-104760297D01*
X131202202Y-104735296D01*
X131159818Y-104678339D01*
X131151999Y-104634644D01*
X131151999Y-104261331D01*
X131151629Y-104254510D01*
X131146105Y-104203648D01*
X131142479Y-104188396D01*
X131097324Y-104067946D01*
X131088786Y-104052351D01*
X131012285Y-103950276D01*
X130999724Y-103937715D01*
X130897649Y-103861214D01*
X130882054Y-103852676D01*
X130761606Y-103807522D01*
X130746351Y-103803895D01*
X130695486Y-103798369D01*
X130688672Y-103798000D01*
X130066115Y-103798000D01*
X130050876Y-103802475D01*
X130049671Y-103803865D01*
X130048000Y-103811548D01*
X130048000Y-106495884D01*
X129540000Y-106495884D01*
X129540000Y-105428115D01*
X129535525Y-105412876D01*
X129534135Y-105411671D01*
X129526452Y-105410000D01*
X128454116Y-105410000D01*
X128438877Y-105414475D01*
X128437672Y-105415865D01*
X128436001Y-105423548D01*
X128436001Y-106050669D01*
X116650582Y-106050669D01*
X116641214Y-106013375D01*
X116637894Y-106003624D01*
X116552972Y-105808314D01*
X116548105Y-105799239D01*
X116432425Y-105620423D01*
X116426136Y-105612256D01*
X116379833Y-105561370D01*
X116348781Y-105497525D01*
X116357177Y-105427026D01*
X116368262Y-105406568D01*
X116381974Y-105386047D01*
X116388867Y-105375731D01*
X116400500Y-105317248D01*
X116400500Y-104883885D01*
X128436000Y-104883885D01*
X128440475Y-104899124D01*
X128441865Y-104900329D01*
X128449548Y-104902000D01*
X129521885Y-104902000D01*
X129537124Y-104897525D01*
X129538329Y-104896135D01*
X129540000Y-104888452D01*
X129540000Y-103816116D01*
X129535525Y-103800877D01*
X129534135Y-103799672D01*
X129526452Y-103798001D01*
X128899331Y-103798001D01*
X128892510Y-103798371D01*
X128841648Y-103803895D01*
X128826396Y-103807521D01*
X128705946Y-103852676D01*
X128690351Y-103861214D01*
X128588276Y-103937715D01*
X128575715Y-103950276D01*
X128499214Y-104052351D01*
X128490676Y-104067946D01*
X128445522Y-104188394D01*
X128441895Y-104203649D01*
X128436369Y-104254514D01*
X128436000Y-104261328D01*
X128436000Y-104883885D01*
X116400500Y-104883885D01*
X116400500Y-103577752D01*
X116388867Y-103519269D01*
X116344552Y-103452948D01*
X116278231Y-103408633D01*
X116266062Y-103406212D01*
X116266061Y-103406212D01*
X116225816Y-103398207D01*
X116219748Y-103397000D01*
X114480252Y-103397000D01*
X114474184Y-103398207D01*
X114433939Y-103406212D01*
X114433938Y-103406212D01*
X114421769Y-103408633D01*
X114355448Y-103452948D01*
X114311133Y-103519269D01*
X114299500Y-103577752D01*
X114299500Y-105317248D01*
X114311133Y-105375731D01*
X114318025Y-105386046D01*
X114318027Y-105386050D01*
X114330962Y-105405408D01*
X114352177Y-105473161D01*
X114333394Y-105541628D01*
X114317292Y-105562460D01*
X114294591Y-105586216D01*
X114288104Y-105594227D01*
X114168098Y-105770149D01*
X114163000Y-105779123D01*
X114073338Y-105972283D01*
X114069775Y-105981968D01*
X114059015Y-106020767D01*
X114021535Y-106081065D01*
X113957406Y-106111527D01*
X113886988Y-106102483D01*
X113832638Y-106056804D01*
X113826374Y-106045016D01*
X113825935Y-106045249D01*
X113732111Y-105868790D01*
X113729218Y-105863349D01*
X113622619Y-105732646D01*
X113602906Y-105708475D01*
X113602903Y-105708472D01*
X113599011Y-105703700D01*
X113494932Y-105617598D01*
X113445025Y-105576311D01*
X113445021Y-105576309D01*
X113440275Y-105572382D01*
X113416491Y-105559522D01*
X113366082Y-105509527D01*
X113350705Y-105440216D01*
X113375241Y-105373594D01*
X113408906Y-105342300D01*
X113410107Y-105341538D01*
X113415610Y-105338758D01*
X113577951Y-105211924D01*
X113597758Y-105188978D01*
X113708540Y-105060634D01*
X113708540Y-105060633D01*
X113712564Y-105055972D01*
X113733387Y-105019318D01*
X113768729Y-104957103D01*
X113814323Y-104876844D01*
X113879351Y-104681363D01*
X113905171Y-104476974D01*
X113905583Y-104447500D01*
X113885480Y-104242470D01*
X113825935Y-104045249D01*
X113729218Y-103863349D01*
X113655859Y-103773402D01*
X113602906Y-103708475D01*
X113602903Y-103708472D01*
X113599011Y-103703700D01*
X113581786Y-103689450D01*
X113445025Y-103576311D01*
X113445021Y-103576309D01*
X113440275Y-103572382D01*
X113259055Y-103474397D01*
X113062254Y-103413477D01*
X113056129Y-103412833D01*
X113056128Y-103412833D01*
X112863498Y-103392587D01*
X112863496Y-103392587D01*
X112857369Y-103391943D01*
X112770529Y-103399846D01*
X112658342Y-103410055D01*
X112658339Y-103410056D01*
X112652203Y-103410614D01*
X112454572Y-103468780D01*
X112272002Y-103564226D01*
X112267201Y-103568086D01*
X112267198Y-103568088D01*
X112116254Y-103689450D01*
X112111447Y-103693315D01*
X111979024Y-103851130D01*
X111976056Y-103856528D01*
X111976053Y-103856533D01*
X111924518Y-103950276D01*
X111879776Y-104031662D01*
X111817484Y-104228032D01*
X111816798Y-104234149D01*
X111816797Y-104234153D01*
X111811556Y-104280882D01*
X111794520Y-104432762D01*
X111795036Y-104438906D01*
X111806657Y-104577290D01*
X111811759Y-104638053D01*
X111813458Y-104643978D01*
X111843375Y-104748310D01*
X111868544Y-104836086D01*
X111871359Y-104841563D01*
X111871360Y-104841566D01*
X111924553Y-104945068D01*
X111962712Y-105019318D01*
X112090677Y-105180770D01*
X112247564Y-105314291D01*
X112287023Y-105336344D01*
X112336727Y-105387037D01*
X112351135Y-105456556D01*
X112325671Y-105522829D01*
X112283929Y-105557991D01*
X112272002Y-105564226D01*
X112267201Y-105568086D01*
X112267198Y-105568088D01*
X112116254Y-105689450D01*
X112111447Y-105693315D01*
X111979024Y-105851130D01*
X111976056Y-105856528D01*
X111976053Y-105856533D01*
X111969315Y-105868790D01*
X111879776Y-106031662D01*
X111877913Y-106037535D01*
X111822776Y-106211351D01*
X111817484Y-106228032D01*
X111816798Y-106234149D01*
X111816797Y-106234153D01*
X111802488Y-106361724D01*
X111794520Y-106432762D01*
X94489000Y-106432762D01*
X94489000Y-94630746D01*
X101442003Y-94630746D01*
X101442300Y-94635899D01*
X101442300Y-94635902D01*
X101448291Y-94739809D01*
X101455614Y-94866817D01*
X101456751Y-94871863D01*
X101456752Y-94871869D01*
X101477921Y-94965800D01*
X101507600Y-95097494D01*
X101509542Y-95102276D01*
X101509543Y-95102280D01*
X101548077Y-95197177D01*
X101596563Y-95316584D01*
X101720114Y-95518201D01*
X101874936Y-95696933D01*
X102056870Y-95847977D01*
X102261031Y-95967279D01*
X102481936Y-96051635D01*
X102487002Y-96052666D01*
X102487003Y-96052666D01*
X102542448Y-96063946D01*
X102713652Y-96098778D01*
X102846852Y-96103662D01*
X102944792Y-96107254D01*
X102944796Y-96107254D01*
X102949956Y-96107443D01*
X102955076Y-96106787D01*
X102955078Y-96106787D01*
X103028073Y-96097436D01*
X103184502Y-96077397D01*
X103189453Y-96075912D01*
X103189456Y-96075911D01*
X103280948Y-96048462D01*
X103410991Y-96009447D01*
X103623341Y-95905417D01*
X103627545Y-95902419D01*
X103627549Y-95902416D01*
X103708503Y-95844672D01*
X103815849Y-95768103D01*
X103983345Y-95601190D01*
X103989733Y-95592300D01*
X104118313Y-95413364D01*
X104118317Y-95413358D01*
X104121331Y-95409163D01*
X104226101Y-95197177D01*
X104294841Y-94970926D01*
X104308547Y-94866817D01*
X104325268Y-94739809D01*
X104325268Y-94739803D01*
X104325705Y-94736487D01*
X104327428Y-94666000D01*
X104308053Y-94430332D01*
X104250447Y-94200994D01*
X104156157Y-93984143D01*
X104027717Y-93785604D01*
X103868575Y-93610709D01*
X103683004Y-93464155D01*
X103475989Y-93349876D01*
X103355467Y-93307197D01*
X103257965Y-93272669D01*
X103257961Y-93272668D01*
X103253090Y-93270943D01*
X103247997Y-93270036D01*
X103247994Y-93270035D01*
X103025381Y-93230382D01*
X103025375Y-93230381D01*
X103020292Y-93229476D01*
X102929362Y-93228365D01*
X102789015Y-93226650D01*
X102789013Y-93226650D01*
X102783846Y-93226587D01*
X102628665Y-93250333D01*
X102555213Y-93261572D01*
X102555210Y-93261573D01*
X102550104Y-93262354D01*
X102518546Y-93272669D01*
X102330256Y-93334212D01*
X102330254Y-93334213D01*
X102325343Y-93335818D01*
X102115598Y-93445004D01*
X102111465Y-93448107D01*
X102111462Y-93448109D01*
X101930637Y-93583876D01*
X101926502Y-93586981D01*
X101763134Y-93757936D01*
X101760220Y-93762208D01*
X101760219Y-93762209D01*
X101667404Y-93898270D01*
X101629881Y-93953277D01*
X101530322Y-94167760D01*
X101467130Y-94395622D01*
X101442003Y-94630746D01*
X94489000Y-94630746D01*
X94489000Y-89880746D01*
X101442003Y-89880746D01*
X101442300Y-89885899D01*
X101442300Y-89885902D01*
X101448291Y-89989809D01*
X101455614Y-90116817D01*
X101456751Y-90121863D01*
X101456752Y-90121869D01*
X101477921Y-90215800D01*
X101507600Y-90347494D01*
X101509542Y-90352276D01*
X101509543Y-90352280D01*
X101548077Y-90447177D01*
X101596563Y-90566584D01*
X101720114Y-90768201D01*
X101874936Y-90946933D01*
X102056870Y-91097977D01*
X102261031Y-91217279D01*
X102481936Y-91301635D01*
X102487002Y-91302666D01*
X102487003Y-91302666D01*
X102542448Y-91313946D01*
X102713652Y-91348778D01*
X102846852Y-91353662D01*
X102944792Y-91357254D01*
X102944796Y-91357254D01*
X102949956Y-91357443D01*
X102955076Y-91356787D01*
X102955078Y-91356787D01*
X103028073Y-91347436D01*
X103184502Y-91327397D01*
X103189453Y-91325912D01*
X103189456Y-91325911D01*
X103280948Y-91298462D01*
X103410991Y-91259447D01*
X103623341Y-91155417D01*
X103627545Y-91152419D01*
X103627549Y-91152416D01*
X103708503Y-91094672D01*
X103815849Y-91018103D01*
X103983345Y-90851190D01*
X103989733Y-90842300D01*
X104118313Y-90663364D01*
X104118317Y-90663358D01*
X104121331Y-90659163D01*
X104226101Y-90447177D01*
X104294841Y-90220926D01*
X104308547Y-90116817D01*
X104325268Y-89989809D01*
X104325268Y-89989803D01*
X104325705Y-89986487D01*
X104327428Y-89916000D01*
X104308053Y-89680332D01*
X104250447Y-89450994D01*
X104156157Y-89234143D01*
X104027717Y-89035604D01*
X103868575Y-88860709D01*
X103683004Y-88714155D01*
X103475989Y-88599876D01*
X103355467Y-88557197D01*
X103257965Y-88522669D01*
X103257961Y-88522668D01*
X103253090Y-88520943D01*
X103247997Y-88520036D01*
X103247994Y-88520035D01*
X103025381Y-88480382D01*
X103025375Y-88480381D01*
X103020292Y-88479476D01*
X102929362Y-88478365D01*
X102789015Y-88476650D01*
X102789013Y-88476650D01*
X102783846Y-88476587D01*
X102628665Y-88500333D01*
X102555213Y-88511572D01*
X102555210Y-88511573D01*
X102550104Y-88512354D01*
X102518546Y-88522669D01*
X102330256Y-88584212D01*
X102330254Y-88584213D01*
X102325343Y-88585818D01*
X102115598Y-88695004D01*
X102111465Y-88698107D01*
X102111462Y-88698109D01*
X101930637Y-88833876D01*
X101926502Y-88836981D01*
X101763134Y-89007936D01*
X101760220Y-89012208D01*
X101760219Y-89012209D01*
X101667404Y-89148270D01*
X101629881Y-89203277D01*
X101530322Y-89417760D01*
X101467130Y-89645622D01*
X101442003Y-89880746D01*
X94489000Y-89880746D01*
X94489000Y-86423248D01*
X101446500Y-86423248D01*
X101458133Y-86481731D01*
X101502448Y-86548052D01*
X101568769Y-86592367D01*
X101580938Y-86594788D01*
X101580939Y-86594788D01*
X101621184Y-86602793D01*
X101627252Y-86604000D01*
X104141748Y-86604000D01*
X104147816Y-86602793D01*
X104188061Y-86594788D01*
X104188062Y-86594788D01*
X104200231Y-86592367D01*
X104266552Y-86548052D01*
X104310867Y-86481731D01*
X104322500Y-86423248D01*
X104322500Y-83908752D01*
X104318625Y-83889272D01*
X104313288Y-83862439D01*
X104313288Y-83862438D01*
X104310867Y-83850269D01*
X104266552Y-83783948D01*
X104200231Y-83739633D01*
X104188062Y-83737212D01*
X104188061Y-83737212D01*
X104147816Y-83729207D01*
X104141748Y-83728000D01*
X101627252Y-83728000D01*
X101621184Y-83729207D01*
X101580939Y-83737212D01*
X101580938Y-83737212D01*
X101568769Y-83739633D01*
X101502448Y-83783948D01*
X101458133Y-83850269D01*
X101455712Y-83862438D01*
X101455712Y-83862439D01*
X101450375Y-83889272D01*
X101446500Y-83908752D01*
X101446500Y-86423248D01*
X94489000Y-86423248D01*
X94489000Y-83460963D01*
X112744757Y-83460963D01*
X112761175Y-83656483D01*
X112815258Y-83845091D01*
X112818076Y-83850574D01*
X112902123Y-84014113D01*
X112902126Y-84014117D01*
X112904944Y-84019601D01*
X113026818Y-84173369D01*
X113176238Y-84300535D01*
X113181616Y-84303541D01*
X113181618Y-84303542D01*
X113217932Y-84323837D01*
X113347513Y-84396257D01*
X113534118Y-84456889D01*
X113728946Y-84480121D01*
X113735081Y-84479649D01*
X113735083Y-84479649D01*
X113918434Y-84465541D01*
X113918438Y-84465540D01*
X113924576Y-84465068D01*
X114113556Y-84412303D01*
X114288689Y-84323837D01*
X114318515Y-84300535D01*
X114438453Y-84206829D01*
X114443303Y-84203040D01*
X114473084Y-84168539D01*
X114567485Y-84059173D01*
X114567485Y-84059172D01*
X114571509Y-84054511D01*
X114668425Y-83883909D01*
X114730358Y-83697732D01*
X114754949Y-83503071D01*
X114755341Y-83475000D01*
X114750032Y-83420853D01*
X129033977Y-83420853D01*
X129039258Y-83427907D01*
X129200756Y-83522279D01*
X129210042Y-83526729D01*
X129409001Y-83602703D01*
X129418899Y-83605579D01*
X129627595Y-83648038D01*
X129637823Y-83649257D01*
X129850650Y-83657062D01*
X129860936Y-83656595D01*
X130072185Y-83629534D01*
X130082262Y-83627392D01*
X130286255Y-83566191D01*
X130295842Y-83562433D01*
X130487098Y-83468738D01*
X130495944Y-83463465D01*
X130543247Y-83429723D01*
X130551648Y-83419023D01*
X130544660Y-83405870D01*
X129806812Y-82668022D01*
X129792868Y-82660408D01*
X129791035Y-82660539D01*
X129784420Y-82664790D01*
X129040737Y-83408473D01*
X129033977Y-83420853D01*
X114750032Y-83420853D01*
X114736194Y-83279728D01*
X114734413Y-83273829D01*
X114734412Y-83273824D01*
X114681265Y-83097793D01*
X114679484Y-83091894D01*
X114587370Y-82918653D01*
X114463361Y-82766602D01*
X114312180Y-82641535D01*
X114139585Y-82548213D01*
X114045869Y-82519203D01*
X113958039Y-82492015D01*
X113958036Y-82492014D01*
X113952152Y-82490193D01*
X113946027Y-82489549D01*
X113946026Y-82489549D01*
X113763147Y-82470327D01*
X113763146Y-82470327D01*
X113757019Y-82469683D01*
X113639139Y-82480411D01*
X113567759Y-82486907D01*
X113567758Y-82486907D01*
X113561618Y-82487466D01*
X113555704Y-82489207D01*
X113555702Y-82489207D01*
X113438357Y-82523744D01*
X113373393Y-82542864D01*
X113367928Y-82545721D01*
X113204972Y-82630912D01*
X113204968Y-82630915D01*
X113199512Y-82633767D01*
X113194712Y-82637627D01*
X113194711Y-82637627D01*
X113170219Y-82657319D01*
X113046600Y-82756711D01*
X112920480Y-82907016D01*
X112917516Y-82912408D01*
X112917513Y-82912412D01*
X112843378Y-83047264D01*
X112825956Y-83078954D01*
X112766628Y-83265978D01*
X112744757Y-83460963D01*
X94489000Y-83460963D01*
X94489000Y-82267863D01*
X128432050Y-82267863D01*
X128444309Y-82480477D01*
X128445745Y-82490697D01*
X128492565Y-82698446D01*
X128495645Y-82708275D01*
X128575770Y-82905603D01*
X128580413Y-82914794D01*
X128660460Y-83045420D01*
X128670916Y-83054880D01*
X128679694Y-83051096D01*
X129421978Y-82308812D01*
X129428356Y-82297132D01*
X130158408Y-82297132D01*
X130158539Y-82298965D01*
X130162790Y-82305580D01*
X130904474Y-83047264D01*
X130916484Y-83053823D01*
X130928223Y-83044855D01*
X130959004Y-83002019D01*
X130964315Y-82993180D01*
X131058670Y-82802267D01*
X131062469Y-82792672D01*
X131103593Y-82657319D01*
X131142534Y-82597955D01*
X131207388Y-82569068D01*
X131277564Y-82579830D01*
X131330782Y-82626823D01*
X131345270Y-82659217D01*
X131352544Y-82684586D01*
X131355359Y-82690063D01*
X131355360Y-82690066D01*
X131443897Y-82862341D01*
X131446712Y-82867818D01*
X131574677Y-83029270D01*
X131579370Y-83033264D01*
X131626717Y-83073559D01*
X131731564Y-83162791D01*
X131911398Y-83263297D01*
X131980846Y-83285862D01*
X132101471Y-83325056D01*
X132101475Y-83325057D01*
X132107329Y-83326959D01*
X132311894Y-83351351D01*
X132318029Y-83350879D01*
X132318031Y-83350879D01*
X132374039Y-83346569D01*
X132517300Y-83335546D01*
X132523230Y-83333890D01*
X132523232Y-83333890D01*
X132709797Y-83281800D01*
X132709796Y-83281800D01*
X132715725Y-83280145D01*
X132721214Y-83277372D01*
X132721220Y-83277370D01*
X132894116Y-83190033D01*
X132899610Y-83187258D01*
X133061951Y-83060424D01*
X133066737Y-83054880D01*
X133192540Y-82909134D01*
X133192540Y-82909133D01*
X133196564Y-82904472D01*
X133217387Y-82867818D01*
X133235056Y-82836714D01*
X133298323Y-82725344D01*
X133363351Y-82529863D01*
X133389171Y-82325474D01*
X133389583Y-82296000D01*
X133388138Y-82281262D01*
X133818520Y-82281262D01*
X133835759Y-82486553D01*
X133837458Y-82492478D01*
X133886868Y-82664790D01*
X133892544Y-82684586D01*
X133895359Y-82690063D01*
X133895360Y-82690066D01*
X133983897Y-82862341D01*
X133986712Y-82867818D01*
X134114677Y-83029270D01*
X134119370Y-83033264D01*
X134166717Y-83073559D01*
X134271564Y-83162791D01*
X134451398Y-83263297D01*
X134520846Y-83285862D01*
X134641471Y-83325056D01*
X134641475Y-83325057D01*
X134647329Y-83326959D01*
X134851894Y-83351351D01*
X134858029Y-83350879D01*
X134858031Y-83350879D01*
X134914039Y-83346569D01*
X135057300Y-83335546D01*
X135063230Y-83333890D01*
X135063232Y-83333890D01*
X135249797Y-83281800D01*
X135249796Y-83281800D01*
X135255725Y-83280145D01*
X135261214Y-83277372D01*
X135261220Y-83277370D01*
X135434116Y-83190033D01*
X135439610Y-83187258D01*
X135601951Y-83060424D01*
X135606737Y-83054880D01*
X135732540Y-82909134D01*
X135732540Y-82909133D01*
X135736564Y-82904472D01*
X135757387Y-82867818D01*
X135775056Y-82836714D01*
X135838323Y-82725344D01*
X135903351Y-82529863D01*
X135929171Y-82325474D01*
X135929583Y-82296000D01*
X135928138Y-82281262D01*
X136358520Y-82281262D01*
X136375759Y-82486553D01*
X136377458Y-82492478D01*
X136426868Y-82664790D01*
X136432544Y-82684586D01*
X136435359Y-82690063D01*
X136435360Y-82690066D01*
X136523897Y-82862341D01*
X136526712Y-82867818D01*
X136654677Y-83029270D01*
X136659370Y-83033264D01*
X136706717Y-83073559D01*
X136811564Y-83162791D01*
X136991398Y-83263297D01*
X137060846Y-83285862D01*
X137181471Y-83325056D01*
X137181475Y-83325057D01*
X137187329Y-83326959D01*
X137391894Y-83351351D01*
X137398029Y-83350879D01*
X137398031Y-83350879D01*
X137454039Y-83346569D01*
X137597300Y-83335546D01*
X137603230Y-83333890D01*
X137603232Y-83333890D01*
X137789797Y-83281800D01*
X137789796Y-83281800D01*
X137795725Y-83280145D01*
X137801214Y-83277372D01*
X137801220Y-83277370D01*
X137974116Y-83190033D01*
X137979610Y-83187258D01*
X138141951Y-83060424D01*
X138146737Y-83054880D01*
X138272540Y-82909134D01*
X138272540Y-82909133D01*
X138276564Y-82904472D01*
X138297387Y-82867818D01*
X138315056Y-82836714D01*
X138378323Y-82725344D01*
X138443351Y-82529863D01*
X138469171Y-82325474D01*
X138469583Y-82296000D01*
X138468138Y-82281262D01*
X138898520Y-82281262D01*
X138915759Y-82486553D01*
X138917458Y-82492478D01*
X138966868Y-82664790D01*
X138972544Y-82684586D01*
X138975359Y-82690063D01*
X138975360Y-82690066D01*
X139063897Y-82862341D01*
X139066712Y-82867818D01*
X139194677Y-83029270D01*
X139199370Y-83033264D01*
X139246717Y-83073559D01*
X139351564Y-83162791D01*
X139531398Y-83263297D01*
X139600846Y-83285862D01*
X139721471Y-83325056D01*
X139721475Y-83325057D01*
X139727329Y-83326959D01*
X139931894Y-83351351D01*
X139938029Y-83350879D01*
X139938031Y-83350879D01*
X139994039Y-83346569D01*
X140137300Y-83335546D01*
X140143230Y-83333890D01*
X140143232Y-83333890D01*
X140329797Y-83281800D01*
X140329796Y-83281800D01*
X140335725Y-83280145D01*
X140341214Y-83277372D01*
X140341220Y-83277370D01*
X140514116Y-83190033D01*
X140519610Y-83187258D01*
X140681951Y-83060424D01*
X140686737Y-83054880D01*
X140812540Y-82909134D01*
X140812540Y-82909133D01*
X140816564Y-82904472D01*
X140837387Y-82867818D01*
X140855056Y-82836714D01*
X140918323Y-82725344D01*
X140983351Y-82529863D01*
X141009171Y-82325474D01*
X141009583Y-82296000D01*
X141008138Y-82281262D01*
X141438520Y-82281262D01*
X141455759Y-82486553D01*
X141457458Y-82492478D01*
X141506868Y-82664790D01*
X141512544Y-82684586D01*
X141515359Y-82690063D01*
X141515360Y-82690066D01*
X141603897Y-82862341D01*
X141606712Y-82867818D01*
X141734677Y-83029270D01*
X141739370Y-83033264D01*
X141786717Y-83073559D01*
X141891564Y-83162791D01*
X142071398Y-83263297D01*
X142140846Y-83285862D01*
X142261471Y-83325056D01*
X142261475Y-83325057D01*
X142267329Y-83326959D01*
X142471894Y-83351351D01*
X142478029Y-83350879D01*
X142478031Y-83350879D01*
X142534039Y-83346569D01*
X142677300Y-83335546D01*
X142683230Y-83333890D01*
X142683232Y-83333890D01*
X142869797Y-83281800D01*
X142869796Y-83281800D01*
X142875725Y-83280145D01*
X142881214Y-83277372D01*
X142881220Y-83277370D01*
X143054116Y-83190033D01*
X143059610Y-83187258D01*
X143221951Y-83060424D01*
X143226737Y-83054880D01*
X143352540Y-82909134D01*
X143352540Y-82909133D01*
X143356564Y-82904472D01*
X143377387Y-82867818D01*
X143395056Y-82836714D01*
X143458323Y-82725344D01*
X143523351Y-82529863D01*
X143549171Y-82325474D01*
X143549583Y-82296000D01*
X143548138Y-82281262D01*
X143978520Y-82281262D01*
X143995759Y-82486553D01*
X143997458Y-82492478D01*
X144046868Y-82664790D01*
X144052544Y-82684586D01*
X144055359Y-82690063D01*
X144055360Y-82690066D01*
X144143897Y-82862341D01*
X144146712Y-82867818D01*
X144274677Y-83029270D01*
X144279370Y-83033264D01*
X144326717Y-83073559D01*
X144431564Y-83162791D01*
X144611398Y-83263297D01*
X144680846Y-83285862D01*
X144801471Y-83325056D01*
X144801475Y-83325057D01*
X144807329Y-83326959D01*
X145011894Y-83351351D01*
X145018029Y-83350879D01*
X145018031Y-83350879D01*
X145074039Y-83346569D01*
X145217300Y-83335546D01*
X145223230Y-83333890D01*
X145223232Y-83333890D01*
X145409797Y-83281800D01*
X145409796Y-83281800D01*
X145415725Y-83280145D01*
X145421214Y-83277372D01*
X145421220Y-83277370D01*
X145594116Y-83190033D01*
X145599610Y-83187258D01*
X145761951Y-83060424D01*
X145766737Y-83054880D01*
X145892540Y-82909134D01*
X145892540Y-82909133D01*
X145896564Y-82904472D01*
X145917387Y-82867818D01*
X145935056Y-82836714D01*
X145998323Y-82725344D01*
X146063351Y-82529863D01*
X146089171Y-82325474D01*
X146089583Y-82296000D01*
X146088138Y-82281262D01*
X146518520Y-82281262D01*
X146535759Y-82486553D01*
X146537458Y-82492478D01*
X146586868Y-82664790D01*
X146592544Y-82684586D01*
X146595359Y-82690063D01*
X146595360Y-82690066D01*
X146683897Y-82862341D01*
X146686712Y-82867818D01*
X146814677Y-83029270D01*
X146819370Y-83033264D01*
X146866717Y-83073559D01*
X146971564Y-83162791D01*
X147151398Y-83263297D01*
X147220846Y-83285862D01*
X147341471Y-83325056D01*
X147341475Y-83325057D01*
X147347329Y-83326959D01*
X147551894Y-83351351D01*
X147558029Y-83350879D01*
X147558031Y-83350879D01*
X147614039Y-83346569D01*
X147757300Y-83335546D01*
X147763230Y-83333890D01*
X147763232Y-83333890D01*
X147949797Y-83281800D01*
X147949796Y-83281800D01*
X147955725Y-83280145D01*
X147961214Y-83277372D01*
X147961220Y-83277370D01*
X148134116Y-83190033D01*
X148139610Y-83187258D01*
X148301951Y-83060424D01*
X148306737Y-83054880D01*
X148432540Y-82909134D01*
X148432540Y-82909133D01*
X148436564Y-82904472D01*
X148457387Y-82867818D01*
X148475056Y-82836714D01*
X148538323Y-82725344D01*
X148603351Y-82529863D01*
X148629171Y-82325474D01*
X148629583Y-82296000D01*
X148628138Y-82281262D01*
X149058520Y-82281262D01*
X149075759Y-82486553D01*
X149077458Y-82492478D01*
X149126868Y-82664790D01*
X149132544Y-82684586D01*
X149135359Y-82690063D01*
X149135360Y-82690066D01*
X149223897Y-82862341D01*
X149226712Y-82867818D01*
X149354677Y-83029270D01*
X149359370Y-83033264D01*
X149406717Y-83073559D01*
X149511564Y-83162791D01*
X149691398Y-83263297D01*
X149760846Y-83285862D01*
X149881471Y-83325056D01*
X149881475Y-83325057D01*
X149887329Y-83326959D01*
X150091894Y-83351351D01*
X150098029Y-83350879D01*
X150098031Y-83350879D01*
X150154039Y-83346569D01*
X150297300Y-83335546D01*
X150303230Y-83333890D01*
X150303232Y-83333890D01*
X150489797Y-83281800D01*
X150489796Y-83281800D01*
X150495725Y-83280145D01*
X150501214Y-83277372D01*
X150501220Y-83277370D01*
X150674116Y-83190033D01*
X150679610Y-83187258D01*
X150841951Y-83060424D01*
X150846737Y-83054880D01*
X150972540Y-82909134D01*
X150972540Y-82909133D01*
X150976564Y-82904472D01*
X150997387Y-82867818D01*
X151015056Y-82836714D01*
X151078323Y-82725344D01*
X151143351Y-82529863D01*
X151169171Y-82325474D01*
X151169583Y-82296000D01*
X151168138Y-82281262D01*
X151598520Y-82281262D01*
X151615759Y-82486553D01*
X151617458Y-82492478D01*
X151666868Y-82664790D01*
X151672544Y-82684586D01*
X151675359Y-82690063D01*
X151675360Y-82690066D01*
X151763897Y-82862341D01*
X151766712Y-82867818D01*
X151894677Y-83029270D01*
X151899370Y-83033264D01*
X151946717Y-83073559D01*
X152051564Y-83162791D01*
X152231398Y-83263297D01*
X152300846Y-83285862D01*
X152421471Y-83325056D01*
X152421475Y-83325057D01*
X152427329Y-83326959D01*
X152631894Y-83351351D01*
X152638029Y-83350879D01*
X152638031Y-83350879D01*
X152694039Y-83346569D01*
X152837300Y-83335546D01*
X152843230Y-83333890D01*
X152843232Y-83333890D01*
X153029797Y-83281800D01*
X153029796Y-83281800D01*
X153035725Y-83280145D01*
X153041214Y-83277372D01*
X153041220Y-83277370D01*
X153214116Y-83190033D01*
X153219610Y-83187258D01*
X153381951Y-83060424D01*
X153386737Y-83054880D01*
X153512540Y-82909134D01*
X153512540Y-82909133D01*
X153516564Y-82904472D01*
X153537387Y-82867818D01*
X153555056Y-82836714D01*
X153618323Y-82725344D01*
X153683351Y-82529863D01*
X153709171Y-82325474D01*
X153709583Y-82296000D01*
X153708138Y-82281262D01*
X154138520Y-82281262D01*
X154155759Y-82486553D01*
X154157458Y-82492478D01*
X154206868Y-82664790D01*
X154212544Y-82684586D01*
X154215359Y-82690063D01*
X154215360Y-82690066D01*
X154303897Y-82862341D01*
X154306712Y-82867818D01*
X154434677Y-83029270D01*
X154439370Y-83033264D01*
X154486717Y-83073559D01*
X154591564Y-83162791D01*
X154771398Y-83263297D01*
X154840846Y-83285862D01*
X154961471Y-83325056D01*
X154961475Y-83325057D01*
X154967329Y-83326959D01*
X155171894Y-83351351D01*
X155178029Y-83350879D01*
X155178031Y-83350879D01*
X155234039Y-83346569D01*
X155377300Y-83335546D01*
X155383230Y-83333890D01*
X155383232Y-83333890D01*
X155569797Y-83281800D01*
X155569796Y-83281800D01*
X155575725Y-83280145D01*
X155581214Y-83277372D01*
X155581220Y-83277370D01*
X155754116Y-83190033D01*
X155759610Y-83187258D01*
X155921951Y-83060424D01*
X155926737Y-83054880D01*
X156052540Y-82909134D01*
X156052540Y-82909133D01*
X156056564Y-82904472D01*
X156077387Y-82867818D01*
X156095056Y-82836714D01*
X156158323Y-82725344D01*
X156223351Y-82529863D01*
X156249171Y-82325474D01*
X156249583Y-82296000D01*
X156248138Y-82281262D01*
X156678520Y-82281262D01*
X156695759Y-82486553D01*
X156697458Y-82492478D01*
X156746868Y-82664790D01*
X156752544Y-82684586D01*
X156755359Y-82690063D01*
X156755360Y-82690066D01*
X156843897Y-82862341D01*
X156846712Y-82867818D01*
X156974677Y-83029270D01*
X156979370Y-83033264D01*
X157026717Y-83073559D01*
X157131564Y-83162791D01*
X157311398Y-83263297D01*
X157380846Y-83285862D01*
X157501471Y-83325056D01*
X157501475Y-83325057D01*
X157507329Y-83326959D01*
X157711894Y-83351351D01*
X157718029Y-83350879D01*
X157718031Y-83350879D01*
X157774039Y-83346569D01*
X157917300Y-83335546D01*
X157923230Y-83333890D01*
X157923232Y-83333890D01*
X158109797Y-83281800D01*
X158109796Y-83281800D01*
X158115725Y-83280145D01*
X158121214Y-83277372D01*
X158121220Y-83277370D01*
X158294116Y-83190033D01*
X158299610Y-83187258D01*
X158461951Y-83060424D01*
X158466737Y-83054880D01*
X158592540Y-82909134D01*
X158592540Y-82909133D01*
X158596564Y-82904472D01*
X158617387Y-82867818D01*
X158635056Y-82836714D01*
X158698323Y-82725344D01*
X158763351Y-82529863D01*
X158789171Y-82325474D01*
X158789583Y-82296000D01*
X158788138Y-82281262D01*
X159218520Y-82281262D01*
X159235759Y-82486553D01*
X159237458Y-82492478D01*
X159286868Y-82664790D01*
X159292544Y-82684586D01*
X159295359Y-82690063D01*
X159295360Y-82690066D01*
X159383897Y-82862341D01*
X159386712Y-82867818D01*
X159514677Y-83029270D01*
X159519370Y-83033264D01*
X159566717Y-83073559D01*
X159671564Y-83162791D01*
X159851398Y-83263297D01*
X159920846Y-83285862D01*
X160041471Y-83325056D01*
X160041475Y-83325057D01*
X160047329Y-83326959D01*
X160251894Y-83351351D01*
X160258029Y-83350879D01*
X160258031Y-83350879D01*
X160314039Y-83346569D01*
X160457300Y-83335546D01*
X160463230Y-83333890D01*
X160463232Y-83333890D01*
X160649797Y-83281800D01*
X160649796Y-83281800D01*
X160655725Y-83280145D01*
X160661214Y-83277372D01*
X160661220Y-83277370D01*
X160834116Y-83190033D01*
X160839610Y-83187258D01*
X161001951Y-83060424D01*
X161006737Y-83054880D01*
X161132540Y-82909134D01*
X161132540Y-82909133D01*
X161136564Y-82904472D01*
X161157387Y-82867818D01*
X161175056Y-82836714D01*
X161238323Y-82725344D01*
X161303351Y-82529863D01*
X161329171Y-82325474D01*
X161329583Y-82296000D01*
X161328138Y-82281262D01*
X161758520Y-82281262D01*
X161775759Y-82486553D01*
X161777458Y-82492478D01*
X161826868Y-82664790D01*
X161832544Y-82684586D01*
X161835359Y-82690063D01*
X161835360Y-82690066D01*
X161923897Y-82862341D01*
X161926712Y-82867818D01*
X162054677Y-83029270D01*
X162059370Y-83033264D01*
X162106717Y-83073559D01*
X162211564Y-83162791D01*
X162391398Y-83263297D01*
X162460846Y-83285862D01*
X162581471Y-83325056D01*
X162581475Y-83325057D01*
X162587329Y-83326959D01*
X162791894Y-83351351D01*
X162798029Y-83350879D01*
X162798031Y-83350879D01*
X162854039Y-83346569D01*
X162997300Y-83335546D01*
X163003230Y-83333890D01*
X163003232Y-83333890D01*
X163189797Y-83281800D01*
X163189796Y-83281800D01*
X163195725Y-83280145D01*
X163201214Y-83277372D01*
X163201220Y-83277370D01*
X163374116Y-83190033D01*
X163379610Y-83187258D01*
X163541951Y-83060424D01*
X163546737Y-83054880D01*
X163672540Y-82909134D01*
X163672540Y-82909133D01*
X163676564Y-82904472D01*
X163697387Y-82867818D01*
X163715056Y-82836714D01*
X163778323Y-82725344D01*
X163843351Y-82529863D01*
X163869171Y-82325474D01*
X163869583Y-82296000D01*
X163868138Y-82281262D01*
X164298520Y-82281262D01*
X164315759Y-82486553D01*
X164317458Y-82492478D01*
X164366868Y-82664790D01*
X164372544Y-82684586D01*
X164375359Y-82690063D01*
X164375360Y-82690066D01*
X164463897Y-82862341D01*
X164466712Y-82867818D01*
X164594677Y-83029270D01*
X164599370Y-83033264D01*
X164646717Y-83073559D01*
X164751564Y-83162791D01*
X164931398Y-83263297D01*
X165000846Y-83285862D01*
X165121471Y-83325056D01*
X165121475Y-83325057D01*
X165127329Y-83326959D01*
X165331894Y-83351351D01*
X165338029Y-83350879D01*
X165338031Y-83350879D01*
X165394039Y-83346569D01*
X165537300Y-83335546D01*
X165543230Y-83333890D01*
X165543232Y-83333890D01*
X165729797Y-83281800D01*
X165729796Y-83281800D01*
X165735725Y-83280145D01*
X165741214Y-83277372D01*
X165741220Y-83277370D01*
X165914116Y-83190033D01*
X165919610Y-83187258D01*
X166081951Y-83060424D01*
X166086737Y-83054880D01*
X166212540Y-82909134D01*
X166212540Y-82909133D01*
X166216564Y-82904472D01*
X166237387Y-82867818D01*
X166255056Y-82836714D01*
X166318323Y-82725344D01*
X166383351Y-82529863D01*
X166409171Y-82325474D01*
X166409583Y-82296000D01*
X166408138Y-82281262D01*
X166838520Y-82281262D01*
X166855759Y-82486553D01*
X166857458Y-82492478D01*
X166906868Y-82664790D01*
X166912544Y-82684586D01*
X166915359Y-82690063D01*
X166915360Y-82690066D01*
X167003897Y-82862341D01*
X167006712Y-82867818D01*
X167134677Y-83029270D01*
X167139370Y-83033264D01*
X167186717Y-83073559D01*
X167291564Y-83162791D01*
X167471398Y-83263297D01*
X167540846Y-83285862D01*
X167661471Y-83325056D01*
X167661475Y-83325057D01*
X167667329Y-83326959D01*
X167871894Y-83351351D01*
X167878029Y-83350879D01*
X167878031Y-83350879D01*
X167934039Y-83346569D01*
X168077300Y-83335546D01*
X168083230Y-83333890D01*
X168083232Y-83333890D01*
X168269797Y-83281800D01*
X168269796Y-83281800D01*
X168275725Y-83280145D01*
X168281214Y-83277372D01*
X168281220Y-83277370D01*
X168454116Y-83190033D01*
X168459610Y-83187258D01*
X168621951Y-83060424D01*
X168626737Y-83054880D01*
X168752540Y-82909134D01*
X168752540Y-82909133D01*
X168756564Y-82904472D01*
X168777387Y-82867818D01*
X168795056Y-82836714D01*
X168858323Y-82725344D01*
X168923351Y-82529863D01*
X168949171Y-82325474D01*
X168949583Y-82296000D01*
X168948138Y-82281262D01*
X169378520Y-82281262D01*
X169395759Y-82486553D01*
X169397458Y-82492478D01*
X169446868Y-82664790D01*
X169452544Y-82684586D01*
X169455359Y-82690063D01*
X169455360Y-82690066D01*
X169543897Y-82862341D01*
X169546712Y-82867818D01*
X169674677Y-83029270D01*
X169679370Y-83033264D01*
X169726717Y-83073559D01*
X169831564Y-83162791D01*
X170011398Y-83263297D01*
X170080846Y-83285862D01*
X170201471Y-83325056D01*
X170201475Y-83325057D01*
X170207329Y-83326959D01*
X170411894Y-83351351D01*
X170418029Y-83350879D01*
X170418031Y-83350879D01*
X170474039Y-83346569D01*
X170617300Y-83335546D01*
X170623230Y-83333890D01*
X170623232Y-83333890D01*
X170809797Y-83281800D01*
X170809796Y-83281800D01*
X170815725Y-83280145D01*
X170821214Y-83277372D01*
X170821220Y-83277370D01*
X170994116Y-83190033D01*
X170999610Y-83187258D01*
X171161951Y-83060424D01*
X171166737Y-83054880D01*
X171292540Y-82909134D01*
X171292540Y-82909133D01*
X171296564Y-82904472D01*
X171317387Y-82867818D01*
X171335056Y-82836714D01*
X171398323Y-82725344D01*
X171463351Y-82529863D01*
X171489171Y-82325474D01*
X171489583Y-82296000D01*
X171488138Y-82281262D01*
X171918520Y-82281262D01*
X171935759Y-82486553D01*
X171937458Y-82492478D01*
X171986868Y-82664790D01*
X171992544Y-82684586D01*
X171995359Y-82690063D01*
X171995360Y-82690066D01*
X172083897Y-82862341D01*
X172086712Y-82867818D01*
X172214677Y-83029270D01*
X172219370Y-83033264D01*
X172266717Y-83073559D01*
X172371564Y-83162791D01*
X172551398Y-83263297D01*
X172620846Y-83285862D01*
X172741471Y-83325056D01*
X172741475Y-83325057D01*
X172747329Y-83326959D01*
X172951894Y-83351351D01*
X172958029Y-83350879D01*
X172958031Y-83350879D01*
X173014039Y-83346569D01*
X173157300Y-83335546D01*
X173163230Y-83333890D01*
X173163232Y-83333890D01*
X173349797Y-83281800D01*
X173349796Y-83281800D01*
X173355725Y-83280145D01*
X173361214Y-83277372D01*
X173361220Y-83277370D01*
X173534116Y-83190033D01*
X173539610Y-83187258D01*
X173701951Y-83060424D01*
X173706737Y-83054880D01*
X173832540Y-82909134D01*
X173832540Y-82909133D01*
X173836564Y-82904472D01*
X173857387Y-82867818D01*
X173875056Y-82836714D01*
X173938323Y-82725344D01*
X174003351Y-82529863D01*
X174029171Y-82325474D01*
X174029583Y-82296000D01*
X174009480Y-82090970D01*
X173949935Y-81893749D01*
X173853218Y-81711849D01*
X173777216Y-81618662D01*
X173726906Y-81556975D01*
X173726903Y-81556972D01*
X173723011Y-81552200D01*
X173718262Y-81548271D01*
X173569025Y-81424811D01*
X173569021Y-81424809D01*
X173564275Y-81420882D01*
X173383055Y-81322897D01*
X173186254Y-81261977D01*
X173180129Y-81261333D01*
X173180128Y-81261333D01*
X172987498Y-81241087D01*
X172987496Y-81241087D01*
X172981369Y-81240443D01*
X172894529Y-81248346D01*
X172782342Y-81258555D01*
X172782339Y-81258556D01*
X172776203Y-81259114D01*
X172578572Y-81317280D01*
X172396002Y-81412726D01*
X172391201Y-81416586D01*
X172391198Y-81416588D01*
X172380971Y-81424811D01*
X172235447Y-81541815D01*
X172103024Y-81699630D01*
X172100056Y-81705028D01*
X172100053Y-81705033D01*
X172093315Y-81717290D01*
X172003776Y-81880162D01*
X171941484Y-82076532D01*
X171940798Y-82082649D01*
X171940797Y-82082653D01*
X171921177Y-82257574D01*
X171918520Y-82281262D01*
X171488138Y-82281262D01*
X171469480Y-82090970D01*
X171409935Y-81893749D01*
X171313218Y-81711849D01*
X171237216Y-81618662D01*
X171186906Y-81556975D01*
X171186903Y-81556972D01*
X171183011Y-81552200D01*
X171178262Y-81548271D01*
X171029025Y-81424811D01*
X171029021Y-81424809D01*
X171024275Y-81420882D01*
X170843055Y-81322897D01*
X170646254Y-81261977D01*
X170640129Y-81261333D01*
X170640128Y-81261333D01*
X170447498Y-81241087D01*
X170447496Y-81241087D01*
X170441369Y-81240443D01*
X170354529Y-81248346D01*
X170242342Y-81258555D01*
X170242339Y-81258556D01*
X170236203Y-81259114D01*
X170038572Y-81317280D01*
X169856002Y-81412726D01*
X169851201Y-81416586D01*
X169851198Y-81416588D01*
X169840971Y-81424811D01*
X169695447Y-81541815D01*
X169563024Y-81699630D01*
X169560056Y-81705028D01*
X169560053Y-81705033D01*
X169553315Y-81717290D01*
X169463776Y-81880162D01*
X169401484Y-82076532D01*
X169400798Y-82082649D01*
X169400797Y-82082653D01*
X169381177Y-82257574D01*
X169378520Y-82281262D01*
X168948138Y-82281262D01*
X168929480Y-82090970D01*
X168869935Y-81893749D01*
X168773218Y-81711849D01*
X168697216Y-81618662D01*
X168646906Y-81556975D01*
X168646903Y-81556972D01*
X168643011Y-81552200D01*
X168638262Y-81548271D01*
X168489025Y-81424811D01*
X168489021Y-81424809D01*
X168484275Y-81420882D01*
X168303055Y-81322897D01*
X168106254Y-81261977D01*
X168100129Y-81261333D01*
X168100128Y-81261333D01*
X167907498Y-81241087D01*
X167907496Y-81241087D01*
X167901369Y-81240443D01*
X167814529Y-81248346D01*
X167702342Y-81258555D01*
X167702339Y-81258556D01*
X167696203Y-81259114D01*
X167498572Y-81317280D01*
X167316002Y-81412726D01*
X167311201Y-81416586D01*
X167311198Y-81416588D01*
X167300971Y-81424811D01*
X167155447Y-81541815D01*
X167023024Y-81699630D01*
X167020056Y-81705028D01*
X167020053Y-81705033D01*
X167013315Y-81717290D01*
X166923776Y-81880162D01*
X166861484Y-82076532D01*
X166860798Y-82082649D01*
X166860797Y-82082653D01*
X166841177Y-82257574D01*
X166838520Y-82281262D01*
X166408138Y-82281262D01*
X166389480Y-82090970D01*
X166329935Y-81893749D01*
X166233218Y-81711849D01*
X166157216Y-81618662D01*
X166106906Y-81556975D01*
X166106903Y-81556972D01*
X166103011Y-81552200D01*
X166098262Y-81548271D01*
X165949025Y-81424811D01*
X165949021Y-81424809D01*
X165944275Y-81420882D01*
X165763055Y-81322897D01*
X165566254Y-81261977D01*
X165560129Y-81261333D01*
X165560128Y-81261333D01*
X165367498Y-81241087D01*
X165367496Y-81241087D01*
X165361369Y-81240443D01*
X165274529Y-81248346D01*
X165162342Y-81258555D01*
X165162339Y-81258556D01*
X165156203Y-81259114D01*
X164958572Y-81317280D01*
X164776002Y-81412726D01*
X164771201Y-81416586D01*
X164771198Y-81416588D01*
X164760971Y-81424811D01*
X164615447Y-81541815D01*
X164483024Y-81699630D01*
X164480056Y-81705028D01*
X164480053Y-81705033D01*
X164473315Y-81717290D01*
X164383776Y-81880162D01*
X164321484Y-82076532D01*
X164320798Y-82082649D01*
X164320797Y-82082653D01*
X164301177Y-82257574D01*
X164298520Y-82281262D01*
X163868138Y-82281262D01*
X163849480Y-82090970D01*
X163789935Y-81893749D01*
X163693218Y-81711849D01*
X163617216Y-81618662D01*
X163566906Y-81556975D01*
X163566903Y-81556972D01*
X163563011Y-81552200D01*
X163558262Y-81548271D01*
X163409025Y-81424811D01*
X163409021Y-81424809D01*
X163404275Y-81420882D01*
X163223055Y-81322897D01*
X163026254Y-81261977D01*
X163020129Y-81261333D01*
X163020128Y-81261333D01*
X162827498Y-81241087D01*
X162827496Y-81241087D01*
X162821369Y-81240443D01*
X162734529Y-81248346D01*
X162622342Y-81258555D01*
X162622339Y-81258556D01*
X162616203Y-81259114D01*
X162418572Y-81317280D01*
X162236002Y-81412726D01*
X162231201Y-81416586D01*
X162231198Y-81416588D01*
X162220971Y-81424811D01*
X162075447Y-81541815D01*
X161943024Y-81699630D01*
X161940056Y-81705028D01*
X161940053Y-81705033D01*
X161933315Y-81717290D01*
X161843776Y-81880162D01*
X161781484Y-82076532D01*
X161780798Y-82082649D01*
X161780797Y-82082653D01*
X161761177Y-82257574D01*
X161758520Y-82281262D01*
X161328138Y-82281262D01*
X161309480Y-82090970D01*
X161249935Y-81893749D01*
X161153218Y-81711849D01*
X161077216Y-81618662D01*
X161026906Y-81556975D01*
X161026903Y-81556972D01*
X161023011Y-81552200D01*
X161018262Y-81548271D01*
X160869025Y-81424811D01*
X160869021Y-81424809D01*
X160864275Y-81420882D01*
X160683055Y-81322897D01*
X160486254Y-81261977D01*
X160480129Y-81261333D01*
X160480128Y-81261333D01*
X160287498Y-81241087D01*
X160287496Y-81241087D01*
X160281369Y-81240443D01*
X160194529Y-81248346D01*
X160082342Y-81258555D01*
X160082339Y-81258556D01*
X160076203Y-81259114D01*
X159878572Y-81317280D01*
X159696002Y-81412726D01*
X159691201Y-81416586D01*
X159691198Y-81416588D01*
X159680971Y-81424811D01*
X159535447Y-81541815D01*
X159403024Y-81699630D01*
X159400056Y-81705028D01*
X159400053Y-81705033D01*
X159393315Y-81717290D01*
X159303776Y-81880162D01*
X159241484Y-82076532D01*
X159240798Y-82082649D01*
X159240797Y-82082653D01*
X159221177Y-82257574D01*
X159218520Y-82281262D01*
X158788138Y-82281262D01*
X158769480Y-82090970D01*
X158709935Y-81893749D01*
X158613218Y-81711849D01*
X158537216Y-81618662D01*
X158486906Y-81556975D01*
X158486903Y-81556972D01*
X158483011Y-81552200D01*
X158478262Y-81548271D01*
X158329025Y-81424811D01*
X158329021Y-81424809D01*
X158324275Y-81420882D01*
X158143055Y-81322897D01*
X157946254Y-81261977D01*
X157940129Y-81261333D01*
X157940128Y-81261333D01*
X157747498Y-81241087D01*
X157747496Y-81241087D01*
X157741369Y-81240443D01*
X157654529Y-81248346D01*
X157542342Y-81258555D01*
X157542339Y-81258556D01*
X157536203Y-81259114D01*
X157338572Y-81317280D01*
X157156002Y-81412726D01*
X157151201Y-81416586D01*
X157151198Y-81416588D01*
X157140971Y-81424811D01*
X156995447Y-81541815D01*
X156863024Y-81699630D01*
X156860056Y-81705028D01*
X156860053Y-81705033D01*
X156853315Y-81717290D01*
X156763776Y-81880162D01*
X156701484Y-82076532D01*
X156700798Y-82082649D01*
X156700797Y-82082653D01*
X156681177Y-82257574D01*
X156678520Y-82281262D01*
X156248138Y-82281262D01*
X156229480Y-82090970D01*
X156169935Y-81893749D01*
X156073218Y-81711849D01*
X155997216Y-81618662D01*
X155946906Y-81556975D01*
X155946903Y-81556972D01*
X155943011Y-81552200D01*
X155938262Y-81548271D01*
X155789025Y-81424811D01*
X155789021Y-81424809D01*
X155784275Y-81420882D01*
X155603055Y-81322897D01*
X155406254Y-81261977D01*
X155400129Y-81261333D01*
X155400128Y-81261333D01*
X155207498Y-81241087D01*
X155207496Y-81241087D01*
X155201369Y-81240443D01*
X155114529Y-81248346D01*
X155002342Y-81258555D01*
X155002339Y-81258556D01*
X154996203Y-81259114D01*
X154798572Y-81317280D01*
X154616002Y-81412726D01*
X154611201Y-81416586D01*
X154611198Y-81416588D01*
X154600971Y-81424811D01*
X154455447Y-81541815D01*
X154323024Y-81699630D01*
X154320056Y-81705028D01*
X154320053Y-81705033D01*
X154313315Y-81717290D01*
X154223776Y-81880162D01*
X154161484Y-82076532D01*
X154160798Y-82082649D01*
X154160797Y-82082653D01*
X154141177Y-82257574D01*
X154138520Y-82281262D01*
X153708138Y-82281262D01*
X153689480Y-82090970D01*
X153629935Y-81893749D01*
X153533218Y-81711849D01*
X153457216Y-81618662D01*
X153406906Y-81556975D01*
X153406903Y-81556972D01*
X153403011Y-81552200D01*
X153398262Y-81548271D01*
X153249025Y-81424811D01*
X153249021Y-81424809D01*
X153244275Y-81420882D01*
X153063055Y-81322897D01*
X152866254Y-81261977D01*
X152860129Y-81261333D01*
X152860128Y-81261333D01*
X152667498Y-81241087D01*
X152667496Y-81241087D01*
X152661369Y-81240443D01*
X152574529Y-81248346D01*
X152462342Y-81258555D01*
X152462339Y-81258556D01*
X152456203Y-81259114D01*
X152258572Y-81317280D01*
X152076002Y-81412726D01*
X152071201Y-81416586D01*
X152071198Y-81416588D01*
X152060971Y-81424811D01*
X151915447Y-81541815D01*
X151783024Y-81699630D01*
X151780056Y-81705028D01*
X151780053Y-81705033D01*
X151773315Y-81717290D01*
X151683776Y-81880162D01*
X151621484Y-82076532D01*
X151620798Y-82082649D01*
X151620797Y-82082653D01*
X151601177Y-82257574D01*
X151598520Y-82281262D01*
X151168138Y-82281262D01*
X151149480Y-82090970D01*
X151089935Y-81893749D01*
X150993218Y-81711849D01*
X150917216Y-81618662D01*
X150866906Y-81556975D01*
X150866903Y-81556972D01*
X150863011Y-81552200D01*
X150858262Y-81548271D01*
X150709025Y-81424811D01*
X150709021Y-81424809D01*
X150704275Y-81420882D01*
X150523055Y-81322897D01*
X150326254Y-81261977D01*
X150320129Y-81261333D01*
X150320128Y-81261333D01*
X150127498Y-81241087D01*
X150127496Y-81241087D01*
X150121369Y-81240443D01*
X150034529Y-81248346D01*
X149922342Y-81258555D01*
X149922339Y-81258556D01*
X149916203Y-81259114D01*
X149718572Y-81317280D01*
X149536002Y-81412726D01*
X149531201Y-81416586D01*
X149531198Y-81416588D01*
X149520971Y-81424811D01*
X149375447Y-81541815D01*
X149243024Y-81699630D01*
X149240056Y-81705028D01*
X149240053Y-81705033D01*
X149233315Y-81717290D01*
X149143776Y-81880162D01*
X149081484Y-82076532D01*
X149080798Y-82082649D01*
X149080797Y-82082653D01*
X149061177Y-82257574D01*
X149058520Y-82281262D01*
X148628138Y-82281262D01*
X148609480Y-82090970D01*
X148549935Y-81893749D01*
X148453218Y-81711849D01*
X148377216Y-81618662D01*
X148326906Y-81556975D01*
X148326903Y-81556972D01*
X148323011Y-81552200D01*
X148318262Y-81548271D01*
X148169025Y-81424811D01*
X148169021Y-81424809D01*
X148164275Y-81420882D01*
X147983055Y-81322897D01*
X147786254Y-81261977D01*
X147780129Y-81261333D01*
X147780128Y-81261333D01*
X147587498Y-81241087D01*
X147587496Y-81241087D01*
X147581369Y-81240443D01*
X147494529Y-81248346D01*
X147382342Y-81258555D01*
X147382339Y-81258556D01*
X147376203Y-81259114D01*
X147178572Y-81317280D01*
X146996002Y-81412726D01*
X146991201Y-81416586D01*
X146991198Y-81416588D01*
X146980971Y-81424811D01*
X146835447Y-81541815D01*
X146703024Y-81699630D01*
X146700056Y-81705028D01*
X146700053Y-81705033D01*
X146693315Y-81717290D01*
X146603776Y-81880162D01*
X146541484Y-82076532D01*
X146540798Y-82082649D01*
X146540797Y-82082653D01*
X146521177Y-82257574D01*
X146518520Y-82281262D01*
X146088138Y-82281262D01*
X146069480Y-82090970D01*
X146009935Y-81893749D01*
X145913218Y-81711849D01*
X145837216Y-81618662D01*
X145786906Y-81556975D01*
X145786903Y-81556972D01*
X145783011Y-81552200D01*
X145778262Y-81548271D01*
X145629025Y-81424811D01*
X145629021Y-81424809D01*
X145624275Y-81420882D01*
X145443055Y-81322897D01*
X145246254Y-81261977D01*
X145240129Y-81261333D01*
X145240128Y-81261333D01*
X145047498Y-81241087D01*
X145047496Y-81241087D01*
X145041369Y-81240443D01*
X144954529Y-81248346D01*
X144842342Y-81258555D01*
X144842339Y-81258556D01*
X144836203Y-81259114D01*
X144638572Y-81317280D01*
X144456002Y-81412726D01*
X144451201Y-81416586D01*
X144451198Y-81416588D01*
X144440971Y-81424811D01*
X144295447Y-81541815D01*
X144163024Y-81699630D01*
X144160056Y-81705028D01*
X144160053Y-81705033D01*
X144153315Y-81717290D01*
X144063776Y-81880162D01*
X144001484Y-82076532D01*
X144000798Y-82082649D01*
X144000797Y-82082653D01*
X143981177Y-82257574D01*
X143978520Y-82281262D01*
X143548138Y-82281262D01*
X143529480Y-82090970D01*
X143469935Y-81893749D01*
X143373218Y-81711849D01*
X143297216Y-81618662D01*
X143246906Y-81556975D01*
X143246903Y-81556972D01*
X143243011Y-81552200D01*
X143238262Y-81548271D01*
X143089025Y-81424811D01*
X143089021Y-81424809D01*
X143084275Y-81420882D01*
X142903055Y-81322897D01*
X142706254Y-81261977D01*
X142700129Y-81261333D01*
X142700128Y-81261333D01*
X142507498Y-81241087D01*
X142507496Y-81241087D01*
X142501369Y-81240443D01*
X142414529Y-81248346D01*
X142302342Y-81258555D01*
X142302339Y-81258556D01*
X142296203Y-81259114D01*
X142098572Y-81317280D01*
X141916002Y-81412726D01*
X141911201Y-81416586D01*
X141911198Y-81416588D01*
X141900971Y-81424811D01*
X141755447Y-81541815D01*
X141623024Y-81699630D01*
X141620056Y-81705028D01*
X141620053Y-81705033D01*
X141613315Y-81717290D01*
X141523776Y-81880162D01*
X141461484Y-82076532D01*
X141460798Y-82082649D01*
X141460797Y-82082653D01*
X141441177Y-82257574D01*
X141438520Y-82281262D01*
X141008138Y-82281262D01*
X140989480Y-82090970D01*
X140929935Y-81893749D01*
X140833218Y-81711849D01*
X140757216Y-81618662D01*
X140706906Y-81556975D01*
X140706903Y-81556972D01*
X140703011Y-81552200D01*
X140698262Y-81548271D01*
X140549025Y-81424811D01*
X140549021Y-81424809D01*
X140544275Y-81420882D01*
X140363055Y-81322897D01*
X140166254Y-81261977D01*
X140160129Y-81261333D01*
X140160128Y-81261333D01*
X139967498Y-81241087D01*
X139967496Y-81241087D01*
X139961369Y-81240443D01*
X139874529Y-81248346D01*
X139762342Y-81258555D01*
X139762339Y-81258556D01*
X139756203Y-81259114D01*
X139558572Y-81317280D01*
X139376002Y-81412726D01*
X139371201Y-81416586D01*
X139371198Y-81416588D01*
X139360971Y-81424811D01*
X139215447Y-81541815D01*
X139083024Y-81699630D01*
X139080056Y-81705028D01*
X139080053Y-81705033D01*
X139073315Y-81717290D01*
X138983776Y-81880162D01*
X138921484Y-82076532D01*
X138920798Y-82082649D01*
X138920797Y-82082653D01*
X138901177Y-82257574D01*
X138898520Y-82281262D01*
X138468138Y-82281262D01*
X138449480Y-82090970D01*
X138389935Y-81893749D01*
X138293218Y-81711849D01*
X138217216Y-81618662D01*
X138166906Y-81556975D01*
X138166903Y-81556972D01*
X138163011Y-81552200D01*
X138158262Y-81548271D01*
X138009025Y-81424811D01*
X138009021Y-81424809D01*
X138004275Y-81420882D01*
X137823055Y-81322897D01*
X137626254Y-81261977D01*
X137620129Y-81261333D01*
X137620128Y-81261333D01*
X137427498Y-81241087D01*
X137427496Y-81241087D01*
X137421369Y-81240443D01*
X137334529Y-81248346D01*
X137222342Y-81258555D01*
X137222339Y-81258556D01*
X137216203Y-81259114D01*
X137018572Y-81317280D01*
X136836002Y-81412726D01*
X136831201Y-81416586D01*
X136831198Y-81416588D01*
X136820971Y-81424811D01*
X136675447Y-81541815D01*
X136543024Y-81699630D01*
X136540056Y-81705028D01*
X136540053Y-81705033D01*
X136533315Y-81717290D01*
X136443776Y-81880162D01*
X136381484Y-82076532D01*
X136380798Y-82082649D01*
X136380797Y-82082653D01*
X136361177Y-82257574D01*
X136358520Y-82281262D01*
X135928138Y-82281262D01*
X135909480Y-82090970D01*
X135849935Y-81893749D01*
X135753218Y-81711849D01*
X135677216Y-81618662D01*
X135626906Y-81556975D01*
X135626903Y-81556972D01*
X135623011Y-81552200D01*
X135618262Y-81548271D01*
X135469025Y-81424811D01*
X135469021Y-81424809D01*
X135464275Y-81420882D01*
X135283055Y-81322897D01*
X135086254Y-81261977D01*
X135080129Y-81261333D01*
X135080128Y-81261333D01*
X134887498Y-81241087D01*
X134887496Y-81241087D01*
X134881369Y-81240443D01*
X134794529Y-81248346D01*
X134682342Y-81258555D01*
X134682339Y-81258556D01*
X134676203Y-81259114D01*
X134478572Y-81317280D01*
X134296002Y-81412726D01*
X134291201Y-81416586D01*
X134291198Y-81416588D01*
X134280971Y-81424811D01*
X134135447Y-81541815D01*
X134003024Y-81699630D01*
X134000056Y-81705028D01*
X134000053Y-81705033D01*
X133993315Y-81717290D01*
X133903776Y-81880162D01*
X133841484Y-82076532D01*
X133840798Y-82082649D01*
X133840797Y-82082653D01*
X133821177Y-82257574D01*
X133818520Y-82281262D01*
X133388138Y-82281262D01*
X133369480Y-82090970D01*
X133309935Y-81893749D01*
X133213218Y-81711849D01*
X133137216Y-81618662D01*
X133086906Y-81556975D01*
X133086903Y-81556972D01*
X133083011Y-81552200D01*
X133078262Y-81548271D01*
X132929025Y-81424811D01*
X132929021Y-81424809D01*
X132924275Y-81420882D01*
X132743055Y-81322897D01*
X132546254Y-81261977D01*
X132540129Y-81261333D01*
X132540128Y-81261333D01*
X132347498Y-81241087D01*
X132347496Y-81241087D01*
X132341369Y-81240443D01*
X132254529Y-81248346D01*
X132142342Y-81258555D01*
X132142339Y-81258556D01*
X132136203Y-81259114D01*
X131938572Y-81317280D01*
X131756002Y-81412726D01*
X131751201Y-81416586D01*
X131751198Y-81416588D01*
X131740971Y-81424811D01*
X131595447Y-81541815D01*
X131463024Y-81699630D01*
X131460056Y-81705028D01*
X131460053Y-81705033D01*
X131453315Y-81717290D01*
X131363776Y-81880162D01*
X131361914Y-81886032D01*
X131345068Y-81939138D01*
X131305405Y-81998022D01*
X131240202Y-82026114D01*
X131170163Y-82014497D01*
X131117523Y-81966857D01*
X131102762Y-81931735D01*
X131085214Y-81861875D01*
X131081894Y-81852124D01*
X130996972Y-81656814D01*
X130992105Y-81647739D01*
X130927063Y-81547197D01*
X130916377Y-81537995D01*
X130906812Y-81542398D01*
X130166022Y-82283188D01*
X130158408Y-82297132D01*
X129428356Y-82297132D01*
X129429592Y-82294868D01*
X129429461Y-82293035D01*
X129425210Y-82286420D01*
X128683849Y-81545059D01*
X128672313Y-81538759D01*
X128660031Y-81548382D01*
X128612089Y-81618662D01*
X128607004Y-81627613D01*
X128517338Y-81820783D01*
X128513775Y-81830470D01*
X128456864Y-82035681D01*
X128454933Y-82045800D01*
X128432302Y-82257574D01*
X128432050Y-82267863D01*
X94489000Y-82267863D01*
X94489000Y-81172427D01*
X129035223Y-81172427D01*
X129041968Y-81184758D01*
X129781188Y-81923978D01*
X129795132Y-81931592D01*
X129796965Y-81931461D01*
X129803580Y-81927210D01*
X130547389Y-81183401D01*
X130554410Y-81170544D01*
X130547611Y-81161213D01*
X130543554Y-81158518D01*
X130357117Y-81055599D01*
X130347705Y-81051369D01*
X130146959Y-80980280D01*
X130136989Y-80977646D01*
X129927327Y-80940301D01*
X129917073Y-80939331D01*
X129704116Y-80936728D01*
X129693832Y-80937448D01*
X129483321Y-80969661D01*
X129473293Y-80972050D01*
X129270868Y-81038212D01*
X129261359Y-81042209D01*
X129072466Y-81140540D01*
X129063734Y-81146039D01*
X129043677Y-81161099D01*
X129035223Y-81172427D01*
X94489000Y-81172427D01*
X94489000Y-76974522D01*
X154673273Y-76974522D01*
X154720764Y-77151761D01*
X154724510Y-77162053D01*
X154816586Y-77359511D01*
X154822069Y-77369007D01*
X154947028Y-77547467D01*
X154954084Y-77555875D01*
X155108125Y-77709916D01*
X155116533Y-77716972D01*
X155294993Y-77841931D01*
X155304489Y-77847414D01*
X155501947Y-77939490D01*
X155512239Y-77943236D01*
X155684503Y-77989394D01*
X155698599Y-77989058D01*
X155702000Y-77981116D01*
X155702000Y-77975967D01*
X156210000Y-77975967D01*
X156213973Y-77989498D01*
X156222522Y-77990727D01*
X156399761Y-77943236D01*
X156410053Y-77939490D01*
X156607511Y-77847414D01*
X156617007Y-77841931D01*
X156795467Y-77716972D01*
X156803875Y-77709916D01*
X156957916Y-77555875D01*
X156964972Y-77547467D01*
X157089931Y-77369007D01*
X157095414Y-77359511D01*
X157187490Y-77162053D01*
X157191236Y-77151761D01*
X157237394Y-76979497D01*
X157237058Y-76965401D01*
X157229116Y-76962000D01*
X156228115Y-76962000D01*
X156212876Y-76966475D01*
X156211671Y-76967865D01*
X156210000Y-76975548D01*
X156210000Y-77975967D01*
X155702000Y-77975967D01*
X155702000Y-76980115D01*
X155697525Y-76964876D01*
X155696135Y-76963671D01*
X155688452Y-76962000D01*
X154688033Y-76962000D01*
X154674502Y-76965973D01*
X154673273Y-76974522D01*
X94489000Y-76974522D01*
X94489000Y-76693963D01*
X165110757Y-76693963D01*
X165127175Y-76889483D01*
X165181258Y-77078091D01*
X165184076Y-77083574D01*
X165268123Y-77247113D01*
X165268126Y-77247117D01*
X165270944Y-77252601D01*
X165392818Y-77406369D01*
X165542238Y-77533535D01*
X165547616Y-77536541D01*
X165547618Y-77536542D01*
X165582211Y-77555875D01*
X165713513Y-77629257D01*
X165900118Y-77689889D01*
X166094946Y-77713121D01*
X166101081Y-77712649D01*
X166101083Y-77712649D01*
X166284434Y-77698541D01*
X166284438Y-77698540D01*
X166290576Y-77698068D01*
X166479556Y-77645303D01*
X166654689Y-77556837D01*
X166684515Y-77533535D01*
X166804453Y-77439829D01*
X166809303Y-77436040D01*
X166839084Y-77401539D01*
X166933485Y-77292173D01*
X166933485Y-77292172D01*
X166937509Y-77287511D01*
X167034425Y-77116909D01*
X167096358Y-76930732D01*
X167120949Y-76736071D01*
X167121341Y-76708000D01*
X167102194Y-76512728D01*
X167100413Y-76506829D01*
X167100412Y-76506824D01*
X167047265Y-76330793D01*
X167045484Y-76324894D01*
X166953370Y-76151653D01*
X166829361Y-75999602D01*
X166678180Y-75874535D01*
X166505585Y-75781213D01*
X166411868Y-75752203D01*
X166324039Y-75725015D01*
X166324036Y-75725014D01*
X166318152Y-75723193D01*
X166312027Y-75722549D01*
X166312026Y-75722549D01*
X166129147Y-75703327D01*
X166129146Y-75703327D01*
X166123019Y-75702683D01*
X166000383Y-75713844D01*
X165933759Y-75719907D01*
X165933758Y-75719907D01*
X165927618Y-75720466D01*
X165921704Y-75722207D01*
X165921702Y-75722207D01*
X165792734Y-75760165D01*
X165739393Y-75775864D01*
X165733928Y-75778721D01*
X165570972Y-75863912D01*
X165570968Y-75863915D01*
X165565512Y-75866767D01*
X165560712Y-75870627D01*
X165560711Y-75870627D01*
X165526326Y-75898273D01*
X165412600Y-75989711D01*
X165286480Y-76140016D01*
X165283516Y-76145408D01*
X165283513Y-76145412D01*
X165223846Y-76253947D01*
X165191956Y-76311954D01*
X165132628Y-76498978D01*
X165110757Y-76693963D01*
X94489000Y-76693963D01*
X94489000Y-76436503D01*
X154674606Y-76436503D01*
X154674942Y-76450599D01*
X154682884Y-76454000D01*
X155683885Y-76454000D01*
X155699124Y-76449525D01*
X155700329Y-76448135D01*
X155702000Y-76440452D01*
X155702000Y-76435885D01*
X156210000Y-76435885D01*
X156214475Y-76451124D01*
X156215865Y-76452329D01*
X156223548Y-76454000D01*
X157223967Y-76454000D01*
X157237498Y-76450027D01*
X157238727Y-76441478D01*
X157191236Y-76264239D01*
X157187490Y-76253947D01*
X157095414Y-76056489D01*
X157089931Y-76046993D01*
X156964972Y-75868533D01*
X156957916Y-75860125D01*
X156803875Y-75706084D01*
X156795467Y-75699028D01*
X156617007Y-75574069D01*
X156607511Y-75568586D01*
X156410053Y-75476510D01*
X156399761Y-75472764D01*
X156227497Y-75426606D01*
X156213401Y-75426942D01*
X156210000Y-75434884D01*
X156210000Y-76435885D01*
X155702000Y-76435885D01*
X155702000Y-75440033D01*
X155698027Y-75426502D01*
X155689478Y-75425273D01*
X155512239Y-75472764D01*
X155501947Y-75476510D01*
X155304489Y-75568586D01*
X155294993Y-75574069D01*
X155116533Y-75699028D01*
X155108125Y-75706084D01*
X154954084Y-75860125D01*
X154947028Y-75868533D01*
X154822069Y-76046993D01*
X154816586Y-76056489D01*
X154724510Y-76253947D01*
X154720764Y-76264239D01*
X154674606Y-76436503D01*
X94489000Y-76436503D01*
X94489000Y-72069669D01*
X96792001Y-72069669D01*
X96792371Y-72076490D01*
X96797895Y-72127352D01*
X96801521Y-72142604D01*
X96846676Y-72263054D01*
X96855214Y-72278649D01*
X96931715Y-72380724D01*
X96944276Y-72393285D01*
X97046351Y-72469786D01*
X97061946Y-72478324D01*
X97182394Y-72523478D01*
X97197649Y-72527105D01*
X97248514Y-72532631D01*
X97255328Y-72533000D01*
X97491961Y-72533000D01*
X97560082Y-72553002D01*
X97606575Y-72606658D01*
X97616679Y-72676932D01*
X97587185Y-72741512D01*
X97559890Y-72764350D01*
X97560009Y-72764513D01*
X97557628Y-72766243D01*
X97556381Y-72767287D01*
X97550371Y-72770862D01*
X97398305Y-72904220D01*
X97273089Y-73063057D01*
X97178914Y-73242053D01*
X97118937Y-73435213D01*
X97095164Y-73636069D01*
X97108392Y-73837894D01*
X97109815Y-73843496D01*
X97152957Y-74013369D01*
X97158178Y-74033928D01*
X97242856Y-74217607D01*
X97359588Y-74382780D01*
X97504466Y-74523913D01*
X97672637Y-74636282D01*
X97677940Y-74638560D01*
X97677943Y-74638562D01*
X97766291Y-74676519D01*
X97858470Y-74716122D01*
X98055740Y-74760760D01*
X98061509Y-74760987D01*
X98061512Y-74760987D01*
X98137683Y-74763979D01*
X98257842Y-74768700D01*
X98344132Y-74756189D01*
X98452286Y-74740508D01*
X98452291Y-74740507D01*
X98458007Y-74739678D01*
X98463479Y-74737820D01*
X98463481Y-74737820D01*
X98644067Y-74676519D01*
X98644069Y-74676518D01*
X98649531Y-74674664D01*
X98826001Y-74575837D01*
X98888433Y-74523913D01*
X98977073Y-74450191D01*
X98981505Y-74446505D01*
X99099138Y-74305068D01*
X99107146Y-74295439D01*
X99110837Y-74291001D01*
X99209664Y-74114531D01*
X99274678Y-73923007D01*
X99275507Y-73917291D01*
X99275508Y-73917286D01*
X99292809Y-73797956D01*
X99303700Y-73722842D01*
X99305215Y-73665000D01*
X99286708Y-73463591D01*
X99240842Y-73300963D01*
X112744757Y-73300963D01*
X112761175Y-73496483D01*
X112815258Y-73685091D01*
X112818076Y-73690574D01*
X112902123Y-73854113D01*
X112902126Y-73854117D01*
X112904944Y-73859601D01*
X113026818Y-74013369D01*
X113176238Y-74140535D01*
X113181616Y-74143541D01*
X113181618Y-74143542D01*
X113217932Y-74163837D01*
X113347513Y-74236257D01*
X113534118Y-74296889D01*
X113728946Y-74320121D01*
X113735081Y-74319649D01*
X113735083Y-74319649D01*
X113918434Y-74305541D01*
X113918438Y-74305540D01*
X113924576Y-74305068D01*
X114113556Y-74252303D01*
X114288689Y-74163837D01*
X114318515Y-74140535D01*
X114438453Y-74046829D01*
X114443303Y-74043040D01*
X114451169Y-74033928D01*
X114567485Y-73899173D01*
X114567485Y-73899172D01*
X114571509Y-73894511D01*
X114668425Y-73723909D01*
X114730358Y-73537732D01*
X114754949Y-73343071D01*
X114755341Y-73315000D01*
X114736194Y-73119728D01*
X114734413Y-73113829D01*
X114734412Y-73113824D01*
X114681265Y-72937793D01*
X114679484Y-72931894D01*
X114587370Y-72758653D01*
X114463361Y-72606602D01*
X114312180Y-72481535D01*
X114139585Y-72388213D01*
X114045868Y-72359203D01*
X113958039Y-72332015D01*
X113958036Y-72332014D01*
X113952152Y-72330193D01*
X113946027Y-72329549D01*
X113946026Y-72329549D01*
X113763147Y-72310327D01*
X113763146Y-72310327D01*
X113757019Y-72309683D01*
X113634383Y-72320844D01*
X113567759Y-72326907D01*
X113567758Y-72326907D01*
X113561618Y-72327466D01*
X113555704Y-72329207D01*
X113555702Y-72329207D01*
X113426734Y-72367165D01*
X113373393Y-72382864D01*
X113367928Y-72385721D01*
X113204972Y-72470912D01*
X113204968Y-72470915D01*
X113199512Y-72473767D01*
X113194712Y-72477627D01*
X113194711Y-72477627D01*
X113160326Y-72505273D01*
X113046600Y-72596711D01*
X112920480Y-72747016D01*
X112917516Y-72752408D01*
X112917513Y-72752412D01*
X112905276Y-72774672D01*
X112825956Y-72918954D01*
X112766628Y-73105978D01*
X112744757Y-73300963D01*
X99240842Y-73300963D01*
X99231807Y-73268926D01*
X99142351Y-73087527D01*
X99124079Y-73063057D01*
X99024788Y-72930091D01*
X99024787Y-72930090D01*
X99021335Y-72925467D01*
X99017099Y-72921551D01*
X98877053Y-72792094D01*
X98877051Y-72792092D01*
X98872812Y-72788174D01*
X98867934Y-72785096D01*
X98867922Y-72785087D01*
X98836973Y-72765560D01*
X98790035Y-72712294D01*
X98779347Y-72642106D01*
X98808301Y-72577282D01*
X98867706Y-72538403D01*
X98904209Y-72532999D01*
X99144669Y-72532999D01*
X99151490Y-72532629D01*
X99202352Y-72527105D01*
X99217604Y-72523479D01*
X99338054Y-72478324D01*
X99353649Y-72469786D01*
X99455724Y-72393285D01*
X99468285Y-72380724D01*
X99544786Y-72278649D01*
X99553324Y-72263054D01*
X99598478Y-72142606D01*
X99602105Y-72127351D01*
X99607631Y-72076486D01*
X99608000Y-72069672D01*
X99608000Y-71397115D01*
X99603525Y-71381876D01*
X99602135Y-71380671D01*
X99594452Y-71379000D01*
X96810116Y-71379000D01*
X96794877Y-71383475D01*
X96793672Y-71384865D01*
X96792001Y-71392548D01*
X96792001Y-72069669D01*
X94489000Y-72069669D01*
X94489000Y-70852885D01*
X96792000Y-70852885D01*
X96796475Y-70868124D01*
X96797865Y-70869329D01*
X96805548Y-70871000D01*
X97927885Y-70871000D01*
X97943124Y-70866525D01*
X97944329Y-70865135D01*
X97946000Y-70857452D01*
X97946000Y-70852885D01*
X98454000Y-70852885D01*
X98458475Y-70868124D01*
X98459865Y-70869329D01*
X98467548Y-70871000D01*
X99589884Y-70871000D01*
X99605123Y-70866525D01*
X99606328Y-70865135D01*
X99607999Y-70857452D01*
X99607999Y-70180331D01*
X99607629Y-70173510D01*
X99602105Y-70122648D01*
X99598479Y-70107396D01*
X99553324Y-69986946D01*
X99544786Y-69971351D01*
X99468285Y-69869276D01*
X99455724Y-69856715D01*
X99353649Y-69780214D01*
X99338054Y-69771676D01*
X99217606Y-69726522D01*
X99202351Y-69722895D01*
X99151486Y-69717369D01*
X99144672Y-69717000D01*
X98472115Y-69717000D01*
X98456876Y-69721475D01*
X98455671Y-69722865D01*
X98454000Y-69730548D01*
X98454000Y-70852885D01*
X97946000Y-70852885D01*
X97946000Y-69735116D01*
X97941525Y-69719877D01*
X97940135Y-69718672D01*
X97932452Y-69717001D01*
X97255331Y-69717001D01*
X97248510Y-69717371D01*
X97197648Y-69722895D01*
X97182396Y-69726521D01*
X97061946Y-69771676D01*
X97046351Y-69780214D01*
X96944276Y-69856715D01*
X96931715Y-69869276D01*
X96855214Y-69971351D01*
X96846676Y-69986946D01*
X96801522Y-70107394D01*
X96797895Y-70122649D01*
X96792369Y-70173514D01*
X96792000Y-70180328D01*
X96792000Y-70852885D01*
X94489000Y-70852885D01*
X94489000Y-63488113D01*
X96416527Y-63488113D01*
X96435162Y-63855971D01*
X96435699Y-63859326D01*
X96435700Y-63859332D01*
X96459336Y-64006894D01*
X96493416Y-64219665D01*
X96590608Y-64574941D01*
X96605156Y-64611872D01*
X96714751Y-64890094D01*
X96725602Y-64917642D01*
X96896817Y-65243759D01*
X96898718Y-65246588D01*
X96898724Y-65246598D01*
X97083707Y-65521879D01*
X97102252Y-65549477D01*
X97339502Y-65831221D01*
X97442006Y-65929176D01*
X97603329Y-66083341D01*
X97603336Y-66083347D01*
X97605792Y-66085694D01*
X97898008Y-66309919D01*
X98212731Y-66501274D01*
X98546279Y-66657519D01*
X98549497Y-66658621D01*
X98549500Y-66658622D01*
X98891528Y-66775725D01*
X98891536Y-66775727D01*
X98894751Y-66776828D01*
X99254070Y-66857804D01*
X99337002Y-66867253D01*
X99616650Y-66899115D01*
X99616658Y-66899115D01*
X99620033Y-66899500D01*
X99623437Y-66899518D01*
X99623440Y-66899518D01*
X99823074Y-66900563D01*
X99988358Y-66901428D01*
X99991744Y-66901078D01*
X99991746Y-66901078D01*
X100351345Y-66863918D01*
X100351354Y-66863917D01*
X100354737Y-66863567D01*
X100358070Y-66862853D01*
X100358073Y-66862852D01*
X100535488Y-66824817D01*
X100714884Y-66786358D01*
X101064586Y-66670705D01*
X101096487Y-66656167D01*
X159601500Y-66656167D01*
X159601501Y-68283832D01*
X159604481Y-68315368D01*
X159607024Y-68322609D01*
X159607024Y-68322610D01*
X159640183Y-68417032D01*
X159649366Y-68443183D01*
X159729850Y-68552150D01*
X159838817Y-68632634D01*
X159847704Y-68635755D01*
X159847706Y-68635756D01*
X159906325Y-68656341D01*
X159966632Y-68677519D01*
X159974278Y-68678242D01*
X159974279Y-68678242D01*
X159980249Y-68678806D01*
X159998167Y-68680500D01*
X160551719Y-68680500D01*
X161105832Y-68680499D01*
X161108782Y-68680220D01*
X161108787Y-68680220D01*
X161119406Y-68679216D01*
X161137368Y-68677519D01*
X161144609Y-68674976D01*
X161144610Y-68674976D01*
X161256294Y-68635756D01*
X161256296Y-68635755D01*
X161265183Y-68632634D01*
X161374150Y-68552150D01*
X161454634Y-68443183D01*
X161463818Y-68417032D01*
X161496974Y-68322615D01*
X161499519Y-68315368D01*
X161502500Y-68283833D01*
X161502500Y-67778259D01*
X162601500Y-67778259D01*
X162616112Y-67922110D01*
X162673856Y-68106373D01*
X162767472Y-68275261D01*
X162893136Y-68421875D01*
X162898178Y-68425786D01*
X162898179Y-68425787D01*
X163040665Y-68536311D01*
X163040668Y-68536313D01*
X163045714Y-68540227D01*
X163218974Y-68625481D01*
X163225144Y-68627088D01*
X163225149Y-68627090D01*
X163399655Y-68672545D01*
X163399658Y-68672545D01*
X163405837Y-68674155D01*
X163483803Y-68678241D01*
X163592290Y-68683927D01*
X163592294Y-68683927D01*
X163598671Y-68684261D01*
X163789599Y-68655386D01*
X163795595Y-68653180D01*
X163964832Y-68590914D01*
X163964836Y-68590912D01*
X163970821Y-68588710D01*
X164134934Y-68486955D01*
X164275235Y-68354279D01*
X164322498Y-68286781D01*
X164382327Y-68201335D01*
X164382328Y-68201334D01*
X164385991Y-68196102D01*
X164462680Y-68018885D01*
X164481625Y-67928201D01*
X164501177Y-67834612D01*
X164501177Y-67834608D01*
X164502168Y-67829867D01*
X164502500Y-67823532D01*
X164502500Y-67161741D01*
X164487888Y-67017890D01*
X164430144Y-66833627D01*
X164336528Y-66664739D01*
X164210864Y-66518125D01*
X164194854Y-66505706D01*
X164063335Y-66403689D01*
X164063332Y-66403687D01*
X164058286Y-66399773D01*
X163885026Y-66314519D01*
X163878856Y-66312912D01*
X163878851Y-66312910D01*
X163704345Y-66267455D01*
X163704342Y-66267455D01*
X163698163Y-66265845D01*
X163614797Y-66261476D01*
X163511710Y-66256073D01*
X163511706Y-66256073D01*
X163505329Y-66255739D01*
X163314401Y-66284614D01*
X163308406Y-66286820D01*
X163308405Y-66286820D01*
X163139168Y-66349086D01*
X163139164Y-66349088D01*
X163133179Y-66351290D01*
X162969066Y-66453045D01*
X162828765Y-66585721D01*
X162825103Y-66590951D01*
X162825102Y-66590952D01*
X162777364Y-66659130D01*
X162718009Y-66743898D01*
X162641320Y-66921115D01*
X162640015Y-66927362D01*
X162621103Y-67017890D01*
X162601832Y-67110133D01*
X162601500Y-67116468D01*
X162601500Y-67778259D01*
X161502500Y-67778259D01*
X161502499Y-66656168D01*
X161499519Y-66624632D01*
X161484314Y-66581334D01*
X161457756Y-66505706D01*
X161457755Y-66505704D01*
X161454634Y-66496817D01*
X161374150Y-66387850D01*
X161265183Y-66307366D01*
X161256296Y-66304245D01*
X161256294Y-66304244D01*
X161144615Y-66265026D01*
X161137368Y-66262481D01*
X161129722Y-66261758D01*
X161129721Y-66261758D01*
X161123751Y-66261194D01*
X161105833Y-66259500D01*
X160552281Y-66259500D01*
X159998168Y-66259501D01*
X159995218Y-66259780D01*
X159995213Y-66259780D01*
X159984594Y-66260784D01*
X159966632Y-66262481D01*
X159959391Y-66265024D01*
X159959390Y-66265024D01*
X159847706Y-66304244D01*
X159847704Y-66304245D01*
X159838817Y-66307366D01*
X159729850Y-66387850D01*
X159649366Y-66496817D01*
X159646245Y-66505704D01*
X159646244Y-66505706D01*
X159619686Y-66581334D01*
X159604481Y-66624632D01*
X159601500Y-66656167D01*
X101096487Y-66656167D01*
X101399752Y-66517961D01*
X101592208Y-66403689D01*
X101713516Y-66331662D01*
X101713521Y-66331659D01*
X101716461Y-66329913D01*
X101743091Y-66309919D01*
X102008276Y-66110812D01*
X102011009Y-66108760D01*
X102279950Y-65857089D01*
X102520138Y-65577846D01*
X102537838Y-65552093D01*
X102726831Y-65277104D01*
X102728762Y-65274295D01*
X102730374Y-65271301D01*
X102730379Y-65271293D01*
X102901761Y-64953001D01*
X102903383Y-64949989D01*
X103041958Y-64608720D01*
X103048774Y-64584794D01*
X103096111Y-64418614D01*
X103142865Y-64254482D01*
X103204925Y-63891418D01*
X103206888Y-63859332D01*
X103227301Y-63525572D01*
X103227411Y-63523775D01*
X103227494Y-63500000D01*
X103214356Y-63257410D01*
X160295862Y-63257410D01*
X160331028Y-63515804D01*
X160404000Y-63766162D01*
X160513177Y-64002984D01*
X160515737Y-64006889D01*
X160515740Y-64006894D01*
X160653592Y-64217154D01*
X160653596Y-64217159D01*
X160656158Y-64221067D01*
X160829804Y-64415621D01*
X161030300Y-64582371D01*
X161253240Y-64717655D01*
X161257548Y-64719462D01*
X161257549Y-64719462D01*
X161489413Y-64816691D01*
X161489418Y-64816693D01*
X161493728Y-64818500D01*
X161498260Y-64819651D01*
X161498263Y-64819652D01*
X161623765Y-64851525D01*
X161746480Y-64882690D01*
X161963072Y-64904500D01*
X162118206Y-64904500D01*
X162120531Y-64904327D01*
X162120537Y-64904327D01*
X162307407Y-64890440D01*
X162307411Y-64890439D01*
X162312059Y-64890094D01*
X162566405Y-64832542D01*
X162809450Y-64738027D01*
X162813504Y-64735710D01*
X162813508Y-64735708D01*
X162904295Y-64683818D01*
X163035855Y-64608625D01*
X163240647Y-64447180D01*
X163419326Y-64257239D01*
X163567968Y-64042973D01*
X163585760Y-64006894D01*
X163681241Y-63813278D01*
X163681242Y-63813275D01*
X163683306Y-63809090D01*
X163698488Y-63761663D01*
X163761382Y-63565179D01*
X163762807Y-63560728D01*
X163769393Y-63520292D01*
X163774634Y-63488113D01*
X174140527Y-63488113D01*
X174159162Y-63855971D01*
X174159699Y-63859326D01*
X174159700Y-63859332D01*
X174183336Y-64006894D01*
X174217416Y-64219665D01*
X174314608Y-64574941D01*
X174329156Y-64611872D01*
X174438751Y-64890094D01*
X174449602Y-64917642D01*
X174620817Y-65243759D01*
X174622718Y-65246588D01*
X174622724Y-65246598D01*
X174807707Y-65521879D01*
X174826252Y-65549477D01*
X175063502Y-65831221D01*
X175166006Y-65929176D01*
X175327329Y-66083341D01*
X175327336Y-66083347D01*
X175329792Y-66085694D01*
X175622008Y-66309919D01*
X175936731Y-66501274D01*
X176270279Y-66657519D01*
X176273497Y-66658621D01*
X176273500Y-66658622D01*
X176615528Y-66775725D01*
X176615536Y-66775727D01*
X176618751Y-66776828D01*
X176978070Y-66857804D01*
X177061002Y-66867253D01*
X177340650Y-66899115D01*
X177340658Y-66899115D01*
X177344033Y-66899500D01*
X177347437Y-66899518D01*
X177347440Y-66899518D01*
X177547074Y-66900563D01*
X177712358Y-66901428D01*
X177715744Y-66901078D01*
X177715746Y-66901078D01*
X178075345Y-66863918D01*
X178075354Y-66863917D01*
X178078737Y-66863567D01*
X178082070Y-66862853D01*
X178082073Y-66862852D01*
X178259488Y-66824817D01*
X178438884Y-66786358D01*
X178788586Y-66670705D01*
X179123752Y-66517961D01*
X179316208Y-66403689D01*
X179437516Y-66331662D01*
X179437521Y-66331659D01*
X179440461Y-66329913D01*
X179467091Y-66309919D01*
X179732276Y-66110812D01*
X179735009Y-66108760D01*
X180003950Y-65857089D01*
X180244138Y-65577846D01*
X180261838Y-65552093D01*
X180450831Y-65277104D01*
X180452762Y-65274295D01*
X180454374Y-65271301D01*
X180454379Y-65271293D01*
X180625761Y-64953001D01*
X180627383Y-64949989D01*
X180765958Y-64608720D01*
X180772774Y-64584794D01*
X180820111Y-64418614D01*
X180866865Y-64254482D01*
X180928925Y-63891418D01*
X180930888Y-63859332D01*
X180951301Y-63525572D01*
X180951411Y-63523775D01*
X180951494Y-63500000D01*
X180931575Y-63132209D01*
X180872052Y-62768720D01*
X180773620Y-62413786D01*
X180770443Y-62405801D01*
X180638690Y-62074722D01*
X180637431Y-62071558D01*
X180607358Y-62014760D01*
X180466677Y-61749060D01*
X180466673Y-61749053D01*
X180465078Y-61746041D01*
X180258578Y-61441041D01*
X180020346Y-61160128D01*
X179753168Y-60906586D01*
X179460172Y-60683382D01*
X179457260Y-60681625D01*
X179457255Y-60681622D01*
X179147705Y-60494889D01*
X179147696Y-60494884D01*
X179144783Y-60493127D01*
X179141693Y-60491693D01*
X179141688Y-60491690D01*
X178977737Y-60415587D01*
X178810691Y-60338047D01*
X178807466Y-60336955D01*
X178807460Y-60336953D01*
X178465032Y-60221048D01*
X178465027Y-60221047D01*
X178461805Y-60219956D01*
X178227920Y-60168104D01*
X178105536Y-60140972D01*
X178105532Y-60140971D01*
X178102206Y-60140234D01*
X177952624Y-60123720D01*
X177739482Y-60100189D01*
X177739475Y-60100189D01*
X177736100Y-60099816D01*
X177732701Y-60099810D01*
X177732700Y-60099810D01*
X177558979Y-60099507D01*
X177367770Y-60099173D01*
X177230556Y-60113837D01*
X177004910Y-60137951D01*
X177004904Y-60137952D01*
X177001526Y-60138313D01*
X176641650Y-60216779D01*
X176292354Y-60333652D01*
X176289261Y-60335075D01*
X176289260Y-60335075D01*
X176279674Y-60339484D01*
X175957723Y-60487565D01*
X175954789Y-60489321D01*
X175954787Y-60489322D01*
X175860763Y-60545594D01*
X175641672Y-60676718D01*
X175347898Y-60898897D01*
X175079837Y-61151505D01*
X175077625Y-61154095D01*
X175077624Y-61154096D01*
X174871298Y-61395673D01*
X174840626Y-61431585D01*
X174838698Y-61434412D01*
X174838696Y-61434414D01*
X174832251Y-61443862D01*
X174633062Y-61735862D01*
X174459574Y-62060776D01*
X174458299Y-62063948D01*
X174458297Y-62063952D01*
X174362900Y-62301262D01*
X174322192Y-62402526D01*
X174321273Y-62405794D01*
X174321271Y-62405801D01*
X174223442Y-62753837D01*
X174222521Y-62757115D01*
X174221959Y-62760472D01*
X174221959Y-62760473D01*
X174182436Y-62996656D01*
X174161729Y-63120393D01*
X174140527Y-63488113D01*
X163774634Y-63488113D01*
X163803974Y-63307955D01*
X163804725Y-63303344D01*
X163806380Y-63176875D01*
X163808077Y-63047267D01*
X163808077Y-63047264D01*
X163808138Y-63042590D01*
X163772972Y-62784196D01*
X163766058Y-62760473D01*
X163701311Y-62538337D01*
X163700000Y-62533838D01*
X163590823Y-62297016D01*
X163588260Y-62293106D01*
X163450408Y-62082846D01*
X163450404Y-62082841D01*
X163447842Y-62078933D01*
X163274196Y-61884379D01*
X163073700Y-61717629D01*
X162850760Y-61582345D01*
X162846451Y-61580538D01*
X162614587Y-61483309D01*
X162614582Y-61483307D01*
X162610272Y-61481500D01*
X162605740Y-61480349D01*
X162605737Y-61480348D01*
X162424868Y-61434414D01*
X162357520Y-61417310D01*
X162140928Y-61395500D01*
X161985794Y-61395500D01*
X161983469Y-61395673D01*
X161983463Y-61395673D01*
X161796593Y-61409560D01*
X161796589Y-61409561D01*
X161791941Y-61409906D01*
X161537595Y-61467458D01*
X161294550Y-61561973D01*
X161290496Y-61564290D01*
X161290492Y-61564292D01*
X161254669Y-61584767D01*
X161068145Y-61691375D01*
X160863353Y-61852820D01*
X160684674Y-62042761D01*
X160536032Y-62257027D01*
X160533966Y-62261217D01*
X160533964Y-62261220D01*
X160460291Y-62410616D01*
X160420694Y-62490910D01*
X160419272Y-62495353D01*
X160419271Y-62495355D01*
X160388977Y-62589993D01*
X160341193Y-62739272D01*
X160340443Y-62743879D01*
X160340442Y-62743882D01*
X160333122Y-62788827D01*
X160299275Y-62996656D01*
X160295862Y-63257410D01*
X103214356Y-63257410D01*
X103207575Y-63132209D01*
X103148052Y-62768720D01*
X103049620Y-62413786D01*
X103046443Y-62405801D01*
X102914690Y-62074722D01*
X102913431Y-62071558D01*
X102883358Y-62014760D01*
X102742677Y-61749060D01*
X102742673Y-61749053D01*
X102741078Y-61746041D01*
X102534578Y-61441041D01*
X102296346Y-61160128D01*
X102029168Y-60906586D01*
X101736172Y-60683382D01*
X101733260Y-60681625D01*
X101733255Y-60681622D01*
X101423705Y-60494889D01*
X101423696Y-60494884D01*
X101420783Y-60493127D01*
X101417693Y-60491693D01*
X101417688Y-60491690D01*
X101253737Y-60415587D01*
X101086691Y-60338047D01*
X101083466Y-60336955D01*
X101083460Y-60336953D01*
X100741032Y-60221048D01*
X100741027Y-60221047D01*
X100737805Y-60219956D01*
X100503920Y-60168104D01*
X100381536Y-60140972D01*
X100381532Y-60140971D01*
X100378206Y-60140234D01*
X100228624Y-60123720D01*
X100015482Y-60100189D01*
X100015475Y-60100189D01*
X100012100Y-60099816D01*
X100008701Y-60099810D01*
X100008700Y-60099810D01*
X99834979Y-60099507D01*
X99643770Y-60099173D01*
X99506556Y-60113837D01*
X99280910Y-60137951D01*
X99280904Y-60137952D01*
X99277526Y-60138313D01*
X98917650Y-60216779D01*
X98568354Y-60333652D01*
X98565261Y-60335075D01*
X98565260Y-60335075D01*
X98555674Y-60339484D01*
X98233723Y-60487565D01*
X98230789Y-60489321D01*
X98230787Y-60489322D01*
X98136763Y-60545594D01*
X97917672Y-60676718D01*
X97623898Y-60898897D01*
X97355837Y-61151505D01*
X97353625Y-61154095D01*
X97353624Y-61154096D01*
X97147298Y-61395673D01*
X97116626Y-61431585D01*
X97114698Y-61434412D01*
X97114696Y-61434414D01*
X97108251Y-61443862D01*
X96909062Y-61735862D01*
X96735574Y-62060776D01*
X96734299Y-62063948D01*
X96734297Y-62063952D01*
X96638900Y-62301262D01*
X96598192Y-62402526D01*
X96597273Y-62405794D01*
X96597271Y-62405801D01*
X96499442Y-62753837D01*
X96498521Y-62757115D01*
X96497959Y-62760472D01*
X96497959Y-62760473D01*
X96458436Y-62996656D01*
X96437729Y-63120393D01*
X96416527Y-63488113D01*
X94489000Y-63488113D01*
X94489000Y-58127000D01*
X94509002Y-58058879D01*
X94562658Y-58012386D01*
X94615000Y-58001000D01*
X182753000Y-58001000D01*
X182821121Y-58021002D01*
G37*
G04 #@! TD.AperFunction*
M02*
