M48
; DRILL file {KiCad (6.0.6)} date Sun Apr 23 18:48:10 2023
; FORMAT={-:-/ absolute / metric / decimal}
; #@! TF.CreationDate,2023-04-23T18:48:10-02:30
; #@! TF.GenerationSoftware,Kicad,Pcbnew,(6.0.6)
; #@! TF.FileFunction,Plated,1,2,PTH
FMAT,2
METRIC
; #@! TA.AperFunction,Plated,PTH,ComponentDrill
T1C0.500
; #@! TA.AperFunction,Plated,PTH,ComponentDrill
T2C0.800
; #@! TA.AperFunction,Plated,PTH,ComponentDrill
T3C0.900
; #@! TA.AperFunction,Plated,PTH,ComponentDrill
T4C0.920
; #@! TA.AperFunction,Plated,PTH,ComponentDrill
T5C1.000
; #@! TA.AperFunction,Plated,PTH,ComponentDrill
T6C1.020
; #@! TA.AperFunction,Plated,PTH,ComponentDrill
T7C1.650
; #@! TA.AperFunction,Plated,PTH,ComponentDrill
T8C2.330
; #@! TA.AperFunction,Plated,PTH,ComponentDrill
T9C3.200
%
G90
G05
T1
X97.422Y-63.5
X97.422Y-114.808
X98.125Y-61.803
X98.125Y-65.197
X98.125Y-113.111
X98.125Y-116.505
X99.822Y-61.1
X99.822Y-65.9
X99.822Y-112.408
X99.822Y-117.208
X101.519Y-61.803
X101.519Y-65.197
X101.519Y-113.111
X101.519Y-116.505
X102.222Y-63.5
X102.222Y-114.808
X175.146Y-63.5
X175.4Y-114.808
X175.849Y-61.803
X175.849Y-65.197
X176.103Y-113.111
X176.103Y-116.505
X177.546Y-61.1
X177.546Y-65.9
X177.8Y-112.408
X177.8Y-117.208
X179.243Y-61.803
X179.243Y-65.197
X179.497Y-113.111
X179.497Y-116.505
X179.946Y-63.5
X180.2Y-114.808
T2
X113.75Y-73.315
X113.75Y-83.475
X129.825Y-113.225
X132.325Y-113.225
X155.956Y-76.708
X166.116Y-76.708
T3
X98.2Y-71.125
X98.2Y-73.665
T4
X112.85Y-104.447
X112.85Y-106.447
X115.35Y-104.447
X115.35Y-106.447
T5
X129.794Y-82.296
X129.794Y-105.156
X132.334Y-82.296
X132.334Y-105.156
X134.874Y-82.296
X134.874Y-105.156
X137.414Y-82.296
X137.414Y-105.156
X139.954Y-82.296
X139.954Y-105.156
X142.494Y-82.296
X142.494Y-105.156
X145.034Y-82.296
X145.034Y-105.156
X147.574Y-82.296
X147.574Y-105.156
X150.114Y-82.296
X150.114Y-105.156
X152.654Y-82.296
X152.654Y-105.156
X155.194Y-82.296
X155.194Y-105.156
X157.734Y-82.296
X157.734Y-105.156
X160.274Y-82.296
X160.274Y-105.156
X162.814Y-82.296
X162.814Y-105.156
X165.354Y-82.296
X165.354Y-105.156
X167.894Y-82.296
X167.894Y-105.156
X170.434Y-82.296
X170.434Y-105.156
X172.974Y-82.296
X172.974Y-105.156
T6
X160.552Y-67.47
X163.552Y-67.47
T7
X102.884Y-85.166
X102.884Y-89.916
X102.884Y-94.666
T8
X108.08Y-109.157
X120.12Y-109.157
T9
X99.822Y-63.5
X99.822Y-114.808
X177.546Y-63.5
X177.8Y-114.808
T0
M30
