%FSLAX45Y45*%
G04 Gerber Fmt 4.5, Leading zero omitted, Abs format (unit mm)*
G04 Created by KiCad (PCBNEW (6.0.6)) date 2023-04-23 18:48:30*
%MOMM*%
%LPD*%
G01*
G04 APERTURE LIST*
%TA.AperFunction,Profile*%
%ADD10C,0.150000*%
%TD*%
%ADD11C,0.200000*%
%ADD12C,0.300000*%
G04 APERTURE END LIST*
D10*
X9448800Y-5800000D02*
X18288000Y-5800000D01*
X18288000Y-12000000D02*
X18288000Y-5800000D01*
X9448800Y-12001000D02*
X18288000Y-12000000D01*
X9448800Y-5800000D02*
X9448800Y-12001000D01*
D11*
D12*
X16055200Y-6165000D02*
X16355200Y-6465000D01*
X16355200Y-6165000D02*
X16055200Y-6465000D01*
D11*
X9698919Y-12318976D02*
X9698919Y-12118976D01*
X9746538Y-12118976D01*
X9775110Y-12128500D01*
X9794157Y-12147548D01*
X9803681Y-12166595D01*
X9813205Y-12204690D01*
X9813205Y-12233262D01*
X9803681Y-12271357D01*
X9794157Y-12290405D01*
X9775110Y-12309452D01*
X9746538Y-12318976D01*
X9698919Y-12318976D01*
X9898919Y-12318976D02*
X9898919Y-12185643D01*
X9898919Y-12223738D02*
X9908443Y-12204690D01*
X9917967Y-12195167D01*
X9937014Y-12185643D01*
X9956062Y-12185643D01*
X10022729Y-12318976D02*
X10022729Y-12185643D01*
X10022729Y-12118976D02*
X10013205Y-12128500D01*
X10022729Y-12138024D01*
X10032252Y-12128500D01*
X10022729Y-12118976D01*
X10022729Y-12138024D01*
X10146538Y-12318976D02*
X10127490Y-12309452D01*
X10117967Y-12290405D01*
X10117967Y-12118976D01*
X10251300Y-12318976D02*
X10232252Y-12309452D01*
X10222729Y-12290405D01*
X10222729Y-12118976D01*
X10479871Y-12318976D02*
X10479871Y-12118976D01*
X10546538Y-12261833D01*
X10613205Y-12118976D01*
X10613205Y-12318976D01*
X10794157Y-12318976D02*
X10794157Y-12214214D01*
X10784633Y-12195167D01*
X10765586Y-12185643D01*
X10727490Y-12185643D01*
X10708443Y-12195167D01*
X10794157Y-12309452D02*
X10775110Y-12318976D01*
X10727490Y-12318976D01*
X10708443Y-12309452D01*
X10698919Y-12290405D01*
X10698919Y-12271357D01*
X10708443Y-12252309D01*
X10727490Y-12242786D01*
X10775110Y-12242786D01*
X10794157Y-12233262D01*
X10889395Y-12185643D02*
X10889395Y-12385643D01*
X10889395Y-12195167D02*
X10908443Y-12185643D01*
X10946538Y-12185643D01*
X10965586Y-12195167D01*
X10975110Y-12204690D01*
X10984633Y-12223738D01*
X10984633Y-12280881D01*
X10975110Y-12299928D01*
X10965586Y-12309452D01*
X10946538Y-12318976D01*
X10908443Y-12318976D01*
X10889395Y-12309452D01*
X11070348Y-12299928D02*
X11079871Y-12309452D01*
X11070348Y-12318976D01*
X11060824Y-12309452D01*
X11070348Y-12299928D01*
X11070348Y-12318976D01*
X11070348Y-12195167D02*
X11079871Y-12204690D01*
X11070348Y-12214214D01*
X11060824Y-12204690D01*
X11070348Y-12195167D01*
X11070348Y-12214214D01*
X9241300Y-12548500D02*
X9441300Y-12748500D01*
X9441300Y-12548500D02*
X9241300Y-12748500D01*
X9679871Y-12538976D02*
X9803681Y-12538976D01*
X9737014Y-12615167D01*
X9765586Y-12615167D01*
X9784633Y-12624690D01*
X9794157Y-12634214D01*
X9803681Y-12653262D01*
X9803681Y-12700881D01*
X9794157Y-12719928D01*
X9784633Y-12729452D01*
X9765586Y-12738976D01*
X9708443Y-12738976D01*
X9689395Y-12729452D01*
X9679871Y-12719928D01*
X9889395Y-12719928D02*
X9898919Y-12729452D01*
X9889395Y-12738976D01*
X9879871Y-12729452D01*
X9889395Y-12719928D01*
X9889395Y-12738976D01*
X10022729Y-12538976D02*
X10041776Y-12538976D01*
X10060824Y-12548500D01*
X10070348Y-12558024D01*
X10079871Y-12577071D01*
X10089395Y-12615167D01*
X10089395Y-12662786D01*
X10079871Y-12700881D01*
X10070348Y-12719928D01*
X10060824Y-12729452D01*
X10041776Y-12738976D01*
X10022729Y-12738976D01*
X10003681Y-12729452D01*
X9994157Y-12719928D01*
X9984633Y-12700881D01*
X9975110Y-12662786D01*
X9975110Y-12615167D01*
X9984633Y-12577071D01*
X9994157Y-12558024D01*
X10003681Y-12548500D01*
X10022729Y-12538976D01*
X10213205Y-12538976D02*
X10232252Y-12538976D01*
X10251300Y-12548500D01*
X10260824Y-12558024D01*
X10270348Y-12577071D01*
X10279871Y-12615167D01*
X10279871Y-12662786D01*
X10270348Y-12700881D01*
X10260824Y-12719928D01*
X10251300Y-12729452D01*
X10232252Y-12738976D01*
X10213205Y-12738976D01*
X10194157Y-12729452D01*
X10184633Y-12719928D01*
X10175110Y-12700881D01*
X10165586Y-12662786D01*
X10165586Y-12615167D01*
X10175110Y-12577071D01*
X10184633Y-12558024D01*
X10194157Y-12548500D01*
X10213205Y-12538976D01*
X10403681Y-12538976D02*
X10422729Y-12538976D01*
X10441776Y-12548500D01*
X10451300Y-12558024D01*
X10460824Y-12577071D01*
X10470348Y-12615167D01*
X10470348Y-12662786D01*
X10460824Y-12700881D01*
X10451300Y-12719928D01*
X10441776Y-12729452D01*
X10422729Y-12738976D01*
X10403681Y-12738976D01*
X10384633Y-12729452D01*
X10375110Y-12719928D01*
X10365586Y-12700881D01*
X10356062Y-12662786D01*
X10356062Y-12615167D01*
X10365586Y-12577071D01*
X10375110Y-12558024D01*
X10384633Y-12548500D01*
X10403681Y-12538976D01*
X10556062Y-12738976D02*
X10556062Y-12605643D01*
X10556062Y-12624690D02*
X10565586Y-12615167D01*
X10584633Y-12605643D01*
X10613205Y-12605643D01*
X10632252Y-12615167D01*
X10641776Y-12634214D01*
X10641776Y-12738976D01*
X10641776Y-12634214D02*
X10651300Y-12615167D01*
X10670348Y-12605643D01*
X10698919Y-12605643D01*
X10717967Y-12615167D01*
X10727490Y-12634214D01*
X10727490Y-12738976D01*
X10822729Y-12738976D02*
X10822729Y-12605643D01*
X10822729Y-12624690D02*
X10832252Y-12615167D01*
X10851300Y-12605643D01*
X10879871Y-12605643D01*
X10898919Y-12615167D01*
X10908443Y-12634214D01*
X10908443Y-12738976D01*
X10908443Y-12634214D02*
X10917967Y-12615167D01*
X10937014Y-12605643D01*
X10965586Y-12605643D01*
X10984633Y-12615167D01*
X10994157Y-12634214D01*
X10994157Y-12738976D01*
X11384633Y-12529452D02*
X11213205Y-12786595D01*
X11641776Y-12538976D02*
X11660824Y-12538976D01*
X11679871Y-12548500D01*
X11689395Y-12558024D01*
X11698919Y-12577071D01*
X11708443Y-12615167D01*
X11708443Y-12662786D01*
X11698919Y-12700881D01*
X11689395Y-12719928D01*
X11679871Y-12729452D01*
X11660824Y-12738976D01*
X11641776Y-12738976D01*
X11622728Y-12729452D01*
X11613205Y-12719928D01*
X11603681Y-12700881D01*
X11594157Y-12662786D01*
X11594157Y-12615167D01*
X11603681Y-12577071D01*
X11613205Y-12558024D01*
X11622728Y-12548500D01*
X11641776Y-12538976D01*
X11794157Y-12719928D02*
X11803681Y-12729452D01*
X11794157Y-12738976D01*
X11784633Y-12729452D01*
X11794157Y-12719928D01*
X11794157Y-12738976D01*
X11994157Y-12738976D02*
X11879871Y-12738976D01*
X11937014Y-12738976D02*
X11937014Y-12538976D01*
X11917967Y-12567548D01*
X11898919Y-12586595D01*
X11879871Y-12596119D01*
X12184633Y-12738976D02*
X12070348Y-12738976D01*
X12127490Y-12738976D02*
X12127490Y-12538976D01*
X12108443Y-12567548D01*
X12089395Y-12586595D01*
X12070348Y-12596119D01*
X12298919Y-12624690D02*
X12279871Y-12615167D01*
X12270348Y-12605643D01*
X12260824Y-12586595D01*
X12260824Y-12577071D01*
X12270348Y-12558024D01*
X12279871Y-12548500D01*
X12298919Y-12538976D01*
X12337014Y-12538976D01*
X12356062Y-12548500D01*
X12365586Y-12558024D01*
X12375109Y-12577071D01*
X12375109Y-12586595D01*
X12365586Y-12605643D01*
X12356062Y-12615167D01*
X12337014Y-12624690D01*
X12298919Y-12624690D01*
X12279871Y-12634214D01*
X12270348Y-12643738D01*
X12260824Y-12662786D01*
X12260824Y-12700881D01*
X12270348Y-12719928D01*
X12279871Y-12729452D01*
X12298919Y-12738976D01*
X12337014Y-12738976D01*
X12356062Y-12729452D01*
X12365586Y-12719928D01*
X12375109Y-12700881D01*
X12375109Y-12662786D01*
X12365586Y-12643738D01*
X12356062Y-12634214D01*
X12337014Y-12624690D01*
X12565586Y-12738976D02*
X12451300Y-12738976D01*
X12508443Y-12738976D02*
X12508443Y-12538976D01*
X12489395Y-12567548D01*
X12470348Y-12586595D01*
X12451300Y-12596119D01*
X12641776Y-12538976D02*
X12641776Y-12577071D01*
X12717967Y-12538976D02*
X12717967Y-12577071D01*
X13013205Y-12815167D02*
X13003681Y-12805643D01*
X12984633Y-12777071D01*
X12975109Y-12758024D01*
X12965586Y-12729452D01*
X12956062Y-12681833D01*
X12956062Y-12643738D01*
X12965586Y-12596119D01*
X12975109Y-12567548D01*
X12984633Y-12548500D01*
X13003681Y-12519928D01*
X13013205Y-12510405D01*
X13194157Y-12738976D02*
X13079871Y-12738976D01*
X13137014Y-12738976D02*
X13137014Y-12538976D01*
X13117967Y-12567548D01*
X13098919Y-12586595D01*
X13079871Y-12596119D01*
X13432252Y-12738976D02*
X13432252Y-12538976D01*
X13517967Y-12738976D02*
X13517967Y-12634214D01*
X13508443Y-12615167D01*
X13489395Y-12605643D01*
X13460824Y-12605643D01*
X13441776Y-12615167D01*
X13432252Y-12624690D01*
X13641776Y-12738976D02*
X13622728Y-12729452D01*
X13613205Y-12719928D01*
X13603681Y-12700881D01*
X13603681Y-12643738D01*
X13613205Y-12624690D01*
X13622728Y-12615167D01*
X13641776Y-12605643D01*
X13670348Y-12605643D01*
X13689395Y-12615167D01*
X13698919Y-12624690D01*
X13708443Y-12643738D01*
X13708443Y-12700881D01*
X13698919Y-12719928D01*
X13689395Y-12729452D01*
X13670348Y-12738976D01*
X13641776Y-12738976D01*
X13822728Y-12738976D02*
X13803681Y-12729452D01*
X13794157Y-12710405D01*
X13794157Y-12538976D01*
X13975109Y-12729452D02*
X13956062Y-12738976D01*
X13917967Y-12738976D01*
X13898919Y-12729452D01*
X13889395Y-12710405D01*
X13889395Y-12634214D01*
X13898919Y-12615167D01*
X13917967Y-12605643D01*
X13956062Y-12605643D01*
X13975109Y-12615167D01*
X13984633Y-12634214D01*
X13984633Y-12653262D01*
X13889395Y-12672309D01*
X14051300Y-12815167D02*
X14060824Y-12805643D01*
X14079871Y-12777071D01*
X14089395Y-12758024D01*
X14098919Y-12729452D01*
X14108443Y-12681833D01*
X14108443Y-12643738D01*
X14098919Y-12596119D01*
X14089395Y-12567548D01*
X14079871Y-12548500D01*
X14060824Y-12519928D01*
X14051300Y-12510405D01*
X14413205Y-12815167D02*
X14403681Y-12805643D01*
X14384633Y-12777071D01*
X14375109Y-12758024D01*
X14365586Y-12729452D01*
X14356062Y-12681833D01*
X14356062Y-12643738D01*
X14365586Y-12596119D01*
X14375109Y-12567548D01*
X14384633Y-12548500D01*
X14403681Y-12519928D01*
X14413205Y-12510405D01*
X14489395Y-12605643D02*
X14489395Y-12738976D01*
X14489395Y-12624690D02*
X14498919Y-12615167D01*
X14517967Y-12605643D01*
X14546538Y-12605643D01*
X14565586Y-12615167D01*
X14575109Y-12634214D01*
X14575109Y-12738976D01*
X14698919Y-12738976D02*
X14679871Y-12729452D01*
X14670348Y-12719928D01*
X14660824Y-12700881D01*
X14660824Y-12643738D01*
X14670348Y-12624690D01*
X14679871Y-12615167D01*
X14698919Y-12605643D01*
X14727490Y-12605643D01*
X14746538Y-12615167D01*
X14756062Y-12624690D01*
X14765586Y-12643738D01*
X14765586Y-12700881D01*
X14756062Y-12719928D01*
X14746538Y-12729452D01*
X14727490Y-12738976D01*
X14698919Y-12738976D01*
X14822728Y-12605643D02*
X14898919Y-12605643D01*
X14851300Y-12538976D02*
X14851300Y-12710405D01*
X14860824Y-12729452D01*
X14879871Y-12738976D01*
X14898919Y-12738976D01*
X15117967Y-12605643D02*
X15117967Y-12805643D01*
X15117967Y-12615167D02*
X15137014Y-12605643D01*
X15175109Y-12605643D01*
X15194157Y-12615167D01*
X15203681Y-12624690D01*
X15213205Y-12643738D01*
X15213205Y-12700881D01*
X15203681Y-12719928D01*
X15194157Y-12729452D01*
X15175109Y-12738976D01*
X15137014Y-12738976D01*
X15117967Y-12729452D01*
X15327490Y-12738976D02*
X15308443Y-12729452D01*
X15298919Y-12710405D01*
X15298919Y-12538976D01*
X15489395Y-12738976D02*
X15489395Y-12634214D01*
X15479871Y-12615167D01*
X15460824Y-12605643D01*
X15422728Y-12605643D01*
X15403681Y-12615167D01*
X15489395Y-12729452D02*
X15470348Y-12738976D01*
X15422728Y-12738976D01*
X15403681Y-12729452D01*
X15394157Y-12710405D01*
X15394157Y-12691357D01*
X15403681Y-12672309D01*
X15422728Y-12662786D01*
X15470348Y-12662786D01*
X15489395Y-12653262D01*
X15556062Y-12605643D02*
X15632252Y-12605643D01*
X15584633Y-12538976D02*
X15584633Y-12710405D01*
X15594157Y-12729452D01*
X15613205Y-12738976D01*
X15632252Y-12738976D01*
X15775109Y-12729452D02*
X15756062Y-12738976D01*
X15717967Y-12738976D01*
X15698919Y-12729452D01*
X15689395Y-12710405D01*
X15689395Y-12634214D01*
X15698919Y-12615167D01*
X15717967Y-12605643D01*
X15756062Y-12605643D01*
X15775109Y-12615167D01*
X15784633Y-12634214D01*
X15784633Y-12653262D01*
X15689395Y-12672309D01*
X15956062Y-12738976D02*
X15956062Y-12538976D01*
X15956062Y-12729452D02*
X15937014Y-12738976D01*
X15898919Y-12738976D01*
X15879871Y-12729452D01*
X15870348Y-12719928D01*
X15860824Y-12700881D01*
X15860824Y-12643738D01*
X15870348Y-12624690D01*
X15879871Y-12615167D01*
X15898919Y-12605643D01*
X15937014Y-12605643D01*
X15956062Y-12615167D01*
X16032252Y-12815167D02*
X16041776Y-12805643D01*
X16060824Y-12777071D01*
X16070348Y-12758024D01*
X16079871Y-12729452D01*
X16089395Y-12681833D01*
X16089395Y-12643738D01*
X16079871Y-12596119D01*
X16070348Y-12567548D01*
X16060824Y-12548500D01*
X16041776Y-12519928D01*
X16032252Y-12510405D01*
M02*
